<svg xmlns="http://www.w3.org/2000/svg" viewBox="0 0 105 105"><linearGradient id="a" x1="55.31" x2="36.81" y1="80.8" y2="11.94" gradientUnits="userSpaceOnUse"><stop offset=".05" stop-color="#6b57ff"/><stop offset=".12" stop-color="#7556fe"/><stop offset=".24" stop-color="#8f53fb"/><stop offset=".4" stop-color="#ba4df5"/><stop offset=".58" stop-color="#f446ee"/><stop offset=".61" stop-color="#ff45ed"/><stop offset=".69" stop-color="#ff3bbe"/><stop offset=".77" stop-color="#ff318c"/><stop offset=".99" stop-color="#fc801d"/></linearGradient><linearGradient id="b" x1="97.51" x2="61.4" y1="71.42" y2="59.53" gradientUnits="userSpaceOnUse"><stop offset=".03" stop-color="#6b57ff"/><stop offset=".39" stop-color="#ff45ed"/><stop offset=".49" stop-color="#ff4dd1"/><stop offset=".7" stop-color="#fe6189"/><stop offset="1" stop-color="#fc801d"/></linearGradient><path fill="url(#a)" d="M63.2 4.5 4.5 11.11v30.18l14.72 49 73.81-18.71z"/><path fill="url(#b)" d="M94.94 34.96 71.81 23.88 39.36 82.3l8.82 11.96 22.48 6.24L92.3 86.85l8.2-25.7z"/><path d="M22.5 22.5h60v60h-60z"/><path fill="#fff" d="M29.98 71.16h22.5v3.75h-22.5zM30 29.92h8.8c7.09 0 12 4.87 12 11.22v.07c0 6.35-4.9 11.28-12 11.28H30zm5 4.48V48h3.84a6.43 6.43 0 0 0 6.8-6.74v-.06a6.49 6.49 0 0 0-6.8-6.81zm18.15 6.97v-.06A11.53 11.53 0 0 1 65 29.58a11.72 11.72 0 0 1 8.94 3.49l-3.18 3.67a8.36 8.36 0 0 0-5.8-2.56c-3.82 0-6.57 3.17-6.57 7.06v.07c0 3.89 2.68 7.13 6.57 7.13 2.6 0 4.18-1 6-2.66L74.08 49a11.6 11.6 0 0 1-9.3 4 11.45 11.45 0 0 1-11.63-11.63"/></svg>