<svg height="257" preserveAspectRatio="xMidYMid" viewBox="0 0 256 257" width="256" xmlns="http://www.w3.org/2000/svg" xmlns:xlink="http://www.w3.org/1999/xlink"><linearGradient id="a" x1="25.176805%" x2="99.172058%" y1="43.309146%" y2="67.433805%"><stop offset=".21" stop-color="#fe2857"/><stop offset="1" stop-color="#293896"/></linearGradient><linearGradient id="b" x1="2.278347%" x2="90.6955%" y1="77.149547%" y2="24.093367%"><stop offset="0" stop-color="#fe2857"/><stop offset=".01" stop-color="#fe2857"/><stop offset=".86" stop-color="#ff318c"/></linearGradient><linearGradient id="c" x1="6.298673%" x2="94.643871%" y1="13.918251%" y2="87.693793%"><stop offset=".02" stop-color="#ff318c"/><stop offset=".21" stop-color="#fe2857"/><stop offset=".86" stop-color="#fdb60d"/></linearGradient><linearGradient id="d" x1="91.086906%" x2="1.966589%" y1="27.720844%" y2="68.621516%"><stop offset=".01" stop-color="#fdb60d"/><stop offset=".86" stop-color="#fcf84a"/></linearGradient><path d="m112.662631 117.374211-70.6097961-59.7664535c-7.8862515-6.5994599-18.9547156-7.8428332-28.1086331-3.1575765-9.15391747 4.6852568-14.61843153 14.3907171-13.87726603 24.6472521.7411655 10.2565349 7.54430569 19.0755007 17.27673953 22.3959779h.256142l.665969.204913 89.0690927 27.13397c.646309.233517 1.327791.354798 2.014983.358599 2.845502-.014804 5.335991-1.915235 6.101469-4.655882.765477-2.740647-.379781-5.656562-2.805776-7.143724z" fill="url(#a)"/><path d="m126.819084 18.7083342c.041058-6.8485777-3.685285-13.16559946-9.699367-16.44211417-6.014082-3.2765147-13.342366-2.98213202-19.074253.76622719l-86.2344547 52.35541348c-7.99033119 5.2079821-12.42526314 14.4242228-11.50949125 23.917896.91577189 9.4936733 7.03056178 17.6922743 15.86904185 21.2769273 8.8384801 3.584654 18.9366698 1.961608 26.2067215-4.2121122l77.3036386-62.9938422.614741-.5122839c4.134921-3.541492 6.517414-8.7118754 6.523423-14.1561115z" fill="url(#b)"/><path d="m252.225838 131.530323-130.837305-126.00476085c-4.824738-4.84200065-11.913651-6.65301635-18.469607-4.71845916-6.5559561 1.93455718-11.5260354 7.30398785-12.9491514 13.98962981-1.4231161 6.685642.9292905 13.6137483 6.1290106 18.0506368l.2390658.2049135 138.999695 117.1080969c3.744477 3.140961 8.970286 3.826296 13.398048 1.757078 4.427762-2.069219 7.254398-6.51769 7.247008-11.405091 0-3.375996-1.353457-6.611081-3.756764-8.982044z" fill="url(#c)"/><path d="m256 140.563595c.03427-4.736016-2.600054-9.088212-6.812099-11.253788-4.212046-2.165576-9.284449-1.775708-13.116081 1.008111l-158.312798 77.354867c-8.6057946 4.324195-14.058552 13.110315-14.113889 22.741273-.0544998 9.630958 5.2977045 18.478691 13.8536255 22.900747s18.8692255 3.67091 26.6941125-1.944204l146.393659-100.475947c3.392039-2.345269 5.415563-6.2072 5.41347-10.331059z" fill="url(#d)"/><path d="m75.8464955 76.8867079h102.4567775v102.4567781h-102.4567775z"/><path d="m86.9972081 160.13284h38.4212919v6.403549h-38.4212919zm-1.6051562-56.82936 2.8517137-2.698028c.5504719.868689 1.4838032 1.421068 2.510191 1.485623 1.0928723 0 1.8100698-.768426 1.8100698-2.2540489v-10.1090687h4.4056414v10.143221c.1331612 1.6515766-.4373799 3.2825796-1.5710039 4.4910216-1.0797438 1.054515-2.5130137 1.661006-4.0124847 1.707674l-.3760806-.000061c-2.0898387.084183-4.0859578-.833225-5.3831595-2.454223zm13.558447-13.5755226h12.8583251v3.7396724h-8.538064v2.4418865h7.667182v3.415226h-7.598878v2.5443437h8.538065v3.756748h-12.9778585zm19.1252651 3.8762814h-4.781316v-3.8762814h14.019502v3.8762814h-4.798392v12.1069762h-4.439794zm-30.9077946 18.4251442h7.5476493c1.5827548-.130173 3.1515205.380445 4.3544131 1.417318.6858771.687446 1.0620112 1.624699 1.0416442 2.595572.026208 1.597769-.9702351 3.034021-2.4760391 3.568911 1.8768969.344041 3.2242431 2.002872 3.1761601 3.910434 0 2.885866-2.236973 4.593479-6.062026 4.593479h-7.5818016zm8.5380648 4.935001c0-.887959-.7171974-1.36609-2.0149833-1.36609h-2.2028207v2.800485h2.1345162c1.3319381 0 2.1174401-.461055 2.1174401-1.383166zm-1.5368516 4.542251h-2.6809524v2.95417h2.766333c1.3660904 0 2.1174401-.52936 2.1174401-1.468547-.0318755-.844699-.5992583-1.40677-1.8826345-1.477958zm17.1785864 6.608462-3.227389-4.849621h-1.485623v4.849621h-4.439794l.034153-16.085714h7.086594c1.895066-.154329 3.772413.461195 5.208219 1.707613.888326.907574 1.393812 2.116432 1.421643 3.377547l-.004324.345049c.063078 2.178586-1.259188 4.15856-3.295693 4.935001l3.119809 4.666907 6.340367-15.15165h4.269032l6.830452 16.119866h-4.76424l-1.144101-2.885866h-6.198635l-1.144101 2.971247zm12.858326-10.945799-1.81007 4.525174h3.603063zm-15.163604-1.297786h-2.373582v3.876281l2.390659-.034152c1.485623 0 2.390658-.734274 2.390658-1.912526 0-1.28071-.939187-1.929603-2.407735-1.929603zm24.862845-3.893358h4.439794v16.000334h-4.439794zm6.079102 0h4.166576l5.754656 8.538065v-8.538065h4.388565v16.000334h-3.876281l-6.027874-8.777131v8.777131h-4.405642zm15.044071 13.626752 2.458962-2.954171c1.440225 1.204087 3.246134 1.884313 5.122839 1.929603 1.212405 0 1.844222-.426903 1.844222-1.109948 0-.515879-.278137-.837062-1.305782-1.175323l-.487682-.146632c-.089386-.024819-.18294-.049879-.280834-.075258l-.640806-.156715-.350363-.081838-.681765-.168801-.653518-.179303c-2.552829-.744088-4.342228-1.845894-4.342228-4.573364 0-2.971247 2.356506-5.122839 6.198635-5.122839 2.374994-.088991 4.704558.667361 6.57431 2.134516l-2.134516 3.039551c-1.291728-.976047-2.855574-1.525184-4.473946-1.571004-1.075797 0-1.605157.426903-1.605157 1.024568 0 .541044.29668.859577 1.347747 1.18787l.497979.141972c.091139.023987.186461.048193.286132.072704l.651552.151382c3.671367.802578 5.942493 1.997907 5.942493 4.98623 0 3.152822-2.409461 4.997196-6.071523 5.116651l-.383254.006188c-2.552141.108665-5.059384-.658229-7.109658-2.164885z" fill="#fff"/></svg>