<svg xmlns="http://www.w3.org/2000/svg" viewBox="0 0 105 105"><linearGradient id="a" x1="11.53" x2="40.6" y1="28.11" y2="101.64" gradientUnits="userSpaceOnUse"><stop offset=".22" stop-color="#dd1265"/><stop offset=".74" stop-color="#ff45ed"/><stop offset="1" stop-color="#fdb60d"/></linearGradient><linearGradient id="b" x1="5982.64" x2="6053.73" y1="104.89" y2="29.27" gradientTransform="matrix(-1 0 0 1 6058.84 0)" gradientUnits="userSpaceOnUse"><stop offset=".11" stop-color="#fdb60d"/><stop offset=".51" stop-color="#ff45ed"/><stop offset=".76" stop-color="#ff45ed"/><stop offset="1" stop-color="#fdb60d"/></linearGradient><linearGradient id="c" x1="39.47" x2="100.45" y1="1.73" y2="74.55" gradientUnits="userSpaceOnUse"><stop offset=".18" stop-color="#fdb60d"/><stop offset=".49" stop-color="#ff45ed"/><stop offset=".82" stop-color="#dd1265"/></linearGradient><path fill="url(#a)" d="m30.41 25.89-2.82 50.25-7.25 24.24L4.5 36.01z"/><path fill="url(#b)" d="m30.41 25.89 2.91-21.51 38.68 96H20.34l7.25-24.24z"/><path fill="url(#c)" d="M52.85 68.93h47.65L84.57 4.38H33.32z"/><path d="M22.5 22.5h60v60h-60z"/><path fill="#fff" d="M29.98 71.16h22.5v3.75h-22.5zM30 29.94h10.28a8.9 8.9 0 0 1 6.57 2.29 7 7 0 0 1 1.94 5.16v.07a7.1 7.1 0 0 1-1.34 4.46A7.76 7.76 0 0 1 44 44.45l5.51 8.06h-5.8L39 45.58h-4.1v6.93H30zm10 11a4.15 4.15 0 0 0 2.78-.94 3 3 0 0 0 1-2.32v-.06a2.9 2.9 0 0 0-1-2.42 4.55 4.55 0 0 0-2.87-.8h-4.99v6.5zm25.16-3.55H60v-4.55h5.12v-5.08h4.68v5.08H75v4.55h-5.16v5.08h-4.68zM55.37 49.7h-5.11v-4.55h5.11v-5.08h4.68v5.08h5.11v4.55h-5.11v5.08h-4.68z"/></svg>