<svg height="108" preserveAspectRatio="xMidYMid" viewBox="0 0 512 108" width="512" xmlns="http://www.w3.org/2000/svg"><path d="m512 80.8085784h-10.752176v-28.0990208c.036755-2.9305365-.618137-5.8284336-1.911498-8.4583787-1.211643-2.5038951-3.077402-4.6338324-5.399982-6.1645811-3.373962-2.2528855-7.581097-2.872069-11.461071-1.6867787-3.879974 1.1852904-7.02287 4.0498294-8.561871 7.8035724-1.213886 2.6688564-1.817897 5.5746413-1.768135 8.5061661v28.0990208h-10.752177v-53.8564565h10.752177v7.5026297c1.911498-2.867247 4.253083-5.0654697 6.92918-6.6424556 2.727946-1.5835511 5.829844-2.4085239 8.98404-2.3896985 4.683171 0 8.840679 1.2427997 12.424737 3.6321722 3.631847 2.43716 6.451306 5.7344941 8.458379 9.8442148 1.959286 4.1097207 3.01061 8.6495285 3.058397 13.5716359zm-114.689881-53.8564565h10.752177v28.0034459c0 3.0583968.621237 5.9256438 1.911498 8.4583787 1.290261 2.5805223 3.106184 4.6353826 5.352194 6.1167936 4.539165 3.0422042 10.466095 3.0422042 15.00526 0 2.150435-1.481411 3.822996-3.5362713 5.065469-6.1167936 1.194687-2.5327349 1.768136-5.3999819 1.768136-8.4583787v-28.0034459h10.752176v53.8564565h-10.704389v-7.5504172c-1.911498 2.867247-4.30087 5.0176823-6.976967 6.6424556-2.723885 1.5769859-5.686707 2.3893725-8.936254 2.3893725-4.68317 0-8.840678-1.2424737-12.424737-3.6796337-3.657437-2.4565404-6.580556-5.8585882-8.458378-9.8442147-2.033206-4.251176-3.078747-8.907098-3.058397-13.6194233v-28.1468082zm-23.41585 35.8405877c-1.227769 2.6667601-3.161159 4.9471682-5.591132 6.5946681-5.083094 3.1945731-11.546938 3.1945731-16.630033 0-5.242658-3.4222827-8.391535-9.2701976-8.362998-15.5309213 0-3.2495466.717006-6.2123685 2.198417-8.9840406 1.433624-2.7716721 3.488484-4.9698949 6.069007-6.5468807 5.094559-3.2146353 11.58326-3.2146353 16.67782 0 2.389372 1.5769858 4.30087 3.822996 5.638919 6.5468807 1.338048 2.7238846 2.007073 5.734494 2.007073 8.9840406s-.669025 6.2123685-2.007073 8.9840407zm2.723884-35.8405877v7.9327168c-1.744069-2.8333811-4.156019-5.1961077-7.024755-6.8813929-2.934218-1.6849015-6.270006-2.543619-9.653065-2.4849474-5.017682 0-9.653065 1.2424737-13.85836 3.822996-8.640186 5.1356504-13.913442 14.4638584-13.858788 24.514962-.044957 10.0485783 5.225766 19.3723053 13.858788 24.514962 4.205295 2.5327349 8.840678 3.822996 13.85836 3.822996 3.584059 0 6.785818-.8123866 9.653065-2.4849474 2.864018-1.691443 5.274626-4.052855 7.024755-6.8813928v9.4141277c0 2.7716721-.860174 5.2566195-2.484947 7.5026296-1.672561 2.2460102-3.822996 4.0141459-6.499093 5.2566196-2.690256 1.266468-5.6283 1.9193666-8.601741 1.911498-5.459705-.2150042-10.517246-2.9288068-13.714998-7.3592674h-12.090225c2.757165 7.037515 8.160655 12.7154673 15.053046 15.8176463 3.440697 1.576986 7.024756 2.389372 10.752177 2.389372 4.922107 0 9.55749-1.146899 13.906148-3.345121 4.30087-2.198223 7.837142-5.2566198 10.465451-9.1751907 2.62831-3.8707834 3.966359-8.2194414 3.966359-12.9981864v-55.2422925h-10.752177zm-63.413946 53.808669h10.704389v-80.7607909h-10.704389zm-13.093761-67.0457927c.198249 2.1649251-.844765 4.2558036-2.693536 5.3995922-1.84877 1.1437887-4.18536 1.1437887-6.03413 0-1.84877-1.1437886-2.891785-3.2346671-2.693535-5.3995922.270334-2.9520978 2.746151-5.2115543 5.7106-5.2115543 2.96445 0 5.440267 2.2594565 5.710601 5.2115543m-11.086689 67.0935802h10.752176v-53.8564565h-10.752176zm-41.192782-8.9840407c2.985065.0536838 5.916697-.7958232 8.410591-2.43716 2.389373-1.6247733 4.300871-3.822996 5.638919-6.4990932 1.385837-2.7238846 2.054861-5.734494 2.054861-9.0318281 0-3.3451215-.669024-6.3557309-2.054861-9.0796155-1.255407-2.6376985-3.204623-4.8842536-5.638919-6.4990933-5.253407-3.2011152-11.854499-3.2011152-17.107907 0-5.458137 3.2758544-8.755003 9.2138554-8.649528 15.5787088-.029406 6.3573343 3.29399 12.2595409 8.745103 15.5309213 2.676097 1.6247734 5.543344 2.3893726 8.601741 2.3893726zm27.716721-44.9202032v53.9042439h-10.704389v-8.2194415c-3.5343 6.0659649-10.089495 9.728085-17.107907 9.5574901-15.556505-.2063954-28.110031-12.7811262-28.29017-28.337958.077555-15.6153858 12.675376-28.2770475 28.29017-28.4335329 7.038346-.1511087 13.59828 3.5503063 17.107907 9.6530649v-8.1238665h10.752177zm-146.516322 0h10.752176v6.2123685c1.194686-1.5769858 2.389373-2.867247 3.584059-3.822996 2.518568-2.0527834 5.688047-3.1375249 8.936253-3.0583968 3.966358 0 7.454842.955749 10.513239 2.7238846 3.106184 1.7681357 5.734494 4.3008706 7.837142 7.5504172 3.788573-6.4644242 10.762895-10.3897625 18.254806-10.2743018 4.49202 0 8.506166 1.1468988 12.042437 3.4406964 3.54478 2.2841704 6.402313 5.4885723 8.267229 9.2707653 2.007073 3.8707835 2.962822 8.1238666 2.962822 12.7592493v29.1025572h-10.752176v-29.1025572c0-2.7238847-.477875-5.2088321-1.529199-7.4070548-.938213-2.1319203-2.442111-3.9663453-4.348657-5.304407-1.911498-1.3380486-4.109721-1.9592855-6.642456-1.9592855-4.867385-.0710689-9.298862 2.7952479-11.230051 7.2636925-1.118035 2.3081309-1.690303 4.842458-1.672561 7.4070548v29.1025572h-10.704388v-29.1025572c0-2.6760973-.525662-5.1610447-1.672561-7.4070548-1.030399-2.1445615-2.613992-3.9755909-4.587595-5.304407-1.980687-1.3145107-4.313358-1.9976501-6.690243-1.9592855-2.389373 0-4.492021.6690243-6.403519 2.0548604s-3.345121 3.2495466-4.49202 5.5433442c-1.097448 2.3642919-1.652571 4.9439838-1.624773 7.5504172v28.6246827h-10.752177v-53.8564565z" fill="#131b20"/><path d="m50.1342934.04778745c28.4335329 0 51.6104466 23.17691335 51.6104466 51.65823375-.033671 6.0282598-3.3087406 11.5719868-8.5723916 14.5105288s-11.701373 2.8171819-16.8505322-.3176561l-.2389373-.1433624-.0955749.2389373c-7.1967199 13.0458511-22.9729877 18.7030356-36.81997 13.2032092-13.8469823-5.4998263-21.4423163-20.4398819-17.7266243-34.8683483s17.5825495-23.8414693 32.363629-21.9688516c14.7810795 1.8726176 25.862438 14.4463146 25.862599 29.3455431.2630106 2.7989391 2.6126063 4.9380987 5.4238756 4.9380987s5.160865-2.1391596 5.4238756-4.9380987c.0000156-22.3092201-18.071191-40.4018127-40.3803955-40.4281829-18.7125849-.0336975-35.0028799 12.7787117-39.3796117 30.9722872-4.37673168 18.1935755 4.304028 37.0131386 20.9845768 45.4937791 16.6805487 8.4806406 37.0011611 4.4058091 49.1223654-9.8503607l8.6017411 7.2636924c-9.7817899 11.5796945-24.1708156 18.2584407-39.3290716 18.2548077-27.931556-.84944-50.1342934-23.7376597-50.1342934-51.6821291s22.2027374-50.83268872 50.1342934-51.68212745zm0 33.35564025c-6.7710873-.33691-13.1762956 3.0868721-16.6578004 8.90411s-3.4720357 13.0800809.0246261 18.8882208c3.4966617 5.8081399 9.910776 9.2152084 16.6809618 8.8606435 9.7575426-.5110173 17.4033824-8.5782853 17.3906592-18.3491919-.0127551-9.7709065-7.6796047-17.8182102-17.4384467-18.3037824zm0 10.8955387c4.0908034 0 7.4070548 3.3162514 7.4070548 7.4070548s-3.3162514 7.4070547-7.4070548 7.4070547-7.4070547-3.3162513-7.4070547-7.4070547 3.3162513-7.4070548 7.4070547-7.4070548z" fill="#f06b66"/></svg>