<svg xmlns="http://www.w3.org/2000/svg" viewBox="0 0 480 108"><path fill="#0078d6" d="m217.562 22.396-17.55 62.133h-8.533l-12.783-45.407c-.547-1.935-.882-4.044-.996-6.326h-.172a32 32 0 0 1-1.126 6.24l-12.867 45.493h-8.45l-18.198-62.133h8.014l13.216 47.661a31.4 31.4 0 0 1 1.04 6.24h.218c.144-1.532.588-3.61 1.341-6.24l13.736-47.66h6.975l13.17 48.008q.692 2.469 1.04 5.805h.172q.172-2.25 1.172-5.978L209.675 22.4h7.887zm9.786 6.499q-1.908 0-3.25-1.301c-.895-.867-1.341-1.962-1.341-3.293q.001-1.99 1.341-3.317c.898-.88 1.978-1.32 3.25-1.32 1.3 0 2.404.443 3.316 1.32q1.363 1.324 1.364 3.317-.001 1.908-1.364 3.25-1.366 1.345-3.316 1.344m3.466 55.634h-7.106V40.16h7.106zm47.754 0h-7.106V59.227q-.001-14.124-10.31-14.124-5.33 0-8.819 4.008t-3.488 10.116v25.302h-7.107V40.16h7.107v7.365h.172q5.025-8.404 14.558-8.404 7.278 0 11.135 4.7 3.858 4.702 3.856 13.582v27.125zm50.549 0h-7.107v-7.54h-.172c-3.293 5.72-8.38 8.58-15.252 8.58q-8.362 0-13.366-5.959-5.003-5.956-5.005-16.226 0-11.007 5.547-17.632 5.544-6.632 14.776-6.63 9.139 0 13.3 7.192h.172v-27.47h7.107zm-7.104-20.06v-6.543c0-3.58-1.187-6.612-3.552-9.1-2.37-2.481-5.372-3.726-9.013-3.726q-6.5.001-10.225 4.766-3.726 4.768-3.727 13.171 0 7.67 3.575 12.109 3.571 4.44 9.596 4.441c3.958 0 7.17-1.427 9.642-4.29 2.467-2.857 3.704-6.47 3.704-10.827m38.166 21.099q-9.837 0-15.706-6.216-5.871-6.22-5.87-16.487 0-11.179 6.11-17.46 6.106-6.285 16.508-6.286c6.612 0 11.779 2.036 15.488 6.11 3.712 4.07 5.567 9.72 5.567 16.941q0 10.615-6 17.007-6.001 6.391-16.097 6.391m.52-40.468q-6.85 0-10.831 4.657c-2.66 3.109-3.986 7.388-3.986 12.847 0 5.258 1.342 9.4 4.032 12.435q4.028 4.547 10.787 4.548c4.594 0 8.123-1.488 10.595-4.464q3.705-4.462 3.704-12.694c0-5.548-1.235-9.82-3.704-12.826Q367.59 45.1 360.7 45.1m85.61-4.939-13.3 44.368h-7.367l-9.14-31.76q-.522-1.82-.692-4.114h-.172q-.13 1.557-.91 4.03l-9.92 31.846H397.7l-13.432-44.367h7.451l9.183 33.359q.431 1.518.606 3.985h.347q.131-1.904.781-4.071l10.225-33.276h6.498l9.185 33.448q.431 1.605.652 3.986h.347q.085-1.688.735-3.986l9.013-33.448zm3.294 42.763v-7.626q5.804 4.291 12.78 4.29 9.359 0 9.358-6.24 0-1.776-.798-3.012c-.533-.824-1.258-1.551-2.166-2.188q-1.367-.953-3.204-1.711a232 232 0 0 0-3.965-1.582q-2.948-1.17-5.177-2.363-2.23-1.19-3.727-2.687a10 10 0 0 1-2.254-3.403q-.758-1.904-.758-4.462.001-3.12 1.427-5.524c.956-1.605 2.226-2.946 3.813-4.031q2.385-1.625 5.441-2.45a24 24 0 0 1 6.3-.82q5.762.001 10.314 1.992v7.192q-4.901-3.206-11.267-3.207-1.992 0-3.595.457c-1.07.301-1.985.73-2.75 1.277q-1.148.825-1.776 1.97a5.2 5.2 0 0 0-.628 2.536q-.001 1.732.628 2.905.628 1.166 1.841 2.079c.811.603 1.793 1.154 2.946 1.643 1.159.492 2.472 1.027 3.948 1.605 1.96.753 3.724 1.526 5.283 2.317q2.34 1.191 3.985 2.687a10.6 10.6 0 0 1 2.536 3.443q.886 1.953.887 4.637c0 2.196-.48 4.102-1.45 5.72a12.4 12.4 0 0 1-3.877 4.028c-1.62 1.07-3.48 1.864-5.59 2.384q-3.157.78-6.627.78c-4.571.008-8.529-.874-11.878-2.636M46.908 51.261h58.881V0L46.908 8.592zm-4.151 0V9.195L0 15.432v35.829zm0 4.147H0v36.285l42.757 6.308zm4.151 0v43.207l58.881 8.685V55.408z"/></svg>