<svg height="227" preserveAspectRatio="xMidYMid" viewBox="0 0 256 227" width="256" xmlns="http://www.w3.org/2000/svg" xmlns:xlink="http://www.w3.org/1999/xlink"><radialGradient id="a" cx="1.278398%" cy="11.378669%" gradientTransform="matrix(.886328 0 0 1 .001453 0)" r="105.363633%"><stop offset="0" stop-color="#fff" stop-opacity=".1"/><stop offset="1" stop-color="#fff" stop-opacity="0"/></radialGradient><path d="m214.5 62.5-6.2 13.1h17.7l.9-1.5 6.5-11.6h-19.1zm-173.3 0h-18.7l7.5 13.1h17.5z" fill="#9e9e9e"/><path d="m256 23.3-23.3 40.7h-16.3l-26.1 49.5-62.3 113.4-62.4-113.4-26-49.5h-16.3l-23.3-40.7h66.9l10.9 21.6 35.5 64.7 14.5 26.6 14-26.6 34.9-64.7 12.3-21.7" fill="#424242"/><path d="m67.7 24.7h-66.9l-.8-1.4h66.9zm121.4-1.4-.8 1.5h66.9l.8-1.5z" fill="#fff" fill-opacity=".2"/><path d="m227 74.2-.8 1.5h-15.8l-20 37.9-62.4 113.3-62.4-113.4-19.9-37.9h-15.8l-.8-1.5h16.6l.8 1.5 19.1 36.4 62.4 113.5 62.4-113.4 19.2-36.4.8-1.5" fill="#263238" fill-opacity=".2"/><path d="m152.7 128c0 13.7-11.1 24.7-24.7 24.7s-24.7-11.1-24.7-24.7 11.1-24.7 24.7-24.7c13.7 0 24.7 11 24.7 24.7zm-2.9-75.6c0 12-9.8 21.8-21.8 21.8s-21.8-9.8-21.8-21.8 9.8-21.9 21.8-21.9 21.8 9.8 21.8 21.9z" fill="#fff"/><path d="m190.4 113.5c-3.3-14.1-11.2-26.5-22.1-35.3 5.8-8.1 9.2-18 9.2-28.8 0-1.5-.1-3-.2-4.5-2.3-25.2-23.5-44.9-49.3-44.9s-47 19.7-49.2 44.9c-.1 1.5-.2 3-.2 4.6 0 10.7 3.4 20.7 9.2 28.8-10.9 8.8-18.9 21.1-22.1 35.3-1.1 4.6-1.7 9.4-1.7 14.4 0 27.1 16.9 50.3 40.7 59.6 7.2 2.8 15.1 4.4 23.3 4.4s16.1-1.6 23.3-4.4c23.8-9.3 40.7-32.5 40.7-59.6 0-5-.6-9.8-1.6-14.5zm-62.4-81.5c11.2 0 20.4 9.1 20.4 20.4s-9.1 20.4-20.4 20.4c-11.2 0-20.4-9.1-20.4-20.4s9.2-20.4 20.4-20.4zm0 119.3c-12.8 0-23.3-10.4-23.3-23.3 0-7.5 3.5-14.1 9-18.4 3.9-3.1 8.9-4.9 14.3-4.9s10.4 1.8 14.3 4.9c5.5 4.3 9 10.9 9 18.4 0 12.9-10.4 23.3-23.3 23.3z" fill="#4285f4"/><path d="m177.5 49.5v.7c-.5-27-22.4-48.7-49.5-48.7s-49.1 21.7-49.5 48.7v-.7c0-27.4 22.2-49.5 49.5-49.5s49.5 22.1 49.5 49.5zm-90.4 29.3c-14.1 11.7-23.1 29.4-23.1 49.2v.7c.2-19.8 9.5-37.5 23.8-49l.7-.5-.7-.9zm81.8 0-.6-.5-.7.9.7.6c14.3 11.6 23.6 29.2 23.8 49v-.8c-.1-19.8-9.1-37.5-23.2-49.2z" fill="#fff" fill-opacity=".2"/><path d="m192 127.3v.7c0 35.3-28.7 64-64 64s-64-28.7-64-64v-.7c.4 35 28.9 63.3 64 63.3s63.6-28.3 64-63.3zm-113.5-78.6v.7c0 11.1 3.7 21.4 9.9 29.7.2-.1.5-.3.7-.5-6.5-8.2-10.4-18.6-10.6-29.9zm99 0c-.2 11.3-4.1 21.6-10.6 29.9.3.2.5.4.7.5 6.2-8.1 9.9-18.5 9.9-29.7z" fill="#263238" fill-opacity=".2"/><path d="m256 23.3-23.3 40.7-6.6 11.6h-15.8l-20 37.9c1.1 4.7 1.6 9.5 1.6 14.5 0 27.1-16.9 50.3-40.7 59.6-.7.3-1.5.6-2.2.8l-21 38.5-21.2-38.5c-.7-.2-1.5-.5-2.2-.8-23.7-9.4-40.6-32.5-40.6-59.6 0-5 .6-9.8 1.6-14.5l-19.9-37.9h-15.7l-6.7-11.6-23.3-40.7h66.9l10.9 21.6.6.4c0-.1.2-.2.2-.4 2.3-25.2 23.5-44.9 49.3-44.9s47 19.7 49.3 44.9c0 .1-.3.2-.3.3l-.1-.3 12.3-21.7h66.9z" fill="url(#a)"/></svg>