<svg xmlns="http://www.w3.org/2000/svg" viewBox="0 0 105 105"><linearGradient id="a" x1="82.95" x2="25.7" y1="69.19" y2="79.98" gradientUnits="userSpaceOnUse"><stop offset="0" stop-color="#07c3f2"/><stop offset="1" stop-color="#6b57ff"/></linearGradient><linearGradient id="b" x1="80.99" x2="20.99" y1="24.64" y2="83.98" href="#a"/><linearGradient id="c" x1="88.66" x2="24.48" y1="83.08" y2="24.07" gradientUnits="userSpaceOnUse"><stop offset=".15" stop-color="#07c3f2"/><stop offset=".53" stop-color="#6b57ff"/><stop offset="1" stop-color="#ff318c"/></linearGradient><path fill="url(#a)" d="m29 100.33 62.28-10.66a11.28 11.28 0 0 0 9.19-9A11.29 11.29 0 0 0 91 67.35l-62.62-8.79A21.14 21.14 0 0 0 4.43 77.12 21.13 21.13 0 0 0 29 100.33"/><path fill="url(#b)" d="M70.78 9.08 11.22 64a21.1 21.1 0 0 0 1.24 32.08A21.1 21.1 0 0 0 41 93.82L96 34.3a17.85 17.85 0 0 0-1.71-25.81 17.84 17.84 0 0 0-23.51.59"/><path fill="url(#c)" d="M82.68 87.59 12.09 36.84A17.91 17.91 0 0 1 10.57 9a17.9 17.9 0 0 1 24.5.51l62.16 60.76a11.34 11.34 0 0 1-.1 16.31 11.35 11.35 0 0 1-14.45 1.01"/><path d="M22.5 22.5h60v60h-60z"/><path fill="#fff" d="M29.98 71.16h22.5v3.75h-22.5zm6.5-27.58-8.67-13.67h5.81L39 38.97l5.48-9.06h5.64l-8.67 13.58v8.99h-4.97zm23.57-9.09h-6.86v-4.58h18.69v4.58h-6.86v17.99h-4.97z"/></svg>