<svg viewBox="0 0 55.629 56.587" xmlns="http://www.w3.org/2000/svg"><path d="m27.3915 0c-13.1813 0-24.24291 9.04901-27.3560625 21.283-.0210937.089-.0354375.1798-.0354375.2745 0 .7439.602156 1.347 1.34494 1.347h11.38106c.542 0 1.0058-.3241 1.2198-.7868l.002.0005c2.3383-5.1003 7.4745-8.646 13.4437-8.646 8.1667 0 14.7907 6.6371 14.7907 14.8215 0 8.1847-6.624 14.8218-14.7907 14.8218-5.9692 0-11.1054-3.5457-13.4437-8.6475l-.002.0028c-.214-.4635-.6778-.787-1.2198-.787h-11.38106c-.742784 0-1.34494.6013-1.34494 1.3473 0 .0921.0143437.18.0334688.2682 3.1123112 12.2349 14.1741312 21.2875 27.3580312 21.2875 15.5936 0 28.2372-12.669 28.2372-28.2931 0-15.6258-12.6436-28.2937-28.2372-28.2937zm-6.7238 28.2938c0-3.7195 3.011-6.7363 6.7238-6.7363 3.7125 0 6.7224 3.0168 6.7224 6.7363 0 3.7198-3.0099 6.7374-6.7224 6.7374-3.7128 0-6.7238-3.0176-6.7238-6.7374z" fill="#161616" fill-rule="evenodd"/></svg>