<svg viewBox="0 0 164.54645 30.123661" xmlns="http://www.w3.org/2000/svg"><g transform="translate(-27.860752 -138.30722)"><path d="m0 0h-71.036c-4.458 0-8.106-3.648-8.106-8.107v-19.102h19.703v3.121c0 2.422 1.963 4.385 4.385 4.385h39.073c2.421 0 4.384-1.963 4.384-4.385v-3.121h19.704v19.102c0 4.459-3.648 8.107-8.107 8.107" fill="#da1a31" transform="matrix(.35277777 0 0 -.35277777 55.780291 138.30722)"/><path d="m0 0c0-2.422-1.963-4.385-4.385-4.385h-39.072c-2.422 0-4.385 1.963-4.385 4.385v3.121h-19.703v-19.103c0-4.458 3.648-8.106 8.106-8.106h71.036c4.459 0 8.106 3.648 8.106 8.106v19.103h-19.703z" fill="#da1a31" transform="matrix(.35277777 0 0 -.35277777 51.689197 159.93317)"/><path d="m34.811533 149.8935h-6.950781v6.95078h6.950781z" fill="#da1a31"/><path d="m58.64026 149.8935h-6.95078v6.95078h6.95078z" fill="#da1a31"/><g fill="#4e4640"><path d="m0 0v.501c0 8.27 4.26 14.366 10.858 14.366 6.431 0 11.025-6.181 11.025-14.449v-.501c0-8.269-4.26-14.449-10.858-14.449-6.432 0-11.025 6.264-11.025 14.532m31.32-.166v.752c0 13.113-8.602 22.634-20.295 22.634-11.777 0-20.463-9.689-20.463-22.719v-.751c0-13.113 8.603-22.551 20.296-22.551 11.776 0 20.462 9.605 20.462 22.635" transform="matrix(.35277777 0 0 -.35277777 68.920451 153.44301)"/><path d="m0 0v.835c0 8.686 4.845 14.198 10.523 14.198 5.68 0 10.274-5.429 10.274-14.281v-.752c0-8.854-4.511-14.199-10.274-14.199-5.678 0-10.523 5.513-10.523 14.199m30.319-.168v1.17c0 14.951-8.353 22.384-17.206 22.384-6.348 0-10.19-3.675-12.946-7.935v7.1h-9.438v-56.879h9.438v19.294c2.673-3.925 6.515-7.517 12.946-7.517 8.936 0 17.206 7.517 17.206 22.383" transform="matrix(.35277777 0 0 -.35277777 85.123922 153.50171)"/><path d="m0 0c5.513 0 8.686-5.094 9.188-12.11h-18.709c.668 7.517 4.343 12.11 9.521 12.11m16.871-31.237-4.928 5.848c-2.923-2.84-6.013-4.678-10.189-4.678-5.763 0-10.357 4.009-11.192 11.442h27.729c.083 1.336.083 2.674.083 3.258 0 13.279-6.347 23.303-18.374 23.303-10.858 0-18.876-9.522-18.876-22.803v-.667c0-13.865 8.853-22.551 20.213-22.551 6.598 0 11.526 2.589 15.534 6.848" transform="matrix(.35277777 0 0 -.35277777 104.29471 148.05108)"/><path d="m0 0c-6.013 0-9.605-3.425-12.111-7.35v6.515h-9.438v-44.267h9.438v26.81c0 6.097 3.425 9.772 8.353 9.772 5.011 0 7.934-3.423 7.934-9.604v-26.978h9.438v29.65c0 9.438-5.095 15.452-13.614 15.452" transform="matrix(.35277777 0 0 -.35277777 120.55368 145.25161)"/><path d="m0 0v.083c0 6.933-5.179 10.105-12.027 13.196-5.179 2.339-8.686 3.842-8.686 6.765v.168c0 2.422 2.087 4.342 5.595 4.342s7.183-1.67 10.524-3.925l4.009 6.933c-4.176 3.006-9.438 4.76-14.366 4.76-8.268 0-14.616-5.011-14.616-12.945v-.168c0-7.266 5.513-10.273 12.111-13.112 5.261-2.256 8.686-3.675 8.686-6.849v-.083c0-2.757-2.255-4.845-6.181-4.845-3.925 0-8.185 1.922-12.193 5.178l-4.427-6.765c5.095-4.259 11.192-6.18 16.453-6.18 8.52 0 15.118 4.761 15.118 13.447" transform="matrix(.35277777 0 0 -.35277777 138.77751 156.71322)"/><path d="m0 0v7.768c-1.587-.836-3.258-1.253-5.095-1.253-3.007 0-4.761 1.419-4.761 4.844v23.553h9.939v8.102h-9.939v11.943h-9.438v-11.943h-4.844l1.55-8.102h3.294v-25.474c0-8.603 4.928-11.359 11.443-11.359 3.174 0 5.679.751 7.851 1.921" transform="matrix(.35277777 0 0 -.35277777 149.08708 160.7206)"/><path d="m0 0c0-5.011-4.176-8.686-9.605-8.603-4.092.083-7.182 2.59-7.182 7.016v.168c0 4.676 3.173 7.433 8.602 7.433 3.174 0 6.014-.669 8.185-1.587zm4.677 25.391c-2.839 2.923-7.266 4.51-13.029 4.51-5.93 0-10.357-1.421-14.617-3.509l2.673-7.516c2.924 1.336 6.432 2.673 10.691 2.673 6.014 0 9.522-3.091 9.522-9.02v-1.838c-3.007 1.003-6.014 1.753-10.19 1.753-9.354 0-15.702-4.676-15.702-14.198v-.417c0-8.603 6.181-13.531 13.531-13.531 5.763 0 9.688 2.506 12.277 6.264v-5.429h9.271v27.479c0 5.512-1.504 9.856-4.427 12.779" transform="matrix(.35277777 0 0 -.35277777 160.1944 155.91795)"/><path d="m0 0-5.094 6.264c-2.59-2.589-5.179-4.51-9.021-4.51-6.431 0-10.941 5.763-10.941 14.365v.418c0 8.353 4.51 14.282 10.691 14.282 4.009 0 6.598-2.004 8.936-4.427l5.263 6.933c-3.675 3.675-7.852 6.014-14.199 6.014-11.61 0-20.213-9.521-20.213-22.719v-.835c0-13.196 8.353-22.466 19.879-22.466 6.765 0 11.191 2.755 14.699 6.681" transform="matrix(.35277777 0 0 -.35277777 177.559 159.1295)"/><path d="m0 0-6.625-7.121 8.886-15.854h10.941z" transform="matrix(.35277777 0 0 -.35277777 187.74983 153.05731)"/><path d="m0 0-15.117-19.461v35.497h-9.438v-60.303h9.438v12.779l26.309 31.488z" transform="matrix(.35277777 0 0 -.35277777 188.31156 145.54622)"/></g></g></svg>
