<svg height="939" viewBox="0 0 939 939" width="939" xmlns="http://www.w3.org/2000/svg"><g fill="none" fill-rule="evenodd"><path d="m-42-42h1024v1024h-1024z"/><g fill-rule="nonzero"><path d="m939 218.740853-105.797557 20.593651-112.946761-20.593651-24.542046-115.986004 24.542046-102.754849z" fill="#ea4335"/><path d="m720.255682 218.740853v336.113993h-389.471591l-112.039773 112.037998-14.511818 52.33775 14.511818 54.365105v130.017429c0 31.477342 38.040171 47.216013 60.288068 24.968468l154.988353-154.985897h440.956534c35.372557 0 64.022727-28.649717 64.022727-64.021713v-490.833133z" fill="#34a853"/><path d="m218.744318 554.854846-117.375 15.365211-101.369318-15.365211v-336.113993l109.318807-17.55262 109.425511 17.55262z" fill="#4285f4"/><path d="m218.744318 218.740853h-218.744318v-154.71914c0-35.3719964 28.6501705-64.021713 64.0227273-64.021713h154.7215907l20.113807 103.608472z" fill="#1967d2"/><path d="m218.744318 554.854846v218.740853h-154.7215907c-35.3725568 0-64.0227273-28.649717-64.0227273-64.021713v-154.71914z" fill="#188038"/><path d="m360.130996-141.383833h218.740853v501.511364h-218.740853z" fill="#fbbc04" transform="matrix(0 1 -1 0 578.8732 -360.1296)"/></g></g></svg>