<svg height="105" preserveAspectRatio="xMidYMid" viewBox="0 0 512 105" width="512" xmlns="http://www.w3.org/2000/svg"><path d="m323.127201 0c12.07436 0 20.411552 8.3369436 20.411552 20.4115378v16.674122h-20.699317v-12.6494154c0-3.1623551-1.724708-4.8872978-4.887298-4.8872978h-22.423536c-3.16259 0-4.887298 1.7249427-4.887298 4.8872978v55.7722548c0 3.1621203 1.724708 4.8868282 4.887298 4.8868282h22.423556c3.162589 0 4.887297-1.7247079 4.887297-4.8868282v-12.6494154h20.699298v16.6743568c0 12.0738898-8.337178 20.4110684-20.411537 20.4110684h-32.773672c-12.07436 0-20.411068-8.3371786-20.411068-20.4110684v-63.8219028c0-12.07458941 8.336708-20.4115378 20.411068-20.4115378zm-270.2297756.57482598c12.0743594 0 20.411303 8.33717838 20.411303 20.41153782v26.1611871c0 12.0743594-8.3369436 20.4115377-20.411303 20.4115377h-32.198362v36.5108334h-20.6990634v-103.49509602zm79.0565086 0 33.348484 103.49509202h-22.28037l-6.755651-23.2868276h-33.49212l-6.8997658 23.2868276h-21.4177695l33.3484783-103.49509202zm99.754873 0c12.07436 0 20.411069 8.33717838 20.411069 20.41153782v24.2925941c0 9.774356-5.461885 17.1053026-14.086359 19.5489467l17.248948 39.2420134h-22.28036l-16.673888-38.3794223h-16.674361v38.3794223h-20.698833v-103.49509202zm197.928684 0v19.54918142h-47.004131v21.2738893h38.091906v19.5489371h-38.091906v23.573888h47.004131v19.5491812h-67.702965v-103.49507702zm38.951909 0v83.94591022h43.4106v19.5491818h-64.109433v-103.49509202zm-148.049728 7.76211762h-27.598599c-8.91177 0-14.086828 5.1748233-14.086828 14.0868277v59.7967314c0 8.9122392 5.175058 14.0868277 14.086828 14.0868277h27.598599c8.912239 0 14.086828-5.1745885 14.086828-14.0868277v-6.3242405h-2.874825v6.3242405c0 7.1875408-4.024941 11.2120031-11.212003 11.2120031h-27.598599c-7.187062 0-11.212003-4.0244719-11.212003-11.2120031v-59.7967314c0-7.1870617 4.024941-11.2117683 11.212003-11.2117683h27.598599c7.187062 0 11.212003 4.0247066 11.212003 11.2117683v6.6122357h2.874825v-6.6122357c0-8.9120044-5.174589-14.0868277-14.086828-14.0868277zm-270.2297757.57506076h-41.39789673v86.82073484h2.87482463v-36.5108337h38.5230721c8.9120044 0 14.0868277-5.1745886 14.0868277-14.0868277v-22.1362457c0-8.9120044-5.1748233-14.08682774-14.0868277-14.08682774zm76.1819187 0h-13.224476l-27.0235383 86.82073484h2.7311792l7.1870617-23.2863624h47.1477764l7.042937 23.2863624h2.731189zm102.629463 0h-41.254016v86.82073484h2.874824v-38.2357764h31.623072l16.674356 38.2357764h3.018475l-16.673887-38.2357764h3.737176c8.912239 0 14.086828-5.1745886 14.086828-14.086593v-20.4115377c0-8.9120044-5.174589-14.08682774-14.086828-14.08682774zm191.603978 0h-49.87849v86.82073484h49.87849v-2.8748246h-47.003666v-40.2480244h38.091906v-2.8750594h-38.091906v-37.9480018h47.003666zm38.952375 0h-2.874825v86.82073484h46.284969v-2.8748246h-43.410144zm-334.910758 2.87482464 17.680114 57.7847231h-45.4225938l17.9678888-57.7847231zm-5.031178 11.4995334-11.211773 37.9480114h22.136245zm-69.4257987-11.499543c7.1872964 0 11.212003 4.024951 11.212003 11.2120127v22.1362457c0 7.1872964-4.0247066 11.212003-11.212003 11.212003h-38.5230721v-44.5602614zm178.8113817.0000096c7.187062 0 11.212003 4.0249414 11.212003 11.2120031v20.4115377c0 7.1870617-4.024941 11.2117683-11.212003 11.2117683h-38.379192v-42.8353091zm-181.398676 8.3371784h-27.0235386v27.886125h27.0235386c3.1623551 0 4.8872978-1.7249427 4.8872978-4.8872977v-18.1115296c0-3.162355-1.7249427-4.8872977-4.8872978-4.8872977zm178.811147-.0000048h-26.879893v26.3048373h26.879893c3.16259 0 4.887298-1.7249427 4.887298-4.8872978v-16.5302417c0-3.1623551-1.724708-4.8872978-4.887298-4.8872978z" fill="#be4248"/></svg>