<svg viewBox="0 0 24 24" xmlns="http://www.w3.org/2000/svg"><path d="m15.5526.44419-7.5126 7.53918h4.0299c2.7132 0 3.9501 2.56263 3.9501 4.00423v11.3717c0 .3538.2858.6407.6384.6407h6.6633c.3526 0 .6384-.2859.6389-.6397.0046-3.2949.0394-10.0784.0394-15.37693 0-4.6432-3.6882-7.64927-7.3199-7.97822-.4216-.03818-.8283.13867-1.1275.43904zm-15.5526.19581c0-.35346.28797-.64.6432-.64h.804c.35523 0 .6432.28654.6432.64v6.72c0 .35346-.28797.64-.6432.64h-.804c-.35523 0-.6432-.28654-.6432-.64zm3.618-.64c-.35523 0-.6432.28654-.6432.64v6.72c0 .35346.28797.64.6432.64h.804c.35523 0 .6432-.28654.6432-.64v-6.72c0-.35346-.28797-.64-.6432-.64zm2.9748 0c-.35523 0-.6432.28654-.6432.64v6.72c0 .35346.28797.64.6432.64h1.4472l-1.71362 1.7051c-.24124.24004-.37678.5656-.37678.9051v12.7498c0 .3535.28797.64.6432.64h.804c.35523 0 .6432-.2865.6432-.64v-15.36-7.36c0-.35346-.28797-.64-.6432-.64zm-6.21602 15.6251c-.24125.24-.37678.5656-.37678.9051v6.8298c0 .3535.28797.64.6432.64h.804c.35523 0 .6432-.2865.6432-.64v-9.0537c0-.1426-.1732-.214-.27451-.1132zm2.59802-2.0549c0-.3395.13553-.6651.37678-.9051l1.43912-1.432c.1013-.1008.2745-.0294.2745.1132v12.0137c0 .3535-.28797.64-.6432.64h-.804c-.35523 0-.6432-.2865-.6432-.64z"/></svg>