<svg enable-background="new 0 0 515.91 728.5" viewBox="0 0 512.00003 512" xmlns="http://www.w3.org/2000/svg"><g transform="translate(-347.05639 93.46344)"><path d="m-733.62329 72.267944c0 203.804876-165.21649 369.021366-369.02141 369.021366-203.8048 0-369.0213-165.21649-369.0213-369.021366 0-203.804874 165.2165-369.021364 369.0213-369.021364 203.80492 0 369.02141 165.21649 369.02141 369.021364z" fill="#294172" transform="matrix(.49053894 -.49053894 .49053894 .49053894 1108.4963 -413.80382)"/><path d="m622.59048-29.496022c-95.23181.00002-172.46231 77.187025-172.53191 172.404642v133.45241c.053 21.61957 17.5724 39.14266 39.206 39.14261l.1899.00001 133.19911.00001c95.2431-.0354 172.40491-77.21746 172.40481-172.46846 0-95.274737-77.19471-172.531612-172.46831-172.531652zm50.6068 40.916035c6.7867.00003 11.641.76101 17.9247 2.40693 9.1541 2.39878 16.6521 9.88632 16.6578 18.62119 0 10.55597-7.677 18.24125-19.1279 18.24131-5.4577-.00002-7.463-1.07679-15.4545-1.07678-23.573.00002-42.6482 19.11338-42.6896 42.68952l.0001 36.925907c0 3.33164 2.6793 6.01702 6.0169 6.01702l28.0586-.00002c10.4588.00001 18.9291 8.39152 18.9379 18.87462 0 10.49205-8.482 18.81129-18.9382 18.81096l-34.0756-.00001v43.06957l.0003.0634c0 44.71053-36.29381 80.94558-81.00901 80.94541-6.7836.00002-11.5832-.76545-17.8611-2.40687-9.1575-2.3955-16.6553-9.88955-16.6578-18.62119 0-10.5555 7.6772-18.24132 19.128-18.24128 5.4517-.00002 7.4078 1.07677 15.3909 1.07676 23.5758-.00006 42.7141-19.11569 42.7531-42.68945v-37.11582c0-3.32763-2.6849-6.01712-6.0171-6.01711l-28.0585-.063c-10.4587-.00003-18.938-8.32257-18.938-18.81137-.01-10.55363 8.5562-18.87455 19.1279-18.87461l33.8858.00007-.0001-42.816267.0004-.0626c0-44.71697 36.22791-80.94547 80.94541-80.94551z" fill="#fff"/></g></svg>
