<svg viewBox="0 0 147.789 227.804" xmlns="http://www.w3.org/2000/svg" xmlns:xlink="http://www.w3.org/1999/xlink"><clipPath id="a"><path d="m0 792h612v-792h-612z"/></clipPath><g clip-path="url(#a)" transform="matrix(10.7039 0 0 -10.6064 -423.88 8239.13)"><g fill="#ffa61a" transform="matrix(.95837 0 0 .96866 1.89 23.96)"><path d="m53.407 769.136h-6.136v-6.136h6.136z"/><path d="m43.819 757.631h-1.918v1.918h1.918zm2.301 4.218h-6.52v-6.52h6.52z"/><path d="m0 0-3.874 3.874 1.496 1.496 3.874-3.874z" transform="translate(47.4 767.58)"/><path d="m0 0-1.496 1.496 3.066 3.066 1.496-1.496z" transform="translate(46.06 760.36)"/><path d="m43.819 772.588h-1.918v1.918h1.918zm2.301 4.219h-6.52v-6.52h6.52z"/></g></g></svg>