<svg viewBox="0 0 24 24" xmlns="http://www.w3.org/2000/svg"><path d="m20.074 3.126c2.412 2.195 3.926 5.359 3.926 8.874 0 6.623-5.377 12-12 12s-12-5.377-12-12c0-3.515 1.514-6.679 3.926-8.874l2.265 2.265c-1.833 1.614-2.991 3.977-2.991 6.609 0 4.857 3.943 8.8 8.8 8.8s8.8-3.943 8.8-8.8c0-2.632-1.158-4.995-2.991-6.609zm-3.399 3.399c1.545 1.321 2.525 3.285 2.525 5.475 0 3.703-2.802 6.757-6.4 7.156v-8.756zm-5.475 12.631c-3.598-.399-6.4-3.453-6.4-7.156 0-2.19.98-4.154 2.525-5.475l3.875 3.875zm.8-19.156c2.208 0 4 1.792 4 4s-1.792 4-4 4-4-1.792-4-4 1.792-4 4-4"/></svg>