<svg viewBox="0 0 30.779509 30.123661" xmlns="http://www.w3.org/2000/svg"><g fill="#da1a31" transform="translate(-27.860752 -138.30722)"><path d="m0 0h-71.036c-4.458 0-8.106-3.648-8.106-8.107v-19.102h19.703v3.121c0 2.422 1.963 4.385 4.385 4.385h39.073c2.421 0 4.384-1.963 4.384-4.385v-3.121h19.704v19.102c0 4.459-3.648 8.107-8.107 8.107" transform="matrix(.35277777 0 0 -.35277777 55.780291 138.30722)"/><path d="m0 0c0-2.422-1.963-4.385-4.385-4.385h-39.072c-2.422 0-4.385 1.963-4.385 4.385v3.121h-19.703v-19.103c0-4.458 3.648-8.106 8.106-8.106h71.036c4.459 0 8.106 3.648 8.106 8.106v19.103h-19.703z" transform="matrix(.35277777 0 0 -.35277777 51.689197 159.93317)"/><path d="m34.811533 149.8935h-6.950781v6.95078h6.950781z"/><path d="m58.64026 149.8935h-6.95078v6.95078h6.95078z"/></g></svg>
