<svg xmlns="http://www.w3.org/2000/svg" fill="none" viewBox="0 0 2523 400"><path fill="#34a853" d="M2520.38 377.23c-.22-1.378-.43-2.74-.66-4.102a335 335 0 0 0-5.13-25.041 337.2 337.2 0 0 0-28.51-75.63 341 341 0 0 0-24.56-40.072 338.6 338.6 0 0 0-37.1-43.697 334 334 0 0 0-17.66-16.361 339.6 339.6 0 0 0-42.06-30.98c.13-.214.24-.443.37-.657 6.79-11.732 13.6-23.449 20.39-35.181l19.92-34.361a10427 10427 0 0 0 14.3-24.68 31.3 31.3 0 0 0 2.69-6.039 30.96 30.96 0 0 0 .45-17.443 31.7 31.7 0 0 0-3.35-7.958c-2.54-4.266-6.17-7.975-10.73-10.683a31.15 31.15 0 0 0-13.16-4.233 31.5 31.5 0 0 0-5.83.05c-1.6.163-3.19.459-4.77.869a30.87 30.87 0 0 0-14.9 9.041 31 31 0 0 0-3.91 5.333c-4.77 8.221-9.54 16.459-14.3 24.68l-19.92 34.361c-6.79 11.733-13.6 23.449-20.39 35.182-.74 1.279-1.49 2.559-2.23 3.856-1.03-.411-2.05-.821-3.08-1.215-37.44-14.276-78.06-22.087-120.52-22.087-1.16 0-2.31 0-3.48.017-37.75.377-74.02 6.941-107.86 18.723a314 314 0 0 0-11.62 4.316c-.69-1.198-1.4-2.396-2.08-3.594-6.79-11.733-13.6-23.449-20.39-35.182l-19.92-34.36c-4.78-8.222-9.55-16.46-14.3-24.68a31.6 31.6 0 0 0-3.91-5.333 30.87 30.87 0 0 0-14.9-9.042c-1.58-.41-3.17-.705-4.78-.87a31.3 31.3 0 0 0-5.82-.049 30.8 30.8 0 0 0-13.17 4.234 30.8 30.8 0 0 0-10.72 10.682 30 30 0 0 0-1.95 3.873 29.6 29.6 0 0 0-1.4 4.086 31.05 31.05 0 0 0 .44 17.443 32 32 0 0 0 2.69 6.039c4.78 8.22 9.55 16.458 14.3 24.68 6.65 11.453 13.29 22.906 19.93 34.36 6.79 11.733 13.59 23.449 20.38 35.182.05.098.12.197.17.295a340 340 0 0 0-39.03 28.273 338 338 0 0 0-21.27 19.445 341 341 0 0 0-37.1 43.698 336 336 0 0 0-24.56 40.072 337.2 337.2 0 0 0-28.51 75.63 344 344 0 0 0-5.13 25.041c-.23 1.362-.44 2.74-.65 4.102a328 328 0 0 0-1.94 14.818h673.11c-.54-4.972-1.18-9.912-1.93-14.818z"/><path fill="#202124" d="M2360.79 298.987c13.47-8.966 15.43-29.71 4.37-46.331-11.05-16.622-30.93-22.827-44.39-13.861-13.47 8.967-15.43 29.71-4.37 46.331 11.05 16.622 30.93 22.828 44.39 13.861m-305.19-13.803c11.06-16.622 9.1-37.365-4.37-46.331s-33.34-2.761-44.4 13.86c-11.05 16.622-9.09 37.365 4.37 46.331 13.47 8.967 33.35 2.761 44.4-13.86m-539.38-19.182c0-45.168 32.6-80.801 73.73-80.801s71.22 34.629 71.22 80.801c0 46.171-30.59 81.804-71.22 81.804s-73.73-36.134-73.73-81.804M1374.78 391.97h57.68V141.037h-57.68zm-9.03-334.744c0 21.58 17.56 39.145 38.12 39.145s37.62-17.565 37.62-39.145c0-20.075-17.06-37.138-37.62-37.138s-38.12 17.063-38.12 37.138M1139.55 265.5c0-45.168 33.1-80.299 75.73-80.299 42.64 0 75.74 35.131 75.74 80.299s-33.61 82.306-75.74 82.306-75.73-36.636-75.73-82.306m-58.69 0c0 75.28 59.19 134.5 134.42 134.5 75.24 0 134.42-59.22 134.42-134.5s-58.18-132.493-134.42-132.493c-76.23 0-134.42 57.715-134.42 132.493M924.879 391.97h57.68V260.481c0-52.194 27.581-75.28 73.731-75.28 8.52 0 15.04.502 21.06 2.008v-50.688c-6.02-2.008-16.55-3.514-28.08-3.514-78.247 0-124.391 49.183-124.391 127.474zm-231.22-125.968c0-45.168 32.602-80.801 73.73-80.801s71.222 34.629 71.222 80.801c0 46.171-30.596 81.804-71.222 81.804-40.627 0-73.73-36.134-73.73-81.804m-58.682 0c0 72.77 58.181 133.998 126.895 133.998 28.589 0 54.67-11.543 70.218-30.614h2.508v22.584h57.68V.013h-57.68v161.601h-2.508c-15.047-18.067-41.128-28.607-70.218-28.607-69.216 0-126.895 60.726-126.895 132.995M382.19 391.97h57.679V244.924c0-35.131 23.574-59.723 56.175-59.723s56.175 24.592 56.175 59.723V391.97h57.68V244.924c0-61.228-48.652-111.917-113.855-111.917S382.19 183.696 382.19 244.924zM117.365 241.41l62.194-178.162h3.009l62.194 178.162zM0 391.97h65.203l32.602-93.347h166.518l32.601 93.347h65.203L217.176.013h-72.225zM1584.43 400c28.59 0 54.67-11.543 70.22-30.614h2.51v22.584h57.68V.013h-57.68v161.601h-2.51c-15.05-18.067-41.13-28.607-70.22-28.607-69.21 0-126.89 60.726-126.89 132.995S1515.72 400 1584.43 400"/></svg>