<svg xmlns="http://www.w3.org/2000/svg" fill="none" viewBox="0 0 1716 1057"><path fill="#202124" d="M1516.1 265.605c0-45.103 32.58-80.684 73.67-80.684 41.1 0 71.16 34.579 71.16 80.684s-30.57 81.686-71.16 81.686-73.67-36.082-73.67-81.686m-141.32 125.786h57.63v-250.57h-57.63zm-9.02-334.261c0 21.55 17.54 39.089 38.09 39.089s37.58-17.54 37.58-39.089c0-20.046-17.03-37.085-37.58-37.085s-38.09 17.04-38.09 37.085m-226.01 207.974c0-45.103 33.07-80.183 75.67-80.183s75.67 35.08 75.67 80.183c0 45.102-33.58 82.187-75.67 82.187-42.1 0-75.67-36.583-75.67-82.187m-58.64 0c0 75.171 59.14 134.306 134.31 134.306s134.3-59.135 134.3-134.306-58.13-132.302-134.3-132.302-134.31 57.632-134.31 132.302M925.258 391.391h57.632V260.092c0-52.118 27.56-75.171 73.67-75.171 8.52 0 15.03.501 21.05 2.005V136.31c-6.02-2.004-16.54-3.508-28.07-3.508-78.177 0-124.282 49.112-124.282 127.29zM694.232 265.605c0-45.103 32.574-80.684 73.668-80.684s71.162 34.579 71.162 80.684-30.57 81.686-71.162 81.686-73.668-36.082-73.668-81.686m-58.633 0c0 72.665 58.132 133.805 126.788 133.805 28.565 0 54.625-11.527 70.16-30.57h2.506v22.551h57.631V0h-57.631v161.367h-2.506c-15.034-18.041-41.093-28.565-70.16-28.565-69.157 0-126.788 60.638-126.788 132.803M383.023 391.391h57.632V244.557c0-35.08 23.553-59.636 56.128-59.636 32.574 0 56.127 24.556 56.127 59.636v146.834h57.632V244.557c0-61.139-48.611-111.755-113.759-111.755-65.149 0-113.76 50.616-113.76 111.755zM118.421 241.049l62.141-177.905h3.007l62.142 177.905zM1.154 391.391h65.148l32.574-93.212h166.379l32.574 93.212h65.149L218.148 0h-72.164zm1583.106 8.019c28.56 0 54.62-11.527 70.16-30.57h2.5v22.551h57.64V0h-57.64v161.367h-2.5c-15.04-18.041-41.09-28.565-70.16-28.565-69.16 0-126.79 60.638-126.79 132.803s58.13 133.805 126.79 133.805"/><g clip-path="url(#a)"><path fill="#34a853" d="M1308.55 1030.38c-.28-1.86-.57-3.69-.88-5.53a449 449 0 0 0-6.91-33.705 454 454 0 0 0-17.86-56.595 456 456 0 0 0-20.51-45.219 461 461 0 0 0-33.08-53.944 455.4 455.4 0 0 0-49.94-58.826 448 448 0 0 0-23.78-22.024 456.6 456.6 0 0 0-56.63-41.706c.17-.287.33-.596.51-.884 9.14-15.794 18.3-31.566 27.44-47.361 8.94-15.419 17.88-30.838 26.83-46.257 6.42-11.067 12.85-22.156 19.25-33.223a42.7 42.7 0 0 0 3.62-8.129 41.77 41.77 0 0 0 .6-23.482 44 44 0 0 0-1.88-5.501 42 42 0 0 0-2.63-5.213c-3.42-5.743-8.3-10.736-14.44-14.38a42 42 0 0 0-17.73-5.7c-2.6-.221-5.23-.199-7.84.067-2.16.22-4.3.618-6.42 1.17a41.63 41.63 0 0 0-20.07 12.172 42 42 0 0 0-5.25 7.179c-6.43 11.067-12.85 22.157-19.26 33.224l-26.82 46.257c-9.14 15.794-18.31 31.566-27.45 47.361-.99 1.723-2.01 3.446-3 5.191-1.39-.552-2.76-1.105-4.15-1.635-50.408-19.218-105.097-29.733-162.26-29.733-1.567 0-3.113 0-4.681.022-50.825.508-99.664 9.344-145.213 25.205a411 411 0 0 0-15.654 5.81c-.927-1.613-1.877-3.226-2.804-4.838-9.141-15.795-18.304-31.567-27.444-47.361l-26.826-46.257a25159 25159 0 0 1-19.253-33.224 42 42 0 0 0-5.255-7.179 41.6 41.6 0 0 0-20.07-12.172 43 43 0 0 0-6.425-1.17 42 42 0 0 0-7.838-.067 41.4 41.4 0 0 0-17.729 5.7 41.5 41.5 0 0 0-14.44 14.38 42.5 42.5 0 0 0-2.627 5.214 40 40 0 0 0-1.877 5.5 41.73 41.73 0 0 0 .596 23.482 42.2 42.2 0 0 0 3.621 8.129c6.425 11.067 12.85 22.156 19.253 33.224l26.826 46.256c9.141 15.795 18.303 31.567 27.444 47.361.066.133.155.266.221.398a458 458 0 0 0-52.548 38.061 459 459 0 0 0-28.637 26.177 459 459 0 0 0-49.942 58.826 452 452 0 0 0-33.075 53.944 454 454 0 0 0-38.373 101.814 458 458 0 0 0-6.911 33.711c-.309 1.83-.596 3.69-.883 5.52a456 456 0 0 0-2.605 19.95h906.229c-.73-6.7-1.59-13.34-2.6-19.95z"/><path fill="#202124" d="M1093.7 925.046c18.13-12.071 20.77-39.995 5.89-62.371s-41.65-30.729-59.78-18.659-20.76 39.995-5.88 62.371 41.64 30.73 59.77 18.659m-410.886-18.581c14.881-22.376 12.247-50.3-5.884-62.371-18.132-12.071-44.894-3.717-59.775 18.659s-12.247 50.3 5.884 62.371c18.131 12.07 44.893 3.716 59.775-18.659"/></g><defs><clipPath id="a"><path fill="#fff" d="M404.927 522.569h906.232v527.777H404.927z"/></clipPath></defs></svg>