<svg xmlns="http://www.w3.org/2000/svg" xml:space="preserve" viewBox="0 0 880 572"><path d="M680.6 310c0-16.4 11.9-29.4 26.9-29.4s25.9 12.6 25.9 29.4-11.1 29.8-25.9 29.8-26.9-13.1-26.9-29.8m-51.5 45.9h21v-91.4h-21zM625.8 234c0 7.9 6.4 14.3 13.9 14.3s13.7-6.4 13.7-14.3c0-7.3-6.2-13.5-13.7-13.5s-13.9 6.2-13.9 13.5m-82.4 75.8c0-16.4 12.1-29.2 27.6-29.2s27.6 12.8 27.6 29.2-12.2 30-27.6 30-27.6-13.3-27.6-30m-21.4 0c0 27.4 21.6 49 49 49s49-21.6 49-49-21.2-48.2-49-48.2-49 21-49 48.2m-56.8 46.1h21V308c0-19 10-27.4 26.9-27.4 3.1 0 5.5.2 7.7.7v-18.5c-2.2-.7-6-1.3-10.2-1.3-28.5 0-45.3 17.9-45.3 46.4v48zM381 310c0-16.4 11.9-29.4 26.9-29.4s25.9 12.6 25.9 29.4-11.1 29.8-25.9 29.8c-14.9 0-26.9-13.1-26.9-29.8m-21.4 0c0 26.5 21.2 48.8 46.2 48.8 10.4 0 19.9-4.2 25.6-11.1h.9v8.2h21V213.2h-21V272h-.9c-5.5-6.6-15-10.4-25.6-10.4-25.2 0-46.2 22.1-46.2 48.4m-92.1 45.9h21v-53.5c0-12.8 8.6-21.7 20.5-21.7s20.5 9 20.5 21.7v53.5h21v-53.5c0-22.3-17.7-40.7-41.5-40.7s-41.5 18.5-41.5 40.7zM171 301.1l22.7-64.9h1.1l22.7 64.9zm-42.7 54.8H152l11.9-34h60.7l11.9 34h23.8l-52.8-142.7h-26.3zm577.2 2.9c10.4 0 19.9-4.2 25.6-11.1h.9v8.2h21V213.2h-21V272h-.9c-5.5-6.6-15-10.4-25.6-10.4-25.2 0-46.2 22.1-46.2 48.4s21.2 48.8 46.2 48.8" style="fill:#fff"/></svg>