<svg xmlns="http://www.w3.org/2000/svg" fill="none" viewBox="0 0 880 572"><path fill="#202124" d="M679.938 310.014c0-16.446 11.877-29.419 26.861-29.419s25.946 12.608 25.946 29.419c0 16.81-11.146 29.783-25.946 29.783s-26.861-13.156-26.861-29.783m-51.527 45.863h21.013v-91.361h-21.013zm-3.289-121.876c0 7.857 6.395 14.252 13.887 14.252 7.491 0 13.704-6.395 13.704-14.252 0-7.309-6.213-13.522-13.704-13.522s-13.887 6.213-13.887 13.522m-82.408 75.83c0-16.445 12.059-29.236 27.591-29.236 15.531 0 27.591 12.791 27.591 29.236s-12.243 29.966-27.591 29.966-27.591-13.338-27.591-29.966m-21.379 0c0 27.408 21.561 48.97 48.97 48.97s48.969-21.562 48.969-48.97c0-27.409-21.195-48.239-48.969-48.239s-48.97 21.013-48.97 48.239m-56.827 46.046h21.013v-47.873c0-19.004 10.05-27.409 26.86-27.409 3.107 0 5.482.183 7.675.731v-18.455c-2.193-.731-6.03-1.279-10.233-1.279-28.504 0-45.315 17.907-45.315 46.412zm-84.235-45.863c0-16.446 11.877-29.419 26.86-29.419s25.947 12.608 25.947 29.419c0 16.81-11.146 29.783-25.947 29.783s-26.86-13.156-26.86-29.783m-21.379 0c0 26.494 21.196 48.787 46.229 48.787 10.415 0 19.917-4.203 25.581-11.146h.914v8.222h21.013V213.17h-21.013v58.837h-.914c-5.481-6.578-14.983-10.415-25.581-10.415-25.216 0-46.229 22.109-46.229 48.422m-92.092 45.863h21.013v-53.538c0-12.79 8.588-21.744 20.465-21.744s20.465 8.954 20.465 21.744v53.538h21.013v-53.538c0-22.292-17.724-40.747-41.478-40.747s-41.478 18.455-41.478 40.747zm-96.478-54.817 22.658-64.867h1.096l22.658 64.867zm-42.757 54.817h23.754l11.877-33.986h60.664l11.877 33.986h23.754L206.686 213.17h-26.312zm577.222 2.924c10.415 0 19.917-4.203 25.581-11.146h.914v8.222h21.013V213.17h-21.013v58.837h-.914c-5.482-6.578-14.983-10.415-25.581-10.415-25.216 0-46.229 22.109-46.229 48.422s21.196 48.787 46.229 48.787"/></svg>