<svg viewBox="0 0 6000 3985" xmlns="http://www.w3.org/2000/svg"><g fill="none" fill-rule="evenodd"><path d="m5868.34039.10483878c-92.72795 2.96341555-63.40243 29.68588182-263.76817 79.00205562-202.33271 49.8003986-449.48568 34.5297976-667.36686 125.9214666-650.41398 272.814439-780.91086 1205.255479-1372.199 1539.274129-441.9732 249.68778-887.88332 269.6024-1288.78264 395.24721-263.46221 82.62857-551.66571 252.08255-790.36994 457.81934-185.2844 159.75079-190.12222 300.21302-383.71522 500.57695-207.072757 214.31368-822.994078 3.62151-1102.13856 331.63223 89.9228279 90.93815 129.34573 116.40951 306.555095 92.81531-36.688847 69.54983-252.9620905 128.16138-210.6262897 230.47397 44.5463347 107.65475 567.4043687 180.63286 1042.7044047-106.3726 221.35363-133.66239 397.66277-326.31744 742.40554-372.30411 446.11065-59.46854 960.02245 38.1443 1476.46944 112.62982-76.57622 228.3632-230.32056 380.22991-353.4768 562.1062-38.13795 41.08068 76.60091 45.68566 207.49818 20.85737 235.46768-58.23378 405.1619-105.12116 582.87176-208.57373 218.31728-127.11317 251.40054-453.00512 519.2668-523.52006 149.24853 229.4311 555.17019 283.62724 807.05321 100.11539-221.01997-62.57212-282.1051-533.09777-207.49818-740.43674 70.67033-196.25954 140.49916-510.20471 211.66899-769.63706 76.40938-278.62113 104.59844-629.79756 197.07114-771.7228 139.12679-213.529109 292.85646-286.855623 426.32162-407.262735 133.46483-120.407111 255.62808-237.613867 251.61909-513.130086-1.29129-88.7422819-47.16828-138.20896255-131.56361-135.51152022z" fill="#002b64"/><path d="m190.181611 3731.74498c338.42659 48.50241 544.238265 0 816.007089-117.93462 231.23371-100.34291 454.56056-307.20418 727.63052-394.89573 401.04752-128.75003 840.8286.1669 1269.53342 25.87017 104.39045 6.27561 208.11367 6.34237 310.50239-4.80684 159.70506-98.20653 156.40219-465.56304 311.83688-499.21096-4.57063 515.40068-215.75362 824.20714-436.61167 1123.233 465.47001-82.25047 744.01138-351.63412 932.14106-711.41317 57.0828-109.08869 105.82504-226.45584 148.92905-349.46436 66.6244 51.17288 28.85834 206.86127 62.35404 291.21474 320.61115-178.68782 504.20357-586.50194 625.77558-998.95601 140.65522-477.34649 198.23845-960.70153 288.95038-1101.936007 88.5434-137.863006 226.32946-222.850709 352.10511-311.109738 142.92385-100.342904 270.40098-204.92518 292.42006-396.130821 41.43457-328.9528163-134.15792-133.150962-207.88013-124.844466-75.4654 42.560613-144.85886 51.673592-223.26013 54.010253-68.02561 2.069614-142.75704-.968045-234.03613 8.41198-754.88747 77.577149-850.80392 910.062749-1334.65652 1382.001529-35.19717 34.31554-73.26349 66.3278-113.49835 96.37058-169.44683 126.34661-377.32697 216.64187-568.49262 289.74598-309.4348 118.30181-603.62305 126.7138-893.94129 228.82589-213.118 74.94006-429.67232 183.66156-604.72401 303.53228-43.77126 29.94264-85.00699 60.61966-122.93986 91.66387-102.72235 84.08642-170.14744 177.38596-235.37063 273.35597-67.25828 98.90753-132.21456 200.65243-231.2337 297.85753-160.405662 157.59111-759.791714 45.96547-970.807899 192.10693-23.520381 16.25649-42.203237 35.7843-54.914251 59.21767 115.133099 52.34121 192.033069 20.22881 324.481172 34.88301 17.381729 125.74575-273.27013 200.48553-230.299561 258.40134z" fill="#fff" fill-rule="nonzero"/><path d="m290.598568 2455.19574c8.983468 144.10466 92.46318 430.01338 166.160894 499.49836-144.334393 35.17594-392.9768361-22.93938-456.759462-124.96628 32.7730237-147.3055 203.325836-281.97434 290.598568-374.53208zm211.444229-2286.995644c106.570553 92.724447 330.192373 18.304826 290.232575-166.1771471-165.595268-13.7369552-261.518748 42.5778926-290.232575 166.1771471z" fill="#002b64" transform="translate(4477 370)"/></g></svg>
