<svg viewBox="0 0 442.36895 170.37532" xmlns="http://www.w3.org/2000/svg" xmlns:xlink="http://www.w3.org/1999/xlink"><clipPath id="a"><path d="m239.03 226.605-42.13 24.317c-1.578.91-2.546 2.59-2.546 4.406v48.668c0 1.817.968 3.496 2.546 4.406l42.133 24.336c1.575.907 3.517.907 5.09 0l42.126-24.336c1.57-.91 2.54-2.59 2.54-4.406v-48.668c0-1.816-.97-3.496-2.55-4.406l-42.12-24.317c-.79-.453-1.67-.68-2.55-.68s-1.76.227-2.55.68"/></clipPath><linearGradient id="b" gradientTransform="matrix(-38.064915 77.652126 -77.652126 -38.064915 258.72325 244.62943)" gradientUnits="userSpaceOnUse" x1="-.348" x2="1.251"><stop offset=".3" stop-color="#3e863d"/><stop offset=".5" stop-color="#55934f"/><stop offset=".8" stop-color="#5aad45"/></linearGradient><clipPath id="c"><path d="m195.398 307.086c.403.523.907.976 1.5 1.316l36.14 20.875 6.02 3.46c.9.52 1.926.74 2.934.665.336-.027.672-.09 1-.183l44.434-81.36c-.34-.37-.738-.68-1.184-.94l-27.586-15.93-14.582-8.39c-.414-.24-.863-.41-1.32-.53zm0 0"/></clipPath><linearGradient id="d" gradientTransform="matrix(106.8057 -78.916731 78.916731 106.8057 235.18824 285.39477)" gradientUnits="userSpaceOnUse" x1="-.456" x2=".582"><stop offset=".57" stop-color="#3e863d"/><stop offset=".72" stop-color="#619857"/><stop offset="1" stop-color="#76ac64"/></linearGradient><clipPath id="e"><path d="m241.066 225.953c-.707.07-1.398.29-2.035.652l-42.01 24.247 45.3 82.51c.63-.09 1.25-.3 1.81-.624l42.13-24.336c1.3-.754 2.19-2.03 2.46-3.476l-46.18-78.89c-.34-.067-.68-.102-1.03-.102-.14 0-.28.007-.42.02"/></clipPath><linearGradient id="f" gradientTransform="matrix(97.417 0 0 97.417 192.862 279.652)" gradientUnits="userSpaceOnUse" x1=".043" x2=".984"><stop offset=".16" stop-color="#6bbf47"/><stop offset=".38" stop-color="#79b461"/><stop offset=".47" stop-color="#75ac64"/><stop offset=".7" stop-color="#659e5a"/><stop offset=".9" stop-color="#3e863d"/></linearGradient><path d="m94.935474 90.549795c0-1.84-.97-3.53-2.558-4.445l-42.356-24.37c-.715-.42-1.516-.64-2.328-.67h-.438c-.812.03-1.613.25-2.34.67l-42.3540004 24.37c-1.57800003.92-2.56200003 2.61-2.56200003 4.45l.093 65.640005c0 .91.47 1.76 1.27000003 2.21.78.48 1.76.48 2.54 0l25.1800004-14.42c1.59-.946 2.56-2.618 2.56-4.44v-30.665c0-1.83.97-3.52 2.555-4.43l10.72-6.174005c.796-.46 1.67-.688 2.56-.688.876 0 1.77.226 2.544.687l10.715 6.172005c1.586.91 2.56 2.6 2.56 4.43v30.663c0 1.82.983 3.5 2.565 4.44l25.164 14.41c.79.47 1.773.47 2.56 0 .776-.45 1.268-1.3 1.268-2.21zm199.867996 34.176005c0 .457-.243.88-.64 1.106l-14.548 8.386c-.395.227-.883.227-1.277 0l-14.55-8.386c-.4-.227-.64-.65-.64-1.106v-16.796c0-.458.24-.88.63-1.11l14.54-8.400005c.4-.23.89-.23 1.29 0l14.55 8.400005c.4.23.64.652.64 1.11zm3.93-124.40200495c-.794-.442-1.76-.43-2.544.027-.78.46-1.262 1.29999995-1.262 2.20999995v65c0 .64-.34 1.23-.894 1.55-.55.32-1.235.32-1.79 0l-10.61-6.111c-1.58-.914-3.526-.914-5.112 0l-42.37 24.453c-1.583.91-2.56 2.6-2.56 4.42v48.920005c0 1.83.977 3.51 2.56 4.43l42.37 24.47c1.582.91 3.53.91 5.117 0l42.37-24.48c1.58-.92 2.56-2.6 2.56-4.43v-121.920005c0-1.856-1.01-3.563-2.63-4.47zm141.093 107.16400495c1.574-.914 2.543-2.602 2.543-4.422v-11.856005c0-1.824-.97-3.507-2.547-4.425l-42.1-24.44c-1.59-.92-3.54-.92-5.13 0l-42.36 24.45c-1.59.92-2.56 2.6-2.56 4.43v48.900005c0 1.84.99 3.54 2.58 4.45l42.09 23.99c1.55.89 3.45.9 5.02.03l25.46-14.15c.8-.45 1.31-1.3 1.31-2.22s-.49-1.78-1.29-2.23l-42.62-24.46c-.8-.45-1.29-1.3-1.29-2.21v-15.34c0-.916.48-1.76 1.28-2.216l13.26-7.650005c.79-.46 1.76-.46 2.55 0l13.27 7.650005c.79.45 1.28 1.3 1.28 2.21v12.06c0 .91.49 1.76 1.28 2.22.79.45 1.77.45 2.56-.01zm0 0" fill="#333" fill-rule="evenodd"/><path d="m394.53747 105.1998c.3-.177.676-.177.98 0l8.13 4.69c.304.176.49.5.49.85v9.39c0 .35-.186.674-.49.85l-8.13 4.69c-.304.177-.68.177-.98 0l-8.125-4.69c-.31-.176-.5-.5-.5-.85v-9.39c0-.35.18-.674.49-.85zm0 0" fill="#689f63" fill-rule="evenodd"/><g clip-path="url(#a)" transform="translate(-78.306526 -164.0162)"><path d="m331.363 246.793-118.715-58.19-60.87 124.174 118.712 58.193zm0 0" fill="url(#b)"/></g><g clip-path="url(#c)" transform="translate(-78.306526 -164.0162)"><path d="m144.07 264.004 83.825 113.453 110.86-81.906-83.83-113.45zm0 0" fill="url(#d)"/></g><g clip-path="url(#e)" transform="translate(-78.306526 -164.0162)"><path d="m197.02 225.934v107.43h91.683v-107.43zm0 0" fill="url(#f)"/></g></svg>
