<svg viewBox="0 0 1086 1086" xmlns="http://www.w3.org/2000/svg"><g transform="translate(.9 .8546)"><path d="m499.433211.27868926c-2.533332.2666666-10.666664 1.1999997-17.999995 1.86666621-104.266642 10.93333063-206.933283 55.06665323-290.666596 125.19996953-15.466663 12.799997-50.666654 47.999988-63.466651 63.466651-69.3333166 82.79998-109.8666401 175.733291-124.79996915 285.733264-3.33333313 24.399994-3.33333313 106.799974 0 131.199968 14.93332905 109.999973 55.46665255 202.933283 124.79996915 285.733263 12.799997 15.466663 47.999988 50.666654 63.466651 63.466651 82.79998 69.333318 175.73329 109.866638 285.733264 124.799968 24.399994 3.33333 106.799973 3.33333 131.199967 0 109.999974-14.93333 202.933284-55.46665 285.733264-124.799968 15.466663-12.799997 50.666654-47.999988 63.466651-63.466651 69.333314-82.79998 109.866644-175.73329 124.799974-285.733263 3.33333-24.399994 3.33333-106.799974 0-131.199968-14.93333-109.999973-55.46666-202.933284-124.799974-285.733264-12.799997-15.466663-47.999988-50.666654-63.466651-63.466651-82.533313-69.0666499-176.399957-110.1333065-284.933264-124.66663633-11.73333-1.59999961-28.799993-2.26666611-60.399985-2.53333271-24.133327-.26666661-46.133322-.1333333-48.666655.1333333zm6.666665 57.59998594c0 15.6000025 1.066667 49.4666548 2.533333 81.5999798.8 15.73333 1.733333 38.266658 2.133333 49.999988 1.466666 41.59999 5.866665 150.799963 6.533338 160.533294l.66666 9.733331-5.999998-.666666c-3.333333-.266667-6.399999-1.066667-6.933332-1.466667-.4-.533333-1.333333-9.733331-1.866666-20.533328-2.4-47.466655-10.266664-231.599943-11.066664-258.5332702l-.8-29.5999928 3.733332-.5333332c2-.2666666 5.333332-.6666665 7.466665-.7999998l3.599999-.1333333zm127.599969-3.1999992c.133333.1333333.533333 40.3999901.933333 89.466645.533333 49.199988 1.2 93.33331 1.6 98.133309.4 4.933332.266666 9.199998-.4 9.466665-.533333.399999-3.866666.399999-7.199998 0l-6.133332-.533334-.933333-38.79999c-.533333-21.466662-1.2-45.199989-1.466667-52.933321-1.066666-23.599994-1.999999-103.7333076-1.199999-105.7333071.533333-1.4666663 1.999999-1.5999996 7.599998-.6666665 3.866666.7999998 7.066665 1.4666663 7.199998 1.5999996zm-308.399925 44.6666557c.8 1.1999993 7.066665 74.6666483 14.799997 170.7999583 2.533333 32.666659 5.066665 62.533318 5.466665 66.266651.666667 6.799998.533333 7.066664-3.733332 9.73333-2.4 1.466667-4.799999 2.666666-5.333332 2.666666-.4 0-1.2-3.466665-1.6-7.733331-1.866666-17.333329-9.066664-101.066642-14.13333-161.59996-2.933332-35.599992-5.599998-67.466651-5.999998-70.933317-.666667-5.866665-.533334-6.399998 2.933332-8.266664 4.266666-2.2666663 6.666665-2.6666662 7.599998-.9333333zm367.066577 26.7999933c3.733333 1.333333 4.133333 2 4.933333 9.599998 1.333333 13.33333.933333 77.066648-.533334 77.066648-3.866665 0-11.866663-4.533333-12.53333-7.066665-.4-1.6-.8-20.533329-.8-41.99999 0-43.333323-.533333-40.79999 8.933331-37.599991zm-246.266606 6.266665c0 3.599999.933333 23.466661 1.999999 44.399989 1.066667 20.933329 2.266667 47.466656 2.8 58.933319.933333 23.199995 1.199999 22.399995-7.733332 22.933328-4.399999.133333-4.399999.133333-4.666665-6.533332-.266667-3.733332-.933333-15.333329-1.733333-25.999993-.666667-10.666664-2.266666-33.733325-3.333333-51.333321-1.066666-17.599996-2.399999-35.066658-2.799999-38.799991-.8-6.666665-.666666-6.933331 2.933333-8.266664 2.133332-.8 5.866665-1.466667 8.266664-1.466667 4.266666-.133333 4.266666-.133333 4.266666 6.133332zm369.866576 18.266663 4.533333 1.866666.933333 17.866662c.4 9.733331.666666 30.799993.4 46.666655l-.4 29.06666-5.599999-2.799999-5.599999-2.666666-.4-44.266656c-.266666-24.399994-.133333-45.066656.133334-45.999989.533333-2 .533333-2 5.999998.266667zm-243.466607 17.466662c.8.8 2.666666 65.466651 2.799999 98.266643l.133334 19.733328-6.266665-.933333c-3.6-.4-6.533332-.8-6.666665-.933333-.399999-.266667-4.399999-99.066643-4.399999-108.66664v-9.866664l6.799998.799999c3.866666.533334 7.200002 1.200001 7.599998 1.6zm307.066592 9.466664c1.599999 1.866667 1.866666 31.066659 2.266669 192.133287.399997 184.933288.399997 189.733287-2 189.733287-1.466669 0-3.466668-.8-4.666668-1.733333-2-1.466666-2.266666-17.599996-2.933333-175.599957-.533333-95.73331-1.199999-182.666622-1.599999-193.199953l-.8-19.199995 3.866666 2.799999c2.266666 1.599999 4.799998 3.866666 5.866665 5.066665zm-119.599971 27.333327c.666666.533333 1.333333 8.133331 1.466669 16.799996.666664 29.466659.799997 210.133282.133331 210.666615-.266667.266667-2.666666-.4-5.333332-1.466666l-4.799999-2v-226.799944l3.733332.799999c2 .533334 4.133332 1.333333 4.799999 2zm-367.99991 7.466665c.4 3.599999 1.066666 11.73333 1.466666 18.399995.4 6.533332 1.333333 21.466662 2.133333 33.066659 1.6 23.466661 1.333333 24.933327-6.266665 24.933327-3.999999 0-4.533332-.4-5.066666-4.399999-1.333333-7.866665-5.999998-73.466649-5.333332-74.533315.666667-.933333 7.599998-3.333332 10.799998-3.599999.8-.133333 1.866666 2.666666 2.266666 6.133332zm-220.53328 33.999991c1.466667 14.13333 4.399999 43.733323 6.533332 65.733318 2.266666 21.999994 4.133332 40.666657 4.133332 41.466656 0 1.6-10.266664 6.666665-11.333327 5.599999-.66667-.666667-14-118.666638-14-123.99997 0-3.199999 10.266664-16.666662 11.599997-15.199996.400003.266667 1.733333 12.13333 3.066666 26.399993zm522.799873 13.999997 3.866665 2.266666.133334 28.799993c.133336 15.73333.4 33.333325.4 39.066657.266666 11.999997-1.2 13.999997-8.399998 11.466664l-4.133333-1.466666v-11.466664c0-6.399998-.4-24.933327-.933333-41.333323l-.8-29.599993h3.066666c1.6 0 4.666666 1.066666 6.799999 2.266666zm-464.266554 51.733321c2.4 25.599994 6.266666 68.799983 8.799998 95.999976l4.533332 49.333322-5.199998 5.199998-5.066666 5.199999-.933333-10.533331c-.533329-5.866665-3.199999-33.066658-5.999998-60.533318-2.8-27.46666-6.799999-67.333317-8.799998-88.533312l-3.733333-38.399991 5.199999-4.799998c4.666666-4.399999 5.199999-4.533333 6.133332-2.133333.533333 1.333333 2.799999 23.466661 5.066665 49.199988zm-99.866642 16.133329c2.933333 26.26666 10.666664 96.13331 17.333329 155.199962 6.666665 59.066653 12.93333 115.999972 14.13333 126.666636 1.066666 10.666664 2.933333 26.799993 3.999999 35.999991 1.866666 15.599996 1.866666 16.666663-.266667 18.266662-3.199999 2.4-4.533332 2.133333-4.533332-.666666 0-1.2-1.199999-11.333331-2.666666-22.266661-2.399999-18.266662-6.399998-49.199988-15.333329-118.666638-1.866667-13.999997-5.466666-41.866656-7.999998-61.999985-2.666666-20.133328-6.533332-50.133321-8.666665-66.66665-2.133333-16.53333-5.733332-44.799989-7.999998-63.066652-2.399999-18.133328-3.866666-34.266658-3.466666-35.999991.933333-3.599999 8.799998-16.133329 9.599998-15.333329.266666.4 2.933332 22.133328 5.866665 48.533321zm-40.79999 57.466653c1.9999996 15.999996 5.733332 45.199989 8.2666647 65.066651 2.5333323 19.733328 5.7333323 44.399989 7.1999983 54.666653l2.533333 18.666662-2.8 2.399999c-1.599999 1.333333-3.199999 1.866667-3.733332 1.333333-.533333-.533333-1.5999997-5.866665-2.3999995-11.73333s-5.7333319-40.133324-11.066664-75.999981l-9.4666643-65.333313 3.0666659-9.066669c1.5999996-4.933331 3.3333325-8.933331 3.7333324-8.933331.5333332 0 2.5333327 13.066663 4.6666655 28.933326zm731.999821-17.466663c1.866667 1.866668 2.133333 10.133331 2.133333 71.333316v69.199983h-3.733332c-8.133332 0-7.999998 2-8.533332-73.733315l-.399999-68.933316h4.266665c2.266666 0 5.199999.933333 6.266665 2.133332zm-291.866595 23.866661c30.133326 4.533332 56.399986 12.93333 82.39998 26.266661 16.799996 8.666664 24.799994 14.666663 43.466656 32.533325 27.733326 26.533327 44.799989 49.733321 60.799985 82.533313 23.333328 47.733322 32.399992 89.999978 43.866656 203.333284 5.199999 50.799987 11.999997 142.933298 13.466663 180.666622.4 10.933331 1.333333 28.933327 2.133333 39.999991 1.466666 23.466661 3.199999 20.266661-17.466662 30.266659-28.66666 13.866665-56.266653 23.466665-92.666644 32.399995-44.533323 10.93333-73.333316 14.39999-117.333305 14.53333l-31.999992.13333.266666-15.33333c0-8.4.8-27.999993 1.6-43.333322 3.999999-74.266649 3.199999-167.999959-1.999999-219.999947-2.933333-29.866659-8.666665-66.133317-11.866664-74.133315-.666667-1.733333 2.399999-3.199999 15.599996-7.733331 24.133327-8.399998 45.066656-18.933329 48.266655-24.133328 5.733332-9.866664-4.533332-23.999994-17.599996-23.999994-2.266666 0-9.066664 2.4-15.333329 5.199999-29.86666 13.73333-89.733312 29.866659-124.266637 33.466658-23.866661 2.533333-60.933318 1.066667-86.666645-3.599999-13.999997-2.533332-39.066657-11.999997-59.999986-22.799994-24.133327-12.53333-38.933323-29.199993-43.333322-48.933322-2.4-10.666664-1.733333-31.999992 1.333333-43.999989 3.333332-13.199997 12.666663-32.399992 21.199994-43.599989 37.999991-49.999988 116.399972-93.333311 196.799952-108.533307 25.599994-4.799999 61.866652-5.333332 89.333312-1.2zm411.333235 4.133333c4.799997 1.999999 5.33333 2.533332 5.33333 7.066665.266666 36.399991-.533333 119.59997-1.2 123.066636-.13333 1.2-7.066665 1.333333-9.999997.266667-1.866667-.666667-2.133333-7.866665-2.133333-66.666651 0-42.133323.533333-65.86665 1.333333-65.86665.666667 0 3.733332.933333 6.666667 2.133333zm58.26665 73.199982 4.800001 2-.93334 110.399972c-1.06666 140.666633-1.19999 144.799965-6.26666 156.933295-8.266665 19.866662-7.866665 23.866661-7.066665-63.333318.266667-43.599989.933333-87.733312 1.2-97.999976.266666-10.266664.533333-39.19999.666666-64.399984 0-30.399993.4-45.599989 1.333333-45.599989.8 0 3.599999.933333 6.266665 2zm-801.866471 33.199992c.8 10.799997.533334 11.866663-3.333332 20.399995l-4.266666 9.066664-1.599999-13.33333c-2.533333-21.333328-2.533333-22.266661 2.533332-25.46666 2.266666-1.6 4.666666-2.666666 5.066666-2.4.4.266667 1.199999 5.599999 1.599999 11.733331zm-82.39998 80.39998c1.2 10.933331 10.533331 83.466646 15.33333 119.066638 7.199998 55.066653 7.733332 62.933318 4.533332 59.599985-.4-.4-3.466666-18.933329-6.666665-41.19999-20.799995-143.733298-20.666661-142.799965-18.933328-143.866631 3.599999-2.4 4.799998-1.066667 5.733331 6.399998zm95.999977 61.066652c.8 3.333332 4.666666 39.466657 4.666666 43.866656 0 3.733332-4.799997 7.199998-6.933332 5.066665-.666667-.666666-2.399999-11.999997-3.733332-25.06666-1.466667-13.199991-2.933333-26.933327-3.333333-30.533326l-.8-6.666665 4.666666 5.333332c2.666666 2.933332 5.066665 6.533331 5.466665 7.999998zm107.599974 50.266654c1.466666 1.333333 2.399999 6.666665 3.599999 21.066662 1.999999 25.999993 2.266666 23.999994-3.199999 23.999994-5.599999 0-5.466666.4-7.333332-23.066661-1.866666-23.866661-1.866666-23.600059 1.733333-23.600059 1.733333 0 3.999999.800064 5.199999 1.600064zm105.599974 2c.266667 1.333333.933333 9.333331 1.466666 17.733329.4 8.399998 1.6 27.333326 2.666666 41.999989 3.733333 53.866654 3.866666 60.666652 1.6 60.666652-2.533333 0-2.799999-1.999999-5.733332-39.99999-1.066666-15.733329-3.066666-40.533323-4.399999-55.066653-1.2-14.53333-1.999999-26.66666-1.6-26.933327 1.466667-1.6 5.333333-.4 5.999999 1.6zm-250.666605 25.599993c.799999 1.2 5.866665 43.866656 12.13333 102.133309 1.866666 17.599995 3.733332 34.533325 4.133332 37.733324l.666667 5.733332-3.333333-2.133333c-2.533332-1.733333-3.466666-3.466666-3.466666-6.533332 0-8.399998-5.733332-63.733317-10.13333-97.599976-2.533333-19.199995-4.533333-36.133324-4.533333-37.733324 0-2.799999 3.2-3.866666 4.533333-1.6zm769.466478 55.73332-.933333 55.73332-3.333332 4.933332c-7.599998 11.199997-7.199999 13.33333-6.799999-49.066655l.266667-57.199983 4.933332-5.066668c2.666666-2.666666 5.333332-4.933332 5.866665-4.933332.4 0 .4 25.06666 0 55.599986zm-123.333303 88.399979c.666667 77.466647.533333 83.466646-1.599999 85.866645-1.333333 1.466667-2.533333 2.4-2.933333 2-.933333-1.066667-2.266666-169.999959-1.2-170.933292.533333-.533333 1.866666-.8 3.066666-.666666 1.733333.4 2.133333 9.866664 2.666666 83.733313zm-435.46656-53.066654c.933333 8.266664 4.266665 47.866655 5.599998 66.533317.8 12.53333.8 12.93333-2.133332 13.866663-1.6.533333-3.466666.4-3.999999-.266666-.933334-.933334-3.866666-30.533326-7.466665-76.133315l-.933333-10.933331h4.133332c3.866668 0 4.133332.266667 4.799999 6.933332zm-104.799975 46.666655c.933333.933333 1.6 4.266666 1.6 7.599998 0 3.466666 1.6 21.466662 3.333332 40.133324 5.066666 51.066654 5.466666 57.999986 3.2 56.666653-3.466666-2-6.533332-5.066666-5.866666-5.866666.266667-.533333-.266666-7.199998-1.333333-14.799996-.933333-7.733331-2.133332-20.266662-2.666666-27.999993-.533333-7.733332-1.733332-21.866662-2.799999-31.33332-2.533333-23.333334-2.399999-26 .533333-26 1.333333 0 3.066666.666667 3.999999 1.6zm63.066652 89.733312c.4 2.933332 1.199999 13.866663 1.733333 24.26666.933333 19.999995.533333 21.466662-4.933333 17.333329-1.599999-1.199999-2.666666-6.266665-4.266665-21.466661-2.8-27.46666-2.933333-26.399994 2.266666-25.86666 3.866666.399999 4.399999.933333 5.199999 5.733332z"/><path d="m294.633261 456.011911c-13.866663 5.999999-14.933329 24.799994-1.866666 31.466659 9.466664 4.799999 19.066662 2.533333 23.999994-5.733332 9.333331-15.199996-5.866665-32.799992-22.133328-25.733327zm90.399978 12.799997c-12.799997 7.866665-12.799997 26.799994 0 34.666658 12.666664 7.599999 29.06666-2.399999 29.06666-17.599995 0-14.666663-16.799996-24.533328-29.06666-17.066663z"/></g></svg>