<svg viewBox="0 0 1002 1002" xmlns="http://www.w3.org/2000/svg"><g fill="#fff"><path d="m461.568161.25754937c-2.341266.24643868-9.85796 1.10897408-16.635307 1.72507079-96.361557 10.10398614-191.24442 50.88958854-268.629404 115.70296284-14.294042 11.829057-46.825309 44.358963-58.654861 58.652407-64.0767388 76.519212-101.536986 162.403094-115.33812967 264.059051-3.08061244 22.54914-3.08061244 98.698694 0 121.247833 13.80114367 101.655958 51.26139087 187.53984 115.33812967 264.059052 11.829552 14.293443 44.360819 46.82335 58.654861 58.652407 76.522412 64.074058 162.409887 101.532738 264.070097 115.333304 22.550083 3.080483 98.702823 3.080483 121.252906 0 101.66021-13.800566 187.547685-51.259246 264.070098-115.333304 14.294041-11.829057 46.825309-44.358964 58.65486-58.652407 64.076739-76.519212 101.536986-162.403094 115.33813-264.059052 3.080609-22.549139 3.080609-98.698693 0-121.247833-13.801144-101.655957-51.261391-187.539839-115.33813-264.059051-11.829551-14.293444-44.360819-46.82335-58.65486-58.652407-76.275964-63.8276196-163.02601-101.7791771-263.330751-115.21008547-10.843756-1.47863211-26.616492-2.09472882-55.820698-2.34116751-22.303634-.24643868-42.635676-.12321934-44.976941.12321935zm6.161225 53.23075603c0 14.4166631.985796 45.7143761 2.341265 75.4102376.739347 14.539882 1.601919 35.363951 1.971592 46.207254 1.35547 38.444434 5.421878 139.361076 6.038001 148.356088l.616122 8.995012-5.545102-.616097c-3.080613-.246438-5.914776-.985754-6.407674-1.355412-.369674-.492878-1.232245-8.995012-1.725143-18.975779-2.218041-43.866086-9.488286-214.0319983-10.227633-238.9223055l-.739347-27.3546941 3.450286-.4928773c1.848367-.2464387 4.928979-.6160968 6.900571-.7393161l3.327062-.1232193zm117.925844-2.9572642c.123224.1232193.492898 37.3354608.862571 82.6801788.492898 45.467937 1.109021 86.25354 1.478694 90.689436.369674 4.559116.246449 8.502135-.369673 8.748574-.492898.369658-3.573511.369658-6.654123 0l-5.668327-.492878-.862572-35.856829c-.492898-19.838314-1.10902-41.771357-1.355469-48.918079-.985796-21.809823-1.848367-95.8646481-1.10902-97.7129382.492898-1.3554128 1.848367-1.4786322 7.023796-.6160968 3.57351.7393161 6.530898 1.3554128 6.654123 1.4786322zm-285.018263 41.2784797c.739347 1.1089741 6.530899 69.0028321 13.67792 157.8439781 2.341265 30.188739 4.68253 57.789872 5.052204 61.240013.616122 6.284187.492898 6.530625-3.450286 8.995012-2.218041 1.355413-4.436082 2.464387-4.92898 2.464387-.369673 0-1.10902-3.203703-1.478694-7.146722-1.725143-16.018514-8.379266-93.400262-13.061797-149.341843-2.710938-32.899565-5.175428-62.348988-5.545102-65.55269-.616122-5.4216515-.492898-5.9145289 2.710939-7.6395997 3.943184-2.0947288 6.161225-2.4643868 7.023796-.8625354zm339.237042 24.7670881c3.450286 1.232193 3.819959 1.84829 4.559306 8.871792 1.232245 12.321935.862571 71.22078-.492898 71.22078-3.57351 0-10.96698-4.189457-11.583103-6.530625-.369673-1.478632-.739347-18.975778-.739347-38.814093 0-40.046286-.492898-37.705118 8.256042-34.747854zm-227.595647 5.791309c0 3.326922.862571 21.686604 1.848367 41.032041s2.094817 43.866086 2.587715 54.462949c.862571 21.440166 1.10902 20.70085-7.147021 21.193727-4.066408.12322-4.066408.12322-4.312857-6.037747-.246449-3.450142-.862572-14.170225-1.601919-24.027772-.616122-9.857548-2.094816-31.174494-3.080612-47.439447s-2.218041-32.406687-2.587715-35.856829c-.739347-6.160967-.616122-6.407406 2.710939-7.639599 1.971592-.739316 5.421878-1.355413 7.639919-1.355413 3.943184-.123219 3.943184-.123219 3.943184 5.66809zm341.824756 16.88105 4.189633 1.725071.862571 16.511392c.369673 8.995012.616122 28.463668.369673 43.126769l-.369673 26.861817-5.175429-2.587606-5.175429-2.464387-.369673-40.908822c-.246449-22.549139-.123225-41.648137.123224-42.510673.492898-1.84829.492898-1.84829 5.545103.246439zm-225.007933 16.141734c.739347.739316 2.46449 60.500697 2.587715 90.812655l.123224 18.236463-5.791551-.862535c-3.327061-.369658-6.038-.739317-6.161225-.862536-.369673-.246439-4.066408-91.551971-4.066408-100.423764v-9.118231l6.284449.739316c3.573511.492877 6.654123 1.108974 7.023796 1.478632zm283.786018 8.748573c1.478694 1.725071 1.725143 28.710107 2.094816 177.559073.369674 170.905228.369674 175.341124-1.848367 175.341124-1.35547 0-3.203837-.739316-4.312858-1.601851-1.848367-1.355413-2.094816-16.264953-2.710939-162.279874-.492897-88.471488-1.10902-168.8105-1.478693-178.544828l-.739347-17.743585 3.57351 2.587606c2.094816 1.478632 4.436082 3.573361 5.421878 4.682335zm-110.532374 25.259965c.616122.492878 1.232245 7.51638 1.355469 15.525637.616123 27.231475.739347 194.193684.123225 194.686562-.246449.246438-2.46449-.369658-4.92898-1.355413l-4.436082-1.84829v-209.596102l3.450286.739316c1.848367.492878 3.819959 1.232194 4.436082 1.84829zm-340.099613 6.900283c.369674 3.326923.985796 10.843303 1.35547 17.00427.369673 6.037748 1.232245 19.838314 1.971591 30.558397 1.478694 21.686604 1.232245 23.042017-5.791551 23.042017-3.696735 0-4.189633-.369658-4.682531-4.066239-1.232245-7.269941-5.545102-67.893857-4.92898-68.879612.616123-.862535 7.023797-3.080484 9.981185-3.326922.739347-.12322 1.725143 2.464387 2.094816 5.668089zm-203.813319 31.420933c1.35547 13.06125 4.066409 40.415944 6.038001 60.747136 2.094816 20.331191 3.819959 37.581899 3.819959 38.321215 0 1.478632-9.488286 6.160967-10.474082 5.175213-.616123-.616097-12.938572-109.665215-12.938572-114.593989 0-2.957264 9.488286-15.402418 10.720531-14.047005.369674.246439 1.601918 11.21296 2.834163 24.39743zm483.163255 12.938031 3.57351 2.094729.123224 26.615378c.123225 14.539882.369674 30.804835.369674 36.103267.246449 11.089741-1.109021 12.938031-7.763143 10.596863l-3.81996-1.355412v-10.596864c0-5.914528-.369673-23.042017-.862571-38.197996l-.739347-27.354694h2.834163c1.478694 0 4.312858.985755 6.28445 2.094729zm-429.0677 47.809105c2.218041 23.658114 5.791551 63.581181 8.132817 88.717926l4.189633 45.591157-4.805756 4.805555-4.682531 4.805554-.862571-9.734328c-.492898-5.421651-2.957388-30.558397-5.545103-55.941582-2.587714-25.383184-6.284449-62.225768-8.132816-81.817643l-3.450286-35.487171 4.805755-4.435896c4.312857-4.066239 4.805755-4.189458 5.668327-1.97151.492898 1.232194 2.587714 21.686605 4.682531 45.467938zm-92.295149 14.90954c2.710939 24.274211 9.85796 88.841146 16.019185 143.427315s11.952776 107.200828 13.061797 117.058375c.985796 9.857548 2.710939 24.767088 3.696735 33.269223 1.725143 14.416663 1.725143 15.402418-.246449 16.88105-2.957388 2.217948-4.189633 1.971509-4.189633-.616097 0-1.108974-1.109021-10.473644-2.46449-20.57763-2.218041-16.88105-5.914776-45.467937-14.170817-109.665215-1.725143-12.938031-5.052205-38.690874-7.39347-57.296994-2.46449-18.606121-6.038001-46.330473-8.009593-61.609672-1.971592-15.279198-5.298653-41.401699-7.393469-58.282749-2.218041-16.75783-3.573511-31.667371-3.203837-33.269222.862571-3.326922 8.132816-14.909541 8.872163-14.170225.246449.369659 2.710939 20.454411 5.421878 44.851841zm-37.7066959 53.107537c1.8483675 14.786321 5.2986534 41.771357 7.6399188 60.131039 2.3412655 18.236463 5.2986534 41.032041 6.6541229 50.519931l2.3412654 17.250708-2.5877144 2.217948c-1.478694 1.232193-2.9573879 1.72507-3.4502859 1.232193s-1.478694-5.421651-2.218041-10.843302-5.2986534-37.089022-10.2276333-70.235025l-8.7489393-60.377478 2.8341635-8.378916c1.4786939-4.559115 3.0806124-8.255695 3.4502859-8.255695.492898 0 2.3412654 12.075495 4.3128574 26.738597zm676.5024909-16.141734c1.725142 1.725071 1.971591 9.36467 1.971591 65.922348v63.950839h-3.450285c-7.516695 0-7.39347 1.84829-7.886368-68.140296l-.369674-63.7044h3.943184c2.094817 0 4.805756.862535 5.791552 1.971509zm-269.738425 22.056262c27.848736 4.189458 52.123962 11.952277 76.152739 24.274211 15.526287 8.009257 22.919757 13.554127 40.171186 30.065519 25.630696 24.52065 41.403431 45.960815 56.190371 76.272773 21.564287 44.112525 29.943553 83.173057 40.54086 187.909498 4.805755 46.94657 11.090204 132.091135 12.445674 166.962209.369673 10.103986 1.232245 26.738598 1.971592 36.965803 1.355469 21.686604 2.957388 18.72934-16.142409 27.970791-26.493267 12.814811-52.000738 21.686604-85.641026 29.9423-41.156982 10.103986-67.773473 13.307689-108.437558 13.430908l-29.573879.12322.246449-14.170225c0-7.762818.739347-25.876062 1.478694-40.046286 3.696735-68.633174 2.957388-155.256372-1.848367-203.311915-2.710939-27.601133-8.009593-61.116794-10.966981-68.509955-.616122-1.601851 2.218041-2.957264 14.417267-7.146722 22.303634-7.762818 41.64988-17.497146 44.607268-22.302701 5.298653-9.118231-4.189633-22.179481-16.265634-22.179481-2.094817 0-8.379266 2.217948-14.170817 4.805554-27.602288 12.691592-82.930087 27.601133-114.845232 30.928055-22.057185 2.341167-56.313595.985755-80.095923-3.326922-12.938572-2.341168-36.104778-11.089741-55.451024-21.070508-22.303634-11.582618-35.981553-26.985036-40.047962-45.221499-2.21804-9.857547-1.601918-29.572642 1.232245-40.662383 3.080613-12.198715 11.706328-29.9423 19.592696-40.292725 35.118981-46.207253 107.574986-86.25354 181.879358-100.300545 23.659103-4.435896 57.176166-4.928773 82.560413-1.108974zm380.147574 3.8198c4.436082 1.84829 4.92898 2.341167 4.92898 6.530625.246449 33.638881-.492898 110.52775-1.10902 113.731453-.123225 1.108974-6.530899 1.232194-9.241838.246439-1.725143-.616097-1.971592-7.269941-1.971592-61.609671 0-38.937313.492898-60.870356 1.232245-60.870356.616123 0 3.450286.862536 6.161225 1.97151zm53.849105 67.647419 4.436082 1.84829-.862571 102.025616c-.985796 129.996406-1.109021 133.816206-5.791551 145.029166-7.639919 18.359682-7.270246 22.056262-6.530899-58.529188.246449-40.292725.862572-81.078327 1.109021-90.566216.246449-9.48789.492898-36.226487.616122-59.514943 0-28.09401.369674-42.141015 1.232245-42.141015.739347 0 3.327062.862535 5.791551 1.84829zm-741.072127 30.681616c.739347 9.980767.492898 10.966522-3.080612 18.85256l-3.943184 8.378915-1.478694-12.321934c-2.341265-19.715095-2.341265-20.57763 2.341266-23.534895 2.094816-1.478632 4.312857-2.464386 4.68253-2.217948.369674.246439 1.109021 5.175213 1.478694 10.843302zm-76.152739 74.301264c1.109021 10.103986 9.734735 77.135308 14.170817 110.034873 6.654123 50.889588 7.147021 58.15953 4.189633 55.079046-.369673-.369658-3.203837-17.497147-6.161225-38.074777-19.2230213-132.830451-19.0997968-131.967916-17.497878-132.953671 3.327061-2.217948 4.436082-.985754 5.298653 5.914529zm88.721638 56.434459c.739347 3.080483 4.312858 36.472925 4.312858 40.539164 0 3.450141-4.436082 6.653844-6.407674 4.682335-.616123-.616097-2.218041-11.089741-3.450286-23.165237-1.35547-12.198715-2.710939-24.890307-3.080613-28.217229l-.739347-6.160967 4.312858 4.928773c2.46449 2.710826 4.682531 6.037748 5.052204 7.393161zm99.44217 46.453692c1.355469 1.232193 2.21804 6.160967 3.327061 19.468656 1.848367 24.027772 2.094816 22.179482-2.957388 22.179482-5.175429 0-5.052204.369658-6.777347-21.316946-1.725143-22.056263-1.725143-21.809884 1.601918-21.809884 1.601919 0 3.696735.739376 4.805756 1.478692zm97.593801 1.84829c.246449 1.232194.862572 8.625354 1.35547 16.388173.369673 7.762818 1.478694 25.259965 2.46449 38.814093 3.450286 49.780614 3.57351 56.064801 1.478694 56.064801-2.341266 0-2.587715-1.848291-5.298654-36.965803-.985796-14.539883-2.834163-37.45868-4.066408-50.889589-1.10902-13.430908-1.848367-24.643868-1.478694-24.890307 1.35547-1.478632 4.92898-.369658 5.545102 1.478632zm-231.662055 23.658114c.739347 1.108974 5.421878 40.539164 11.21343 94.386016 1.725143 16.264954 3.450286 31.91381 3.819959 34.871074l.616123 5.298432-3.080613-1.971509c-2.341265-1.601852-3.203837-3.203703-3.203837-6.037748 0-7.762819-5.298653-58.898846-9.365062-90.196559-2.341265-17.743585-4.189632-33.392442-4.189632-34.871074 0-2.587606 2.957387-3.573361 4.189632-1.478632zm711.128575 51.505685-.862572 51.505685-3.080612 4.559116c-7.023797 10.350425-6.654123 12.321934-6.28445-45.344718l.246449-52.861098 4.559307-4.682335c2.46449-2.464387 4.92898-4.559116 5.421878-4.559116.369673 0 .369673 23.165237 0 51.382466zm-113.98266 81.694424c.616122 71.590438.492898 77.135309-1.478694 79.353257-1.232245 1.355413-2.341266 2.217948-2.710939 1.84829-.862572-.985755-2.094817-157.104662-1.109021-157.967197.492898-.492878 1.725143-.739316 2.834164-.616097 1.601918.369658 1.971592 9.118232 2.46449 77.381747zm-402.451209-49.041298c.862572 7.639599 3.943184 44.235744 5.175429 61.486452.739347 11.582618.739347 11.952276-1.971592 12.814812-1.478694.492877-3.203837.369658-3.696735-.246439-.862571-.862536-3.57351-28.21723-6.900572-70.358245l-.862571-10.103986h3.819959c3.573511 0 3.81996.246439 4.436082 6.407406zm-96.854455 43.12677c.862572.862535 1.478694 3.943019 1.478694 7.023502 0 3.203703 1.478694 19.838315 3.080613 37.089023 4.682531 47.193008 5.052204 53.600414 2.957388 52.36822-3.203837-1.84829-6.038001-4.682335-5.421878-5.421651.246449-.492877-.246449-6.653844-1.232245-13.677347-.862572-7.146722-1.971592-18.72934-2.46449-25.876062s-1.601919-20.207972-2.587715-28.956545c-2.341265-21.563385-2.218041-24.027772.492898-24.027772 1.232245 0 2.834164.616096 3.696735 1.478632zm58.285188 82.926617c.369673 2.710826 1.10902 12.814812 1.601918 22.425921.862572 18.482901.492898 19.838314-4.559306 16.018514-1.478694-1.108974-2.46449-5.791309-3.943184-19.838314-2.587715-25.383184-2.710939-24.39743 2.094816-23.904552 3.573511.369658 4.066409.862535 4.805756 5.298431z"/><path d="m272.255534 421.494576c-12.854268 5.57288-13.843058 23.03457-1.730382 29.226659 8.77551 4.458304 17.674619 2.352994 22.247772-5.325196 8.651912-14.117963-5.438344-30.465077-20.51739-23.901463zm83.799942 11.88881c-11.865478 7.306665-11.865478 24.892198 0 32.198863 11.74188 7.058981 26.944524-2.229152 26.944524-16.347115 0-13.622596-15.57344-22.786887-26.944524-15.851748z"/></g></svg>