<svg xmlns="http://www.w3.org/2000/svg" viewBox="0 0 256 256"><circle cx="128" cy="128" r="128" style="fill:#86be43;stroke:none;stroke-width:0;stroke-miterlimit:4;stroke-dasharray:none"/><path d="M63 17.74c-9.507 5.634-18.246 12.374-26 20.248V158c0 28.565 23.435 52 52 52h78c28.565 0 52-23.435 52-52V93c0-21.385-17.615-39-39-39-9.99 0-19.067 3.95-26 10.227C147.067 57.949 137.99 54 128 54c-21.385 0-39 17.615-39 39v65h26V93c0-7.334 5.666-13 13-13s13 5.666 13 13v65h26V93c0-7.334 5.666-13 13-13s13 5.666 13 13v65c0 14.513-11.487 26-26 26H89c-14.513 0-26-11.487-26-26Z" style="fill:#505050;fill-opacity:1;stroke:none;stroke-width:0;stroke-miterlimit:4;stroke-dasharray:none"/></svg>