<svg viewBox="0 0 352 72" xmlns="http://www.w3.org/2000/svg"><g fill="#090"><path d="m8.67 0h5.38c5.88 2.47 9.29 8.04 13.22 12.72 10.58 12.85 21.03 25.81 31.71 38.58.15-14.47-.13-28.93.09-43.39-.28-3.56 2.45-5.99 5.04-7.91h4.25c3.02 1.54 5.68 4.27 5.39 7.92.08 17.69.16 35.4-.04 53.09.07 5.2-3.97 9.1-8.47 10.99h-5.33c-5.95-2.33-9.34-7.94-13.27-12.6-10.61-12.86-21.06-25.84-31.79-38.59-.35 14.73.18 29.48-.24 44.21.09 3.22-2.66 5.2-4.91 6.98h-4.27c-2.13-1.31-3.86-3.11-5.43-5.03v-58.09c1.43-4.12 4.65-7.27 8.67-8.88z"/><path d="m177.19 0h3.66c8.87 5.57 3.84 17.55 5.1 26.11-4.73.02-9.45.03-14.18-.02 1.39-8.47-4.06-21.15 5.42-26.09z"/><path d="m201.21 0h4.1c2.67 1.88 5.31 4.4 4.98 7.98.19 14.43-.03 28.87.08 43.31 10.56-12.79 20.83-25.83 31.27-38.73 3.84-4.61 7.13-10.18 12.94-12.56h4.79c5.19 1.62 9.21 6.37 8.85 11.99.04 17.34.1 34.7-.03 52.04.27 3.66-2.28 6.53-5.43 7.97h-3.41c-3.19-1.39-5.79-4.27-5.5-7.96-.21-14.44.05-28.89-.09-43.33-10.58 12.8-20.85 25.85-31.3 38.76-3.84 4.62-7.14 10.22-13 12.53h-4.73c-5.12-1.67-9.17-6.37-8.81-11.95-.07-17.37-.11-34.75.02-52.11-.27-3.61 2.27-6.38 5.27-7.94z"/><path d="m285.34 0h4.22c10.08 6.51 17.32 16.54 26.26 24.47 8.64-8.07 16.23-17.31 25.66-24.47h4.08c2.9 1.19 5.17 3.46 6.44 6.31v4.08c-7.21 9.42-16.55 16.94-24.61 25.61 8.07 8.63 17.3 16.2 24.61 25.52v4.05c-1.21 2.88-3.44 5.16-6.3 6.43h-4.03c-9.65-6.97-17.14-16.42-25.85-24.47-8.89 7.94-16.19 17.81-26.13 24.47h-3.99c-5.25-1.92-8.09-8.89-4.01-13.3 7.2-7.85 15.11-15.04 22.52-22.7-7.53-7.86-15.73-15.09-22.93-23.24-3.58-4.49-.48-10.45 4.06-12.76z"/><path d="m81.64 36.01c6.72-11.78 13.47-23.54 20.23-35.3 13.38.13 26.78-.22 40.15.16 6.45 7.95 11.79 16.81 17.71 25.19-5.88.11-11.76.09-17.64.01-2.68-3.78-5.33-7.59-8.01-11.38-7.99.01-15.99-.03-23.98.02-3.95 7.12-8.02 14.17-11.96 21.29 3.94 7.12 8.01 14.17 11.96 21.29 7.99.05 15.99.01 23.98.02 1.62-2.87 3.19-5.75 4.72-8.66-6.7-.26-13.45.41-20.12-.33-5.31-.63-7.89-7.93-4.16-11.76 2.02-2.56 5.51-2.62 8.48-2.64 13.53.07 27.07-.03 40.6.07-7.12 12.46-14.29 24.89-21.52 37.29-13.44.03-26.88-.04-40.32.04-6.81-11.71-13.42-23.53-20.12-35.31z"/><path d="m171.77 33.91c4.73-.05 9.45-.04 14.18-.02-.12 10.38.3 20.78-.14 31.15.07 3.2-2.6 5.2-4.88 6.96h-3.62c-2.8-1.31-5.57-3.56-5.43-6.96-.36-10.37-.03-20.76-.11-31.13z"/></g></svg>