<svg height="289" preserveAspectRatio="xMidYMid" viewBox="0 0 256 289" width="256" xmlns="http://www.w3.org/2000/svg"><path d="m178.496537 104.930808c0 15.153981-12.284729 27.43871-27.43871 27.43871s-27.43871-12.284729-27.43871-27.43871c0-15.1539809 12.284729-27.4387098 27.43871-27.4387098s27.43871 12.2847289 27.43871 27.4387098z" fill="#ffc131"/><circle cx="104.910905" cy="183.505296" fill="#24c8db" r="27.43871" transform="matrix(-1 0 -0 -1 209.82181 367.010592)"/><path d="m207.930789 192.859402c-11.027547 7.129066-23.29703 12.121476-36.169208 14.717126 3.730471-10.635699 4.967932-21.9862 3.61692-33.175895 29.95342-10.471196 49.821229-38.963778 49.292188-70.690319-.52904-31.7265408-21.335767-59.5408744-51.621652-69.0075787-30.285884-9.4667044-63.229257 1.5465249-81.7327652 27.3239081-13.9610641 1.5708192-27.5468018 5.5368421-40.1602937 11.7238125 13.7039641-44.2149351 54.8006899-74.19557919 101.0884469-73.74545575 46.287758.45012344 86.793676 31.22430915 99.635197 75.69738475 12.841521 44.4730751-5.025537 92.1023541-43.948833 117.1570171zm-155.5275968-100.0265705 25.6926102 3.1180352c.5827794-4.9615993 1.669303-9.8509554 3.2427567-14.5924049-10.162681 2.3626077-19.915424 6.2300747-28.9353669 11.4743697z" fill="#ffc131"/><path d="m47.9132215 95.5767025c11.0938398-7.201814 23.4510621-12.2378053 36.4186514-14.8418477-3.9225754 10.6340453-5.3312538 22.0315342-4.1158065 33.3006162-29.8473598 10.618426-49.5486118 39.147926-48.9061646 70.821307.6424471 31.673382 21.4843751 59.380524 51.737766 68.779896 30.2533912 9.399372 63.1268862-1.619021 81.6047922-27.351935 13.953502-1.53155 27.538904-5.455284 40.160294-11.599091-13.737752 44.166888-54.813716 74.098257-101.065572 73.644795-46.2518555-.453463-86.7330737-31.184436-99.60222534-75.612183-12.86915165-44.427747 4.91953395-92.037456 43.76826484-117.1415575zm155.5275975 100.0265705-.498886.249442z" fill="#24c8db"/></svg>