<svg xmlns="http://www.w3.org/2000/svg" viewBox="0 0 908 529"><g fill="none" fill-rule="evenodd"><path fill="#34a853" d="M904.55 508.38c-.28-1.86-.57-3.69-.88-5.53a449 449 0 0 0-6.91-33.705 454 454 0 0 0-17.86-56.595 456 456 0 0 0-20.51-45.22 461 461 0 0 0-33.08-53.943 455.4 455.4 0 0 0-49.94-58.826 448 448 0 0 0-23.78-22.024 456.6 456.6 0 0 0-56.63-41.706c.17-.287.33-.596.51-.884 9.14-15.794 18.3-31.566 27.44-47.361 8.94-15.42 17.88-30.838 26.83-46.257 6.42-11.067 12.85-22.156 19.25-33.223a42.7 42.7 0 0 0 3.62-8.13 41.77 41.77 0 0 0 .6-23.481 44 44 0 0 0-1.88-5.501 42 42 0 0 0-2.63-5.213c-3.42-5.743-8.3-10.736-14.44-14.38A42 42 0 0 0 736.53.7c-2.6-.221-5.23-.2-7.84.067-2.16.22-4.3.618-6.42 1.17A41.63 41.63 0 0 0 702.2 14.11a42 42 0 0 0-5.25 7.179c-6.43 11.067-12.85 22.157-19.26 33.224l-26.82 46.257c-9.14 15.794-18.31 31.566-27.45 47.36-.99 1.724-2.01 3.447-3 5.192-1.39-.552-2.76-1.105-4.15-1.635-50.408-19.218-105.097-29.733-162.26-29.733-1.567 0-3.113 0-4.681.022-50.825.508-99.664 9.344-145.213 25.205a411 411 0 0 0-15.654 5.81c-.927-1.613-1.877-3.226-2.804-4.838-9.141-15.795-18.304-31.567-27.444-47.361l-26.826-46.257a25159 25159 0 0 1-19.253-33.224 42 42 0 0 0-5.255-7.18A41.6 41.6 0 0 0 186.81 1.96a43 43 0 0 0-6.425-1.17 42 42 0 0 0-7.838-.067 41.4 41.4 0 0 0-17.729 5.7 41.5 41.5 0 0 0-14.44 14.38 42.5 42.5 0 0 0-2.627 5.214 40 40 0 0 0-1.877 5.5 41.73 41.73 0 0 0 .596 23.482 42.2 42.2 0 0 0 3.621 8.129c6.425 11.067 12.85 22.156 19.253 33.224l26.826 46.256c9.141 15.795 18.303 31.567 27.444 47.36.066.134.155.267.221.399a458 458 0 0 0-52.548 38.06 459 459 0 0 0-28.637 26.178 459 459 0 0 0-49.942 58.826 452 452 0 0 0-33.075 53.944A454 454 0 0 0 11.26 469.189a458 458 0 0 0-6.911 33.71c-.309 1.83-.596 3.69-.883 5.52a456 456 0 0 0-2.605 19.95H907.09c-.73-6.7-1.59-13.34-2.6-19.95z"/><path fill="#202124" fill-rule="nonzero" d="M689.7 403.046c18.13-12.071 20.77-39.995 5.89-62.371s-41.65-30.73-59.78-18.66-20.76 39.996-5.88 62.372 41.64 30.73 59.77 18.659m-410.886-18.581c14.881-22.376 12.247-50.3-5.884-62.371-18.132-12.071-44.894-3.717-59.775 18.659s-12.247 50.3 5.884 62.37 44.893 3.717 59.775-18.658"/></g></svg>