<svg xmlns="http://www.w3.org/2000/svg" viewBox="0 0 88 16"><g fill="#231f20" fill-rule="evenodd"><path d="M.252 14.947 3.421.681h5.657l.258 7.969L13.144.681h5.671l-3.182 14.266h-4.107l1.7-7.67-3.822 7.67H6.453l-.149-7.67-1.904 7.67zm19.052-11.94h3.822l.516-2.326h-3.835zm1.17 11.953-3.849-.013 2.353-10.566h3.849z"/><path d="M35.052 4.38h3.44l-.299 1.306c.476-.585 1.048-.952 1.768-1.197a5.6 5.6 0 0 1 1.795-.285l-.884 3.44c-.217 0-2.883-.516-3.712 3.55l-.857 3.766h-3.631zm-2.013 6.664c0 .082-1.21 4.324-6.527 4.216-7.126-.15-5.276-11.573 2.815-11.165 4.596.23 4.365 4.052 4.324 4.216h-3.97c.053-.15.19-1.727-1.075-1.7-2.352.068-4.025 5.902-1.428 5.956 1.197.041 1.754-1.346 1.863-1.523zM67.16 15.3c-7.738-.327-5.412-11.723 2.53-11.342 7.465.367 5.344 11.654-2.53 11.342m2.271-8.853c-2.57-.517-4.487 5.657-2.04 6.16 2.72.57 4.542-5.657 2.04-6.16"/><path d="M81.655 2.817c-1.06 0-1.264.407-1.44 1.21l-.069.354h2.244l.558-2.557h3.508l-.544 2.557h1.809l-.53 2.434h-1.81l-.992 4.637c-.04.258-.136.49-.04.775.149.422 1.658.245 1.658.245l-.585 2.42s-3.073.354-4.106-.366c-.462-.313-.966-.966-.653-2.367l1.183-5.33-2.108-.014-1.781 8.132h-3.781l1.768-8.132H74l.544-2.434h1.89c.34-1.36.639-2.285 1.482-2.992C79.072.45 82.077.818 82.077.818zM47.713 11.33l7.18-.014s-.612 1.591 1.645 1.605c1.564 0 2.176-1.782.068-2.149-.965-.177-4.705-.802-4.283-3.685.354-2.367 2.815-3.196 5.507-3.155 5.508.068 4.474 3.304 4.542 3.522H58.7s.395-1.36-1.264-1.36c-1.51 0-1.877 1.36-.136 1.727 2.121.462 4.556.571 4.691 3.305.041.762-.408 4.324-5.956 4.215-5.086-.108-5.44-2.502-5.304-3.617-.924 1.945-3.236 3.672-6.323 3.563-7.738-.245-5.385-11.709 2.543-11.315 3.604.177 4.977 2.91 4.542 5.603-.068.477-.109.544-.245.585zm-1.047-4.896c-2.543-.503-4.448 5.643-2.013 6.16 2.692.558 4.501-5.657 2.013-6.16"/></g></svg>