<?xml version="1.0" encoding="UTF-8"?>
<svg id="Layer_1" xmlns="http://www.w3.org/2000/svg" version="1.1" viewBox="0 0 468 222.5">
  <!-- Generator: Adobe Illustrator 29.7.1, SVG Export Plug-In . SVG Version: 2.1.1 Build 8)  -->
  <defs>
    <style>
      .st0 {
        fill: #533afd;
        fill-rule: evenodd;
      }
    </style>
  </defs>
  <path class="st0" d="M414,113.4c0-25.6-12.4-45.8-36.1-45.8s-38.2,20.2-38.2,45.6,17,45.3,41.4,45.3,20.9-2.7,27.7-6.5v-20c-6.8,3.4-14.6,5.5-24.5,5.5s-18.3-3.4-19.4-15.2h48.9c0-1.3.2-6.5.2-8.9ZM364.6,103.9c0-11.3,6.9-16,13.2-16s12.6,4.7,12.6,16h-25.8ZM301.1,67.6c-9.8,0-16.1,4.6-19.6,7.8l-1.3-6.2h-22v116.6l25-5.3v-28.3c3.7,2.6,9,6.3,17.8,6.3,17.9,0,34.2-14.4,34.2-46.1-.1-29-16.6-44.8-34.1-44.8h0ZM295.1,136.5c-5.9,0-9.4-2.1-11.8-4.7v-37.1c2.5-2.9,6.1-4.9,11.8-4.9,9.1,0,15.4,10.2,15.4,23.3s-6.2,23.4-15.4,23.4ZM223.8,61.7l25.1-5.4v-20.3l-25.1,5.3v20.4ZM223.8,69.3h25.1v87.5h-25.1v-87.5ZM196.9,76.7l-1.6-7.4h-21.6v87.5h25v-59.3c5.9-7.7,15.9-6.3,19-5.2v-23c-3.2-1.2-14.9-3.4-20.8,7.4h0ZM146.9,47.6l-24.4,5.2v80.1c0,14.8,11,25.7,25.8,25.7s14.2-1.5,17.5-3.3v-20.3c-3.2,1.3-19,5.9-19-8.9v-35.5h19v-21.3h-19s.1-21.7.1-21.7ZM79.3,94.7c0-3.9,3.2-5.4,8.5-5.4,7.6,0,17.2,2.3,24.8,6.4v-23.5c-8.3-3.3-16.5-4.6-24.8-4.6-20.3,0-33.8,10.6-33.8,28.3,0,27.6,38,23.2,38,35.1s-4,6.1-9.6,6.1c-8.3,0-18.9-3.4-27.3-8v23.8c9.3,4,18.7,5.7,27.3,5.7,20.8,0,35.1-10.3,35.1-28.2,0-29.8-38.2-24.5-38.2-35.7h0Z"/>
</svg>