<svg viewBox="0 0 440.71266 137.9" xmlns="http://www.w3.org/2000/svg" xmlns:xlink="http://www.w3.org/1999/xlink"><linearGradient id="a" gradientTransform="matrix(.5625 0 0 -.568 15.6638 325.3453)" gradientUnits="userSpaceOnUse" x1="293.60818" x2="402.63031" y1="158.9346" y2="65.135696"><stop offset="0" stop-color="#5a9fd4"/><stop offset="1" stop-color="#306998"/></linearGradient><linearGradient id="b" gradientTransform="matrix(.5625 0 0 -.568 15.6638 325.3453)" gradientUnits="userSpaceOnUse" x1="444.77631" x2="405.84659" y1="8.3739" y2="63.452702"><stop offset="0" stop-color="#ffd43b"/><stop offset="1" stop-color="#ffe873"/></linearGradient><radialGradient id="c" cx="-907.65991" cy="319.33649" gradientTransform="matrix(0 -.2399 -1.0547 0 576.165 141.8266)" gradientUnits="userSpaceOnUse" r="29.0375"><stop offset="0" stop-color="#b8b8b8" stop-opacity=".498"/><stop offset="1" stop-color="#7f7f7f" stop-opacity="0"/></radialGradient><g transform="translate(-183.48732 -228.7)"><g fill="#646464"><path d="m362.6 287.4c0-14.6-4.2-22-12.5-22.4-3.3-.2-6.5.4-9.7 1.6-2.5.9-4.2 1.8-5.1 2.7v34.7c5.3 3.3 10 4.9 14.1 4.6 8.8-.5 13.2-7.6 13.2-21.2zm10.2.6c0 7.4-1.7 13.5-5.2 18.4-3.9 5.5-9.3 8.4-16.2 8.5-5.2.2-10.5-1.5-16.1-4.9v31.6l-8.9-3.2v-70.1c1.5-1.8 3.3-3.3 5.6-4.6 5.3-3.1 11.7-4.7 19.3-4.8l.1.1c6.9-.1 12.3 2.8 16 8.5 3.7 5.4 5.4 12.2 5.4 20.5z"/><path d="m427.3 308.7c0 9.9-1 16.8-3 20.6s-5.8 6.9-11.4 9.1c-4.6 1.8-9.5 2.8-14.8 2.9l-1.5-5.6c5.4-.7 9.2-1.5 11.3-2.2 4.3-1.5 7.3-3.7 8.9-6.7 1.3-2.4 1.9-7.1 1.9-14v-2.3c-6.1 2.8-12.5 4.1-19.2 4.1-4.4 0-8.3-1.4-11.6-4.1-3.7-3-5.6-6.8-5.6-11.5v-37l8.9-3.1v37.3c0 4 1.3 7.1 3.9 9.2 2.6 2.2 5.9 3.2 10 3.1s8.5-1.7 13.1-4.8v-43.5h8.9v48.5z"/><path d="m462 314.5c-1.1.1-2 .1-2.9.1-5 0-9-1.2-11.8-3.6s-4.2-5.7-4.2-10v-35.1h-6.1v-5.6h6.1v-14.9l8.9-3.2v18.1h10v5.6h-10v34.8c0 3.3.9 5.7 2.7 7.1 1.5 1.1 4 1.8 7.3 2z"/><path d="m516 313.7h-8.9v-34.4c0-3.5-.8-6.5-2.4-9-1.9-2.8-4.5-4.3-7.8-4.3-4.1 0-9.2 2.2-15.3 6.5v41.2h-8.9v-82.2l8.9-2.8v37.4c5.7-4.1 11.9-6.2 18.7-6.2 4.7 0 8.5 1.6 11.5 4.8 2.9 3.2 4.4 7.1 4.4 11.8v37.2z"/><path d="m563.3 286c0-5.6-1.1-10.2-3.2-13.9-2.5-4.5-6.4-6.8-11.7-7-9.8.6-14.6 7.6-14.6 21 0 6.2 1 11.3 3.1 15.4 2.6 5.3 6.5 7.8 11.8 7.8 9.7-.1 14.6-7.9 14.6-23.3zm9.8.1c0 8-2 14.6-6.1 19.9-4.5 5.9-10.7 8.9-18.5 8.9s-13.9-3-18.3-8.9c-4-5.3-6-11.9-6-19.9 0-7.5 2.2-13.8 6.5-18.9 4.6-5.4 10.5-8.2 17.9-8.2s13.4 2.7 18.1 8.2c4.2 5.1 6.4 11.4 6.4 18.9z"/><path d="m624.2 313.7h-8.9v-36.3c0-4-1.2-7.1-3.6-9.3s-5.6-3.3-9.6-3.2c-4.2.1-8.3 1.5-12.1 4.1v44.8h-8.9v-45.9c5.1-3.7 9.8-6.2 14.2-7.3 4.1-1.1 7.7-1.6 10.7-1.6 2.1 0 4.1.2 6 .6 3.5.8 6.3 2.3 8.5 4.5 2.4 2.4 3.7 5.4 3.7 8.8z"/></g><path d="m238.5 231.9c-4.6 0-9 .4-12.8 1.1-11.3 2-13.4 6.2-13.4 13.9v10.2h26.8v3.4h-26.8-10.1c-7.8 0-14.6 4.7-16.8 13.6-2.5 10.2-2.6 16.6 0 27.3 1.9 7.9 6.5 13.6 14.2 13.6h9.2v-12.2c0-8.9 7.7-16.7 16.8-16.7h26.8c7.5 0 13.4-6.1 13.4-13.6v-25.5c0-7.3-6.1-12.7-13.4-13.9-4.6-.9-9.4-1.2-13.9-1.2zm-14.5 8.2c2.8 0 5 2.3 5 5.1s-2.3 5.1-5 5.1c-2.8 0-5-2.3-5-5.1-.1-2.8 2.2-5.1 5-5.1z" fill="url(#a)"/><path d="m269.2 260.5v11.9c0 9.2-7.8 17-16.7 17h-26.8c-7.3 0-13.4 6.3-13.4 13.6v25.5c0 7.3 6.3 11.5 13.4 13.6 8.5 2.5 16.6 2.9 26.8 0 6.7-2 13.4-5.9 13.4-13.6v-10.2h-26.8v-3.3h26.8 13.4c7.8 0 10.7-5.4 13.4-13.6 2.8-8.4 2.7-16.5 0-27.3-1.9-7.8-5.6-13.6-13.4-13.6zm-15.1 64.7c2.8 0 5 2.3 5 5.1s-2.3 5.1-5 5.1c-2.8 0-5-2.3-5-5.1s2.2-5.1 5-5.1z" fill="url(#b)"/><path d="m275.3 359.6c0 3.8-16.1 7-35.9 7s-35.9-3.1-35.9-7c0-3.8 16.1-7 35.9-7s35.9 3.1 35.9 7z" fill="url(#c)" opacity=".4438"/></g></svg>
