<svg xmlns="http://www.w3.org/2000/svg" viewBox="0 0 105 105"><linearGradient id="a" x1="30.22" x2="46.64" y1="30.95" y2="99.65" gradientUnits="userSpaceOnUse"><stop offset="0" stop-color="#6b57ff"/><stop offset=".13" stop-color="#9a51f9"/><stop offset=".27" stop-color="#c64cf4"/><stop offset=".39" stop-color="#e548f0"/><stop offset=".5" stop-color="#f846ee"/><stop offset=".57" stop-color="#ff45ed"/><stop offset=".63" stop-color="#ff57c9"/><stop offset=".81" stop-color="#fe8a65"/><stop offset=".94" stop-color="#fdaa26"/><stop offset="1" stop-color="#fdb60d"/></linearGradient><linearGradient id="b" x1="75.48" x2="59.19" y1="53.55" y2="6.87" gradientUnits="userSpaceOnUse"><stop offset="0" stop-color="#6b57ff"/><stop offset=".14" stop-color="#8953fb"/><stop offset=".44" stop-color="#d64af2"/><stop offset=".59" stop-color="#ff45ed"/><stop offset=".97" stop-color="#fdb60d"/></linearGradient><linearGradient id="c" x1="40.64" x2="54.16" y1="78.01" y2="45.95" gradientUnits="userSpaceOnUse"><stop offset=".12" stop-color="#ff45ed"/><stop offset=".2" stop-color="#df49f1"/><stop offset=".3" stop-color="#bc4df5"/><stop offset=".42" stop-color="#9e51f9"/><stop offset=".53" stop-color="#8854fc"/><stop offset=".66" stop-color="#7855fd"/><stop offset=".81" stop-color="#6e57ff"/><stop offset="1" stop-color="#6b57ff"/></linearGradient><path fill="url(#a)" d="M15.44 93.84 4.5 56.13l67.96 18.74-7.25 25.63z"/><path fill="url(#b)" d="m36.7 4.62 25.56 7.32L91.14 4.5l5.72 39.6-64.99-21.6z"/><path fill="url(#c)" d="M100.5 67.74 96.86 44.1l-58.8-19.54-33.44 7.17-.12 24.4 67.96 18.74z"/><path d="M22.5 22.5h60v60h-60z"/><path fill="#fff" d="M29.98 71.16h22.5v3.75h-22.5zM30 29.92h8.8c7.09 0 12 4.87 12 11.22v.07c0 6.35-4.9 11.28-12 11.28H30zm5 4.48V48h3.84a6.43 6.43 0 0 0 6.8-6.74v-.06a6.49 6.49 0 0 0-6.8-6.81zm17.51-4.47h5.35l5.94 9.55 5.93-9.54h5.35v22.57h-4.94l.01-14.74-6.35 9.64h-.14l-6.28-9.54V52.5h-4.87z"/></svg>