<svg viewBox="0 0 832 832" xmlns="http://www.w3.org/2000/svg" xmlns:xlink="http://www.w3.org/1999/xlink"><linearGradient id="a" x1="50%" x2="50%" y1="0%" y2="100%"><stop offset="0" stop-opacity="0"/><stop offset="1"/></linearGradient><mask id="b" fill="#fff"><path d="m928.000096 355.119c0-9.877 0-19.755-.057096-29.633-.049-8.321-.145-16.64-.371-24.957-.489-18.127-1.558-36.41-4.782-54.335-3.27-18.184-8.609-35.108-17.023-51.63-8.279789-16.248426-19.068078-31.090761-31.968-43.981-12.898269-12.892341-27.746087-23.673359-43.998-31.947-16.538-8.416-33.48-13.754-51.684-17.022-17.927-3.219-36.215-4.286-54.342-4.776-8.323-.225-16.646-.32-24.971-.371-9.883-.061-19.766-.056-29.649-.056l-114.751-.411h-85.824l-112.72.41c-9.902 0-19.805-.004-29.707.056-8.342.052-16.68.147-25.019.372-18.17.49-36.499 1.558-54.468 4.781-18.229 3.267-35.196 8.603-51.757 17.013-16.282078 8.271479-31.161074 19.053696-44.091 31.951-12.919032 12.884647-23.726927 27.724664-32.026 43.974-8.437 16.53-13.786 33.464-17.064 51.658-3.227 17.918-4.296 36.195-4.788 54.314-.224 8.318-.321 16.637-.371 24.957-.061 9.879-.569 22.15-.569 32.028v111.158 86.744l.513 113.52c0 9.891-.004 19.782.055 29.673.05 8.332.148 16.662.373 24.991.49 18.151 1.562 36.46 4.792 54.409 3.277 18.208 8.625 35.156 17.055 51.699 8.297633 16.271876 19.106785 31.13505 32.03 44.043 12.924806 12.91057 27.801174 23.70634 44.083 31.991 16.571 8.427 33.547 13.771 51.786 17.044 17.961 3.224 36.284 4.293 54.447 4.783 8.339.225 16.678.321 25.02.371 9.902.06 19.804.06 29.706.06h113.739 86.037 113.519c9.883 0 19.766 0 29.649-.06 8.325-.05 16.648-.146 24.971-.371 18.134-.491 36.428-1.561 54.363-4.787 18.193-3.273 35.126-8.615 51.656-17.037 16.258002-8.286717 31.1085-19.083826 44.005-31.994 12.900375-12.909847 23.687477-27.770502 31.965-44.036 8.419-16.551 13.758-33.507 17.03-51.727 3.221-17.942 4.289-36.244 4.779-54.388.225-8.33.321-16.66.37-24.991.057096-9.891.057096-19.782.057096-29.673v-113.52-86.835z" fill="#fff" fill-rule="evenodd"/></mask><mask id="c" fill="#fff"><path d="m285.312 236.562h453.398v551.243h-453.398z" fill="#fff" fill-rule="evenodd"/></mask><g fill="none" fill-rule="evenodd" mask="url(#b)" transform="translate(-96 -96)"><path d="m96 96h832v832h-832z" fill="#fff"/><path d="m96 96h832v832h-832z" fill="#8e48ff"/><path d="m96 96h832v832h-832z" fill="url(#a)" fill-opacity=".2"/><g mask="url(#c)"><path d="m372.822 663.777c-57.019 126.269 64.427 157.966 154.004 84.065 26.356 82.859 125.063 21.016 160.55-43.238 78.035-141.601 46.511-285.958 38.414-315.759-55.468-203.099-332.813-203.444-380.53 1.033-11.197 35.831-11.369 76.485-17.571 118.69-3.1 21.36-5.512 34.969-13.609 57.364-4.823 12.919-11.197 24.289-21.532 43.582-15.849 29.974-9.13 87.682 72.867 57.709l7.752-3.446z" fill="#fff"/><path d="m537.506 476.873c-22.738 0-26.184-27.218-26.184-43.411 0-14.642 2.584-26.184 7.58-33.591 4.306-6.546 10.68-9.819 18.604-9.819s14.815 3.273 19.638 9.991c5.513 7.58 8.441 19.122 8.441 33.419 0 27.218-10.508 43.411-27.906 43.411zm93.539 0c-22.738 0-26.184-27.218-26.184-43.411 0-14.642 2.584-26.184 7.58-33.591 4.307-6.546 10.68-9.819 18.604-9.819 7.925 0 14.815 3.273 19.638 9.991 5.513 7.58 8.441 19.122 8.441 33.419 0 27.218-10.508 43.411-27.906 43.411z" fill="#000" fill-rule="nonzero"/></g></g></svg>