<svg viewBox="0 0 462 559" xmlns="http://www.w3.org/2000/svg"><g fill="none" fill-rule="evenodd" transform="translate(-34 -38)"><path d="m475.922912 188.492083 1.720083 5.996904c8.040186 29.60697 39.371506 173.148033-38.211241 313.855501-35.198371 63.838942-133.34945 125.307821-159.497517 42.900366-88.988487 73.483495-209.6406898 42.000578-152.979025-83.569602 0 0 .24485-.571566.719232-1.651782l.02007.012564c-2.723333 1.798837-5.536447 3.516435-8.4414 5.148323v-.02332c-81.497906 29.783343-89.6153365-28.464208-72.3572171-57.40506 22.1350401-37.117642 31.5176837-67.898367 36.2415586-96.287722l.2148692-3.487319c4.2839202-42.231334 4.9689987-82.913229 16.0468325-118.462885l.0266946-.106507 1.4242182-5.812407c1.656282-6.43603 3.413866-12.218673 5.257426-17.381204l.00363.037123c61.651699-177.67796789 313.257617-171.79746173 369.811786 16.237027z" fill="#fff" stroke="#8627e5" stroke-width="10"/><g fill="#000"><path d="m-.67632929-78.3319597c0 16.1182518 3.37873838 43.1569177 26.00521929 43.1569177h.0043729c17.4024054 0 27.7937067-16.1313691 27.7937067-43.1569177 0-14.3035272-2.8802371-25.8084443-8.33024-33.2772353-4.7838769-6.554872-11.5646779-9.876767-19.4678396-9.876767s-14.1169532 3.270876-18.46063039 9.717885c-4.93692523 7.327407-7.5445889 18.8891695-7.5445889 33.4361173z" transform="translate(263.3 317.039)"/><path d="m92.3629148-78.3319597c0 16.1182518 3.3787384 43.1569177 26.0052192 43.1569177h.004373c17.402405 0 27.793707-16.1313691 27.793707-43.1569177 0-14.3035272-2.880237-25.8084443-8.33024-33.2772353-4.783877-6.554872-11.564678-9.876767-19.46784-9.876767s-14.116953 3.270876-18.4606303 9.717885c-4.9369252 7.327407-7.5445889 18.8891695-7.5445889 33.4361173z" transform="translate(265.367 317.039)"/></g></g></svg>