<svg version="1.1" xmlns="http://www.w3.org/2000/svg" preserveAspectRatio="xMidYMid meet" viewBox="76.58987244897958 44 164.00775510204068 164"><defs><path d="M237.6 95L187.6 95L187.6 45L237.6 45L237.6 95Z" id="pnpm_light__arNRoK435"/><path d="M182.59 95L132.59 95L132.59 45L182.59 45L182.59 95Z" id="pnpm_light__a3H2WU7Px"/><path d="M127.59 95L77.59 95L77.59 45L127.59 45L127.59 95Z" id="pnpm_light__b1DInM56vl"/><path d="M237.6 150L187.6 150L187.6 100L237.6 100L237.6 150Z" id="pnpm_light__a7LFlgQIwu"/><path d="M182.59 150L132.59 150L132.59 100L182.59 100L182.59 150Z" id="pnpm_light__amwLiZcuo"/><path d="M182.59 205L132.59 205L132.59 155L182.59 155L182.59 205Z" id="pnpm_light__f3Peu5RWan"/><path d="M237.6 205L187.6 205L187.6 155L237.6 155L237.6 205Z" id="pnpm_light__a6DXBfqPa"/><path d="M127.59 205L77.59 205L77.59 155L127.59 155L127.59 205Z" id="pnpm_light__c1GWSTH1z7"/></defs><g><g><use opacity="1" fill="#f9ad00" fill-opacity="1" href="#pnpm_light__arNRoK435"/></g><g><use opacity="1" fill="#f9ad00" fill-opacity="1" href="#pnpm_light__a3H2WU7Px"/></g><g><use opacity="1" fill="#f9ad00" fill-opacity="1" href="#pnpm_light__b1DInM56vl"/></g><g><use opacity="1" fill="#f9ad00" fill-opacity="1" href="#pnpm_light__a7LFlgQIwu"/></g><g><use opacity="1" fill="#4e4e4e" fill-opacity="1" href="#pnpm_light__amwLiZcuo"/></g><g><use opacity="1" fill="#4e4e4e" fill-opacity="1" href="#pnpm_light__f3Peu5RWan"/></g><g><use opacity="1" fill="#4e4e4e" fill-opacity="1" href="#pnpm_light__a6DXBfqPa"/></g><g><use opacity="1" fill="#4e4e4e" fill-opacity="1" href="#pnpm_light__c1GWSTH1z7"/></g></g></svg>