<svg version="1.1" xmlns="http://www.w3.org/2000/svg" preserveAspectRatio="xMidYMid meet" viewBox="76.58987244897958 44 164.00775510204068 164"><defs><path d="M237.6 95L187.6 95L187.6 45L237.6 45L237.6 95Z" id="pnpm_dark__b45vdTD8hs"/><path d="M182.59 95L132.59 95L132.59 45L182.59 45L182.59 95Z" id="pnpm_dark__a40WtxIl8d"/><path d="M127.59 95L77.59 95L77.59 45L127.59 45L127.59 95Z" id="pnpm_dark__h2CN9AEEpe"/><path d="M237.6 150L187.6 150L187.6 100L237.6 100L237.6 150Z" id="pnpm_dark__dqv5133G8"/><path d="M182.59 150L132.59 150L132.59 100L182.59 100L182.59 150Z" id="pnpm_dark__b1Lv79ypvm"/><path d="M182.59 205L132.59 205L132.59 155L182.59 155L182.59 205Z" id="pnpm_dark__hy1IZWwLX"/><path d="M237.6 205L187.6 205L187.6 155L237.6 155L237.6 205Z" id="pnpm_dark__akQfjxQes"/><path d="M127.59 205L77.59 205L77.59 155L127.59 155L127.59 205Z" id="pnpm_dark__bdSrwE5pk"/></defs><g><g><use opacity="1" fill="#f9ad00" fill-opacity="1" href="#pnpm_dark__b45vdTD8hs"/></g><g><use opacity="1" fill="#f9ad00" fill-opacity="1" href="#pnpm_dark__a40WtxIl8d"/></g><g><use opacity="1" fill="#f9ad00" fill-opacity="1" href="#pnpm_dark__h2CN9AEEpe"/></g><g><use opacity="1" fill="#f9ad00" fill-opacity="1" href="#pnpm_dark__dqv5133G8"/></g><g><use opacity="1" fill="#ffffff" fill-opacity="1" href="#pnpm_dark__b1Lv79ypvm"/></g><g><use opacity="1" fill="#ffffff" fill-opacity="1" href="#pnpm_dark__hy1IZWwLX"/></g><g><use opacity="1" fill="#ffffff" fill-opacity="1" href="#pnpm_dark__akQfjxQes"/></g><g><use opacity="1" fill="#ffffff" fill-opacity="1" href="#pnpm_dark__bdSrwE5pk"/></g></g></svg>