<svg xmlns="http://www.w3.org/2000/svg" fill="none" viewBox="0 0 105 105"><linearGradient id="a" x1="86.985" x2="73.076" y1="70.742" y2="30.562" gradientUnits="userSpaceOnUse"><stop offset=".001" stop-color="#ff318c"/><stop offset="1" stop-color="#fc801d"/></linearGradient><linearGradient id="b" x1="90.603" x2="78.398" y1="27.232" y2="42.732" gradientUnits="userSpaceOnUse"><stop offset="0" stop-color="#ff318c"/><stop offset=".781" stop-color="#fc801d"/></linearGradient><linearGradient id="c" x1="85.551" x2="15.507" y1="89.59" y2="64.316" gradientUnits="userSpaceOnUse"><stop offset=".017" stop-color="#ff318c"/><stop offset=".811" stop-color="#6b57ff"/></linearGradient><linearGradient id="d" x1="32.181" x2="61.97" y1="70.981" y2="18.368" gradientUnits="userSpaceOnUse"><stop offset=".33" stop-color="#ff318c"/><stop offset=".942" stop-color="#fdb60d"/></linearGradient><path fill="url(#a)" d="M99.478 77.252 101 35.596l-26.466-5.979-22.503 15.061L62.49 75.61l36.99 1.642z"/><path fill="url(#b)" d="M93.616 54.946 101 35.596 74.961 24.144l-22.93 20.535z"/><path fill="url(#c)" d="m66.415 100 33.063-22.748-79.517-35.315L5 84.513z"/><path fill="url(#d)" d="m5 40.698 52.916 40.326 35.7-26.078L53.051 9.959 17.749 4z"/><path fill="#000" d="M83 22H23v60h60z"/><path fill="#fff" d="M29.93 29.414h9.252c5.402 0 8.669 3.203 8.669 7.829v.064c0 5.24-4.076 7.959-9.155 7.959h-3.785v6.793H29.93zm8.928 11.42c2.49 0 3.947-1.489 3.947-3.43v-.064c0-2.233-1.553-3.43-4.044-3.43h-3.85v6.924zm6.207 8.151 3.138-3.493c1.294 1.423 2.555 2.264 4.14 2.264 1.876 0 3.04-1.132 3.04-3.752v-14.59h5.112V44.23c0 2.685-.776 4.69-2.135 6.05a8.1 8.1 0 0 1-5.887 2.102 9.26 9.26 0 0 1-7.408-3.397M53 70.75H30.5v3.75H53z"/></svg>