<svg viewBox="0 0 43.900002 44" xmlns="http://www.w3.org/2000/svg"><g clip-rule="evenodd" fill="#568ebd" fill-rule="evenodd"><path d="m10.2 0c-1.7 0-3.2 1.4-3.2 3.2v23.5c0 1.8 1.4 3.2 3.2 3.2h23.5c1.7 0 3.2-1.4 3.2-3.2v-23.5c-0-1.7-1.4-3.2-3.2-3.2zm-1.4 26.7v-23.5c0-.8.6-1.4 1.4-1.4h23.5c.8 0 1.4.6 1.4 1.4v23.5c0 .8-.6 1.4-1.4 1.4h-23.5c-.7 0-1.4-.6-1.4-1.4z"/><path d="m17.2 7.1c-1.7 0-3.2 1.4-3.2 3.2v23.5c0 1.7 1.4 3.2 3.2 3.2h23.5c1.8 0 3.2-1.4 3.2-3.2v-23.5c0-1.7-1.4-3.2-3.2-3.2zm-1.4 26.6v-23.5c0-.8.6-1.4 1.4-1.4h23.5c.8 0 1.4.6 1.4 1.4v23.5c0 .8-.6 1.4-1.4 1.4h-23.5c-.7 0-1.4-.6-1.4-1.4z"/><path d="m3.2 14.1c-1.8 0-3.2 1.4-3.2 3.2v23.5c0 1.8 1.4 3.2 3.2 3.2h23.5c1.7 0 3.2-1.4 3.2-3.2v-23.5c0-1.7-1.4-3.2-3.2-3.2zm-1.4 26.6v-23.5c0-.8.6-1.4 1.4-1.4h23.5c.8 0 1.4.6 1.4 1.4v23.5c0 .8-.6 1.4-1.4 1.4h-23.5c-.8 0-1.4-.6-1.4-1.4z"/></g></svg>
