<svg viewBox="0 0 210 194" xmlns="http://www.w3.org/2000/svg"><g fill="none" fill-rule="evenodd"><path d="m105.0614 193.655 38.64-118.921h-77.28z" fill="#e24329"/><path d="m105.0614 193.6548-38.64-118.921h-54.153z" fill="#fc6d26"/><path d="m12.2685 74.7341-11.742 36.139c-1.071 3.296.102 6.907 2.906 8.944l101.629 73.838z" fill="#fca326"/><path d="m12.2685 74.7342h54.153l-23.273-71.625c-1.197-3.686-6.411-3.685-7.608 0z" fill="#e24329"/><path d="m105.0614 193.6548 38.64-118.921h54.153z" fill="#fc6d26"/><path d="m197.8544 74.7341 11.742 36.139c1.071 3.296-.102 6.907-2.906 8.944l-101.629 73.838z" fill="#fca326"/><path d="m197.8544 74.7342h-54.153l23.273-71.625c1.197-3.686 6.411-3.685 7.608 0z" fill="#e24329"/></g></svg>
