<svg viewBox="0 0 2000 294" xmlns="http://www.w3.org/2000/svg"><g fill="none"><path d="m838.45533 185.145354h29.312623v80.808313h51.154945v25.930368h-80.467568zm110.780157 53.67302v-.313476c0-30.661901 24.44026-55.495102 57.066493-55.495102 32.61642 0 56.75277 24.568705 56.75277 55.181626v.313476c0 30.652105-24.44026 55.495102-57.06649 55.495102-32.626224 0-56.762577-24.539317-56.762577-55.181626zm83.938033 0v-.313476c0-15.409319-11.0094-28.820228-27.18526-28.820228-16.175861 0-26.714684 13.097432-26.714684 28.506752v.313476c0 15.399524 10.999587 28.820228 27.028404 28.820228 16.019 0 26.87154-13.107228 26.87154-28.506752zm65.73283 6.249934v-59.88377h29.73417v59.315594c0 15.399524 7.67619 22.697644 19.46006 22.697644 11.77407 0 19.46005-7.023828 19.46005-21.962934v-60.089488h29.72438v59.158856c0 34.472597-19.46006 49.529256-49.49815 49.529256-30.03808 0-48.91973-15.40932-48.91973-48.78475m143.24953-59.873974h40.77298c37.72408 0 59.61541 21.953137 59.61541 52.722796v.313476c0 30.759862-22.20505 53.653429-60.23303 53.653429h-40.15536v-106.719089.039184zm41.19453 80.485041c17.52876 0 29.11656-9.747154 29.11656-26.978554v-.313477c0-17.084458-11.61721-26.98835-29.11656-26.98835h-11.93092v54.280381zm101.7707-80.514429h84.51643v25.940163h-55.25282v18.122849h49.9589v24.539317h-49.9589v38.136352h-29.26361zm125.26001 0h29.30282v80.808313h51.16474v25.930368h-80.46756zm156.9843-.754303h28.21463l44.98851 107.473392h-31.39098l-7.7252-19.063278h-40.77298l-7.52913 19.063278h-30.81257l44.98851-107.473392zm25.67551 65.398994-11.78387-30.338628-11.93092 30.338628zm85.26151-64.615303h49.95891c16.14645 0 27.34211 4.290707 34.40067 11.579031 6.22526 6.083399 9.35259 14.351337 9.35259 24.842997v.313476c0 16.300768-8.61732 27.135293-21.74428 32.758274l25.21474 37.195923h-33.82226l-21.27372-32.327244h-12.82304v32.327244h-29.30282v-106.719089l.03921.039184zm48.61582 51.233783c9.96041 0 15.70529-4.868679 15.70529-12.637013v-.30368c0-8.385492-6.01938-12.637014-15.86214-12.637014h-19.15615v25.626688h19.34241l-.02941-.039184zm87.35947-51.263171h84.98701v25.156473h-55.9881v16.14403h50.7334v23.353984h-50.7334v16.927721h56.76258v25.156473h-85.76149zm-1139.927833 66.182684c-4.097885 9.365105-12.74462 15.997088-24.214779 15.997088-15.979792 0-27.018596-13.420704-27.018596-28.820228v-.323272c0-15.40932 10.72509-28.506752 26.714685-28.506752 12.048568 0 21.234497 7.484247 25.136311 17.701615h30.851785c-4.950795-25.381784-27.028397-44.376489-55.713594-44.376489-32.587016 0-57.066489 24.842997-57.066489 55.495102v.313476c0 30.652105 24.126544 55.181626 56.762578 55.181626 27.871502 0 49.68441-18.259995 55.439097-42.711147h-30.930215l.039217.039185z" fill="#000"/><path d="m517.044026 127c-2.158274 0-4.287116.078256-6.415961.146729-.344866.018504-.683693.097996-1.000654.234767-1.144596.3884-2.01533 1.326512-2.315237 2.494401l-9.123614 31.7816c-3.933943 13.665403-2.472206 26.284136 4.139961 35.547656 6.062789 8.569 16.147817 13.596929 28.391115 14.183847l49.493147 2.993281c1.471548.078256 2.746894.782557 3.521909 1.946611.822471 1.259585 1.007549 2.829984.500327 4.245372-.813943 2.318489-2.912506 3.948111-5.366251 4.167117l-51.425786 2.993281c-27.939836 1.291219-57.998705 24.024502-68.54482 51.746587l-3.708307 9.781964c-.323798.822728-.229545 1.750692.253107 2.491983.482655.741292 1.294389 1.204803 2.179859 1.244804h177.115811c2.116567.008445 3.978769-1.39217 4.551995-3.423764 3.145702-11.274654 4.730039-22.925346 4.709373-34.628152 0-70.625777-56.792448-127.869828-126.877489-127.869828" fill="#fbad41"/><path d="m439.528745 289.980383 3.276334-11.519608c3.943369-13.696078 2.481771-26.343136-4.11994-35.62745-6.081811-8.588235-16.156043-13.62745-28.407954-14.215686l-232.138902-2.999999c-1.464678-.02665-2.828268-.751793-3.668707-1.95098-.825676-1.260812-1.014373-2.83483-.510088-4.254902.821097-2.338878 2.942898-3.975445 5.414776-4.176471l234.306775-3c27.819393-1.284313 57.875322-24.07843 68.420402-51.862743l13.360371-35.294117c.538188-1.496307.679573-3.110488.392374-4.67647-15.22415-68.8431352-76.120762-120.401957-148.925956-120.401957-67.115756 0-124.059189 43.7450966-144.492121 104.55882-13.756667-10.4556336-30.985639-15.273276-48.173849-13.4705878-32.174756 3.235294-58.0715109 29.4313718-61.2693678 61.9411748-.8279835 8.119557-.2304399 16.32126 1.7656878 24.235293-52.5782596 1.568627-94.75858 45.07843-94.75858 98.549016 0 4.833334.34332819 9.59804 1.03979394 14.245098.28679731 2.255211 2.20826906 3.944493 4.48288521 3.941186h428.70900285c2.479621-.040802 4.636079-1.709132 5.297063-4.098048" fill="#f6821f"/></g></svg>
