<svg viewBox="0 0 24 24" xmlns="http://www.w3.org/2000/svg"><path d="m13.736 24h10.264l-5.132-4.919zm-6.021-5.064 5.133 4.918 5.132-4.919zm-6.539-5.272v9.838l5.132-4.919-1.503-1.441zm21.648-1.626-5.132 4.919 5.132 4.919zm-4.844 6.193-5.132-4.92-5.132 4.92zm-16.284-5.066 5.132 4.92 5.132-4.92zm20.608-1.625h-10.265l5.133 4.919zm-15.476-3.999-5.132 4.92h10.264zm-5.652 4.421 5.132-4.919-5.132-4.919zm21.128-1.127-5.132-4.92-5.133 4.92zm-6.02-5.065h-10.264l5.132 4.919zm6.54-5.272-5.132 4.919 5.132 4.92v-9.839zm-6.539 4.567-5.133-4.919-5.132 4.919zm-6.021-5.065h-10.264l5.132 4.919z"/></svg>