<svg height="194" preserveAspectRatio="xMidYMid" viewBox="0 0 256 194" width="256" xmlns="http://www.w3.org/2000/svg"><path d="m170.758031 111.610687c16.824312 0 41.166443-3.469762 41.166443-23.4814142.050301-1.5444502-.089722-3.0892189-.416909-4.5994524l-10.019275-43.5199644c-2.313175-9.575468-4.343927-13.9193953-21.154791-22.3248272-13.04523-6.6705508-41.462315-17.6850288-49.867747-17.6850288-7.827138 0-10.099967 10.0865183-19.433358 10.0865183-8.983726 0-15.6542767-7.53126699-24.0597087-7.53126699-8.0692146 0-13.3276528 5.50051466-17.3891576 16.81086389 0 0-11.3103492 31.9002953-12.7628078 36.526645-.2308556.8495513-.3306293 1.7293736-.2958712 2.6090461 0 12.3996932 48.8187483 53.0550867 114.2331823 53.0550867m43.748592-15.3046108c2.326624 11.0144778 2.326624 12.1710658 2.326624 13.6235238 0 18.828168-21.16824 29.277801-48.993582 29.277801-62.88608.040346-117.9719184-36.809068-117.9719184-61.1646473-.0036353-3.39019.6874984-6.7451634 2.0307524-9.8578906-22.6206985 1.1296901-51.898499 5.1642974-51.898499 31.0126817 0 42.3364792 100.313787 94.5174012 179.741757 94.5174012 60.895673 0 76.254078-27.54292 76.254078-49.289453 0-17.106735-14.79356-36.526645-41.462315-48.1194168" fill="#e00"/><path d="m214.506623 96.2522822c2.326624 11.0144778 2.326624 12.1710658 2.326624 13.6235238 0 18.828168-21.16824 29.277834-48.993582 29.277834-62.88608.040313-117.9719327-36.809101-117.9719327-61.1646803-.003621-3.39019.6875127-6.7451634 2.0307667-9.8578906l4.9222209-12.1845141c-.2254633.8322366-.3251901 1.6935136-.2958712 2.5552513 0 12.3996932 48.8187483 53.0550867 114.2331823 53.0550867 16.824312 0 41.166443-3.469763 41.166443-23.481415.050301-1.5444501-.089722-3.0892189-.416909-4.5994523z"/></svg>