<svg viewBox="0 0 1001 984" xmlns="http://www.w3.org/2000/svg"><path d="m500.914139 0c-276.992579 0-500.914139 225.499057-500.914139 504.472141 0 222.998067 143.474261 411.761278 342.51109 478.570498 24.884731 5.022479 33.999904-10.854704 33.999904-24.210398 0-11.695201-.820263-51.782784-.820263-93.551359-139.342186 30.073374-168.358991-60.136499-168.358991-60.136499-22.393182-58.465755-55.572822-73.492192-55.572822-73.492192-45.606626-30.903621 3.322065-30.903621 3.322065-30.903621 50.589724 3.341486 77.135487 51.782783 77.135487 51.782783 44.776109 76.833679 116.928498 55.12427 145.955557 41.758326 4.142328-32.574364 17.420336-55.12427 31.518607-67.649717-111.13539-11.695202-228.063888-55.12427-228.063888-248.89971 0-55.124269 19.891379-100.224081 51.409987-135.299434-4.972845-12.525448-22.393181-64.318481 4.983098-133.638941 0 0 42.294814-13.365944 137.660647 51.782783 40.829504-11.042662 82.936311-16.660133 125.233661-16.70743 42.294814 0 85.40989 5.852726 125.223408 16.70743 95.376087-65.148727 137.6709-51.782783 137.6709-51.782783 27.376279 69.32046 9.94569 121.113493 4.972845 133.638941 32.349124 35.075353 51.42024 80.175165 51.42024 135.299434 0 193.77544-116.928498 236.364012-228.894405 248.89971 18.250853 15.866933 33.999904 45.930058 33.999904 93.541108 0 67.649718-.820263 121.943741-.820263 138.640921 0 13.365944 9.125426 29.243127 33.999903 24.230898 199.03683-66.82972 342.513329-255.582681 342.513329-478.580748.81802-278.973084-223.923798-504.472141-500.085861-504.472141z" fill="#24292f" fill-rule="evenodd"/></svg>
