<svg height="157" preserveAspectRatio="xMidYMid" viewBox="0 0 512 157" width="512" xmlns="http://www.w3.org/2000/svg"><path d="m459.515432 21.7148345c-1.089335 1.2732221-1.632003 2.7852984-1.632003 4.5392268 0 1.1872747.248848 2.2686141.742546 3.2440182.494698.9754041 1.167287 1.744934 2.021765 2.3115878.852479.5656544 1.798901.8474822 2.837267.8474822 1.533063 0 2.857254-.618622 3.969575-1.8648607 1.111321-1.2452392 1.66898-2.7583149 1.66898-4.5382275 0-1.7539284-.557659-3.2660047-1.66898-4.5392268-1.112321-1.2722228-2.435513-1.9078345-3.969575-1.9078345-1.558048 0-2.880241.6356117-3.969575 1.9078345zm-290.812336.3917606c-2.797291 1.5290659-4.877021 3.5778143-6.23619 6.1422476-1.361169 2.5644333-2.041753 5.4356792-2.041753 8.6097401 0 3.2879913.672589 6.1352518 2.019766 8.5457792 1.347177 2.4085285 3.081118 4.4143032 5.20482 6.0143257 2.124702 1.6010219 4.594194 3.082117 7.411473 4.4422861 2.571429 1.1632893 4.529233 2.2876024 5.877409 3.3769369 1.346177 1.0913333 2.020765 2.4295158 2.020765 4.0155468 0 .8794628-.39276 1.8228864-1.173283 2.8272728-.779524 1.0063852-2.497474 1.5080787-5.149854 1.5080787-2.875243 0-5.573595-.6086282-8.090057-1.8298821-2.517462-1.2192551-5.075899-2.7523186-7.678309-4.5961921v14.491147c2.771307 1.3941483 5.436678 2.4485042 7.999113 3.1600695 2.561435.7105659 4.614181 1.1433015 6.160236 1.3002056 1.547055.153906 2.853257.2338572 3.916608.2338572 3.811671 0 7.189607-.718561 10.134808-2.1506861 2.943202-1.4361227 5.2378-3.50286 6.884794-6.2022109 1.645994-2.6983516 2.469491-5.8953984 2.469491-9.5911406 0-3.3139754-.67159-6.0802854-2.017767-8.3029275-1.346178-2.224641-3.206041-4.1864424-5.577593-5.8874033-2.37255-1.698962-5.535618-3.6097947-9.488203-5.7364954-2.245628-1.2172564-3.805675-2.2516245-4.680141-3.1031043-.872467-.849481-1.310199-1.8548668-1.310199-3.0171567 0-1.2462387.431736-2.2945982 1.300205-3.1450786.866471-.849481 2.265616-1.275221 4.200434-1.275221 2.949198 0 5.718507.6815837 8.308924 2.0437515 2.588419 1.360169 4.936984 2.9062245 7.043697 4.637167v-13.8285518c-.593637-.4557216-1.682972-1.0793406-3.267004-1.8728558-1.585032-.7935152-3.594804-1.5100775-6.033314-2.1486873-2.438511-.6376105-5.09189-.9574151-7.962136-.9574151-4.035535 0-7.449449.7675311-10.24674 2.2965969zm266.267331 1.229249-17.930046 20.860256v2.6683699h6.058299v17.2954338c0 10.7924066 4.81106 16.1881103 14.434181 16.1881103 2.22764 0 4.562213-.3557827 7.002722-1.067348 2.441509-.7105659 4.35434-1.4511134 5.743491-2.2206433v-11.991674c-3.46988 2.042752-6.26817 3.064128-8.398868 3.064128-1.636001 0-2.854257-.3317973-3.659765-.99839-.806507-.6665928-1.296208-1.4950866-1.469102-2.4884798-.172894-.9913943-.259841-2.2955975-.259841-3.913609v-13.8655293h12.784189v-10.5895306h-12.784189v-12.941094zm-136.980316 14.3492338c-2.314586 1.4221312-4.545223 3.5238472-6.697908 6.3101449-.544667-1.5060799-1.277219-2.8272727-2.194659-3.9645779-.919438-1.1373052-1.943812-2.0327581-3.072123-2.6863588-1.128311-.6526013-2.27561-1.1153187-3.442897-1.3851538-1.167287-.2688358-2.393537-.4057521-3.683749-.4057521-2.729333 0-5.136862.5526623-7.221588 1.6619846-2.082728 1.1093223-4.130477 2.8872361-6.140249 5.3307433v-6.26917h-13.393818v43.3495168h13.393818v-25.4174719c.198878-.2838266.67059-.9764035 1.416135-2.0827276.744545-1.1043253 1.378158-1.9398149 1.899839-2.5074681.519683-.5656544 1.197269-1.0773418 2.028761-1.5310647.832491-.4527234 1.742935-.6795848 2.736328-.6795848 2.084726 0 3.536839.7935152 4.356338 2.3815451.820499 1.5870304 1.230249 3.8386549 1.230249 6.7558727v23.0808993h13.392818v-25.4174719c1.183277-1.9538064 2.365555-3.5758154 3.550831-4.8650278 1.184276-1.2902118 2.701349-1.934818 4.551219-1.934818 1.895842 0 3.283994.7575372 4.159459 2.273611.874466 1.5150744 1.313198 3.8036763 1.313198 6.8628074v23.0789005h13.393817-.002998v-26.4198595c0-3.7427135-.488701-6.9247695-1.467104-9.5501656-.977403-2.6213985-2.485481-4.6281725-4.525235-6.0193226-2.040753-1.388152-4.570208-2.0827276-7.586365-2.0827276-3.016158 0-5.682529.7125647-7.994117 2.1326971zm190.452648.2488479c-2.851258 1.5870305-5.030926 3.5558277-6.535007 5.9073911-1.50608 2.3535621-2.559437 4.7900736-3.165067 7.3105338-.60563 2.522459-.906446 4.7470999-.906446 6.6729234 0 1.9268228.295819 4.1504643.886459 6.6719239.591638 2.522459 1.660985 4.9939491 3.202043 7.4154697 1.543058 2.4245188 3.738716 4.4352904 6.590974 6.0353129 2.850259 1.6010219 6.345123 2.4005335 10.482596 2.4005335 1.831881 0 3.523847-.1339182 5.071901-.4047528 1.549054-.2708345 2.943202-.6126257 4.181446-1.0253735 1.238243-.4127479 2.414525-.8614737 3.529843-1.347177h.001999v-12.0776215c-2.4555.8504804-4.536229 1.5040811-6.245185 1.9578039-1.707956.4557216-3.232025.6815836-4.570208.6815836-1.413136 0-2.824274-.3667759-4.236412-1.0993284-1.412137-.7335518-2.577425-1.8798515-3.493865-3.4428966-.91644-1.5630451-1.374161-3.4838716-1.374161-5.7654777 0-3.4349016.922437-5.9693532 2.768309-7.603355 1.844873-1.6330023 3.956583-2.4505029 6.336129-2.4505029 2.452502 0 5.859421.795514 10.219757 2.3835438v-12.0806196c-1.807896-.7685305-3.590806-1.3791575-5.349732-1.8348791-1.759925-.4567209-4.037533-.6855811-6.838822-.6855811-4.188441 0-7.705292.7935152-10.556551 2.3805456zm-96.724908-.8234969c-2.120704 1.0373663-4.237411 2.8512581-6.344124 5.4356792v-6.26917h-13.393818v43.347518h13.393818v-25.4174719c.469713-.7625341.929432-1.4850927 1.377158-2.1656769.447727-.6805842.99939-1.3891513 1.656988-2.1257014.656599-.73655 1.402143-1.3391818 2.234635-1.8068961.830493-.4657155 1.792905-.700572 2.885237-.700572 2.30859 0 3.803676.8854591 4.488258 2.6563772.680584 1.7709181 1.022376 3.8456506 1.022376 6.2261962v.8924548 22.4412901h13.393817-.001999v-25.4394584c0-12.4204121-4.541225-18.6316175-13.620679-18.6316175-2.605408 0-4.969963.5186831-7.091667 1.5570487zm-176.772006 1.311199c-3.274999 1.9128314-5.725502 4.5492208-7.34951 7.9061699-1.626007 3.3569492-2.43851 7.1606254-2.43851 11.4110288 0 4.3063691.812503 8.1590154 2.43851 11.5589383 1.624008 3.3999229 4.074511 6.0932775 7.34951 8.0750668 3.275999 1.983788 7.243575 2.9751824 11.909724 2.9751824 4.314364 0 7.869193-.4767088 10.660487-1.4291269 2.792295-.9524182 5.166844-2.0107716 7.126647-3.1790579v-9.4522254c-5.459665 2.8602526-10.446618 4.2873807-14.96186 4.2873807-2.581423 0-4.889013-.8254956-6.92377-2.4804846-2.033758-1.6519907-3.311977-3.782689-3.832659-6.3890967h26.686697-.000999v-3.0661268c0-5.4536683-.923436-9.9059483-2.772307-13.3538419-1.84987-3.448893-4.204431-5.9343745-7.07068-7.4534465-2.86525-1.5180726-5.835435-2.2786079-8.911556-2.2786079-4.666149 0-8.633725.9564157-11.909724 2.8682477zm5.673534 9.071458c1.376159-1.6849706 3.180057-2.5294547 5.414692-2.5294547 2.25962 0 3.989563.8294933 5.192828 2.4874804 1.203264 1.6589865 1.804897 3.8766316 1.804897 6.6519361h-14.479154c0-2.7193387.689578-4.9229924 2.066737-6.6099618zm118.015901-11.2950995c-2.104714.4277386-4.123481 1.0733442-6.052302 1.9408143-1.930821.8684694-3.726723 1.9847874-5.383711 3.3499534v11.7558181c2.075732-2.3255792 4.361335-4.2244192 6.85881-5.7025162 2.495475-1.4731 5.201822-2.2116488 8.11904-2.2116488 2.472489 0 4.080507.5946367 4.821054 1.7819113.741547 1.1882741 1.11332 2.8312704 1.11332 4.9249912-.519682.3108102-1.012381.5676533-1.483094.7635336-.469713.1968797-1.181278.47471-2.131698.8274945-.951418.3537838-2.355561.8704682-4.208429 1.5490536-3.264005 1.1872747-5.884405 2.3345738-7.860198 3.4369003-1.978791 1.1043254-3.553828 2.5254572-4.727112 4.267393-1.175282 1.7419358-1.761923 3.941592-1.761923 6.6019667 0 1.7539285.339792 3.4588869 1.019377 5.1138758.679585 1.6559883 1.864861 3.0291494 3.559825 4.1174845 1.693965 1.0893345 3.91161 1.6350012 6.657933 1.6350012 2.841264 0 5.13886-.4337351 6.895787-1.2952088 1.754928-.8604743 3.350953-1.9588033 4.785077-3.2889906.370773 1.2742215.989395 2.3575597 1.858864 3.2480157.86747.8884572 2.404531 1.3361837 4.613182 1.3361837 2.330576 0 4.326357-.271834 5.986342-.8065073 1.660986-.5366722 3.47088-1.2462387 5.431682-2.1227032h-.000999v-8.0260967c-1.437122.8244963-2.577426 1.2352454-3.418912 1.2352454-.694575 0-1.170285-.3897619-1.431125-1.1702851-.259842-.7785244-.390762-1.9618015-.390762-3.5488319v-16.7057941c0-4.2504033-1.379157-7.5873647-4.139471-10.0118835-2.760313-2.4235194-6.8748-3.6357788-12.344458-3.6357788-2.153684 0-4.282384.2138694-6.386099.6406087zm1.434124 34.7697583c-.731553-.7635335-1.097329-1.8698577-1.097329-3.3149748 0-2.0107716.730553-3.602799 2.19266-4.7800797 1.462107-1.1732833 3.779691-2.4964749 6.948755-3.9705743v10.2387449c-.942424.8224975-1.86686 1.5240689-2.768309 2.1027154-.904447.5806453-1.814891.8704682-2.730332.8704682-.968408 0-1.81689-.3817668-2.545445-1.1462997zm116.736683 8.6567114h13.392818v-43.347518h-13.392818zm-162.963442 12.1305892v59.0039527h13.393818v-3.957582c.865471.852479 1.70196 1.583033 2.505469 2.192661.805508.611626 1.93182 1.179279 3.381934 1.702959 1.447116.52368 3.164067.787519 5.145856.787519 2.74932 0 5.45067-.779524 8.101051-2.337572 2.649381-1.560047 4.827051-3.99356 6.538006-7.295543 1.707956-3.302982 2.564433-7.46344 2.564433-12.482374 0-2.944201-.36078-5.756483-1.08034-8.431849-.71956-2.676365-1.815891-5.088891-3.288991-7.240576-1.4721-2.151686-3.374938-3.857644-5.702516-5.116874-2.327578-1.26023-5.014936-1.891845-8.061075-1.891845-2.278608 0-4.284383.332797-6.017324.997391-1.733941.664594-3.096108 1.436123-4.086503 2.312587v-18.2428547zm13.395816 45.1783997v-16.531901c2.511466-1.839876 4.775083-2.762312 6.787853-2.762312 2.011771 0 3.751708.972406 5.219812 2.91322 1.466104 1.938816 2.199656 4.765089 2.199656 8.475822 0 4.222421-.820499 7.102661-2.460497 8.647717-1.640998 1.544057-3.293988 2.315585-4.958971 2.315585-2.637388 0-4.898007-1.018377-6.787853-3.058131zm-77.260799-45.1754016-11.186166 32.6710406-12.038646-32.6710406h-11.112211l-12.263508 32.6710406-10.70446-32.6710406h-16.089171l21.850651 59.7275106h9.069459l13.711623-34.74977 13.378827 34.74977h8.993506l22.295379-59.7275106zm25.68131 17.8001256c-3.274999 1.911832-5.724502 4.548221-7.34951 7.90517-1.626006 3.35695-2.43851 7.160626-2.43851 11.411029 0 4.307369.812504 8.159016 2.43851 11.558939 1.625008 3.399922 4.074511 6.093277 7.34951 8.075066 3.275999 1.983788 7.244575 2.976182 11.909725 2.976182 4.314364 0 7.869192-.475709 10.660487-1.429127 2.792294-.952418 5.166843-2.010771 7.127645-3.180057v-9.450227c-5.460664 2.859254-10.447617 4.287381-14.963858 4.287381-2.579424 0-4.887014-.825496-6.921771-2.480485-2.034757-1.65199-3.312976-3.782689-3.832659-6.388097h26.686697-.001v-3.068126c0-5.452668-.924435-9.904948-2.773305-13.354841-1.848871-3.448893-4.204432-5.933375-7.070681-7.452447-2.865249-1.519072-5.836434-2.279607-8.911555-2.279607-4.66515 0-8.633726.958414-11.909725 2.869247zm5.672535 9.072457c1.377159-1.68497 3.182056-2.529454 5.415691-2.529454 2.258621 0 3.989563.829493 5.192828 2.48748 1.203265 1.658986 1.804897 3.874633 1.804897 6.651936h-14.479154c0-2.719339.689579-4.922992 2.065738-6.609962z" fill="#015a9c"/><path d="m75.2145 17.402c-5.013-2.26-6.214-2.907-6.421-3.078l-65.62 26.911 65.713 32.031s5.076-2.128 13.248-6.101c40.114-19.481 48.809-67.165 48.809-67.165s-9.976 38.017-55.729 17.402zm-6.421-3.078.093-.038s-.064-.018-.102-.018c-.031 0-.045.012.009.056z" fill="#86ba0c"/><path d="m0 123.8951 61.229 33.152v-70.397l-61.229-31.126z" fill="#ef7c00"/><path d="m75.0042 86.6504v70.396l61.23-33.151v-68.371z" fill="#bd1789"/></svg>