<svg viewBox="0 0 6000 6000" xmlns="http://www.w3.org/2000/svg"><g fill="none"><path d="m1263 3789.5c0 348.72833-282.771667 631.5-631.5 631.5s-631.5-282.77167-631.5-631.5 282.771667-631.5 631.5-631.5h631.5zm316 .05556c0-348.75902 282.77167-631.55556 631.5-631.55556s631.5 282.79654 631.5 631.55556v1578.88888c0 348.75902-282.77167 631.55556-631.5 631.55556s-631.5-282.79654-631.5-631.55556z" fill="#e01e5a"/><path d="m2210.5 1263c-348.72833 0-631.5-282.771667-631.5-631.5s282.77167-631.5 631.5-631.5 631.5 282.771667 631.5 631.5v631.5zm-.05556 316c348.75902 0 631.55556 282.77167 631.55556 631.5s-282.79654 631.5-631.55556 631.5h-1578.888884c-348.759013 0-631.555556-282.77167-631.555556-631.5s282.796543-631.5 631.555556-631.5z" fill="#36c5f0"/><path d="m4737 2210.5c0-348.72833 282.77167-631.5 631.5-631.5s631.5 282.77167 631.5 631.5-282.77167 631.5-631.5 631.5h-631.5zm-316-.05556c0 348.75902-282.77167 631.55556-631.5 631.55556s-631.5-282.79654-631.5-631.55556v-1578.888884c0-348.759013 282.77167-631.555556 631.5-631.555556s631.5 282.796543 631.5 631.555556z" fill="#2eb67d"/><path d="m3789.5 4737c348.72833 0 631.5 282.77167 631.5 631.5s-282.77167 631.5-631.5 631.5-631.5-282.77167-631.5-631.5v-631.5zm.05556-316c-348.75902 0-631.55556-282.77167-631.55556-631.5s282.79654-631.5 631.55556-631.5h1578.88888c348.75902 0 631.55556 282.77167 631.55556 631.5s-282.79654 631.5-631.55556 631.5z" fill="#ecb22e"/></g></svg>
