<svg xmlns="http://www.w3.org/2000/svg" viewBox="0 0 105 105"><defs><linearGradient id="a" x1="33.849" x2="92.109" y1="28.254" y2="39.866" gradientUnits="userSpaceOnUse"><stop offset=".242" stop-color="#3bea62"/><stop offset=".857" stop-color="#fcf84a"/></linearGradient><linearGradient id="b" x1="27.611" x2="83.549" y1="11.143" y2="96.225" gradientUnits="userSpaceOnUse"><stop offset=".018" stop-color="#3bea62"/><stop offset=".786" stop-color="#087cfa"/></linearGradient><linearGradient id="c" x1="26.833" x2="97.683" y1="58.484" y2="84.073" gradientUnits="userSpaceOnUse"><stop offset=".121" stop-color="#1faeb5"/><stop offset=".975" stop-color="#087cfa"/></linearGradient><linearGradient id="d" x1="6.452" x2="97.967" y1="62.472" y2="21.912" gradientUnits="userSpaceOnUse"><stop offset=".121" stop-color="#1faeb5"/><stop offset=".856" stop-color="#fcf84a"/></linearGradient></defs><path fill="url(#a)" d="M93.623 15.85a12.1 12.1 0 0 0-3.827-1.258c-.84-.094-51.894-9.899-54.596-10.058a19.3 19.3 0 0 0-3.97.176C7.485 8.245 1.514 37.15 21.1 49.224a20.86 20.86 0 0 0 15.442 2.601c9.275-2.019 51.08-12.341 53.807-12.934 11.6-2.521 14.018-17.382 3.274-23.042"/><path fill="url(#b)" d="M94.121 60.321c-2.008-2.251-38.175-43.36-45.905-50.063a27.7 27.7 0 0 0-5.266-3.574A19.16 19.16 0 0 0 31.23 4.71C9.798 7.9 2.846 31.76 16.097 45.256c1.43 1.456 41.244 45.723 41.586 46.156a25.9 25.9 0 0 0 6.782 5.97 21.05 21.05 0 0 0 15.58 2.624c19.61-4.27 25.94-26.38 14.075-39.685"/><path fill="url(#c)" d="M86.511 54.452a19 19 0 0 0-2.47-1.083c-.67-.239-54.468-17.221-55.655-17.519a15.7 15.7 0 0 0-6.104-.298c-19.307 2.876-24.163 26.38-8.237 36.199 3.743 2.307 52.8 26.942 54.057 27.414a21.13 21.13 0 0 0 11.945.841c22.928-4.993 27.7-34.373 6.464-45.554"/><path fill="url(#d)" d="M93.623 15.85a9.8 9.8 0 0 0-5.983-1.01 14.7 14.7 0 0 0-3.078.796c-4.808 1.832-66.336 20.794-68.095 21.558a19.35 19.35 0 0 0-2.422 34.557 16.97 16.97 0 0 0 12.558 2.115 22.4 22.4 0 0 0 4.83-1.633c7.613-3.607 61.673-34.165 62.828-34.824a12.15 12.15 0 0 0-.638-21.56"/><path d="M22.5 22.5h59.999v59.999H22.5z"/><path fill="#fff" d="M29.979 71.163h22.5v3.75h-22.5zm0-41.242h8.802c7.093 0 11.994 4.87 11.994 11.22v.065c0 6.352-4.901 11.285-11.994 11.285h-8.802Zm4.965 4.482V48.01h3.837a6.43 6.43 0 0 0 6.803-6.738v-.065a6.48 6.48 0 0 0-6.803-6.803Zm19.045-4.462h4.976v18.386h9.869v4.174H53.989Z"/></svg>