<svg viewBox="0 0 1000 1000" xmlns="http://www.w3.org/2000/svg"><path d="m992.870371 487.768577-41.953698-25.990739c-.351852-4.083334-.75-8.157407-1.194444-12.231481l36.124995-33.634258c3.669817-3.404464 5.3058-8.471979 4.319444-13.379629-.955574-4.914534-4.408523-8.97311-9.10648-10.703704l-46.157402-17.199073c-1.157407-3.99537-2.37037-7.962963-3.61574-11.944444l28.768515-39.944443c4.511181-6.253101 3.303608-14.948849-2.740741-19.73611-1.923117-1.527938-4.202646-2.542655-6.624999-2.949074l-48.643512-7.912037c-1.888981-3.66311-3.83832-7.294777-5.847222-10.893518l20.449072-44.907406c2.090877-4.561139 1.664971-9.880576-1.125-14.050925-2.772354-4.172983-7.516794-6.602207-12.523147-6.412037l-49.402771 1.722222c-2.551084-3.194579-5.151707-6.349281-7.800925-9.462962l11.370369-48.060184c1.160819-4.885035-.294198-10.022635-3.844153-13.573535-3.549956-3.550899-8.687168-5.007281-13.572511-3.84776l-48.074068 11.37037c-3.120072-2.645668-6.279373-5.244721-9.476851-7.796296l1.726852-49.4027763c.184889-5.0039244-2.243279-9.74455-6.412037-12.518518-4.168868-2.7866847-9.482938-3.2175552-14.046294-1.1388889l-44.819439 20.4490732c-3.62037-1.986111-7.254629-3.9537034-10.893517-5.8564811l-7.930555-48.638887c-.798782-4.9341178-4.108696-9.0965054-8.73611-10.9861107-4.616803-1.9212561-9.90003-1.3077427-13.953701 1.6203703l-39.94444 28.7638878c-3.935184-1.25-7.884258-2.4537036-11.85185-3.6018517l-17.203702-46.1574057c-1.739619-4.6924655-5.790388-8.1455233-10.699072-9.12036998-4.906202-.96148867-9.961799.67064708-13.379628 4.31944428l-33.638885 36.120369c-4.072859-.4559002-8.151971-.8540883-12.236109-1.1944444l-25.990738-42.0462947c-2.644761-4.26465028-7.310548-6.85422371-12.328702-6.84263134-5.046296 0-9.652776 2.59263151-12.23148 6.84263134l-25.995367 42.041665c-4.082639.3416769-8.160211.7414087-12.23148 1.1990741l-33.638884-36.120369c-3.415871-3.6518844-8.47321-5.28458268-13.379628-4.31944428-4.912468.96919428-8.967059 4.42401548-10.703703 9.12036998l-17.199071 46.1574057c-3.967593 1.1435184-7.916666 2.3425925-11.851851 3.6018517l-39.944439-28.7638878c-4.051306-2.9341973-9.337808-3.5480911-13.953702-1.6203703-4.608265 1.9114551-7.907617 6.0610118-8.73148 10.981481l-7.930555 48.638887c-3.657407 1.8981481-7.291666 3.8518518-10.893517 5.8564818l-44.819439-20.4490738c-4.558394-2.0791396-9.868015-1.65186-14.035276 1.1294565-4.16726 2.7813165-6.598888 7.5207084-6.427684 12.5279504l1.722222 49.3981459c-3.194444 2.560185-6.356481 5.162037-9.48148 7.800926l-48.069439-11.37037c-4.883252-1.139078-10.008934.316405-13.564813 3.851852-3.552183 3.546103-5.011851 8.680352-3.856481 13.564814l11.277777 48.069443c-2.636873 3.116103-5.229722 6.269193-7.777777 9.458333l-49.4074013-1.722223c-4.9983104-.159722-9.7274065 2.26254-12.5185169 6.412037-2.7892521 4.169693-3.2201986 9.486453-1.1388888 14.050926l20.453701 44.907405c-1.99074 3.606482-3.9583327 7.236111-5.8611102 10.893518l-48.6435123 7.916667c-4.9334483.797033-9.0959704 4.1053-10.9861097 8.731481-1.911263 4.61665-1.2982887 9.893483 1.6203701 13.949073l28.7685149 39.944443c-1.2638458 3.963051-2.467687 7.944987-3.6111107 11.944444l-46.1574015 17.199074c-4.6876766 1.747723-8.1356771 5.79871-9.11192532 10.705419-.97624823 4.906709.65856062 9.968982 4.32025932 13.377913l36.1249953 33.634258c-.4537036 4.069444-.8518517 8.148148-1.1944443 12.231481l-41.95369829 25.99074c-4.2698424 2.642584-6.86216485 7.31192-6.8472856 12.333333 0 5.055555 2.59265652 9.648147 6.84265597 12.231481l41.95369832 25.990739c.3425926 4.083334.7407407 8.157407 1.1944443 12.231481l-36.1249954 33.634258c-3.6596318 3.408447-5.29361309 8.468698-4.31845116 13.373745.97516196 4.905046 4.42042406 8.955503 9.10548766 10.704958l46.1574015 17.203703c1.1548774 3.99608 2.3586713 7.97786 3.6111106 11.944444l-28.7592556 39.939813c-4.5289282 6.267262-3.3029591 14.992076 2.7777775 19.768518 1.9398145 1.527778 4.2407401 2.532407 6.6805547 2.916667l48.6435122 7.912036c1.8842591 3.666667 3.8425917 7.296296 5.8564807 10.893519l-20.4490714 44.814813c-2.0763468 4.558506-1.6478119 9.866584 1.132918 14.032966 2.7807298 4.166382 7.5182141 6.598578 12.5244877 6.429996l49.3055497-1.731482c2.560184 3.194445 5.162036 6.351852 7.800924 9.476852l-11.273146 48.069442c-1.154961 4.854376.302976 9.959785 3.847221 13.472222 3.546588 3.554401 8.685813 5.009726 13.569443 3.842593l48.074068-11.277778c3.117016 2.64327 6.276376 5.236198 9.476851 7.777778l-1.717593 49.402776c-.184889 5.003924 2.243279 9.74455 6.412037 12.518518 4.172396 2.780876 9.487202 3.203047 14.046294 1.11574l44.819439-20.444443c3.606481 2 7.23611 3.953703 10.893517 5.856481l7.930554 48.634257c.807583 4.954114 4.108472 9.143638 8.73611 11.087963 4.616402 1.919827 9.898179 1.308234 13.953702-1.615741l39.94444-28.763888c3.949073 1.25463 7.916665 2.476852 11.944443 3.625l17.203701 46.152776c1.745154 4.687776 5.796887 8.134904 10.703702 9.106481 4.907384.98171 9.972664-.653552 13.379628-4.319444l33.638885-36.120369c4.060185.467593 8.152777.861111 12.23148 1.222222l25.995367 41.949073c2.623351 4.238598 7.246765 6.825051 12.23148 6.842593 5.008997-.023649 9.658846-2.604377 12.328702-6.842593l25.990737-41.949073c4.092592-.361111 8.171296-.754629 12.23611-1.222222l33.634255 36.120369c3.403961 3.670604 8.471925 5.306732 13.379628 4.319444 4.909648-.965711 8.963884-4.414969 10.703702-9.106481l17.203702-46.152776c3.995369-1.148148 7.958332-2.37037 11.944443-3.625l39.949069 28.763888c4.069578 2.919621 9.361159 3.522687 13.983326 1.593639 4.622168-1.929047 7.91513-6.114846 8.701856-11.061231l7.930554-48.638887c3.671296-1.902778 7.300925-3.87963 10.893517-5.856481l44.819439 20.444443c4.561169 2.084496 9.875888 1.662471 14.050924-1.11574 4.157704-2.783818 6.582474-7.51781 6.412037-12.518518l-1.722222-49.402776c3.199159-2.541323 6.356979-5.134255 9.472221-7.777778l48.069438 11.277778c4.864313 1.152004 9.978614-.290407 13.524164-3.814288 3.545551-3.52388 5.01929-8.629241 3.89713-13.500527l-11.277776-48.064813c2.641922-3.119703 5.234832-6.280584 7.777776-9.481481l49.407401 1.731482c5.005136.190359 9.74828-2.2391 12.518517-6.412037 2.793238-4.168909 3.220975-9.489319 1.12963-14.050925l-20.449072-44.814813c1.990741-3.606482 3.944444-7.236111 5.847222-10.893519l48.643512-7.912036c4.93991-.782372 9.108795-4.095696 10.98611-8.731481 1.919415-4.617062 1.30601-9.899359-1.62037-13.953704l-28.768515-39.939813c1.259259-3.967592 2.462962-7.949074 3.61574-11.944444l46.157402-17.203703c4.688153-1.742027 8.135954-5.792799 9.10648-10.699074.986356-4.90765-.649627-9.975165-4.319444-13.379629l-36.124995-33.634258c.444444-4.074074.842592-8.152777 1.194444-12.231481l41.953698-25.990739c4.245238-2.616993 6.842592-7.244435 6.842592-12.231481-.01468-5.009-2.593431-9.661584-6.833332-12.328704zm-280.958297 348.782394c-16.055554-3.458333-26.185182-19.300925-22.745368-35.35648 1.642276-7.707848 6.282121-14.446313 12.896933-18.730266s14.661624-5.761752 22.366952-4.107696c16.055553 3.430556 26.277774 19.300925 22.83796 35.35648-1.644525 7.706597-6.284844 14.443498-12.899022 18.727041-6.614178 4.283542-14.659757 5.762413-22.364863 4.110921zm-14.240739-96.513885c-14.620369-3.134251-29.050922 6.175926-32.111107 20.833333l-14.907406 69.564812c-45.967586 20.833332-97.476839 32.490739-150.990721 32.490739-55.046289 0-107.037023-12.138888-153.861091-33.925924l-14.907406-69.564812c-3.134259-14.62037-17.490738-23.981481-32.111107-20.828703l-61.449066 13.185184c-11.390111-11.772776-21.988872-24.286212-31.726848-37.458332h299.120332c3.384259 0 5.638888-.611111 5.638888-3.689814v-106.064811c0-3.078704-2.254629-3.689815-5.638888-3.689815h-87.444433v-66.986108h94.513877c8.629628 0 46.157401 2.467592 58.106474 50.453702 3.754629 14.717592 12.041665 62.685182 17.675923 78.069441 5.62037 17.199073 28.481478 51.60185 52.847216 51.60185h149.083314c1.689815 0 3.49537-.189815 5.398148-.537037-10.333916 14.025356-21.637828 27.309426-33.8287 39.754628l-62.884251-13.476851zm-413.796243 95.0787c-7.705883 1.660479-15.755785.185366-22.372185-4.099616-6.6164-4.284981-11.255058-11.027365-12.8917-18.738346-3.425925-16.050925 6.768518-31.916665 22.84259-35.35648 16.04433-3.431049 31.832329 6.793738 35.263884 22.837962 3.425926 16.055555-6.777777 31.916665-22.842589 35.35648zm-113.722208-459.629612c6.646906 15.01601-.104016 32.579589-15.09722 39.277777-15.004628 6.657407-32.495367-.115741-39.18518-15.097222-6.689814-14.986111.11574-32.587962 15.101849-39.273147 14.987329-6.643072 32.522893.111736 39.180551 15.092592zm-34.874996 82.569442 64.02777-28.472222c13.666665-6.069444 19.879627-22.078702 13.759258-35.740739l-13.185184-29.814814h51.78703v233.157399h-104.166653c-9.273392-32.637251-13.969479-66.404202-13.953741-100.33333 0-13.282407.717632-26.374999 2.092631-39.273146l-.37037.476852zm280.958298-22.648148v-68.796293h123.282391c6.37037 0 45.009254 7.361111 45.009254 36.212961 0 23.981481-29.624996 32.583332-53.995364 32.583332h-114.675911zm448.199017 61.921294c0 9.134259-.333334 18.157407-1 27.138888h-37.560181c-3.754629 0-5.263888 2.462963-5.263888 6.143518v17.199074c0 40.518517-22.84259 49.402776-42.907402 51.60185-19.115738 2.148148-40.236106-7.990741-42.814809-19.685185-11.277777-63.351849-30.009256-76.828701-59.634252-100.333329 36.796292-23.314814 75.018509-57.810183 75.018509-104.157404 0-49.782405-34.115736-81.124997-57.337956-96.513879-32.680551-21.5-68.805546-25.796301-78.555545-25.796301h-387.995321c52.657401-58.671294 124.236095-100.337959 204.509233-115.624996l45.773143 47.967591c4.961683 5.205435 11.790184 8.223444 18.979594 8.388459 7.189409.165014 14.149188-2.536522 19.344475-7.508829l51.222215-48.925924c107.032394 19.972221 197.81942 86.671293 250.379598 178.694437l-35.07407 79.120368c-6.046295 13.662036.125 29.717591 13.763888 35.740739l67.467584 29.999999c1.180555 12.069444 1.777777 24.185184 1.777777 36.310183l-.097222.240741zm-387.990692-400.3842435c5.685065-5.4483413 13.305562-8.4087849 21.177755-8.2272258s15.348104 3.4901763 20.775944 9.1948183c11.304274 11.896279 10.863434 30.693042-.986111 42.046295-5.684509 5.450057-13.305848 8.411248-21.178806 8.228802-7.872959-.182445-15.348946-3.493497-20.774893-9.201025-11.309929-11.895868-10.869005-30.698285.986111-42.0509238zm347.856437 279.9814705c3.183681-7.206247 9.105364-12.848487 16.456979-15.680374 7.351614-2.831888 15.528194-2.620387 22.723572.587782 7.209908 3.204665 12.851215 9.142551 15.682583 16.507061 2.831369 7.364511 2.620803 15.552215-.585363 22.761456-3.182818 7.207075-9.104137 12.850355-16.455841 15.683146s-15.528755 2.621957-22.724709-.585924c-7.211079-3.204639-12.853267-9.143311-15.684724-16.508922-2.831458-7.365611-2.620118-15.554472.587503-22.764225z" fill="#fff"/></svg>