<svg xmlns="http://www.w3.org/2000/svg" data-name="Layer 1" viewBox="0 0 37.96 41.01"><path d="M20.37.36c-.86-.47-1.91-.47-2.77 0L3.4 8.16s-.02.01-.03.02L1.5 9.21c-.93.5-1.5 1.47-1.5 2.52v17.55c0 1.05.57 2.02 1.49 2.53l14.34 7.88.06.03 1.71.94c.86.47 1.91.47 2.77 0l1.72-.94s.03-.02.05-.03l14.34-7.88c.92-.51 1.49-1.47 1.49-2.52V11.73c0-1.05-.57-2.02-1.49-2.52l-1.86-1.02s-.03-.02-.04-.02zm.91 20.15 13.29-7.3s.03-.02.04-.02l.16-.09c.44-.24.98.08.98.58v13.66c0 .5-.54.82-.98.58l-.12-.07s-.05-.03-.08-.04zM3.36 13.18s.02.01.03.02l13.29 7.3L3.4 27.81s-.05.03-.07.04l-.13.07a.664.664 0 0 1-.98-.58V13.67c0-.5.54-.82.98-.58l.17.09Zm30.16-3.07L21.07 3.27a.66.66 0 0 0-.98.56v14.81l13.43-7.38c.43-.26.43-.88 0-1.14ZM4.44 11.25l13.43 7.38V3.83a.662.662 0 0 0-.98-.56L4.44 10.11c-.44.26-.44.89 0 1.14m.02 19.66a.658.658 0 0 1-.03-1.14l13.45-7.39v14.81a.67.67 0 0 1-.96.58L4.46 30.92Zm15.63 6.25V22.37l13.45 7.39c.42.27.41.9-.04 1.14l-12.45 6.85a.664.664 0 0 1-.96-.57z" style="fill:#0d1a2a;fill-rule:evenodd"/><path d="M18.66 2.29c.2-.11.44-.11.64 0l14.2 7.81c.46.25.46.91 0 1.16l-14.2 7.81c-.2.11-.44.11-.64 0l-14.2-7.81a.66.66 0 0 1 0-1.16z" style="fill:#e6c220"/><path d="M2.21 13.67c0-.5.54-.82.98-.58l14.34 7.88c.21.12.34.34.34.58v15.61c0 .5-.54.82-.98.58L2.56 29.87a.67.67 0 0 1-.34-.58V13.67Z" style="fill:#feda15"/><path d="M34.77 13.09c.44-.24.98.08.98.58v15.61c0 .24-.13.47-.34.58l-14.34 7.88a.664.664 0 0 1-.98-.58V21.55c0-.24.13-.47.34-.58z" style="fill:#fff"/><path d="M8.23 25.92v.02l-3.36-1.77v-.02c.08-1.05.89-1.5 1.82-1.01s1.62 1.73 1.54 2.78m5.29 3.05v.02l-3.36-1.77v-.02c.08-1.05.89-1.5 1.82-1.01s1.62 1.73 1.54 2.78" style="fill:#0d1a2a"/></svg>