<svg xmlns="http://www.w3.org/2000/svg" data-name="Layer 1" viewBox="0 0 37.96 41.01"><path d="M18.66 2.33c.2-.11.44-.11.64 0l14.2 7.81c.46.25.46.91 0 1.16l-14.2 7.81c-.2.11-.44.11-.64 0L4.46 11.3a.66.66 0 0 1 0-1.16z" style="fill:#e6c220"/><path d="M34.77 13.13c.44-.24.98.08.98.58v15.61c0 .24-.13.47-.34.58l-14.34 7.88a.664.664 0 0 1-.98-.58V21.59c0-.24.13-.47.34-.58z" style="fill:#fff"/><path d="M17.53 21.01 3.2 13.13a.664.664 0 0 0-.98.58v15.61c0 .24.13.47.34.58l14.34 7.88c.44.24.98-.08.98-.58V21.59c0-.24-.13-.47-.34-.58Zm-9.3 4.97-3.36-1.77v-.02c.08-1.05.89-1.5 1.82-1.01s1.62 1.73 1.54 2.78zm5.29 3.05-3.36-1.77v-.02c.08-1.05.89-1.5 1.82-1.01s1.62 1.73 1.54 2.78z" style="fill:#feda15"/></svg>