<svg viewBox="0 0 6001 5906" xmlns="http://www.w3.org/2000/svg"><g fill="#00758f" fill-rule="evenodd"><path d="m5527.5604 4567.97136c-326.67206-8.19208-579.65587 24.48903-791.82714 114.58642-61.21805 24.52414-159.06296 24.52414-167.43469 102.2849 32.87647 32.68148 36.80165 85.83052 65.57852 131.04116 48.83543 81.83472 134.38418 192.14597 212.08407 249.58791 85.7224 65.50303 171.44632 130.73502 261.35554 188.01049 159.06295 98.63072 338.70659 155.67025 493.58386 253.9246 90.08326 57.20601 179.55643 130.80485 269.63969 192.34718 44.73659 32.71659 73.07854 85.997 130.45975 106.24598v-12.3891c-28.77876-36.72071-36.8009-89.93091-65.23006-131.08458-40.72495-40.6029-81.62432-77.66449-122.52369-118.40745-118.42521-159.56074-265.54122-298.55767-424.34254-413.14409-130.72138-90.26348-416.58128-213.04198-469.42797-363.99086 0 0-4.27326-4.33632-8.28452-8.36686 89.82163-8.30608 196.12548-41.09252 281.76143-65.91413 138.56948-36.72071 265.10517-28.41501 407.94791-65.13572 65.40411-16.48948 130.721-37.08802 196.2999-57.20563v-37.08802c-73.86342-73.49352-126.70974-171.85358-204.23558-241.35242-207.9856-179.9845-436.81313-355.80709-673.48914-503.34642-126.70974-81.86114-289.95874-134.80048-424.69138-204.53511-48.74709-24.59424-130.28533-36.7121-158.97612-77.86566-73.51496-89.99229-114.50079-208.50442-167.43469-315.06478-118.25079-224.81047-232.75196-474.33731-334.60812-712.06099-73.4264-159.47336-118.33816-318.94671-208.15979-466.35463-420.59291-695.77241-877.5503-1117.012888-1579.5558-1530.384572-151.04006-86.031658-330.59649-122.839952-522.27428-167.866674-102.20501-4.284108-204.14876-12.240288-306.17934-16.262074-65.40411-28.764678-130.80821-106.577878-187.84058-143.386146-232.751957-147.233067-832.465253-466.35462-1003.9987859-44.939308-110.2278989 266.138647 163.2490079 527.905731 257.1694859 662.985972 69.327776 93.987838 159.237749 200.565712 207.985593 306.793842 28.604338 69.59473 36.800521 143.38614 65.491314 216.91522 65.229684 180.01953 126.3609 380.58525 212.258481 548.45193 44.736585 85.94336 93.658849 176.08513 150.778428 253.46119 32.962925 45.28817 89.909214 65.48551 102.205004 139.36431-56.945162 81.74758-61.392469 204.50011-94.007311 306.88127-146.854378 462.42027-89.822008 1035.26557 118.425211 1374.84622 65.14248 102.2849 220.4558 327.41851 428.61544 241.28183 183.65527-73.52712 142.84311-306.78486 195.86385-511.259 12.20819-49.45247 4.01088-81.89447 28.42916-114.58649v8.27022c57.11882 114.41163 114.41395 224.61787 167.43469 339.58028 126.70974 200.30369 346.90428 409.04408 530.7336 548.04101 97.67011 73.94011 175.28316 200.58343 297.72001 245.73253v-12.36267h-8.02289c-24.59195-36.71921-61.21767-53.21019-93.92048-81.72826-73.42813-73.70304-154.87727-163.76645-212.25848-245.55775-171.35912-229.0592-322.57359-482.91397-456.95739-744.76849-65.49056-127.15029-122.52406-266.14738-175.63238-392.92172-24.41828-48.87456-24.41828-122.74377-65.31765-147.23307-61.39209 89.92234-150.95322 167.78801-195.77664 277.93301-77.61305 176.16385-85.72241 392.99172-114.50116 618.16043-16.22021 4.27479-8.0229 0-16.22021 8.13093-130.45975-32.71547-175.37076-167.72678-224.46744-281.92867-122.43647-290.91644-143.017158-757.38507-36.71255-1092.9698 28.42916-85.77028 151.21447-355.84239 102.03058-437.6774-24.6784-78.07461-106.21664-122.6651-151.04006-184.30365-52.934653-77.72576-110.402315-175.73542-146.767166-261.85451-98.019323-229.06808-147.290425-482.87902-253.070639-711.9471-49.009851-106.57784-134.907432-217.090075-204.061166-315.099736-77.700266-110.512236-163.336218-188.238-224.641853-319.034132-20.232604-45.114151-48.836187-118.818133-16.307421-167.779246 8.022141-32.786463 24.591191-45.115045 57.293242-53.333518 52.760237-45.025865 203.973957 12.152849 256.907858 36.720836 151.127266 61.201393 277.662585 118.818155 404.023486 204.587528 57.206033 41.004068 118.425209 118.730701 191.765379 139.364312h85.89645c130.54696 28.414934 277.57575 7.95618 400.09944 44.939293 216.18291 69.507299 412.04676 171.801069 587.67876 282.313304 534.48361 339.667739 975.308 822.634159 1273.11522 1399.501009 49.09668 93.98788 69.67737 180.01954 114.50079 278.0292 85.72316 200.91543 191.9398 405.50293 277.48869 601.72373 85.63671 192.34721 167.43469 388.59386 290.04596 548.42569 61.044 85.78703 306.00454 130.80515 416.23244 175.84931 81.45103 36.71203 208.15963 69.49847 281.67422 114.44637 138.74389 85.78711 277.22654 184.14641 408.03512 278.41401 65.14172 49.10982 269.29085 151.28977 281.58702 233.25585"/><path d="m1362.00358 1014c-69.0979 0-117.83373 8.37552-167.00358 20.50095v8.19847h7.91938c32.89519 65.15861 89.98517 110.42941 130.36571 167.47588 32.80891 65.33479 61.35259 130.40441 93.90154 195.8247 4.00226-4.01159 7.91825-8.28746 7.91825-8.28746 57.43659-40.6469 85.89512-105.8936 85.89512-204.024-24.62844-28.78581-28.45853-57.1346-48.99579-85.83228-24.36735-40.73412-77.36653-61.14612-110.00138-93.85626"/></g></svg>
