<svg height="266" preserveAspectRatio="xMidYMid" viewBox="0 0 256 266" width="256" xmlns="http://www.w3.org/2000/svg"><path d="m221.101749 0 34.894527 20.4099019-58.186996 33.8397942-.00028.0403039 58.187276-33.8800981v24.2533251l-78.133037 191.59685-49.887239 28.799923.000049.003662-.003049-.002662-.002473.002662-.000527-.003662-49.4062351-28.579037-78.5637649-191.0667223v-25.0043388l34.9000488-20.4099019 58.2311731 34.1490351-.1992219.1139649.1550447.0627442v23.0605385l34.8890043 81.5954303-.000049 27.260287.005571-.002907v-27.25738l34.933182-81.5954303v-23.2814249h.044177zm-149.522749 46.548-13.386482 7.7016961-.000518.0403039z" fill="#1159cc"/><path d="m221.101749 0-58.142819 34.1048578h-.044177v23.2814249l-34.933182 81.5954303v27.25738l-23.248292 13.518247-46.540761-104.9652102v-20.5424337l34.9387039-20.100661-58.2311731-34.1490351-34.9000488 20.4099019v25.0043388l78.5637649 191.0667223 49.4122841 28.582699v-71.788075l23.292469-13.518247-.309241-.176709 46.850003-104.7885012v-20.5424337l58.186996-33.8397942z" fill="#127eff"/></svg>