<svg height="139" preserveAspectRatio="xMidYMid" viewBox="0 0 512 139" width="512" xmlns="http://www.w3.org/2000/svg"><path d="m229.817613 32.4665263h14.470531l-21.996705 73.7351907h-20.547924l-21.996705-73.7351907h14.473411l17.785735 61.430631 17.808777-61.430631zm54.713816 73.7351907h-11.045877l-.987937-3.663717c-4.791119 3.12162-10.388205 4.779126-16.106531 4.769785-9.84768 0-14.035608-6.751418-14.035608-16.1296129 0-10.9681096 4.763984-15.1617986 15.69177-15.1617986h12.932461v-5.5762238c0-5.9679421-1.656161-8.0878288-10.285483-8.0878288-5.020329.0518451-10.023377.6077393-14.931376 1.6590418l-1.659042-10.2998845c5.995388-1.6650898 12.185645-2.5251974 18.407875-2.5576894 16.91013 0 21.881494 5.967942 21.881494 19.4937411zm-13.482595-20.3693462h-9.939849c-4.418351 0-5.63671 1.2212391-5.63671 5.3227591s1.218359 5.4149281 5.406287 5.4149281c3.567758-.0518091 7.06479-1.0028432 10.167392-2.7650697v-7.9726175zm39.229426 5.8527308c-1.705006.829133-2.899092 2.4370122-3.199992 4.3089002 0 1.4286193.875605 2.0968445 2.992612 2.3042247 5.959301.6682252 9.202497.9908166 15.576559 1.6590418 8.744533.9908167 11.503842 5.3227587 11.503842 13.0649537 0 11.521124-4.210971 16.129626-24.318212 16.129626-6.995633.008029-13.960764-.921947-20.70922-2.765122l1.656162-10.069462c5.926605 1.507776 12.016016 2.281649 18.131368 2.304225 10.723286 0 12.81725-.783437 12.81725-4.308901s-.990817-3.871097-5.086576-4.3089c-6.189724-.668225-8.741652-.990817-15.576559-1.774253-7.615463-.875605-10.608075-3.433295-10.608075-10.2998844.236741-3.816903 2.348804-7.2686901 5.63959-9.2168989-4.971364-2.9954921-7.295751-7.9726175-7.295751-14.4935735v-5.1153789c.230422-11.1754899 6.074512-17.9268683 21.674114-17.9268683 3.102062-.0230422 6.195484.3456337 9.205377 1.1060279h16.587538v6.7513784c-1.886584.5530139-4.095759 1.1060279-5.959301 1.6590418 1.284605 2.6152951 1.929788 5.495576 1.886584 8.4104202v5.0923367c0 10.9681096-6.624646 17.6042768-21.674114 17.6042768-1.082385.0245848-2.165284-.013884-3.243196-.1152112zm3.0819-29.6784144c-6.624646 0-8.949032 2.4424782-8.949032 7.5348148v4.1706468c0 5.3227591 2.644098 7.3043923 8.949032 7.3043923 6.304935 0 9.067294-2.0968445 9.067294-7.3043923v-4.1706468c.022873-5.0462521-2.301514-7.5117726-9.044251-7.5117726zm59.593012 1.5668728c-4.941829 2.2417712-9.703585 4.8609776-14.242989 7.834364v34.793793h-13.574764v-53.9188581h11.503842l.875606 5.967942c4.385932-2.9689981 9.143781-5.3474384 14.15082-7.0739699zm45.096558 42.628157h-11.042997l-.990816-3.663717c-4.789945 3.121849-10.386185 4.779401-16.103651 4.769787-9.84768 0-14.035609-6.75142-14.035609-16.1296149 0-10.9681096 4.761105-15.1617986 15.691771-15.1617986h12.929581v-5.5762238c0-5.9679421-1.656162-8.0878288-10.285483-8.0878288-5.020059.0526902-10.022192.6084828-14.931377 1.6590418l-1.656161-10.2998845c5.994403-1.6651048 12.18371-2.5252151 18.404995-2.5576894 16.913009 0 21.881494 5.967942 21.881494 19.4937411zm-13.482595-20.3693462h-9.939849c-4.418351 0-5.63671 1.2212391-5.63671 5.3227591s1.218359 5.4149281 5.406287 5.4149281c3.56872-.05145 7.066771-1.0024918 10.170272-2.7650697zm53.610669 20.3693462v-37.6510316c0-2.8802809-1.218359-4.3089002-4.30026-4.3089002-4.93992.5808291-9.712852 2.1479728-14.035608 4.6084494v37.3514824h-13.485476v-53.9188581h10.285483l1.336451 4.6084494c6.713912-3.364815 14.057519-5.2877902 21.558902-5.6453505 8.949033 0 12.149025 6.3135757 12.149025 15.945235v39.1718202zm53.175746-1.013859c-3.803245 1.332249-7.796996 2.040347-11.826434 2.096845-9.84768 0-14.819045-4.60845-14.819045-14.2861933v-29.9549214h-8.076308v-10.7607294h8.076308v-13.3875456l13.482595-1.8894643v15.2770099h13.805186l-.872725 10.7376872h-12.932461v28.2267528c-.170478 1.327197.288701 2.6578555 1.241401 3.5974708.952047.939895 2.292299 1.3745425 3.614753 1.1722743 2.285623-.0692263 4.551983-.4411418 6.739857-1.1060278z"/><path d="m115.323567 0 18.200495 10.6455182-30.34952 17.6503614-.000542.0201204 30.350062-17.6704818v12.6501937l-40.7530945 99.9342261-26.0209675 15.021062.0005098.002483-.0015098-.001483-.0013704.001483-.0006296-.002483-25.7692437-14.905851-40.9777563-99.6577189v-13.0419119l18.2033753-10.6455182 30.3725621 17.8116571-.1049374.0593429.0818951.0328261v12.028053l18.1976147 42.5590306-.0005098 14.2180903.0033901-.0010238v-14.2170665l18.220657-42.5590306v-12.1432643h.0230422z" fill="#1159cc"/><path d="m115.323567 0-30.3264777 17.7886148h-.0230422v12.1432643l-18.220657 42.5590306v14.2170665l-12.1259826 7.0509276-24.2750074-54.7483793v-10.7146449l18.2235373-10.4842225-30.3725621-17.8116571-18.2033753 10.6455182v13.0419119l40.9777563 99.6577189 25.7727535 14.908334v-37.443652l12.1490249-7.0509272-.1612958-.092169 24.4363031-54.6562103v-10.7146449l30.34952-17.6503614z" fill="#127eff"/></svg>