<svg viewBox="0 0 1000 1134" xmlns="http://www.w3.org/2000/svg"><path d="m378.8875 297.929686c39.2-26.710476 89.7-16.211272 81.25-8.161882-16.1125 15.348838 5.325 10.811681 7.6375 39.134536 1.7 20.86092-5.1125 32.34755-10.975 38.884554-12.2375 1.599879-27.1125 4.587153-45.025 10.411712-10.6 3.449738-19.8125 7.274449-27.8875 11.124157-2.125-1.387395-4.4375-3.087266-7.175-5.449587-27.65-23.973184-26.725-66.244982 2.175-85.94349m234.15 165.124992c7.1125-5.512083 39.4375-15.898796 69.3625-19.436028 15.7125-1.84986 38.1125-2.924778 42.8875-.249981 9.4875 5.237103 9.4875 21.448375 2.9875 36.422241-9.4625 21.748352-22.8375 45.784032-37.9875 47.758882-24.7125 3.262253-48.075-10.111734-74.75-30.035225-9.525-7.161957-15.375-24.510643-2.5-34.459889m45.0875-211.796456c36.4875 16.973714 31.7125 49.271267 32.725 68.24483.275 5.449587.1875 9.124309-.275 11.649118-5.05-2.737293-13.0375-4.749641-25.7-4.187183-3.7.149988-7.3.587455-10.7875 1.137414-13.4625-7.211954-21.5125-21.323385-28.875-36.322249-.675-1.387395-1.2-2.624801-1.7-3.82471-.2125-.549959-.4375-1.137414-.65-1.637376-.0875-.274979-.15-.487463-.25-.737444-4.0375-12.81153-1.325-15.373836.375-19.323537 1.7625-4.037194 8.35-7.361942-1.3875-10.724187-.8375-.312476-1.875-.487463-3.05-.712446 6.45-7.999394 25.7625-9.936747 39.575-3.56223m-198.9125 386.158247c-39.3125-25.235588-79.9875-61.432846-97.775-81.468828-2.9875-2.24983-2.5-12.236573-2.5-12.236573 16.05 12.474055 82.6375 60.045451 153.05 81.768806 24.8375 7.674418 62.95 10.574199 96.0125-8.161882 25.2625-14.323915 55.675-39.284524 73.825-65.007576l3.325 5.762064c-.125 3.82471-8.475 22.460798-12.725 29.947731 7.675 4.412166 13.4 5.612075 21.9375 7.949398l58.3-9.086812c20.925-33.797439 35.925-88.30581 19.9375-140.18938-9.125-29.760246-56.7-89.018257-60.1125-92.28051-11.95-11.486629 2-55.858268-21.6875-104.267101-25.0375-51.208621-90.275-104.604576-118.6125-127.840316 8.35 6.099538 59.775 26.835467 83.75 55.770775 2.25-2.987273 3.175-18.523596 5.2375-22.460798-20.5875-26.960458-22.1875-74.9318239-22.1875-87.7558525 0-23.510719-11.95-50.1587003-11.95-50.1587003s20.5875 16.2987653 25.9125 44.3716387c6.2875 33.2474814 19.6875 59.4329981 37.4125 81.5938191 33.55 41.784335 63.85 63.220211 79.1625 47.78388 18.325-18.548595-18.5875-101.5173096-65.7375-147.8263016-55.0375-54.0459059-69.425-47.08393326-101.7125-35.55980624-25.7625 9.18680404-39.6875 82.33126324-106.8375 80.88137304-11.375-1.3248996-40.675-2.0373456-55.1625-1.9123551 7.55-10.5367018 14.025-18.6735855 14.025-18.6735855s-22.525 9.0618136-41.725 20.5484435l-1.475-2.2123325c6.475-13.648966 13.4375-22.2733127 13.4375-22.2733127s-18 10.811681-34.425 23.7607001c2.9875-16.2737673 14.3-26.5854861 14.3-26.5854861s-22.7375 4.0996894-51.7 35.959776c-32.9125 8.9993181-40.825 14.9113701-67.05 26.5229911-42.65-9.299296-62.7625-24.3106587-81.9375-51.9460653-14.6-21.1109008-40.5875-24.3106584-67.1375-13.398985-38.7125 15.9987881-87.675 37.9096283-87.675 37.9096283s15.9625-.6499508 32.6.0624952c-22.775 8.6243468-44.65 20.4859478-44.65 20.4859478s10.6625-.374971 23.825-.149988c-9.0875 7.549428-14.1125 11.149155-22.775 16.886221-20.825 15.123854-37.7125 32.59753-37.7125 32.59753s14.1375-6.437012 26.8375-10.049239c-8.875 20.33596-26.475 35.309826-23.2375 60.20794 3.1125 22.735777 31.025 69.56973 67.05 98.317552 3.1125 2.49981 52.325 48.033861 89.45 29.335278 37.1-18.673586 51.7375-35.309826 57.8375-60.820393 7.175-29.297781 3.0875-51.458602-12.2375-115.053785-5.05-20.98591-18.2125-64.207636-24.5625-84.8810696l1.4125-1.0124233c12.1375 25.6105599 43.2 93.1179459 55.7125 138.4645109 19.5375 70.707144 13.4375 106.579426 4.5 119.72843-26.9625 39.659496-96.05 44.896599-127.475 22.923264-4.8125 76.131733 12.2 109.654193 17.9625 126.540414-2.8625 19.41103 9.7125 55.458299 9.7125 55.458299s1.4125-16.386259 7.175-25.023104c1.5375 19.261041 11.25 42.146807 11.25 42.146807s-.5875-14.136429 3.825-26.348004c6.225 10.536702 10.7875 13.036512 16.675 20.948413 5.8875 20.585941 17.6875 35.622302 17.6875 35.622302s-1.9125-11.036664-.8625-22.523294c28.8125 27.672903 33.775 68.057344 36.6375 99.092493 8.075 85.318537-134.5375 153.163398-162.175 206.534355-20.95 31.610105-33.5 81.618817 1.975 111.104083 85.75 71.207111 52.8125 90.805621 95.7375 122.103251 58.8875 42.92175 132.5625 23.6982 157.6375-11.21165 34.9125-48.64632 25.95-94.53034 12.975-137.452089-10.1375-33.559957-37.6875-89.318233-71.7625-110.891599-34.825-22.060829-68.6875-26.185517-97.375-23.23574l2.65-3.049769c41.2625-8.199379 84.4-3.69972 115.6125 16.423756 35.4375 22.773275 67.85 61.832816 84.8 121.703281 19.225-2.737293 21.9375-3.974699 39.5375-6.47451l-39.625-308.426636zm22.9 386.595711-4.5625-42.771756 89.1125-135.914704 101.1625 29.547761 86.9875-145.276495 104.275 68.78229 79.225-166.137415 28.1625 302.56458zm485.4125-453.728125-318.4 57.708128c-7.8875 10.16173-27.3875 28.010378-36.7625 32.660026-40.2125 20.248466-67.3875 14.38641-90.875 8.286872-15.1-3.82471-23.85-5.974547-36.3875-11.61162l-77.7125 10.661692 47.175 393.557687 545.4375-98.317552z" fill="#fff"/></svg>
