<svg viewBox="0 0 2005 917" xmlns="http://www.w3.org/2000/svg"><g fill="none"><path d="m1609.02565 398c-6.71462 0-13.33768.244195-19.96074.457866-1.07292.057739-2.12705.305794-3.11314.732586-3.56097 1.211994-6.26991 4.139355-7.20295 7.78373l-28.38456 99.173887c-12.23891 42.642634-7.6913 82.019152 12.87988 110.925792 18.86198 26.739404 50.23759 42.428963 88.32781 44.260428l153.97852 9.340477c4.57815.244197 8.54588 2.441955 10.95704 6.074363 2.55879 3.930513 3.1346 8.830913 1.55657 13.247604-2.53226 7.234802-9.06112 12.320005-16.69498 13.003409l-159.99117 9.340477c-86.92385 4.029225-180.44022 74.968006-213.25033 161.474252l-11.53694 30.524434c-1.00737 2.56731-.71414 5.463002.78744 7.776185 1.5016 2.313192 4.02698 3.759571 6.78178 3.88451h551.02638c6.58488.026233 12.37839-4.344357 14.16175-10.683908 9.78662-35.182349 14.71566-71.538112 14.65199-108.056497 0-220.386413-176.68805-399.0154-394.73017-399.0154" fill="#fbad41"/><path d="m1368.21115 903.476279 10.19892-35.891019c12.27532-42.672135 7.72551-82.075894-12.82498-111.002528-18.93211-26.757902-50.29223-42.458314-88.43126-44.291048l-722.626311-9.346938c-4.559401-.08303-8.804127-2.342319-11.420336-6.078564-2.570251-3.928242-3.157647-8.832325-1.587854-13.256769 2.555995-7.287116 9.16096-12.386078 16.855682-13.012405l729.374689-9.346937c86.59912-4.001467 180.16037-75.019872 212.9862-161.585962l41.58957-109.96398c1.67453-4.661963 2.11544-9.691182 1.22142-14.570227-47.39133-214.490854-236.95669-375.129902-463.59233-375.129902-208.924962 0-386.184448 136.294245-449.79022 325.768292-42.823196-32.576055-96.455346-47.586125-149.960608-41.969586-100.156953 10.080032-180.771086 91.697742-190.725709 192.986787-2.577434 25.297668-.717338 50.851272 5.496418 75.508599-163.671118 4.887288-294.974441 140.44844-294.974441 307.043869 0 15.058959 1.06874797 29.904097 3.23677958 44.382682.89277272 7.026444 6.87413142 12.289648 13.95479502 12.279357h1334.5303254c7.71882-.127139 14.43167-5.325059 16.48925-12.768084" fill="#f6821f"/></g></svg>
