<svg viewBox="0 0 2004 906" xmlns="http://www.w3.org/2000/svg"><path d="m1378.4848 857.409431c12.31625-42.304931 7.5818-81.028802-12.96755-109.802499-18.7541-26.411366-50.47575-41.653829-88.63525-43.448533l-723.0432-9.374198c-4.488525.067347-8.695058-2.181975-11.13055-5.95174-2.36305-3.505933-2.93085-8.230596-1.7535-12.963606 2.3213-7.011867 9.37705-12.387632 17.0006-13.038734l729.44765-9.374199c86.43085-4.081908 180.36835-74.025281 213.23395-159.737008l41.6665-108.625507c1.79525-4.682926 2.44655-9.415936 1.22745-14.023734-46.96875-212.551393-236.7225-371.069673-463.41665-371.069673-209.07565 0-386.4714 135.036873-449.8646 322.328849-41.14045-30.535011-93.41145-46.954466-149.799-41.653829-100.4171 9.933479-180.90275 90.403-190.88935 190.789563-2.36305 25.877129-.57615 51.15324 5.30225 74.626299-163.9105 4.657883-294.86355 138.584544-294.86355 303.580453 0 14.591361 1.1857 29.341324 2.9392 44.01616 1.17735 6.928393 7.0474 12.312505 14.10315 12.312505h1334.4469c7.59015 0 14.6793-5.384112 16.9672-12.963607l10.02-35.626962zm230.1928-464.402631c-6.43785 0-13.45185 0-19.89805.934915-4.7261 0-8.8009 3.464196-10.6045 8.147122l-28.2063 98.032579c-12.31625 42.304931-7.6653 81.028801 12.88405 109.885973 18.8376 26.411366 50.55925 41.570355 88.71875 43.365059l153.94895 9.457673c4.65095 0 8.80925 2.195382 11.09715 5.868265 2.36305 3.589408 2.93085 8.965173 1.7869 13.038733-2.36305 7.011868-9.4522 12.39598-17.034 12.963607l-160.4035 9.374198c-86.9235 4.073561-180.2097 74.016935-213.15045 159.770399l-11.7401 29.925647c-2.36305 5.95174 1.79525 11.820004 8.2331 11.820004h550.90795c6.43785 0 12.3079-4.081908 14.1115-10.5178 9.3687-34.074335 14.67095-69.868247 14.67095-106.87254 0-217.242666-177.4375-394.58447-395.3224-394.58447"/></svg>
