<svg height="181" preserveAspectRatio="xMidYMid" viewBox="0 0 512 181" width="512" xmlns="http://www.w3.org/2000/svg"><path d="m90.491902 90.491902v-41.6390589h-31.8684902l-16.984353-17.0756666v-31.7771765h-41.6390588v41.6390588h31.8684902l17.0756667 17.0756667v22.0066078l-17.0756667 17.0756667h-31.8684902v41.639059h41.6390588v-31.777177l17.0756667-17.0756663h31.7771765zm-76.6122157-76.6122157h13.8796862v13.8796862h-13.8796862zm13.8796862 111.5853727h-13.8796862v-13.879686h13.8796862z" fill="#ffae1a"/><path d="m136.605333 180.983804h-18.354058v-90.491902h18.354058v5.4788235c2.92204-3.5612353 9.496628-6.9398431 16.527785-6.9398431 19.267196 0 30.133529 15.9799016 30.133529 34.6079016s-10.957647 34.425275-30.133529 34.425275c-7.122471 0-13.605745-3.378608-16.527785-6.939843zm0-46.57c2.357309 4.698276 7.162178 7.665989 12.418667 7.670353 9.953196 0 15.797275-7.944294 15.797275-18.445373 0-10.683706-5.935393-18.628-15.797275-18.628-5.24808.033778-10.038822 2.992765-12.418667 7.670353zm113.22902 22.189235h-18.354059v-6.026706c-4.584272 4.893886-11.009522 7.642833-17.714863 7.57904-14.792823 0-23.193686-9.770569-23.193686-24.380765v-43.1913923h18.354059v39.4475293c0 6.939843 3.378608 11.688157 10.683706 11.688157 5.661451 0 10.501078-3.378608 11.870784-9.131373v-42.0043133h18.445373v66.0198233zm30.498784 24.380765h-18.354059v-90.491902h18.354059v5.4788235c2.922039-3.5612353 9.496628-6.9398431 16.527785-6.9398431 19.267196 0 30.133529 15.9799016 30.133529 34.6079016s-10.957647 34.425275-30.133529 34.425275c-7.122471 0-13.605746-3.378608-16.527785-6.939843zm0-46.57c2.357309 4.698276 7.162178 7.665989 12.418667 7.670353 9.953196 0 15.797274-7.944294 15.797274-18.445373 0-10.683706-5.935392-18.628-15.797274-18.628-5.24808.033778-10.038822 2.992765-12.418667 7.670353zm73.050981 46.57h-18.354059v-90.491902h18.354059v5.4788235c2.922039-3.5612353 9.496627-6.9398431 16.527784-6.9398431 19.267196 0 30.133529 15.9799016 30.133529 34.6079016s-10.957647 34.425275-30.133529 34.425275c-7.122471 0-13.605745-3.378608-16.527784-6.939843zm0-46.57c2.357308 4.698276 7.162177 7.665989 12.418666 7.670353 9.953196 0 15.797275-7.944294 15.797275-18.445373 0-10.683706-5.935392-18.628-15.797275-18.628-5.24808.033778-10.038822 2.992765-12.418666 7.670353zm112.498509.547882c-2.374156 14.062314-12.692607 23.102373-29.311705 23.102373-19.267197 0-32.051118-14.062314-32.051118-34.425275 0-19.997706 13.331804-34.6079016 31.777176-34.6079016 19.35851 0 30.042216 13.4231176 30.042216 32.8729416v5.661451h-44.104529c.547882 9.953196 6.209333 15.797274 14.336255 15.797274 6.209333 0 10.775019-2.648098 12.236039-8.309549h17.075666zm-43.191392-18.628h25.567843c-.182627-6.939843-4.291745-12.418666-11.870784-12.418666-7.031157 0-12.053412 4.291745-13.697059 12.418666zm55.610059-11.048961h-10.04451v-14.792823h10.04451v-17.8974902h18.171431v17.8974902h14.518883v14.792823h-14.518883v28.946451c0 5.204883 2.830726 7.57904 7.57904 7.57904 2.794995-.017363 5.535711-.773422 7.944294-2.19153v16.253843c-2.556784 1.369706-6.939843 2.100216-11.870784 2.100216-13.423118 0-21.915295-6.665902-21.915295-21.276098v-31.411922z"/></svg>