<svg viewBox="0 0 56.279026 56.279026" xmlns="http://www.w3.org/2000/svg"><g transform="translate(-97.34889 -83.50908)"><circle cx="125.4884" cy="111.64859" fill="#e21d38" r="28.139513"/><g fill="#fff"><path d="m110.56711 92.67488c.60209-.35232 2.31391-1.726 4.41715-2.18202 4.34924-.94297 11.03135.0753 12.81534 3.38629.0828.1537.0857.31317-.0289.44252-.48303.54522-1.3963 1.47835-2.00685 1.86514-.11996.076-.25872.0286-.27973.0294-2.31327-1.31574-3.51824-2.35332-6.54383-2.95675-.65758-.19359-2.38931.26706-3.17809 1.79225-1.0317 1.99489-.91766 5.79211-.79073 8.45107.0629 1.31702 9.05713.16553 8.97169.67856l-.14765.88653c-.0394.23635-.26878.29618-.48666.5666-.41269.51218-.9569 1.26116-1.30457 1.75227-2.09249.24807-4.47628.2048-6.87512.14649-.28854 6.74164.34009 13.87635.61114 20.85782l5.34897 1.39206c.10905.36316-.0717.77643-.37825 1.1563l-5.71723-.14516c-3.24997.0305-6.48605-.0143-9.79709-.16704-.32365-.39604-1.19066-1.42278-1.15587-1.44175 0 0 .85075-1.42409.85155-1.7007.0143-4.89165-.0886-9.55695-.28951-14.16957-.0892-2.04659-.038-4.27179-.40133-6.12382-.0441-.22466-3.69169.17184-3.47843-.11984.13137-.17968.1022-1.91775.43781-2.02576.91769-.29536 3.64507.0234 3.66613-.1931.21064-2.16455.57363-4.06409 1.12452-5.877596.69987-2.805136 2.58346-5.351912 4.61557-6.300134z"/><path d="m131.61458 92.3408 15.49688 2.29877c.24393.13535.48716.37783.59684.88069l.19171 4.24515-14.99621-1.13888-1.00958 3.73141c4.652.94846 10.02145 2.24571 13.79922 4.59295 2.01232 1.89763 3.39571 3.19604 4.36274 6.77147 1.61653 14.47596-7.22434 15.80038-10.02261 17.03843-4.56008 1.54654-10.08411 2.42129-13.99823-.13363-2.35157-1.86715-2.84131-4.3451-3.42307-5.96098-.0264-.0732.0125-.21232.0322-.2188 1.09513-1.47736 2.59278-2.92683 3.61362-3.65256.0504-.0358.11227-.003.1864.0508 1.92029 3.64569 4.03909 6.91855 6.8846 8.03534 2.79751 1.09794 6.9874.14554 8.9371-2.24705 1.08211-1.32791.919-6.01141.28907-7.14559-1.38086-4.66228-12.53887-6.08792-17.7776-5.55911z"/></g></g></svg>
