<svg clip-rule="evenodd" fill-rule="evenodd" stroke-linejoin="round" stroke-miterlimit="2" viewBox="0 0 1934 725" xmlns="http://www.w3.org/2000/svg"><g transform="scale(4.16667)"><g fill-rule="nonzero"><path d="m128.966 60-26.966-9v-39l27 8z" fill="#f8981c"/><path d="m136 20 27-8-.094 38.974-26.906 9.026z" fill="#f8981c"/><path d="m157.5 7.778-25.164-7.778-24.836 7.778 24.872 6.667z" fill="#f8981c"/><path d="m196.967 60-26.967-9v-39l27 8z" fill="#f8981c"/><path d="m204 20 27-8-.094 38.974-26.906 9.026z" fill="#f8981c"/><path d="m225.5 7.778-25.164-7.778-24.836 7.778 24.872 6.667z" fill="#f8981c"/><path d="m27 77-27-8v39l26.967 9z" fill="#f8981c"/><path d="m34 77 27-8-.094 38.974-26.906 9.026z" fill="#f8981c"/><path d="m55.5 64.778-25.165-7.778-24.835 7.778 24.872 6.667z" fill="#f8981c"/><path d="m94.967 117-26.967-9v-39l27 8z" fill="#f8981c"/><path d="m102 77 27-8-.094 38.974-26.906 9.026z" fill="#f8981c"/><path d="m123.5 64.778-25.165-7.778-24.835 7.778 24.872 6.667z" fill="#f8981c"/><path d="m60.967 174-26.967-9v-39l27 8z" fill="#f8981c"/><path d="m68 134 27-8-.094 38.974-26.906 9.026z" fill="#f8981c"/><path d="m89.5 121.777-25.165-7.777-24.835 7.777 24.872 6.667z" fill="#f8981c"/><path d="m180.39 139.525-1.984.007c-.728 0-1.656.492-1.884 1.289l-6.019 21.205-5.953-21.159c-.179-.663-.804-1.335-1.654-1.335h-2.349c-.846 0-1.463.681-1.634 1.349l-5.538 20.939-5.722-21.004c-.226-.768-1.177-1.284-1.923-1.284l-2.855-.005c-.61 0-1.177.262-1.481.684-.206.286-.263.61-.168.892l8.84 31.296c.195.658.765 1.321 1.599 1.321h2.839c.767 0 1.439-.559 1.633-1.352l5.441-20.847 5.921 20.871c.178.639.751 1.328 1.589 1.328h2.793c.777 0 1.431-.54 1.623-1.331l8.509-31.273c.1-.301.042-.636-.161-.918-.299-.415-.859-.673-1.462-.673z" fill="#030404"/><path d="m204.938 152.812h-14.998c.345-4.209 3.078-8.573 7.708-8.741 4.927.161 7.181 4.425 7.29 8.741zm-7.301-13.511c-10.131 0-14.745 8.957-14.745 17.278 0 10.385 5.736 17.095 14.613 17.095 6.353 0 11.196-3.21 13.288-8.818.112-.321.077-.669-.098-.981-.213-.379-.617-.665-1.095-.77l-2.812-.538c-.755-.118-1.62.329-1.906.978-1.366 3.116-3.856 4.884-6.981 4.976-3.007-.093-5.768-1.879-7.033-4.548-1.028-2.18-1.18-4.329-1.197-6.514l20.361-.007c.427 0 .869-.188 1.181-.504.261-.262.403-.588.4-.914-.05-8.09-3.747-16.733-13.976-16.733z" fill="#030404"/><path d="m236.662 156.629c0 1.916-.347 11.483-7.144 11.728-2.278-.087-4.58-1.426-5.866-3.406-.947-1.497-1.5-3.567-1.642-6.128v-5.629c.111-4.312 3.146-9.044 7.486-9.227 6.82.269 7.166 10.594 7.166 12.662zm-6.078-17.618h-.539c-3.363 0-6.006 1.397-8.035 4.26l-.003-13.193c0-.74-.765-1.416-1.61-1.416h-2.928c-.765 0-1.621.607-1.623 1.416v41.184c.003.748.768 1.428 1.612 1.428l.86-.005c.812 0 1.39-.654 1.585-1.262l.916-2.907c2.128 3.022 5.333 4.797 8.763 4.797h.525c9.035 0 13.079-8.788 13.079-17.497 0-4.335-1.069-8.48-2.932-11.372-2.153-3.351-5.859-5.433-9.67-5.433z" fill="#030404"/><path d="m275.247 155.702c-1.904-1.368-4.193-1.825-6.486-2.283l-4.397-.815c-3.155-.519-4.981-1.365-4.981-4.149 0-2.943 3.05-4.068 5.636-4.138 3.158.08 5.533 1.489 6.686 3.967.274.584.881.977 1.512.977.108 0 .218-.012.322-.035l2.744-.606c.448-.099.866-.406 1.09-.805.179-.317.218-.663.111-.972-1.679-4.891-5.942-7.476-12.391-7.476-5.828.013-12.054 2.604-12.054 9.841 0 4.946 3.108 8.087 9.244 9.337l4.922.938c2.702.517 5.465 1.437 5.465 4.338 0 4.295-4.998 4.733-6.509 4.764-3.39-.073-7.228-1.585-8.16-4.787-.187-.704-1.073-1.202-1.85-1.04l-2.87.592c-.432.091-.827.372-1.057.751-.193.316-.248.67-.159.993 1.481 5.313 6.609 8.517 13.72 8.571l.158.001c6.35 0 13.135-2.719 13.135-10.347 0-3.105-1.397-5.881-3.831-7.617z" fill="#030404"/><path d="m304.275 152.843h-15.002c.343-4.213 3.076-8.579 7.706-8.739 4.925.156 7.182 4.42 7.296 8.739zm-7.304-13.513c-10.133 0-14.748 8.957-14.748 17.278 0 10.384 5.737 17.093 14.615 17.093 6.354 0 11.197-3.21 13.291-8.817.111-.321.076-.67-.1-.983-.213-.379-.618-.665-1.095-.768l-2.816-.538c-.659-.107-1.578.234-1.902.979-1.367 3.114-3.858 4.882-6.98 4.978-3.01-.096-5.77-1.882-7.03-4.55-1.03-2.175-1.183-4.326-1.198-6.516l20.359-.005c.424 0 .863-.187 1.175-.501.262-.263.404-.589.401-.917-.047-8.089-3.741-16.733-13.972-16.733z" fill="#030404"/><path d="m330.169 139.711c-.397-.044-.779-.065-1.15-.065-3.417 0-6.192 1.858-8.118 5.407l.007-3.108c-.003-.753-.754-1.414-1.607-1.414h-2.543c-.834 0-1.57.664-1.576 1.426l-.004 30.193c0 .758.736 1.423 1.576 1.423l2.967-.001c.772 0 1.641-.606 1.648-1.422l.002-15.222c0-2.51.234-4.401 1.433-6.638 1.713-3.187 4.105-4.75 7.313-4.775.804-.006 1.51-.708 1.51-1.503v-2.824c0-.739-.641-1.388-1.458-1.477z" fill="#030404"/><path d="m361.32 139.118-2.343.001c-.734 0-1.675.527-1.903 1.3l-7.595 23.871-7.756-23.847c-.229-.792-1.172-1.324-1.91-1.324l-3.346-.003c-.614 0-1.208.274-1.512.697-.204.283-.26.604-.159.904l10.615 31.489c.204.623.745 1.351 1.601 1.351h4.049c.743 0 1.352-.506 1.631-1.354l10.296-31.476c.103-.299.048-.621-.155-.905-.306-.427-.899-.704-1.513-.704z" fill="#030404"/><path d="m369.018 127.014c-2.158 0-3.913 1.76-3.913 3.925s1.755 3.924 3.913 3.924c2.159 0 3.916-1.759 3.916-3.924s-1.757-3.925-3.916-3.925z" fill="#030404"/><path d="m370.629 138.926-3.213-.003c-.874 0-1.67.707-1.67 1.482l-.016 32.059c0 .388.2.773.546 1.059.317.26.722.41 1.129.41l3.236.005h.002c.887-.008 1.666-.696 1.666-1.472v-32.061c0-.788-.786-1.479-1.68-1.479z" fill="#030404"/><path d="m400.656 160.666-2.683.01c-.749 0-1.377.45-1.656 1.232-.98 4.228-3.2 6.419-6.566 6.516-6.556-.195-7.065-9.333-7.065-12.129 0-5.576 1.931-11.593 7.322-11.752 3.254.1 5.621 2.433 6.331 6.235.134.776.73 1.363 1.544 1.465l2.871.028c.858-.093 1.531-.742 1.525-1.547-1.016-6.871-5.777-11.312-12.14-11.312l-.22.006-.249-.006c-9.254 0-13.397 8.637-13.397 17.196 0 7.847 3.493 17.01 13.345 17.01h.472c6.204 0 10.887-4.349 12.228-11.4.03-.336-.086-.672-.324-.945-.308-.354-.799-.581-1.338-.607z" fill="#030404"/><path d="m427.154 152.843h-15.004c.343-4.214 3.077-8.579 7.71-8.739 4.926.156 7.182 4.42 7.294 8.739zm-7.304-13.513c-10.132 0-14.746 8.957-14.746 17.278 0 10.384 5.737 17.093 14.615 17.093 6.351 0 11.192-3.208 13.288-8.816.109-.323.073-.673-.102-.984-.216-.382-.609-.661-1.094-.768l-2.812-.538c-.662-.107-1.578.234-1.902.979-1.371 3.114-3.863 4.882-6.984 4.979-3.009-.097-5.768-1.883-7.028-4.551-1.031-2.178-1.184-4.329-1.2-6.516l20.361-.003c.428 0 .87-.189 1.183-.506.26-.265.4-.591.395-.914-.047-8.089-3.742-16.733-13.974-16.733z" fill="#030404"/><path d="m459.331 155.702c-1.907-1.369-4.199-1.826-6.488-2.283l-4.397-.815c-3.152-.519-4.977-1.365-4.977-4.149 0-3.796 4.711-4.113 5.63-4.138 3.161.08 5.536 1.489 6.687 3.968.276.584.885.976 1.517.976.109 0 .218-.012.324-.035l2.742-.606c.448-.099.865-.407 1.089-.806.178-.317.217-.662.11-.971-1.677-4.891-5.941-7.476-12.393-7.476-5.825.013-12.05 2.604-12.05 9.841 0 4.947 3.107 8.088 9.242 9.337l4.924.938c2.702.517 5.465 1.437 5.465 4.338 0 4.295-4.998 4.733-6.509 4.764-3.143-.067-7.166-1.365-8.159-4.783-.182-.708-1.067-1.205-1.858-1.044l-2.865.592c-.434.092-.83.375-1.06.755-.191.317-.246.668-.156.989 1.477 5.313 6.605 8.517 13.716 8.571l.158.001c6.351 0 13.137-2.719 13.137-10.347 0-3.107-1.396-5.884-3.829-7.617z" fill="#030404"/></g><path d="m328.715 77.203v-7.281c.004-1.103.842-1.844 1.848-1.843l32.615-.001c1.041 0 1.881.758 1.881 1.837v6.243c-.01 1.045-.893 2.411-2.457 4.581l-16.893 24.12c6.268-.149 12.904.79 18.6 3.992 1.287.722 1.629 1.793 1.734 2.839v7.768c0 1.071-1.172 2.309-2.402 1.664-10.039-5.26-23.362-5.834-34.465.061-1.133.605-2.321-.614-2.321-1.685v-7.381c0-1.178.024-3.201 1.213-5.003l19.575-28.077-17.041-.004c-1.043 0-1.877-.743-1.887-1.83z" fill="#030404"/><path d="m209.745 122.654h-9.925c-.943-.062-1.698-.773-1.773-1.68l.007-50.928c0-1.018.858-1.833 1.914-1.833l9.241-.005c.968.054 1.742.785 1.808 1.71v6.655h.184c2.406-6.434 6.945-9.43 13.057-9.43 6.205 0 10.096 2.996 12.875 9.43 2.41-6.434 7.873-9.43 13.713-9.43 4.168 0 8.701 1.713 11.48 5.568 3.149 4.289 2.5 10.501 2.5 15.969l-.006 32.139c0 1.016-.857 1.835-1.912 1.835h-9.91c-.998-.062-1.783-.858-1.783-1.83v-27c0-2.143.183-7.503-.279-9.537-.743-3.433-2.967-4.392-5.834-4.392-2.411 0-4.913 1.607-5.932 4.174-1.018 2.576-.924 6.862-.924 9.755v26.995c0 1.016-.857 1.835-1.914 1.835h-9.912c-.993-.062-1.78-.858-1.78-1.83l-.013-27c0-5.681.929-14.036-6.109-14.036-7.132 0-6.854 8.142-6.854 14.036l-.006 26.995c.004 1.016-.854 1.835-1.913 1.835z" fill="#030404"/><path d="m393.229 77.535c-7.321 0-7.782 9.965-7.782 16.183 0 6.215-.092 19.502 7.692 19.502 7.689 0 8.058-10.717 8.058-17.253 0-4.286-.183-9.428-1.48-13.501-1.115-3.538-3.336-4.931-6.488-4.931zm-.09-10.392c14.726 0 22.693 12.645 22.693 28.714 0 15.542-8.803 27.867-22.693 27.867-14.451 0-22.326-12.648-22.326-28.4 0-15.861 7.964-28.181 22.326-28.181z" fill="#030404"/><path d="m434.932 122.654h-9.887c-.996-.062-1.781-.858-1.781-1.83l-.014-50.951c.082-.927.906-1.66 1.902-1.66l9.207-.005c.868.048 1.58.638 1.762 1.427v7.793h.188c2.775-6.967 6.668-10.285 13.519-10.285 4.447 0 8.803 1.604 11.58 5.998 2.592 4.071 2.592 10.928 2.592 15.858v32.049c-.111.903-.916 1.606-1.896 1.606h-9.952c-.918-.06-1.656-.738-1.767-1.606v-27.653c0-5.572.65-13.719-6.207-13.719-2.407 0-4.627 1.612-5.74 4.073-1.391 3.107-1.575 6.214-1.575 9.646v27.424c-.017 1.016-.875 1.835-1.931 1.835z" fill="#030404"/><path d="m312.719 122.525c-.658.587-1.6.626-2.342.231-3.295-2.739-3.887-4.009-5.688-6.614-5.447 5.548-9.304 7.212-16.357 7.212-8.357 0-14.853-5.156-14.853-15.466 0-8.053 4.361-13.53 10.58-16.217 5.384-2.363 12.904-2.794 18.658-3.44v-1.287c0-2.362.185-5.155-1.209-7.195-1.203-1.826-3.524-2.576-5.569-2.576-3.785 0-7.148 1.941-7.976 5.96-.168.893-.824 1.78-1.723 1.823l-9.615-1.042c-.814-.183-1.715-.832-1.48-2.072 2.21-11.67 12.746-15.195 22.189-15.195 4.824 0 11.139 1.287 14.945 4.938 4.825 4.513 4.36 10.527 4.36 17.079v15.458c0 4.65 1.933 6.691 3.75 9.197.629.904.771 1.975-.037 2.638-2.026 1.698-5.627 4.823-7.606 6.59zm-10.002-24.195c0 3.866.092 7.091-1.858 10.525-1.578 2.795-4.086 4.512-6.871 4.512-3.802 0-6.029-2.899-6.029-7.197 0-8.449 7.582-9.987 14.758-9.987z" fill="#030404"/><path d="m182.645 122.525c-.656.587-1.605.626-2.347.231-3.295-2.739-3.885-4.009-5.688-6.614-5.444 5.548-9.303 7.212-16.36 7.212-8.354 0-14.852-5.156-14.852-15.466 0-8.053 4.365-13.53 10.584-16.217 5.385-2.363 12.904-2.794 18.658-3.44v-1.287c0-2.362.187-5.155-1.207-7.195-1.206-1.826-3.529-2.576-5.568-2.576-3.785 0-7.152 1.941-7.977 5.96-.172.893-.825 1.78-1.723 1.823l-9.619-1.042c-.812-.183-1.714-.832-1.481-2.072 2.21-11.67 12.747-15.195 22.189-15.195 4.83 0 11.14 1.287 14.947 4.938 4.827 4.513 4.361 10.527 4.361 17.079v15.458c0 4.65 1.934 6.691 3.746 9.197.632.904.775 1.975-.031 2.638-2.028 1.698-5.631 4.823-7.609 6.59zm-10.005-24.195c0 3.866.091 7.091-1.855 10.525-1.577 2.795-4.087 4.512-6.868 4.512-3.81 0-6.036-2.899-6.036-7.197 0-8.449 7.58-9.987 14.759-9.987z" fill="#030404"/></g></svg>
