<svg id="Layer_1" data-name="Layer 1" xmlns="http://www.w3.org/2000/svg" viewBox="0 0 42 36.12"><metadata><?xpacket begin="﻿" id="W5M0MpCehiHzreSzNTczkc9d"?>
<x:xmpmeta xmlns:x="adobe:ns:meta/" x:xmptk="Adobe XMP Core 6.0-c006 79.164648, 2021/01/12-15:52:29        ">
   <rdf:RDF xmlns:rdf="http://www.w3.org/1999/02/22-rdf-syntax-ns#">
      <rdf:Description rdf:about=""
            xmlns:xmp="http://ns.adobe.com/xap/1.0/"
            xmlns:xmpMM="http://ns.adobe.com/xap/1.0/mm/"
            xmlns:stEvt="http://ns.adobe.com/xap/1.0/sType/ResourceEvent#"
            xmlns:dc="http://purl.org/dc/elements/1.1/">
         <xmp:MetadataDate>2022-11-28T13:35:47-06:00</xmp:MetadataDate>
         <xmpMM:InstanceID>xmp.iid:2dc1cd82-a8a3-40b9-8276-2c7325a6d0e7</xmpMM:InstanceID>
         <xmpMM:DocumentID>xmp.did:94ec60e4-2dd0-469f-bae1-2e72e46142b1</xmpMM:DocumentID>
         <xmpMM:OriginalDocumentID>xmp.did:94ec60e4-2dd0-469f-bae1-2e72e46142b1</xmpMM:OriginalDocumentID>
         <xmpMM:History>
            <rdf:Seq>
               <rdf:li>
                  <rdf:Description>
                     <stEvt:action>saved</stEvt:action>
                     <stEvt:instanceID>xmp.iid:94ec60e4-2dd0-469f-bae1-2e72e46142b1</stEvt:instanceID>
                     <stEvt:when>2022-11-11T13:07-06:00</stEvt:when>
                     <stEvt:softwareAgent>Adobe Bridge 2021 (Macintosh)</stEvt:softwareAgent>
                     <stEvt:changed>/metadata</stEvt:changed>
                  </rdf:Description>
               </rdf:li>
               <rdf:li>
                  <rdf:Description>
                     <stEvt:action>saved</stEvt:action>
                     <stEvt:instanceID>xmp.iid:2dc1cd82-a8a3-40b9-8276-2c7325a6d0e7</stEvt:instanceID>
                     <stEvt:when>2022-11-28T13:35:47-06:00</stEvt:when>
                     <stEvt:softwareAgent>Adobe Bridge 2021 (Macintosh)</stEvt:softwareAgent>
                     <stEvt:changed>/metadata</stEvt:changed>
                  </rdf:Description>
               </rdf:li>
            </rdf:Seq>
         </xmpMM:History>
         <dc:subject>
            <rdf:Bag>
               <rdf:li>icon</rdf:li>
               <rdf:li>heart</rdf:li>
               <rdf:li>pulse</rdf:li>
               <rdf:li>healthy</rdf:li>
               <rdf:li>beat</rdf:li>
               <rdf:li>wellness</rdf:li>
               <rdf:li>fit</rdf:li>
               <rdf:li>health</rdf:li>
               <rdf:li>service</rdf:li>
            </rdf:Bag>
         </dc:subject>
      </rdf:Description>
   </rdf:RDF>
</x:xmpmeta>
                                                                                                    
                                                                                                    
                                                                                                    
                                                                                                    
                                                                                                    
                                                                                                    
                                                                                                    
                                                                                                    
                                                                                                    
                                                                                                    
                                                                                                    
                                                                                                    
                                                                                                    
                                                                                                    
                                                                                    
<?xpacket end="w"?></metadata>
<path d="M3.59,18.56a10.58,10.58,0,0,1,15-15l1.88,1.88L22.32,3.6a10.58,10.58,0,0,1,18.06,7.48A9.33,9.33,0,0,1,39,16.32l-.7.8.36.27a7.39,7.39,0,0,1,1.25,1.25l.22.28a1.74,1.74,0,0,1,.11.18l.13.2A7.66,7.66,0,0,1,41,20.5c0,.09.06.18.1.28a7.53,7.53,0,0,1,.41,2.44,7.33,7.33,0,0,1-.39,2.38l-.13.34a6.26,6.26,0,0,1-.56,1.13l-.18.29-.11.16-.21.28a7.9,7.9,0,0,1-1.26,1.26l-.28.21-.17.12-.27.17a8.66,8.66,0,0,1-1.14.57l-.34.12a7.46,7.46,0,0,1-4.76,0l-.34-.13a7.86,7.86,0,0,1-1.13-.55l-.29-.19-.17-.12-.27-.2a7.84,7.84,0,0,1-1.25-1.26l-.11-.14L28,27.8h0l-.29.32-7.29,7.29Z" fill="#fff"/><path d="M29.81,1A10.05,10.05,0,0,1,39.88,11.08a8.8,8.8,0,0,1-1.31,5l-1,1.19.13.07.28.18.14.09.26.2h0A6.82,6.82,0,0,1,39.52,19h0l.2.27a.71.71,0,0,1,.1.14l.18.28a6.41,6.41,0,0,1,.52,1.05l.12.32a7,7,0,0,1,0,4.43l-.12.32a6.83,6.83,0,0,1-.52,1l-.18.28-.1.14a2.56,2.56,0,0,1-.2.26h0a6.87,6.87,0,0,1-1.17,1.18h0l-.26.19L38,29l-.28.18a6.83,6.83,0,0,1-1.05.52l-.32.12a7,7,0,0,1-4.44,0l-.31-.12a6.94,6.94,0,0,1-1.06-.52L30.21,29l-.13-.1-.27-.19h0a7.26,7.26,0,0,1-1.17-1.18h0a2.56,2.56,0,0,1-.2-.26l-.1-.14-.13-.21-.85.87,0,0L20.44,34.7,4,18.21A10.08,10.08,0,0,1,18.21,4l2.23,2.24L22.68,4A10,10,0,0,1,29.81,1m0-1A11,11,0,0,0,22,3.25L20.44,4.77,18.91,3.25a11.07,11.07,0,0,0-15.67,0,11.09,11.09,0,0,0,0,15.67L19.73,35.41l.71.71.71-.71,6.93-6.93,0,0a9.32,9.32,0,0,0,1.07,1l.27.22h0l.21.14.23.15h0l0,0a6.81,6.81,0,0,0,1.21.6l.35.13a7.93,7.93,0,0,0,2.55.42,8.09,8.09,0,0,0,2.54-.41l.37-.14a7.08,7.08,0,0,0,1.2-.6l.31-.2a1.11,1.11,0,0,0,.18-.12h0l.28-.22a8.37,8.37,0,0,0,1.33-1.33l.21-.28h0l.14-.2.17-.27a8.79,8.79,0,0,0,.61-1.23c0-.11.09-.23.13-.35a7.92,7.92,0,0,0,0-5.09c0-.13-.09-.25-.13-.37a9,9,0,0,0-.6-1.2c-.07-.11-.13-.21-.2-.3l-.12-.19h0v0l-.21-.27A9,9,0,0,0,39,17.05l.29-.34.05-.06,0-.07a9.72,9.72,0,0,0,1.46-5.5A11.08,11.08,0,0,0,29.81,0Z" fill="#fff"/><path d="M34.08,17.89a5.34,5.34,0,1,0,5.34,5.33A5.34,5.34,0,0,0,34.08,17.89Zm-.95,8.31-2.37-2.38,1.11-1.12L33.13,24l3.16-3.15,1.12,1.11Z" fill="none"/><path d="M20.44,32.47,5.07,17.09a8.5,8.5,0,1,1,12-12l3.35,3.35L23.8,5.07A8.5,8.5,0,0,1,37,15.65a7.85,7.85,0,0,1,1.42.71A10.08,10.08,0,0,0,22.68,4L20.44,6.19,18.21,4A10.08,10.08,0,0,0,4,18.21L20.44,34.7l6.94-6.93a7.82,7.82,0,0,1-.79-1.45Z" fill="#2c5967"/><path d="M23.18,10.37l-2.95,10.7L18.1,13.54H16.44l-1.3,3.75H6.94l1.59,1.58h7.73l.94-2.7L19.42,24h1.64L24,13.45l1.39,5.42h1.88a8.72,8.72,0,0,1,1.32-1.58h-2l-1.77-6.92Z" fill="#2c5967"/><path d="M40.64,21l-.12-.32A6.41,6.41,0,0,0,40,19.64l-.18-.28a.71.71,0,0,0-.1-.14l-.2-.27h0a6.82,6.82,0,0,0-1.17-1.17h0l-.26-.2L38,17.49l-.28-.18a6.89,6.89,0,0,0-1.05-.53l-.32-.11a6.84,6.84,0,0,0-4.44,0l-.31.11a7,7,0,0,0-1.06.53l-.28.18-.13.09-.27.2h0A7.19,7.19,0,0,0,28.64,19h0l-.2.27-.1.14-.18.28a7.33,7.33,0,0,0-.52,1.05,3,3,0,0,0-.11.32,6.82,6.82,0,0,0,0,4.43c0,.11.07.21.11.32a7.88,7.88,0,0,0,.52,1l.18.28.1.14a2.56,2.56,0,0,0,.2.26h0a7.26,7.26,0,0,0,1.17,1.18h0l.27.19.13.1.28.18a6.94,6.94,0,0,0,1.06.52l.31.12a7,7,0,0,0,4.44,0l.32-.12a6.83,6.83,0,0,0,1.05-.52L38,29l.14-.1.26-.19h0a6.87,6.87,0,0,0,1.17-1.18h0a2.56,2.56,0,0,0,.2-.26l.1-.14.18-.28a6.83,6.83,0,0,0,.52-1l.12-.32a7,7,0,0,0,0-4.43Zm-6.56,7.55a5.34,5.34,0,1,1,5.34-5.34A5.35,5.35,0,0,1,34.08,28.56Z" fill="#2c5967"/><polygon points="33.13 23.96 31.87 22.7 30.76 23.82 33.13 26.2 37.41 21.93 36.29 20.81 33.13 23.96" fill="#2c5967"/></svg>