<svg height="481" viewBox="0 0 501 481" width="501" xmlns="http://www.w3.org/2000/svg" xmlns:xlink="http://www.w3.org/1999/xlink"><linearGradient id="a" x1=".231601%" x2="100.59896%" y1="49.990342%" y2="49.990342%"><stop offset="0" stop-color="#3656cc"/><stop offset=".35" stop-color="#304cb2"/><stop offset=".72" stop-color="#283b80"/></linearGradient><linearGradient id="b" x1="9.384179%" x2="90.783582%" y1="23.396846%" y2="67.307763%"><stop offset=".3" stop-color="#e61c23"/><stop offset=".8" stop-color="#c3161c"/></linearGradient><linearGradient id="c" x1="13.569155%" x2="109.718176%" y1="17.113807%" y2="67.381153%"><stop offset="0" stop-color="#fdbc11"/><stop offset=".25" stop-color="#fcb415"/><stop offset=".8" stop-color="#f89e1c"/></linearGradient><g fill="none" fill-rule="evenodd" transform="translate(.55 .15)"><path d="m357.045144 0c-42.407661 0-79.343366 15.0213371-106.703147 30.0426743-28.043775-15.0213372-62.243502-30.0426743-107.387141-30.0426743-87.5512992 0-142.954856 55.3058321-142.954856 153.627312 0 117.439544 113.543092 232.147937 249.658003 326.372688 136.798905-91.493599 249.658002-206.88478 249.658002-326.372688.683995-98.3214799-56.771545-153.627312-142.270861-153.627312z" fill="#ccc"/><path d="m12.995896 155.675676c0 119.487909 127.906977 232.147937 235.294118 307.254623 32.147742-21.16643 64.295485-47.112376 93.70725-72.375534-143.638851-119.487909-279.7537619-228.733997-326.9493844-266.970128 0 8.876245-2.0519836 19.118066-2.0519836 32.091039z" fill="url(#a)"/><path d="m476.060192 210.981508c-104.651163-85.348507-166.894665-130.412518-235.294118-170.697013-19.151847-10.9246088-55.403557-27.9943101-96.443229-27.9943101-38.303693 0-72.5034196 12.972973-96.443228 36.1877667-15.0478797 15.0213372-25.3077976 34.1394026-30.0957593 57.3541964 53.3515732 38.236131 201.0943913 142.702703 348.1532153 260.142247 50.615595-46.429587 90.971272-99.687055 110.123119-154.992887z" fill="url(#b)"/><path d="m448.70041 49.1607397c-23.255814-23.2147938-55.403556-36.1877667-93.70725-36.1877667-40.355677 0-70.451436 12.9729729-93.70725 25.2631579 39.671682 23.8975818 127.222982 72.3755331 219.562243 140.6543381 2.051984-8.193456 2.051984-19.118065 2.051984-27.99431 2.051983-42.332859-10.943913-78.5206256-34.199727-101.7354193z" fill="url(#c)"/></g></svg>