<svg preserveAspectRatio="xMidYMid" viewBox="0 0 512 156" xmlns="http://www.w3.org/2000/svg"><path d="m309.550689 3.89505394h34.30794v13.65823966c8.741835-11.21792017 22.230193-17.69777896 36.450832-17.51111866 15.712794-.2498903 30.327061 8.03484174 38.182464 21.64538766 12.25129-17.51111862 30.823032-21.64538766 43.766974-21.64538766 17.857445 0 33.615287 8.39841041 42.035343 23.11727406 2.792255 4.913503 7.705758 15.7578422 7.705758 37.1218398v91.0621462h-34.329585v-81.2567856c0-16.4504946-1.753276-23.117274-3.160226-26.2558552-2.164539-5.6061554-7.359432-12.9872326-19.610722-12.9872326-8.116378.147839-15.671834 4.1709784-20.325019 10.8226938-5.952481 8.3984104-6.645134 21.0176715-6.645134 33.6152871v76.0618925h-34.329585v-81.2567856c0-16.4504946-1.753276-23.117274-3.160226-26.2558552-2.164539-5.6061554-7.359432-12.9872326-19.610721-12.9872326-8.109604.1512049-15.657055 4.1743664-20.303374 10.8226938-5.952482 8.3984104-6.666779 21.0176715-6.666779 33.6152871v76.0618925h-34.30794zm-118.833178 0h34.329585v13.31191346c4.100506-4.8221165 8.945214-8.95802124 14.350892-12.25128946 6.416388-3.5507715 13.692123-5.25168993 21.017671-4.913503 9.467339-.21616709 18.807328 2.21252998 26.970153 7.0131056l-14.091147 31.16935826c-5.177699-3.4692297-11.278755-5.3018089-17.511119-5.2598292-7.359432 0-14.718863 1.0389786-21.363998 8.0520842-9.459034 10.1516868-9.459034 24.1562526-9.459034 33.9616133v76.3649279h-34.221358zm-155.7385645 74.24367976c0 25.5632023 16.1041684 46.9272003 40.9747188 46.9272003 21.6453877 0 41.6673717-15.757842 41.6673717-46.5808741 0-32.2299823-19.9570478-47.6198529-41.6673717-47.6198529-24.8705504 0-40.9747188 21.0176714-40.9747188 47.2735267m80.5424875-74.24367976h34.394521v147.44838106h-34.372876v-15.411516c-10.975523 12.920552-27.1627663 20.243731-44.1132997 19.957047-45.4553141 0-71.4297793-37.814492-71.4297793-78.4428847 0-47.9878245 32.9226346-77.40390636 71.7977509-77.40390636 17.1099953-.36537541 33.3711701 7.43966721 43.7886191 21.01767146z" fill="#008fbe"/></svg>