<svg viewBox="0 0 6000 7496" xmlns="http://www.w3.org/2000/svg"><g fill="none"><g fill="#212020"><path d="m310.425 2164-310.425 2000.919 1727.33 3264.081 470.67-1698.126z"/><path d="m1847 7496 491.138-1748.884 3619.862-1932.116-583.317 1798.122z"/><path d="m362 1976.3 1934.244 3650.7 3703.756-1976.3-1934.265-3650.7z"/></g><path d="m637 2015.494 1915.095 518.174-636.272-1200.122 173.573-92.546 843.604 1591.24-1903.434-500.78 601.719 1134.986-175.438 93.554z" fill="#e0412e"/><path d="m2846.18 4279.648 1019.778 297.939 58.042-190.521-1019.864-297.96 302.845-995.852-189.867-58.254-303.637 998.425-1006.435-294.037-58.042 190.521 1006.521 294.058-305.865 1005.779 189.867 58.254z" fill="#009e4d"/><path d="m4078.68079 2218.25731c74.38091-55.32912 142.25565-110.74383 201.11191-183.08248 154.47352-189.82211 211.78376-418.15637 202.18553-658.66475l-203.55978 17.77977c19.28235 290.01789-118.93645 552.67076-376.13466 691.40008-83.48527 39.38937-165.98281 72.76657-258.5295 83.67834-285.34872 33.69813-536.49167-125.12169-694.93762-351.33779l1441.53819-765.47177c-159.06865-338.992507-534.75239-543.106904-905.28272-510.072037-125.39969 11.168524-236.56309 51.092786-349.59459 103.982806-237.98027 142.195417-412.44475 350.503358-468.91755 627.106181-23.7057 116.17832-24.82227 236.82833-2.6626 353.34898 87.04972 457.7383 519.76455 784.9632 984.49496 743.54124 158.1668-14.09972 295.50523-71.67539 430.28843-152.20857zm21.57991-1239.214018-1228.18692 652.181868c-30.44808-191.70493-21.0431-371.55667 80.8012-541.80177 102.57437-171.507439 281.50514-302.662706 480.64157-336.78875 242.16742-41.486144 500.91165 45.166194 666.74415 226.408652z" fill="#ffe321"/><path d="m3363 2865.727 1534.749-821.727 92.894 175.908-679.329 363.705 721.686 1366.77-176.71 94.617-721.686-1366.77-678.731 363.405z" fill="#d91f7d"/></g></svg>
