<svg xmlns="http://www.w3.org/2000/svg" viewBox="0 0 105 105"><linearGradient id="a" x1="11.16" x2="58.94" y1="59.21" y2="56.78" gradientUnits="userSpaceOnUse"><stop offset=".09" stop-color="#fc801d"/><stop offset=".23" stop-color="#b07f61"/><stop offset=".41" stop-color="#577db3"/><stop offset=".53" stop-color="#1e7ce6"/><stop offset=".59" stop-color="#087cfa"/></linearGradient><linearGradient id="b" x1="89.05" x2="73.12" y1="54.12" y2="6.52" gradientUnits="userSpaceOnUse"><stop offset="0" stop-color="#fe2857"/><stop offset=".08" stop-color="#cb3979"/><stop offset=".16" stop-color="#9e4997"/><stop offset=".25" stop-color="#7557b2"/><stop offset=".34" stop-color="#5362c8"/><stop offset=".44" stop-color="#386cda"/><stop offset=".54" stop-color="#2373e8"/><stop offset=".66" stop-color="#1478f2"/><stop offset=".79" stop-color="#0b7bf8"/><stop offset="1" stop-color="#087cfa"/></linearGradient><linearGradient id="c" x1="18.72" x2="78.8" y1="26.61" y2="125.99" gradientUnits="userSpaceOnUse"><stop offset="0" stop-color="#fe2857"/><stop offset=".08" stop-color="#fe295f"/><stop offset=".21" stop-color="#ff2d76"/><stop offset=".3" stop-color="#ff318c"/><stop offset=".38" stop-color="#ea3896"/><stop offset=".55" stop-color="#b248ae"/><stop offset=".79" stop-color="#5a63d6"/><stop offset="1" stop-color="#087cfa"/></linearGradient><path fill="url(#a)" d="M19.27 72.21 5.15 61.06l8.31-15.39 12.49 4.18z"/><path fill="#087cfa" d="m100.07 30.09-1.73 55.6-36.98 14.81-20.14-13z"/><path fill="url(#b)" d="m100.07 30.09-18.3 17.85-23.5-28.83 11.6-13.04z"/><path fill="url(#c)" d="M41.22 87.5 11.81 98.13l6.16-21.57 7.98-26.71-21.88-7.32L17.97 4.5l31.42 3.71 32.38 39.73z"/><path d="M22.5 22.5h60v60h-60z"/><path fill="#fff" d="M29.98 71.16h22.5v3.75h-22.5zm11.23-37.04v-4.1H30.02v4.1h3.14v14.16h-3.14v4.1h11.19v-4.1h-3.13V34.12zM51.94 52.7a8.9 8.9 0 0 1-4.39-1 10.2 10.2 0 0 1-2.92-2.36l3.09-3.45a8.9 8.9 0 0 0 1.94 1.64 4 4 0 0 0 2.15.6 2.85 2.85 0 0 0 2.19-.87 4.16 4.16 0 0 0 .8-2.83V30h5v14.65a10.1 10.1 0 0 1-.55 3.49 6.49 6.49 0 0 1-4.07 4 9.9 9.9 0 0 1-3.31.52"/></svg>