<svg height="116" preserveAspectRatio="xMidYMid" viewBox="0 0 512 116" width="512" xmlns="http://www.w3.org/2000/svg"><path d="m159.889142 17.9305215c-1.908415-7.0526234-7.417622-12.56183072-14.470245-14.47024543-12.687679-3.46027607-63.7529657-3.46027607-63.7529657-3.46027607s-51.0652863.10485685-63.7529652 3.56513292c-7.0526234 1.90841471-12.56183073 7.41762198-14.47024544 14.47024538-3.83776074 22.5442229-5.32672801 56.8953272.10485685 78.5377812 1.90841471 7.0526235 7.41762199 12.5618305 14.47024539 14.4702455 12.6876789 3.460276 63.7529652 3.460276 63.7529652 3.460276s51.0652859 0 63.7529649-3.460276c7.052624-1.908415 12.561831-7.417622 14.470246-14.4702455 4.047474-22.5756799 5.295271-56.9058129-.104857-78.642638z" fill="#f00"/><path d="m65.4131194 81.7883436 42.3621676-24.5365031-42.3621676-24.5365031z" fill="#fff"/><path d="m491.23679 33.2396217c5.557413 0 9.751687 1.0485685 12.687679 3.0408486 2.935992 1.9922802 5.033129 5.1379857 6.291411 9.4371166s1.782567 10.1711145 1.782567 17.7208078v12.2682515h-26.948211v3.7748466l.419427 10.3808283c.314571 2.3068507.838855 3.9845603 1.67771 5.0331288s2.201994 1.5728528 3.98456 1.5728528c2.411708 0 4.089418-.9437117 4.928272-2.831135.943712-1.8874233 1.363139-5.0331288 1.467996-9.3322597l13.945961.8388548c.104857.6291411.104857 1.4679959.104857 2.5165644 0 6.6059816-1.782566 11.5342536-5.452556 14.7848158-3.66999 3.250563-8.703119 4.928272-15.3091 4.928272-7.969121 0-13.526534-2.516564-16.672239-7.4448363-3.145706-4.928272-4.823416-12.6876789-4.823416-23.0685071v-12.687679c.356514-17.8256646 3.491734-30.8803425 21.915082-30.9327709zm-193.880317 1.363139v52.5332822c0 3.1457056.314571 5.4525563 1.048569 6.8156953 1.488967 2.9150205 5.347699 2.1705369 7.444836.733998 1.210748-.8184105 2.186682-1.9389275 2.831135-3.2505624v-56.8324131h16.043098v71.6172293h-12.582822l-1.363139-8.8079757h-.31457c-3.460277 6.6059817-8.598262 9.9614007-15.413957 9.9614007-10.490404-.026738-13.056409-7.5839289-13.66745-15.2596823l-.039963-.5419183c-.079889-1.1741645-.117334-2.347023-.133692-3.4920598v-53.4769939zm82.732055 0v52.5332822c0 3.1457056.314571 5.4525563 1.048569 6.8156953 1.488967 2.9150205 5.347699 2.1705369 7.444836.733998 1.210748-.8184105 2.186682-1.9389275 2.831135-3.2505624v-56.8324131h16.043098v71.6172293h-12.582822l-1.363139-8.8079757h-.31457c-3.460276 6.6059817-8.598262 9.9614007-15.413957 9.9614007-10.490404-.026738-13.056408-7.5839289-13.66745-15.2596823l-.039963-.5419183c-.079888-1.1741645-.117334-2.347023-.133692-3.4920598v-53.4769939zm-129.288496-1.363139c5.242842 0 9.541973 1.0485685 12.687678 3.2505623 3.145706 2.2019939 5.557414 5.5574131 7.025409 10.1711146 1.467996 4.6137014 2.201994 10.8002556 2.201994 18.4548057v10.3808282c0 7.6545501-.733998 13.7362475-2.201994 18.3499489-1.467995 4.6137014-3.774846 7.9691206-7.025409 10.1711146-3.250562 2.097137-7.65455 3.250562-13.107106 3.250562-5.66227.104857-10.066258-1.048568-13.31682-3.145705-3.250562-2.201994-5.557413-5.5574133-6.920552-10.1711148-1.363139-4.6137014-1.99228-10.6953987-1.99228-18.3499488v-10.3808283c0-7.6545501.733998-13.9459611 2.30685-18.5596625 1.572853-4.7185583 3.984561-8.0739775 7.33998-10.1711146 3.355419-2.097137 7.65455-3.2505623 13.00225-3.2505623zm181.821779-28.73077712v37.74846622h.104856c1.467996-2.7262781 3.35542-4.9282719 5.976841-6.6059816 2.448269-1.646618 5.333211-2.5230561 8.283691-2.5165644 3.879704 0 6.815695 1.0485685 9.017689 3.0408487 2.201994 2.097137 3.774847 5.3476994 4.718559 9.856544.91422 4.3679432 1.434818 10.4087832 1.466463 18.0271895l.001533.7421867v11.3245399c0 10.5905419-1.36314 18.4548057-3.879704 23.4879346-2.621421 5.0331288-6.605982 7.5496928-12.058538 7.5496928-3.040848 0-5.767127-.733998-8.283691-2.097137-2.227454-1.298006-4.071568-3.158367-5.349669-5.3915157l-.207744-.3756107h-.314571l-1.677709 6.8156954h-13.31682v-101.60628842zm-64.172393 3.66998978v13.00224944h-15.938241v85.0389062h-15.728528v-85.0389062h-16.043098v-13.00224944zm-172.908947 0 .008897.0394807c.153624.68198302 2.274093 10.10708144 4.605202 21.08744854l.18444.8699712c.092407.4364703.18507.8750691.277882 1.3153545l.185788.8826886c.030987.1474458.061983.2950464.092983.4427852l.186021.887961c.031002.1482264.062.2965583.092991.4449793l.185821.8914651.270395 1.3028747c1.57383 7.6037601 3.07669 15.2299988 3.975838 20.6982836h.419427c.862013-4.9054132 2.11281-11.1825702 3.447071-17.5912192l.349761-1.6739888c.175626-.8376703.352221-1.6757429.529106-2.5114655l.275295-1.2977337c2.566855-12.0732511 5.120981-23.3521898 5.596137-25.44339832l.030698-.13505009c.031523-.13861289.047904-.21043683.047904-.21043683h16.043098l-18.559663 66.16467284v31.7716258h-15.833384v-31.666769h-.104857l-18.349949-66.26952964zm54.94499 36.17561354c-2.201994 0-3.66999 1.1534253-4.613701 3.5651329-.943712 2.4117075-1.36314 6.0816973-1.36314 11.219683v22.3345092c0 5.2428425.419428 9.122546 1.258283 11.4293967.838854 2.3068507 2.411707 3.4602761 4.718558 3.4602761 2.201994 0 3.774847-1.1534254 4.718558-3.4602761.943712-2.3068507 1.363139-6.1865542 1.363139-11.4293967v-22.3345092c0-5.1379857-.419427-8.9128323-1.363139-11.219683-.943711-2.4117076-2.516564-3.5651329-4.718558-3.5651329zm184.967485 2.097137c-1.277943 1.1796395-2.187249 2.6357571-2.727917 4.4547521l-.103218.368663v40.6844581c1.300225 2.2019938 3.145705 3.6699898 6.396268 3.7748466 1.677709 0 3.040848-.6291411 4.089417-1.8874233 1.048568-1.2582822 1.782566-3.3554192 2.201994-6.2914111.40265-2.8185521.612028-6.7001011.628134-11.6446468l.001007-.6236047v-9.3322597c0-5.6622699-.209714-9.9614008-.524285-13.0022495-.419427-3.0408487-.943711-5.2428425-1.887423-6.5011247-1.824509-2.6214213-5.767127-2.5899642-8.073977 0zm55.469274-2.4117076c-1.782567.1048569-3.040849.6291411-3.774847 1.5728528-.838855 1.0485685-1.363139 2.6214212-1.67771 4.9282719-.308279 2.2607137-.415149 10.1608805-.4193 10.4759829l-.000127 5.1476879h11.743967l-.00083-4.5398282-.000137.0874053c-.005854 1.5871209-.038759-.9213126-.111394-4.0003342l-.009921-.413608c-.066032-2.7064073-.162329-5.7237167-.297145-6.7573057-.314571-2.4117075-.838855-4.0894171-1.67771-5.0331288-.838855-.9437116-2.097137-1.4679959-3.774846-1.4679959z" fill="#282828"/></svg>