<svg height="180" preserveAspectRatio="xMidYMid" viewBox="0 0 256 180" width="256" xmlns="http://www.w3.org/2000/svg"><path d="m250.346231 28.0746923c-2.988098-11.0426365-11.614133-19.66867121-22.65677-22.65676922-19.865718-5.41792308-99.821128-5.41792308-99.821128-5.41792308s-79.9554101.16417949-99.8211281 5.58210256c-11.0426365 2.98809802-19.66867117 11.61413274-22.65676919 22.65676924-6.00896923 35.2985897-8.34031795 89.0837902.16417949 122.9704362 2.98809802 11.042636 11.6141327 19.668671 22.6567692 22.656769 19.865718 5.417923 99.8211286 5.417923 99.8211286 5.417923s79.95541 0 99.821128-5.417923c11.042636-2.988098 19.668671-11.614133 22.656769-22.656769 6.337328-35.347844 8.291064-89.100208-.164179-123.1346157z" fill="#f00"/><path d="m102.420513 128.06 66.328512-38.418-66.328512-38.418z" fill="#fff"/></svg>