<svg xmlns="http://www.w3.org/2000/svg" viewBox="0 0 105 105"><linearGradient id="a" x1="99.03" x2="61.54" y1="59.18" y2="90.91" gradientUnits="userSpaceOnUse"><stop offset="0" stop-color="#087cfa"/><stop offset=".02" stop-color="#0d7bfa"/><stop offset=".37" stop-color="#5566f9"/><stop offset=".66" stop-color="#8a57f8"/><stop offset=".88" stop-color="#ab4ef7"/><stop offset="1" stop-color="#b74af7"/></linearGradient><linearGradient id="b" x1="37.54" x2="60.33" y1="34.26" y2="8.33" href="#a"/><linearGradient id="c" x1="17.84" x2="87.09" y1="88.36" y2="43.86" gradientUnits="userSpaceOnUse"><stop offset="0" stop-color="#087cfa"/><stop offset=".1" stop-color="#1598d3"/><stop offset=".22" stop-color="#23b6aa"/><stop offset=".35" stop-color="#2dcc8b"/><stop offset=".46" stop-color="#35dd74"/><stop offset=".57" stop-color="#39e767"/><stop offset=".67" stop-color="#3bea62"/></linearGradient><path fill="url(#a)" d="M89.06 41.63 100.5 67l-19.58 33.5-12.06-29.28z"/><path fill="#b74af7" d="m68.86 71.22 12.06 29.28-30.34-10.43z"/><path fill="url(#b)" d="M72.13 31.61 65.91 4.5H31.42L4.5 45.68l7.79 18.92L4.5 81.87l55.75-47.43z"/><path fill="url(#c)" d="m100.5 24.88-40.25 9.56L4.5 81.87l35.96 18.63 28.4-29.28z"/><path d="M22.5 22.5h60v60h-60z"/><path fill="#fff" d="M28.13 71.25h22.5V75h-22.5zm-1.69-28.44v-.07A12.7 12.7 0 0 1 39.41 30a13.62 13.62 0 0 1 9.73 3.39l-3.43 4.14A9.13 9.13 0 0 0 39.24 35c-4 0-7.11 3.5-7.11 7.7v.07c0 4.53 3.11 7.85 7.5 7.85a8.67 8.67 0 0 0 5.12-1.49v-3.56h-5.48v-4.7H50v10.74a16.07 16.07 0 0 1-10.57 3.93c-7.69 0-12.99-5.41-12.99-12.73m25.86 0v-.07A12.79 12.79 0 0 1 65.49 30c7.63 0 13.11 5.69 13.11 12.72v.07a12.79 12.79 0 0 1-13.18 12.8c-7.64-.05-13.12-5.74-13.12-12.78m20.61 0v-.07A7.51 7.51 0 0 0 65.42 35 7.4 7.4 0 0 0 58 42.67v.07a7.52 7.52 0 0 0 7.5 7.78 7.4 7.4 0 0 0 7.41-7.71"/></svg>