<svg viewBox="0 0 1500 897" xmlns="http://www.w3.org/2000/svg"><g fill="none" fill-rule="evenodd"><path d="m422.713561 325.805319c0 18.460638 1.995649 33.428724 5.488034 44.405319 3.991298 10.976596 8.980421 22.951064 15.965193 35.923405 2.494561 3.991489 3.492385 7.982978 3.492385 11.475531 0 4.989362-2.993473 9.978724-9.479333 14.968086l-31.431472 20.955319c-4.49021 2.993617-8.98042 4.490425-12.971718 4.490425-4.989123 0-9.978245-2.494681-14.967368-6.985106-6.984771-7.484043-12.971719-15.467021-17.960841-23.45-4.989123-8.481915-9.978245-17.961702-15.46628-29.437234-38.915156 45.902127-87.808557 68.853191-146.680203 68.853191-41.90863 0-75.335751-11.974468-99.7824511-35.923404-24.4467005-23.948936-36.9195069-55.880851-36.9195069-95.795745 0-42.409574 14.9673677-76.83617 45.401015-102.780851 30.433648-25.944681 70.84554-38.917021 122.233503-38.917021 16.963016 0 34.424945 1.496809 52.884699 3.991489 18.459753 2.494681 37.418419 6.486171 57.374909 10.976596v-36.42234c0-37.919149-7.982596-64.362766-23.448876-79.8297875-15.965192-15.4670213-42.906454-22.9510638-81.322697-22.9510638-17.461929 0-35.422771 1.9957446-53.882524 6.4861702-18.459753 4.4904255-36.420595 9.9787234-53.882524 16.9638298-7.982596 3.4925532-13.969543 5.4882978-17.461928 6.4861702-3.492386.9978721-5.986948 1.4968081-7.982597 1.4968081-6.9847712 0-10.4771569-4.9893613-10.4771569-15.4670209v-24.4478723c0-7.9829788.9978245-13.9702128 3.4923857-17.462766 2.4945613-3.4925532 6.9847712-6.9851064 13.9695432-10.4776596 17.461929-8.980851 38.416244-16.4648936 62.862944-22.4521276 24.446701-6.48617024 50.390138-9.47978726 77.830312-9.47978726 59.370558 0 102.775925 13.47127656 130.715011 40.41382976 27.440174 26.9425532 41.409717 67.8553189 41.409717 122.7382979v161.655319zm-202.558376 75.838298c16.464104 0 33.427121-2.993617 51.387962-8.980851s33.926034-16.96383 47.396664-31.931915c7.982597-9.479787 13.969544-19.957447 16.963017-31.931915 2.993474-11.974468 4.989123-26.443617 4.989123-43.407447v-20.955319c-14.468456-3.492553-29.934736-6.48617-45.899928-8.481915-15.965192-1.995744-31.431472-2.993617-46.897752-2.993617-33.427121 0-57.873821 6.486171-74.337926 19.957447-16.464104 13.471277-24.4467 32.430851-24.4467 57.37766 0 23.45 5.986947 40.912766 18.459753 52.887234 11.973894 12.473404 29.435823 18.460638 52.385787 18.460638zm400.626541 53.885106c-8.980421 0-14.967368-1.496808-18.958666-4.989361-3.991298-2.993617-7.483684-9.978724-10.477157-19.458511l-117.24438-385.6776595c-2.993474-9.9787234-4.49021-16.4648936-4.49021-19.9574468 0-7.9829787 3.991298-12.4734043 11.973894-12.4734043h48.893401c9.479333 0 15.965192 1.4968085 19.457578 4.9893617 3.991298 2.993617 6.984771 9.9787234 9.978245 19.4585107l83.817259 330.2957442 77.830311-330.2957442c2.494562-9.9787234 5.488035-16.4648937 9.479333-19.4585107s10.97607-4.9893617 19.956491-4.9893617h39.91298c9.479333 0 15.965192 1.4968085 19.95649 4.9893617 3.991298 2.993617 7.483684 9.9787234 9.479333 19.4585107l78.828136 334.2872342 86.31182-334.2872342c2.993474-9.9787234 6.48586-16.4648937 9.978246-19.4585107 3.991298-2.993617 10.47716-4.9893617 19.45758-4.9893617h46.39884c7.98259 0 12.4728 3.9914894 12.4728 12.4734043 0 2.4946808-.49891 4.9893617-.99782 7.9829787s-1.49674 6.9851064-3.49239 12.4734043l-120.23785 385.6776593c-2.993474 9.978724-6.485859 16.464894-10.477158 19.458511-3.991298 2.993617-10.477157 4.989362-18.958665 4.989362h-42.906454c-9.479333 0-15.965192-1.496809-19.95649-4.989362s-7.483684-9.978724-9.479333-19.957447l-77.3314-321.81383-76.832487 321.314894c-2.494561 9.978723-5.488035 16.464894-9.479333 19.957447s-10.97607 4.989361-19.95649 4.989361zm641.102244 13.471277c-25.94343 0-51.88687-2.993617-76.83248-8.980851-24.94562-5.987234-44.40319-12.473404-57.37491-19.957447-7.9826-4.490425-13.47063-9.479787-15.46628-13.970213-1.99565-4.490425-2.99348-9.479787-2.99348-13.970212v-25.445745c0-10.47766 3.9913-15.467021 11.47499-15.467021 2.99347 0 5.98694.498936 8.98042 1.496808 2.99347.997872 7.48368 2.993617 12.4728 4.989362 16.96302 7.484042 35.42277 13.471276 54.88035 17.462766 19.95649 3.991489 39.41407 5.987234 59.37056 5.987234 31.43147 0 55.87817-5.488298 72.84119-16.464894s25.94344-26.942553 25.94344-47.398936c0-13.970213-4.49021-25.445745-13.47064-34.925532-8.98042-9.479787-25.94343-17.961702-50.39013-25.944681l-72.34228-22.452127c-36.42059-11.475532-63.36186-28.439362-79.82596-50.89149-16.46411-21.953191-24.94561-46.401064-24.94561-72.345744 0-20.95532 4.49021-39.4159579 13.47063-55.3819153s20.95431-29.9361702 35.92168-40.912766c14.96737-11.4755319 31.93038-19.9574468 51.88687-25.94468081 19.95649-5.98723404 40.91081-8.48191489 62.86295-8.48191489 10.97607 0 22.45105.49893617 33.42712 1.99574468 11.47498 1.49680851 21.95214 3.49255319 32.4293 5.48829787 9.97824 2.49468085 19.45757 4.98936175 28.43799 7.98297875 8.98043 2.993617 15.9652 5.987234 20.95432 8.980851 6.98477 3.9914894 11.97389 7.9829788 14.96737 12.4734043 2.99347 3.9914894 4.49021 9.4797872 4.49021 16.4648936v23.45c0 10.4776596-3.9913 15.9659575-11.47498 15.9659575-3.9913 0-10.47716-1.9957447-18.95867-5.9872341-28.438-12.9723404-60.36838-19.4585106-95.79115-19.4585106-28.438 0-50.88905 4.4904255-66.35533 13.9702127-15.46628 9.4797873-23.44888 23.9489363-23.44888 44.4053193 0 13.970213 4.98912 25.944681 14.96737 35.424468 9.97824 9.479787 28.438 18.959574 54.88035 27.441489l70.84554 22.452128c35.92168 11.475532 61.86512 27.441489 77.3314 47.897872s22.94996 43.906383 22.94996 69.851064c0 21.454255-4.49021 40.912766-12.97172 57.876596-8.98042 16.96383-20.95431 31.931915-36.42059 43.906383-15.46628 12.473404-33.92604 21.454255-55.37926 27.940425-22.45106 6.985107-45.89993 10.47766-71.34446 10.47766z" fill="#252f3e" fill-rule="nonzero"/><g fill="#f90" transform="translate(0 559)"><path d="m1356.12708 152.29601c-164.13292 121.306639-402.599581 185.70399-607.641001 185.70399-287.357319 0-546.278236-106.33051-741.84085593-283.0488232-15.46541125-13.9777197-1.4966527-32.9474821 16.96206393-21.9649881 211.526915 122.8042513 472.44337 197.1856883 742.33974 197.1856883 182.092745 0 382.145323-37.939525 566.233603-115.815392 27.43864-12.480106 50.88619 17.971354 23.94645 37.939525z"/><path d="m1424.47422 74.4201435c-20.95314-26.9570308-138.68982-12.9793112-192.07043-6.4896556-15.9643 1.9968171-18.45872-11.9809026-3.99108-22.4641923 93.79024-65.8949641 247.94547-46.92520175 265.9053-24.9602137 17.95983 22.4641923-4.98884 176.7183131-92.79247 250.6005451-13.46987 11.481699-26.44086 5.491247-20.45425-9.484881 19.95537-49.421223 64.35606-160.743776 43.40293-187.2016025z"/></g></g></svg>
