<svg height="256" preserveAspectRatio="xMidYMid" viewBox="0 0 256 256" width="256" xmlns="http://www.w3.org/2000/svg" xmlns:xlink="http://www.w3.org/1999/xlink"><defs><linearGradient id="a" x1="49.994%" x2="49.994%" y1=".226%" y2="99.725%"><stop offset="0" stop-color="#212121" stop-opacity=".04"/><stop offset=".66" stop-color="#212121" stop-opacity="0"/></linearGradient><path id="b" d="m.71972456.71972456 12.75654214 40.28427574c4.2601667-4.2797687 10.8377247-10.1777909 10.8377247-16.6900089 0-13.0244361-10.5698308-23.59426684-23.59426684-23.59426684z"/><filter id="c" height="134.8%" width="159.3%" x="-29.7%" y="-12.4%"><feOffset dx="0" dy="2" in="SourceAlpha" result="shadowOffsetOuter1"/><feGaussianBlur in="shadowOffsetOuter1" result="shadowBlurOuter1" stdDeviation="2"/><feColorMatrix in="shadowBlurOuter1" type="matrix" values="0 0 0 0 0   0 0 0 0 0   0 0 0 0 0  0 0 0 0.2 0"/></filter><linearGradient id="d"><stop offset="0" stop-color="#fff" stop-opacity=".1"/><stop offset="1" stop-color="#fff" stop-opacity="0"/></linearGradient><radialGradient id="e" cx="10.105482%" cy="14.269%" gradientTransform="matrix(.681824 0 0 1 .032153 0)" r="144.565193%" xlink:href="#d"/><linearGradient id="f" x1="36.626%" x2="64.01%" xlink:href="#d" y1="20.358%" y2="100.652%"/><linearGradient id="g"><stop offset="0" stop-color="#262626" stop-opacity=".1"/><stop offset="1" stop-color="#262626" stop-opacity="0"/></linearGradient><linearGradient id="h" x1="68.935%" x2="31.065%" xlink:href="#g" y1="65.756%" y2="35.799%"/><linearGradient id="i" x1="62.531%" x2="24.779%" xlink:href="#g" y1="13.086%" y2="100.996%"/><linearGradient id="j" x1="0%" x2="100%" xlink:href="#g" y1="50%" y2="50%"/><radialGradient id="k" cx="14.489%" cy="14.584%" r="99.973%" xlink:href="#d"/><path id="l" d="m.44499834.44499834 14.71891946 46.48286186c4.9201005-4.9375245 12.5060722-11.7437725 12.5060722-19.2578702 0-15.0281954-12.1967962-27.22499166-27.22499166-27.22499166z"/><filter id="m" height="130.1%" width="151.4%" x="-25.7%" y="-10.8%"><feOffset dx="0" dy="2" in="SourceAlpha" result="shadowOffsetOuter1"/><feGaussianBlur in="shadowOffsetOuter1" result="shadowBlurOuter1" stdDeviation="2"/><feColorMatrix in="shadowBlurOuter1" type="matrix" values="0 0 0 0 0   0 0 0 0 0   0 0 0 0 0  0 0 0 0.1 0"/></filter><radialGradient id="n" cx="10.105482%" cy="14.269%" gradientTransform="matrix(.681812 0 0 1 .032154 0)" r="144.567702%" xlink:href="#d"/><mask id="o" fill="#fff"><path d="m53.4829517 15.7295112h-7.6447777c-3.240863-9.1693772-11.9724623-15.7295112-22.2439072-15.7295112-13.024436 0-23.5942668 10.5698308-23.5942668 23.5942668s10.5698308 23.5964448 23.5942668 23.5964448h29.8886849c8.6865253-.0036065 15.7271074-7.0451635 15.7295112-15.7316892-.0036058-8.6856752-7.0438361-15.7259054-15.7295112-15.7295112z" fill="#fff"/></mask><mask id="p" fill="#fff"><path d="m29.8865069-0h-29.8865069v31.4590224h29.8865069c8.6856751-.0036058 15.7259054-7.043836 15.7295112-15.7295112-.0036058-8.68567516-7.0438361-15.72590544-15.7295112-15.7295112z" fill="#fff"/></mask><mask id="q" fill="#fff"><path d="m61.7092552 18.1492685h-8.8208973c-3.7374469-10.58072081-13.8106938-18.1492685-25.6633662-18.1492685-15.0281954 0-27.2249917 12.1967963-27.2249917 27.2249917s12.1967963 27.2249917 27.2249917 27.2249917h34.4842635c10.0187969 0 18.1514464-8.1304715 18.1514464-18.1492685 0-10.0187969-8.1326495-18.1514464-18.1514464-18.1514464z" fill="#fff"/></mask><mask id="r" fill="#fff"><path d="m34.4842635 0h-34.4842635v36.3007149h34.4842635c10.0187969 0 18.1514464-8.1326495 18.1514464-18.1514464 0-10.01879698-8.1326495-18.1492685-18.1514464-18.1492685z" fill="#fff"/></mask></defs><g fill="none"><circle cx="127.776687" cy="127.776687" fill="#0535c1" r="127.776687"/><path d="m155.363227 58.0807083h75.504703v75.5047027h-75.504703z"/><g mask="url(#o)" transform="translate(158.510436 73.810219)"><path d="m53.4829517 15.7295112h-7.6447777c-3.240863-9.1693772-11.9724623-15.7295112-22.2439072-15.7295112-13.024436 0-23.5942668 10.5698308-23.5942668 23.5942668s10.5698308 23.5964448 23.5942668 23.5964448h29.8886849c8.6865253-.0036065 15.7271074-7.0451635 15.7295112-15.7316892-.0036058-8.6856752-7.0438361-15.7259054-15.7295112-15.7295112z" fill="#eaeaea"/><path d="m69.2124629 31.6485083v-.1894859c-.0036058-8.6856752-7.0438361-15.7259054-15.7295112-15.7295112h-7.8669336v.3920399h7.8669336c8.6085494.0016545 15.6174953 6.9213145 15.7295112 15.5291352z" fill="#fff" fill-opacity=".2"/><path d="m77.3124424 47.1907116h-53.7181756l22.2591532-31.4612004z" fill="url(#a)"/><g mask="url(#p)" transform="translate(23.594267 15.729511)"><g transform="translate(-.719725 -16.449236)"><use fill="#000" filter="url(#c)" xlink:href="#b"/><use fill="#e1e1e1" xlink:href="#b"/></g></g><circle cx="23.594267" cy="23.594267" fill="#eee" r="23.594267"/><path d="m23.5942668.39203988c12.961274 0 23.4853668 10.46093082 23.5964448 23.40695882v-.1873079c0-13.024436-10.5720088-23.5964448-23.5964448-23.5964448s-23.5942668 10.5545848-23.5942668 23.5790208v.1894859c.10889997-12.930782 10.6329928-23.39171282 23.5942668-23.39171282z" fill="#fff" fill-opacity=".2"/><path d="m53.4829517 46.7964937h-29.8886849c-12.959096 0-23.48318883-10.4609308-23.5942668-23.4047808v.1894859c0 13.024436 10.5698308 23.5942668 23.5942668 23.5942668h29.8886849c8.6856751-.0036058 15.7259054-7.043836 15.7295112-15.7295112v-.1873079c-.1084506 8.6110886-7.1177406 15.535941-15.7295112 15.5400252z" fill="#212121" fill-opacity=".1"/></g><path d="m211.993387 89.5397307h-7.644777c-3.240863-9.1693772-11.972463-15.7295112-22.243908-15.7295112-13.024436 0-23.594266 10.5698307-23.594266 23.5942668 0 13.0244357 10.56983 23.5964447 23.594266 23.5964447h29.888685c8.686526-.003606 15.727108-7.045163 15.729512-15.731689-.003606-8.6856753-7.043837-15.7259056-15.729512-15.7295113z" fill="url(#e)"/><path d="m92.9286976 53.7247096h66.7927054v58.0807084h-66.7927054z" fill="#fff176"/><path d="m85.6672479 142.295231h79.8607011v79.860701h-79.8607011z" fill="#fff"/><path d="m174.239947 105.996694h11.61527v23.230541h-116.1592383v-23.230541h11.6152705v-46.4654382l46.4654378-29.0392651 46.46326 29.0392651zm-23.232719 0v-33.5891061l-23.230541-14.5163656-23.232719 14.5163656v33.5891061z" fill="#f4481e"/><path d="m64.5362983 238.830695 19.680402-132.836179h87.1199737l19.678224 132.836179c-18.645853 10.641705-40.232004 16.720501-63.238211 16.720501s-44.5923584-6.078796-63.2403887-16.720501zm89.2522347-92.758814-54.6547153 17.759407-6.6428979 44.834116 67.3306712-21.880181-6.033058-40.71552z" fill="#f4481e"/><path d="m174.128869 129.227235 16.236985 109.60346c-18.645852 10.641705-40.232004 16.720501-63.238211 16.720501s-44.5923582-6.078796-63.2403885-16.720501l16.239163-109.60346h-10.4304388v-23.230541h11.6152705v-46.4654382l46.4654378-29.0392651 46.46326 29.0392651v46.4654382h11.61527v23.230541h-11.72417z" fill="url(#f)"/><path d="m127.776687 105.996694h-46.4654378v-46.4654382l46.4654378-29.0392651z" fill="url(#h)"/><path d="m127.776687 255.551238c-22.174457.012818-43.9699465-5.74982-63.2403887-16.720543l14.5599256-109.60346h48.6782851v126.324003z" fill="url(#i)"/><path d="m69.695979 105.996694h58.080708v23.232719h-58.080708z" fill="url(#j)" transform="matrix(-1 0 0 1 197.472666 0)"/><circle cx="127.776687" cy="127.776687" fill="url(#k)" r="127.776687"/><path d="m27.5887176 82.7639747h87.1199734v87.1199733h-87.1199734z"/><g mask="url(#q)" transform="translate(31.217264 100.913243)"><path d="m61.7092552 18.1492685h-8.8208973c-3.7374469-10.58072081-13.8106938-18.1492685-25.6633662-18.1492685-15.0281954 0-27.2249917 12.1967963-27.2249917 27.2249917s12.1967963 27.2249917 27.2249917 27.2249917h34.4842635c10.0187969 0 18.1514464-8.1304715 18.1514464-18.1492685 0-10.0187969-8.1326495-18.1514464-18.1514464-18.1514464z" fill="#fafafa"/><path d="m79.8607016 36.5185149v-.2178c0-10.0187969-8.1326495-18.1514464-18.1514464-18.1514464h-9.0735453v.4552018h9.0735453c9.9323003.0003267 18.0203663 7.9826093 18.1514464 17.9140446z" fill="#fff" fill-opacity=".2"/><path d="m89.2064968 54.4499834h-61.9815051l25.6829682-36.3007149z" fill="url(#a)"/><g mask="url(#r)" transform="translate(27.224992 18.149268)"><g transform="translate(-.444998 -18.594267)"><use fill="#000" filter="url(#m)" xlink:href="#l"/><use fill="#e1e1e1" xlink:href="#l"/></g></g><circle cx="27.224992" cy="27.224992" fill="#fff" r="27.224992"/><path d="m27.2249917.45302386c14.9563214 0 27.0986677 12.07047234 27.2249917 27.00719174v-.2177999c0-15.0281954-12.1967963-27.22499171-27.2249917-27.22499171s-27.2249917 12.17937231-27.2249917 27.20756771v.2177999c.12632396-14.9192954 12.2686703-26.98976774 27.2249917-26.98976774z" fill="#fff" fill-opacity=".2"/><path d="m61.7092552 53.9969595h-34.4842635c-14.9563214 0-27.09866774-12.0704723-27.2249917-27.0071917v.2177999c0 15.0281954 12.1967963 27.2249917 27.2249917 27.2249917h34.4842635c10.0187969 0 18.1514464-8.1326495 18.1514464-18.1514465v-.2177999c-.1285019 9.929499-8.2045235 17.9336465-18.1514464 17.9336465z" fill="#212121" fill-opacity=".1"/></g><path d="m92.9265196 119.062512h-8.8208973c-3.7374468-10.580721-13.8106938-18.149269-25.6633661-18.149269-15.0281954 0-27.2249917 12.196796-27.2249917 27.224992 0 15.028195 12.1967963 27.224992 27.2249917 27.224992h34.4842634c10.0187974 0 18.1514464-8.130472 18.1514464-18.149269s-8.132649-18.151446-18.1514464-18.151446z" fill="url(#n)"/><g opacity=".1"><path d="m127.776687 1.33511359c70.349379 0 127.397715 56.84578261 127.761441 127.10804141 0-.2178.013068-.4356.013068-.666468 0-70.5671785-57.207331-127.776687-127.774509-127.776687-70.5671785 0-127.776687 57.2095085-127.776687 127.776687 0 .2178.015246.4356.015246.666468.36154789-70.2622588 57.4120625-127.10804141 127.761441-127.10804141z" fill="#fff"/><path d="m255.538128 127.108041c-.363726 70.262259-57.412062 127.108041-127.761441 127.108041-70.3493785 0-127.39989311-56.845782-127.761441-127.108041 0 .233046-.015246.450846-.015246.668646 0 70.567178 57.2095085 127.774509 127.776687 127.774509 70.567178 0 127.774509-57.207331 127.774509-127.774509 0-.2178-.013068-.4356-.013068-.668646z" fill="#263238"/></g><circle cx="127.776687" cy="127.776687" fill="url(#k)" r="127.776687"/></g></svg>