<svg height="88" preserveAspectRatio="xMidYMid" viewBox="0 0 512 88" width="512" xmlns="http://www.w3.org/2000/svg" xmlns:xlink="http://www.w3.org/1999/xlink"><linearGradient id="a" x1="20.984803%" x2="75.846321%" y1="5.131764%" y2="100.365967%"><stop offset="0" stop-opacity=".2"/><stop offset=".79" stop-opacity=".05"/></linearGradient><path d="m512 18.1560284v58.0992907h-14.524823v-58.0992907zm-63.30644 0c7.640057 0 14.96783 3.0605617 20.371064 8.5084595 5.403234 5.4478616 8.438922 12.8368568 8.438922 20.5411859 0 7.704329-3.035688 15.0934695-8.438922 20.5413673-5.403234 5.4475348-12.731007 8.508278-20.371064 8.508278h-20.21129v-58.0992907zm-63.785759 0v45.3900709h25.41844v12.7092198h-39.943262v-58.0992907zm-61.682927 0 29.002076 58.0992907h-13.936567l-4.241611-8.8957276h-21.742934l-4.241611 8.8957276h-13.936567zm-72.73305 0 12.764777 28.7195688 12.764778-28.7195688h14.475075l-27.239853 58.0992907-27.228232-58.0992907zm-32.619484 0v58.0992907h-14.524822v-58.0992907zm-72.674224 0 12.764778 28.7195688 12.764777-28.7195688h14.463455l-27.228232 58.0992907-27.239853-58.0992907zm303.495444 11.9478286h-7.222468v34.2037061h7.222468c9.702582 0 16.26417-7.7660596 16.26417-17.1018893 0-9.3358298-6.5979-17.1018168-16.26417-17.1018168zm-125.468686 14.7506111-5.560465 11.9764425h11.12093z" fill="#333"/><path d="m43.574105 87.148573c19.0950581 0 29.7061673 0 36.6403177-6.9341503 6.9341503-6.9341504 6.9341503-17.5452596 6.9341503-36.6403177 0-19.0947677 0-29.7059859-6.9341503-36.64006358-6.9341504-6.93404142-17.5452596-6.93404142-36.6403177-6.93404142-19.0947677 0-29.7190945 0-36.64002727 6.93404142-6.92094537 6.93407768-6.93407773 17.54529588-6.93407773 36.64006358 0 19.0950581 0 29.7061673 6.93407773 36.6403177 6.93404137 6.9341503 17.54525957 6.9341503 36.64002727 6.9341503z" fill="#ef3939"/><path d="m71.9051348 27.4496999c-2.1035575-3.7929396-5.7220539-6.8987098-9.128488-9.5839501-3.4067972-2.6852403-6.7507745-4.3030514-10.9306553-5.4631489-4.1798809-1.1600613-8.4516312-1.1386009-12.7549731-.5931575-4.3037412.5454434-8.0065906 1.5277209-11.7647795 3.6938803-3.758189 2.1661594-6.67717 4.8184284-9.3056908 8.2685458-2.6285209 3.4501175-4.3750219 6.8761963-5.4652551 11.0739427-1.0902331 4.1976374-1.4853083 8.8484857-.8677492 13.1409339.6175229 4.2928113 1.3675484 8.3779177 3.5968908 12.0984511l.1838116.3148255 15.3500868 26.6098383c2.5474361.0700823 5.3049374.1005844 8.2726854.0918695h4.3592625c6.9610212.1496057 13.9253106-.0562837 20.8652709-.6169418 6.9461333-.7614639 11.935773-2.4681305 15.7568908-6.3143036 5.620017-5.6189277 6.6839602-13.6529702 6.8807716-26.6494184z" fill="url(#a)"/><path d="m66.6580426 20.4544726c-4.5705986-4.5673305-10.3925107-7.6767682-16.7293277-8.9352352-6.3371801-1.2584669-12.9049419-.6094615-18.8730826 1.8649873-5.9683222 2.4744488-11.0692221 6.6632261-14.6579427 12.0368658-3.5887205 5.3736397-5.5041089 11.6909208-5.5041089 18.1530145 0 6.4624567 1.9153884 12.7796652 5.5041089 18.1534865 3.5887206 5.3734581 8.6896205 9.562417 14.6579427 12.0367206 5.9681407 2.4743035 12.5359025 3.1235631 18.8730826 1.8649872 6.336817-1.2585759 12.1587291-4.3679773 16.7293277-8.9353078 3.0418609-3.0324199 5.4555234-6.6356653 7.1022751-10.6031206 1.6467518-3.9674553 2.4946383-8.2206865 2.4946383-12.5167659 0-4.2957163-.8478865-8.5491654-2.4946383-12.5165481-1.6467517-3.967419-4.0604142-7.5706281-7.1022751-10.6030843zm-1.9590355 15.0449566c-5.390888 9.3811836-10.7770553 18.758046-16.1588653 28.1305509-.4244879.8308199-1.0570439 1.5378156-1.8359375 2.0516312-.7785305.5138157-1.6772539.8173844-2.607932.8809305-1.0276312.1147461-2.0657929-.0835177-2.978678-.569373-.912522-.4858553-1.6572822-1.2364255-2.1358752-2.1529418-3.4053446-5.8654866-6.7843631-11.7701901-10.1633815-17.6621844-2.0685889-3.5771008-4.1284267-7.1629164-6.1795132-10.7575195-.4869084-.8071081-.7553997-1.7271103-.7791115-2.6694808s.1981912-1.8747189.6438854-2.7053209 1.0998559-1.5308437 1.8981401-2.0319501c.7982843-.50107 1.7132029-.7856839 2.6547745-.8258814 1.0135784-.0621662 2.0234894.1704851 2.9077243.6699212.8842712.4993997 1.6050655 1.2441963 2.0753429 2.1444448 1.5251427 2.6302275 3.0239955 5.260455 4.5230298 7.8908278 1.0911773 1.8936737 2.1427745 3.7873475 3.2604596 5.6548766.710627 1.2905305 1.7422525 2.3755347 2.9953816 3.1500709 1.2534922.7741731 2.6852766 1.2110071 4.1570042 1.2687433 2.2353702.1383489 4.4380596-.5886185 6.1516256-2.0309334 1.7135659-1.4423149 2.8061957-3.4884993 3.0520283-5.7151546 0-.3551319 0-.7102638.0787972-.8943659.0079886-1.4070922-.3072-2.7971178-.9201475-4.0636097-.3761929-.6975546-.5947915-1.4689316-.641271-2.2600624-.0464794-.7910945.0809759-1.5827699.3729249-2.3194326.2919489-.736699.7418553-1.4005197 1.3174014-1.9449464.5759092-.5444267 1.2636596-.9562054 2.0153191-1.2065407.7516596-.250299 1.5490724-.3330542 2.3363178-.2424193.7868822.0906349 1.5447149.3524448 2.219756.7670559.6754042.4146111 1.2516766.9720011 1.6885106 1.6330258.4368341.6610247.7240624 1.4097067.8409873 2.1934661.1481532 1.2598105-.1296341 2.5329475-.7886979 3.6165719z" fill="#fff"/></svg>