<svg height="256" preserveAspectRatio="xMidYMid" viewBox="0 0 256 256" width="256" xmlns="http://www.w3.org/2000/svg" xmlns:xlink="http://www.w3.org/1999/xlink"><linearGradient id="a" x1="49.999803%" x2="49.999803%" y1="100%" y2="0%"><stop offset="0" stop-color="#7400e1"/><stop offset="1" stop-color="#4000bf"/></linearGradient><path d="m128 249.4912c67.0984 0 121.492-54.3936 121.492-121.4912 0-67.09792-54.3936-121.491528-121.492-121.491528-67.0976 0-121.491208 54.393608-121.491208 121.491528 0 67.0976 54.393608 121.4912 121.491208 121.4912z" fill="#fff"/><path d="m128 0c-70.69248 0-128 57.30752-128 128 0 70.6928 57.30752 128 128 128 70.6928 0 128-57.3072 128-128 0-70.69248-57.3072-128-128-128zm0 13.01696c63.5032 0 114.9832 51.47968 114.9832 114.98304 0 63.5032-51.48 114.9832-114.9832 114.9832-63.50336 0-114.98304-51.48-114.98304-114.9832 0-63.50336 51.47968-114.98304 114.98304-114.98304z" fill="#4000bf"/><path d="m129.4456 36.88136c50.324 0 91.1192 40.7952 91.1192 91.11864 0 50.3232-40.7952 91.1184-91.1192 91.1184-50.32328 0-91.11848-40.7952-91.11848-91.1184 0-12.2984 2.43664-24.028 6.85352-34.7328 6.4492 8.7824 16.84952 14.484 28.58152 14.484 19.57064 0 35.43464-15.8648 35.43464-35.4348 0-11.732-5.7008-22.13232-14.484-28.58144 10.7048-4.41696 22.4344-6.8536 34.7328-6.8536z" fill="url(#a)"/></svg>