<svg id="Layer_1" data-name="Layer 1" xmlns="http://www.w3.org/2000/svg" viewBox="0 0 41.67 40"><metadata><?xpacket begin="﻿" id="W5M0MpCehiHzreSzNTczkc9d"?>
<x:xmpmeta xmlns:x="adobe:ns:meta/" x:xmptk="Adobe XMP Core 6.0-c006 79.164648, 2021/01/12-15:52:29        ">
   <rdf:RDF xmlns:rdf="http://www.w3.org/1999/02/22-rdf-syntax-ns#">
      <rdf:Description rdf:about=""
            xmlns:dc="http://purl.org/dc/elements/1.1/"
            xmlns:xmp="http://ns.adobe.com/xap/1.0/"
            xmlns:xmpMM="http://ns.adobe.com/xap/1.0/mm/"
            xmlns:stEvt="http://ns.adobe.com/xap/1.0/sType/ResourceEvent#">
         <dc:subject>
            <rdf:Bag>
               <rdf:li>Storage</rdf:li>
               <rdf:li>Folder</rdf:li>
               <rdf:li>File</rdf:li>
               <rdf:li>icon</rdf:li>
               <rdf:li>cloning</rdf:li>
               <rdf:li>clone</rdf:li>
            </rdf:Bag>
         </dc:subject>
         <xmp:MetadataDate>2022-11-11T13:21:48-06:00</xmp:MetadataDate>
         <xmpMM:InstanceID>xmp.iid:58e1e6b3-0595-4354-8c04-00393fd6b3ac</xmpMM:InstanceID>
         <xmpMM:DocumentID>xmp.did:58e1e6b3-0595-4354-8c04-00393fd6b3ac</xmpMM:DocumentID>
         <xmpMM:OriginalDocumentID>xmp.did:58e1e6b3-0595-4354-8c04-00393fd6b3ac</xmpMM:OriginalDocumentID>
         <xmpMM:History>
            <rdf:Seq>
               <rdf:li>
                  <rdf:Description>
                     <stEvt:action>saved</stEvt:action>
                     <stEvt:instanceID>xmp.iid:58e1e6b3-0595-4354-8c04-00393fd6b3ac</stEvt:instanceID>
                     <stEvt:when>2022-11-11T13:21:48-06:00</stEvt:when>
                     <stEvt:softwareAgent>Adobe Bridge 2021 (Macintosh)</stEvt:softwareAgent>
                     <stEvt:changed>/metadata</stEvt:changed>
                  </rdf:Description>
               </rdf:li>
            </rdf:Seq>
         </xmpMM:History>
      </rdf:Description>
   </rdf:RDF>
</x:xmpmeta>
                                                                                                    
                                                                                                    
                                                                                                    
                                                                                                    
                                                                                                    
                                                                                                    
                                                                                                    
                                                                                                    
                                                                                                    
                                                                                                    
                                                                                                    
                                                                                                    
                                                                                                    
                                                                                                    
                                                                                                    
                                                                                                    
                                                                                                    
                                                                                                    
                                                                                                    
                                                                                                    
                           
<?xpacket end="w"?></metadata>
<path d="M1.67,25.93H3.15V5.56h37V38.33a.19.19,0,0,1-.19.19H11.48V40H40a1.67,1.67,0,0,0,1.67-1.67V4.07h-40Z" fill="#2c5967"/><path d="M40,0H3.33A1.66,1.66,0,0,0,1.67,1.67V3h40V1.67A1.67,1.67,0,0,0,40,0Z" fill="#2c5967"/><path d="M36.67,14.82a1.51,1.51,0,0,0-1.52-1.49H18.26l-1.58-2a1.5,1.5,0,0,0-1.19-.57H8a1.48,1.48,0,0,0-1.5,1.46V25.93H8V17.41h7.86A1.57,1.57,0,0,0,17,16.83l1.59-2H35.19V32H11.48v1.48H36.67ZM15.86,15.91s0,0,0,0H8V12.22h7.55l1.63,2.07Z" fill="#2c5967"/><rect x="9.26" y="13.33" width="5.74" height="1.48" fill="#2c5967"/><path d="M10.37,27H0V40H10.37ZM1.48,38.52v-10H8.89v10Z" fill="#2c5967"/><path d="M5.74,35.28a1.33,1.33,0,0,1-1.09-.45,1.93,1.93,0,0,1-.37-1.28,1.66,1.66,0,0,1,.38-1.18A1.37,1.37,0,0,1,5.74,32a3.14,3.14,0,0,1,.51.05,4.37,4.37,0,0,1,.63.2v-.91a2.53,2.53,0,0,0-.55-.19A2.8,2.8,0,0,0,5.66,31a2.74,2.74,0,0,0-1.32.31,2.06,2.06,0,0,0-.86.87,3.34,3.34,0,0,0,.32,3.32,2.34,2.34,0,0,0,1.81.68,3.1,3.1,0,0,0,.78-.09A3,3,0,0,0,7,35.9V35a5.47,5.47,0,0,1-.69.2A2.3,2.3,0,0,1,5.74,35.28Z" fill="#2c5967"/></svg>