<svg viewBox="0 0 990 380" xmlns="http://www.w3.org/2000/svg"><g fill="#fff"><path d="m302 174.37-.21-.56-21.2-55.3a5.5 5.5 0 0 0 -2.18-2.63 5.6 5.6 0 0 0 -8.41 3.2l-14.31 43.81h-57.95l-14.31-43.81a5.61 5.61 0 0 0 -8.41-3.2 5.5 5.5 0 0 0 -2.18 2.63l-21.19 55.31-.22.55a39.36 39.36 0 0 0 13.06 45.49l.08.06.18.14 32.25 24.17 16 12.09 9.72 7.35a6.57 6.57 0 0 0 7.92 0l9.72-7.35 16-12.09 32.48-24.31.09-.07a39.36 39.36 0 0 0 13.07-45.48z"/><path d="m428.92 171.51h22.78c-3.8-24.22-24.77-41.09-52.06-41.09-32.29 0-56.52 23.74-56.52 63.5 0 39.05 23.14 63.27 57.18 63.27 30.55 0 52.42-19.65 52.42-51.46v-14.82h-50.07v17.47h28.44c-.36 17.6-12.11 28.74-30.67 28.74-20.66 0-34.82-15.48-34.82-43.44 0-27.78 14.4-43.2 34.34-43.2 14.88-0 25.06 7.95 28.98 21.03z"/><path d="m467.78 255.5h21.81v-92.5h-21.81zm11-107.2c6.93 0 12.59-5.31 12.59-11.81s-5.66-11.87-12.59-11.87-12.65 5.3-12.65 11.87 5.62 11.81 12.61 11.81z"/><path d="m554.9 163h-18.26v-22.22h-21.81v22.22h-13.13v16.87h13.13v51.46c-.12 17.41 12.54 26 28.92 25.49a44.29 44.29 0 0 0 12.84-2.17l-3.68-17.06a26.57 26.57 0 0 1 -6.38.85c-5.49 0-9.89-1.93-9.89-10.73v-47.89h18.26z"/><path d="m571.78 255.5h76.7v-18.74h-54.34v-104.66h-22.36z"/><path d="m690.26 257.37c14.52 0 23.19-6.81 27.17-14.58h.72v12.71h21v-61.94c0-24.46-19.94-31.81-37.6-31.81-19.46 0-34.4 8.67-39.22 25.54l20.37 2.9c2.16-6.33 8.31-11.75 19-11.75 10.13 0 15.67 5.18 15.67 14.28v.36c0 6.26-6.57 6.57-22.9 8.31-17.95 1.93-35.12 7.29-35.12 28.14-.06 18.2 13.25 27.84 30.91 27.84zm7.17-16c-9.1 0-15.61-4.16-15.61-12.17 0-8.38 7.29-11.87 17-13.26 5.73-.78 17.18-2.23 20-4.51v10.9c.06 10.27-8.26 19.01-21.39 19.01z"/><path d="m755.21 255.5h21.45v-14.58h1.26c3.44 6.75 10.61 16.21 26.52 16.21 21.81 0 38.14-17.3 38.14-47.78 0-30.85-16.81-47.6-38.2-47.6-16.33 0-23.14 9.82-26.46 16.51h-.92v-46.16h-21.79zm21.39-46.27c0-18 7.71-29.59 21.75-29.59 14.52 0 22 12.35 22 29.59s-7.59 30-22 30c-13.92 0-21.75-12.05-21.75-30z"/></g></svg>