<svg viewBox="0 0 1001 1144" xmlns="http://www.w3.org/2000/svg"><path d="m931.928868 233.458585-361.403852-214.4214786c-42.770565-25.38280854-95.997068-25.38280854-138.767634 0l-361.4753807 214.4214786c-43.7077677 26.068224-70.42011366 73.245684-70.27998522 124.119936v428.842958c-.26799055 50.751311 26.19759562 97.900871 69.67198272 124.119936l361.4038512 214.421475c42.770566 25.38281 95.997068 25.38281 138.767634 0l361.475381-214.421475c43.474387-26.219065 69.939975-73.368625 69.674585-124.119936v-428.842958c.40144-50.621791-25.803336-97.742114-69.030817-124.119936zm-279.931514 669.647073v30.743993c-.045537 3.850035-2.037636 7.415371-5.293198 9.47344l-18.311606 10.474407c-2.861188 1.501451-5.293198 0-5.293198-4.039617v-30.279259c-12.927086 6.34963-27.722718 7.785332-41.63029 4.039618-2.217421-1.501451-3.075778-4.361357-2.002832-7.149766l6.544968-27.884087c.546315-2.358839 1.822843-4.485433 3.648015-6.077301.52048-.515777 1.125253-.938928 1.788243-1.251209.919927-.358942 1.941262-.358942 2.861188 0 12.765195 3.426258 26.365909 1.70607 37.874981-4.790343 16.656005-8.132185 27.505726-24.742667 28.254235-43.256084 0-15.657987-8.583565-22.164274-29.327181-22.343018-26.251403 0-50.070795-5.004836-51.143741-43.756567.607994-33.496375 16.166608-64.966815 42.417117-85.797191v-31.172979c.14476-3.851833 2.108784-7.406717 5.293198-9.580687l17.667838-11.225132c2.861189-1.501451 5.293199 0 5.293199 4.146864v31.172979c10.823435-4.91802 22.904559-6.366606 34.584614-4.146864 2.50354 1.429953 3.504955 4.57585 2.28895 7.149766l-6.187319 27.633845c-.700153 2.865704-2.464652 5.3579-4.93555 6.971022-.715297.428986-1.788243.285991-2.646599 0-11.386363-2.491867-23.294876-.548491-33.29708 5.433822-14.893347 6.421343-24.732664 20.867236-25.249987 37.071536 0 14.120788 7.43909 18.410647 32.438723 18.94688 33.440139 0 47.81761 15.121755 48.211023 48.689905-.638555 35.132756-16.699577 68.207821-43.919241 90.444539zm189.303373-51.835803c.440926 2.65132-.635322 5.326943-2.789658 6.935273l-91.021554 55.482184c-.858357.714976-2.145891.822223-3.111543.250241-.965651-.571981-1.430594-1.787441-1.18024-2.859906v-23.594227c.127113-2.576592 1.749315-4.841066 4.148723-5.791311l89.984373-53.873486c.858357-.714976 2.145892-.822223 3.111543-.250241.965651.571981 1.430594 1.787441 1.18024 2.859906v20.805819zm63.124968-527.366731-341.983536 211.132586c-42.667471 25.238674-74.033248 52.83677-74.033248 104.172089v421.049711c0 30.744 12.624994 50.04836 31.544602 56.48315-6.253366 1.16706-12.594633 1.8009-18.955373 1.89469-20.08562-.04453-39.789284-5.48994-57.044942-15.76523l-361.4038517-214.385733c-35.8028977-21.473517-57.5903851-60.257444-57.2989835-101.99141v-428.914456c-.3259137-41.790093 21.4623196-80.643321 57.2989835-102.170154l361.4038517-214.4214793c35.049557-20.7343211 78.539619-20.7343211 113.589176 0l361.403852 214.4214793c29.792123 18.01741 50.070795 48.260919 55.507053 82.222307-11.730872-25.488915-38.733337-32.173946-70.170644-14.120787h.107295z" fill="#1b1b1f" fill-rule="evenodd"/></svg>
