<svg viewBox="0 0 500 500" xmlns="http://www.w3.org/2000/svg"><g fill="none" fill-rule="evenodd"><circle cx="250" cy="250" fill="#03c" r="250"/><path d="m102.050781 94.2382812-.488281 152.8320308c0 13.183594 10.660807 21.077474 31.982422 23.681641v12.451172l-133.544922.244141v-12.207032c10.4166667 0 18.4733073-1.912435 24.1699219-5.737304 5.6966146-3.82487 8.5449219-9.236654 8.5449219-16.235352v-104.248047c0-13.346354-10.8235678-21.240234-32.47070317-23.68164l.24414062-15.625zm-34.4238279-94.2382812c10.0911459 0 18.5139974 3.41796875 25.2685547 10.2539062 6.7545573 6.8359376 10.1318362 15.2994792 10.1318362 25.390625 0 9.765625-3.3772789 18.0664063-10.1318362 24.9023438s-14.9332682 10.2539062-24.5361328 10.2539062c-10.4166667 0-19.0429688-3.1738281-25.8789062-9.5214843-6.8359376-6.3476563-10.2539063-14.4042969-10.2539063-24.1699219 0-10.9049479 3.2958984-19.8160807 9.8876953-26.7333984 6.5917969-6.91731775 15.0960287-10.3759766 25.5126953-10.3759766z" fill="#fff" fill-rule="nonzero" transform="translate(182.85 107.797)"/></g></svg>
