<svg preserveAspectRatio="xMidYMid" viewBox="0 0 256 256" xmlns="http://www.w3.org/2000/svg" xmlns:xlink="http://www.w3.org/1999/xlink"><linearGradient id="a" x1="48.680932%" x2="50.185368%" y1="46.207498%" y2="99.476896%"><stop offset=".16" stop-color="#21d789"/><stop offset=".54" stop-color="#419fbc"/><stop offset="1" stop-color="#6b57ff"/></linearGradient><linearGradient id="b" x1="37.374886%" x2="53.525933%" y1="64.020687%" y2="50%"><stop offset="0" stop-color="#6b57ff"/><stop offset=".95" stop-color="#21d789"/></linearGradient><linearGradient id="c" x1="34.806371%" x2="45.580887%" y1="22.767215%" y2="53.890398%"><stop offset="0" stop-color="#6b57ff"/><stop offset=".02" stop-color="#685cfb"/><stop offset=".28" stop-color="#4a91ca"/><stop offset=".51" stop-color="#34b7a7"/><stop offset=".69" stop-color="#26ce91"/><stop offset=".8" stop-color="#21d789"/></linearGradient><linearGradient id="d" x1="8.271093%" x2="124.61964%" y1="28.101941%" y2="74.033973%"><stop offset=".08" stop-color="#21d789"/><stop offset=".89" stop-color="#6b57ff"/></linearGradient><linearGradient id="e" x1="7.220739%" x2="101.29061%" y1="50%" y2="50%"><stop offset=".31" stop-color="#21d789"/><stop offset=".49" stop-color="#59a3b2"/><stop offset=".77" stop-color="#b74af7"/><stop offset="1" stop-color="#ff45ed"/></linearGradient><path d="m239.68 39.7866667 16.32 104.8000003-30.16 17.546666z" fill="url(#a)"/><path d="m239.68 39.7866667-91.653333-39.7866667-25.573334 21.2266667z" fill="url(#b)"/><path d="m172.986667 256-142.2133337-113.306667-28.55999997 85.893334z" fill="url(#c)"/><path d="m192.8 184.4-192.8-66.24 172.986667 137.84z" fill="url(#d)"/><path d="m0 1.81333333v116.34666667l222.16 76.346667 17.52-154.7200003z" fill="url(#e)"/><path d="m48 47.68h160v160h-160z"/><path d="m64.24 68.48h25.84c20.592 0 34.91136 14.008896 35.195688 32.375447l.004312.744553c0 18.666667-14.4 33.12-35.2 33.12h-25.84zm14.56 13.1466667v40.0000003h11.28c5.3508817.309436 10.581102-1.67001 14.386299-5.444684s5.8267-8.988783 5.560368-14.341983v-.24c.278503-5.3731088-1.73249-10.6126621-5.534409-14.4196646-3.80192-3.8070025-9.038782-5.8249928-14.412258-5.5536687zm49.066667 20.1600003v-.186667c-.073775-9.1802219 3.568015-18.0001256 10.09718-24.4539548 6.529166-6.4538292 15.390739-9.9930185 24.569486-9.8127119 9.53309-.5044506 18.881935 2.7618982 26.026667 9.0933334l-9.173333 11.0666666c-4.551739-4.3201473-10.584065-6.7232169-16.84794-6.7242204l-.458727.0042204c-10.554386 0-18.863465 9.1900927-19.037224 20.2852607l-.002776.541406c0 12.106667 8.346667 21.013333 20.08 21.013333 4.887336.162258 9.701673-1.218598 13.76-3.946666v-9.493334h-14.666667v-12.5866663h28.773334v28.7733333c-7.847489 6.813099-17.901037 10.546462-28.293334 10.507292-20.64 0-34.826666-14.533959-34.826666-34.080625zm-65.146667 75.866666h60v10h-60z" fill="#fff"/></svg>
