<svg height="256" preserveAspectRatio="xMidYMid" viewBox="0 0 256 256" width="256" xmlns="http://www.w3.org/2000/svg" xmlns:xlink="http://www.w3.org/1999/xlink"><linearGradient id="a"><stop offset="0" stop-color="#087cfa"/><stop offset=".02" stop-color="#0d7bfa"/><stop offset=".37" stop-color="#5566f9"/><stop offset=".66" stop-color="#8a57f8"/><stop offset=".88" stop-color="#ab4ef7"/><stop offset="1" stop-color="#b74af7"/></linearGradient><linearGradient id="b" x1="63.100875%" x2="28.874268%" xlink:href="#a" y1="29.811449%" y2="83.709869%"/><linearGradient id="c" x1="49.12442%" x2="74.872125%" xlink:href="#a" y1="38.464521%" y2="4.950239%"/><linearGradient id="d" x1="13.895833%" x2="86.03125%" y1="71.062993%" y2="34.549429%"><stop offset="0" stop-color="#087cfa"/><stop offset=".1" stop-color="#1598d3"/><stop offset=".22" stop-color="#23b6aa"/><stop offset=".35" stop-color="#2dcc8b"/><stop offset=".46" stop-color="#35dd74"/><stop offset=".57" stop-color="#39e767"/><stop offset=".67" stop-color="#3bea62"/></linearGradient><path d="m225.493333 99.0133333 30.506667 67.6533337-52.213333 89.333333-32.16-78.08z" fill="url(#b)"/><path d="m171.626667 177.92 32.16 78.08-80.906667-27.813333z" fill="#b74af7"/><path d="m180.346667 72.2933333-16.586667-72.2933333h-91.9733333l-71.7866667 109.813333 20.7733333 50.453334-20.7733333 46.053333 148.666667-126.48z" fill="url(#c)"/><path d="m256 54.3466667-107.333333 25.4933333-148.666667 126.48 95.8933333 49.68 75.7333337-78.08z" fill="url(#d)"/><path d="m48 48h160v160h-160z"/><path d="m63.0133333 178h59.9999997v10h-59.9999997zm-4.5070507-75.84v-.186667c-.0304253-9.1266341 3.6236748-17.8793862 10.1346892-24.2749392 6.5110143-6.395553 15.3277389-9.8924777 24.4523615-9.6983938 9.4989757-.5006268 18.8152547 2.7452297 25.9466667 9.04l-9.146667 11.04c-4.637398-4.4345384-10.8378875-6.8591503-17.253333-6.7466667-10.4533333 0-18.6273173 8.9637334-18.9500954 19.8636327l-.0099046.856367c0 11.847693 7.977426 20.591628 19.3284371 20.923551l.6715629.009783c4.85551.142753 9.632637-1.247465 13.653333-3.973334v-9.493333h-14.613333v-12.5333333h28.613333v28.6400003c-7.821137 6.783492-17.833634 10.506209-28.1866663 10.480273-20.5066667 0-34.6403841-14.42694-34.6403841-33.94694zm68.9603844 0v-.186667c.031499-9.2103777 3.78673-18.0164849 10.411517-24.4152551 6.624786-6.3987703 15.555891-9.8461828 24.761816-9.5580779 20.051787 0 34.535247 14.7367136 34.950845 33.107214l.009208.999453c.01146 9.233384-3.721148 18.076908-10.344931 24.509717-6.387219 6.203065-14.936449 9.653371-23.814122 9.639496l-.987667-.01588c-20.373333-.133333-34.986666-15.306667-34.986666-34.08zm54.96 0v-.186667c.165703-5.407613-1.863514-10.6522172-5.625766-14.5400446s-8.937429-6.0880854-14.347568-6.100178c-5.370024-.0178675-10.515496 2.1533441-14.249277 6.0129258-3.547091 3.6666027-5.529061 8.5560829-5.550375 13.6369488l.012986.990348c-.187805 5.428315 1.834395 10.70063 5.604078 14.611048 3.769682 3.910417 8.964371 6.124421 14.395922 6.135717 5.384661.011906 10.540363-2.177034 14.271621-6.059356 3.731259-3.882322 5.713966-9.120795 5.488379-14.500742z" fill="#fff"/></svg>