<svg height="149" preserveAspectRatio="xMidYMid" viewBox="0 0 512 149" width="512" xmlns="http://www.w3.org/2000/svg"><path d="m14.8323983 119.899859c1.4565458.059756 2.9280304.261432 4.2986772.765621v-.014939l.2091451.074694 18.0835751-17.639142.6647824.885132c.9374179 1.269809 1.9345915 2.431311 2.9877861 3.592813l.3846775.444433c.2763702.27637.4967194.55274.7730896.829111l.4481679.440698.4369637.444433.3884122.384678.4406985.444433.3884122.384677.4967194.444433.4481679.388413c8.3842428 7.136141 18.9645398 11.177089 29.971229 11.446955 9.065009.22787 18.0122749-2.090785 25.8256759-6.692641l1.381851 1.437872c1.605935 1.714242 3.264156 3.428485 4.870091 5.142727-9.6158028 6.181641-20.870733 9.323339-32.2979671 9.015644-12.8904418-.308084-25.2933665-4.988483-35.1737115-13.273239l.056021-.112042-11.6038142 11.439486c1.8058715 5.972136-.4211323 12.429189-5.5246343 16.018319s-11.9332448 3.501397-16.94286788-.217644c-5.00962306-3.71904-7.07002801-10.231168-5.11134456-16.154946s7.49499567-9.924069 13.73419314-9.923713h.3734732zm110.5816967-74.6087524c5.678823 9.353309 8.53942 20.1460326 8.238821 31.0841793-.325783 13.3538665-5.35882 26.1633091-14.210658 36.1671501l.056021.056021 7.133339 7.577773c2.875744-.388413 5.751488.605026 7.742101 2.707681 3.392184 3.594053 3.243651 9.253313-.332391 12.664478-3.59358 3.389693-9.249976 3.241192-12.660744-.332391-1.981821-2.095661-2.82779-5.020377-2.270717-7.850408-4.168172-4.45693-8.351095-8.900042-12.548702-13.329261l-.724538-.773089.829111-.664783c2.162834-1.71061 4.163175-3.617185 5.975572-5.695467 7.559143-8.4867086 11.852379-19.3859406 12.111738-30.7480533.239662-8.5723535-1.82386-17.0521367-5.975572-24.5558668zm-100.7742889-33.8030646c2.5396182-.0373473 4.929847.9672957 6.7001103 2.778641 1.9805561 2.0978345 2.8250289 5.023578 2.2669826 7.8541426l13.7176728 14.3787205-.8328453.6647824c-2.1549407 1.7142423-4.1455532 3.5928127-5.9718374 5.6954672-13.573581 15.2810715-16.0538226 37.4536539-6.1921867 55.3562064l-6.5843335 6.4162709c-5.7510073-9.3837537-8.6329397-20.2442249-8.2911063-31.2447732.2838396-13.3143216 5.4713832-26.1767407 14.1845143-36.1932934l-7.5516293-7.8802858c-2.8673738.3946761-5.749305-.6160156-7.7421006-2.7151506-3.3911897-3.5950658-3.2409874-9.254357.3361259-12.6644782 1.4049254-1.3184796 3.1930083-2.1556216 5.1053794-2.3902288.2838397-.0298779.5714141-.0373474.8589885-.0597558zm115.4069719-11.48803973c5.717539.00094069 10.897989 3.36968827 13.217964 8.59539141 2.319975 5.22570312 1.34406 11.32759742-2.490056 15.56903712s-9.806843 5.8263878-15.239465 4.044009v.0186736l-.224084-.0784294-19.633489 18.6363156-.664783-.8851316c-1.045725-1.381851-2.210961-2.7637021-3.428484-4.0335112l-.224084-.2801049-.605027-.6087614-1.105481-1.1054809-.388412-.3323912-.384677-.3286564-.49672-.4444332-.388412-.3323912-.500454-.4406985c-8.3472498-7.0314652-18.8401438-11.0107563-29.75088-11.2826271-9.1276864-.224084-18.0312889 2.0466334-25.7696548 6.6926408l-6.3079634-6.5843336c9.6157072-6.1818547 20.8707047-9.3235711 32.2979674-9.0156444 12.9013307.3030425 25.3116808 5.006009 35.1737118 13.3292606h.112042l12.996869-12.3432912c-1.376805-4.3941594-.579132-9.1813122 2.148106-12.89162318 2.727237-3.71031098 7.058131-5.90039582 11.662935-5.89781875z" fill="#2e3234"/><path d="m77.0007569 32.2905025c1.6358129.0074694 3.2678911.1344503 4.888765.321187 23.3383441 2.9317651 39.8720051 24.2234755 36.9962611 47.5618194-2.931765 23.3420791-24.2234757 39.8757401-47.5618196 36.9999961-23.3383439-2.931765-39.8757398-24.2272106-36.9999957-47.5618198 2.7861105-21.6502448 20.9742582-37.2464881 42.6767892-37.3211827zm.2576966 18.2553728-.8963358.0224084c-9.4488735.7581508-16.2834341 7.9026942-16.5261917 17.4001192.1493893 6.5955377 2.9952555 11.2527492 8.3882094 14.8978482l1.2996869.7058645-3.2865647 15.4580582h22.038657l-3.2828299-15.4617929c6.0502668-3.114767 9.5123639-8.8326426 9.6841616-15.599978-.1269809-9.7999383-7.7084881-17.1797699-17.4187928-17.4225276z" fill="#047aed"/><path d="m294.403275 54.2059133c1.183911 0 1.613405.9672957 1.717977 2.1474712l1.934592 36.9365053c.108307 1.2884827.216614 1.8262842.858988 1.8262842h.858989l15.353486-38.8710967c.429494-1.1764408 1.505097-2.0354293 2.685272-2.0354293h17.717572c.963561 0 1.930856.7469465 1.930856 1.605935-.016521.263096-.088884.5195392-.209145.754416l-29.526795 63.778028c-5.262239 11.488038-11.383465 18.147066-28.242048 18.147066-4.294943 0-11.37973-.858989-14.17331-1.934591-1.071869-.429495-2.039164-.746947-2.039164-1.717977v-.317453l1.826284-10.419904c.21288-1.180175 1.501362-2.252043 2.789845-2.252043h.108307c3.973756.212879 10.416169.858988 14.494497.858988 3.00646 0 5.262239-.967296 6.550721-4.078328l1.505098-3.547996h-1.39679c-5.049359 0-7.839204-1.930857-8.485313-7.405975l-6.225799-51.109815v-.3249217c0-1.1801755.858989-2.039164 2.685273-2.039164zm-52.088315-.9672958c15.5701 0 22.871502 10.307862 22.871502 23.0881169 0 1.7842685-.165845 3.568537-.422477 5.3528055l-.115324.7646865-1.075603 6.4424137c-.182565 1.2819612-1.230864 2.2548976-2.506271 2.3557863l-.175267.0082994h-33.395979c-.21288 1.2884827-.321187 2.360351-.321187 3.3276467 0 5.3705455 3.435954 6.1212265 8.8065 6.1212265l.39567-.00066c5.650413-.018434 15.758224-.419724 19.938177-.8297148l.281876-.0286135h.429495c.91003 0 1.5369.3797673 1.603743 1.2399803l.005926.15681v.429494l-1.717977 9.661753c-.321187 1.717977-.858988 2.468658-2.685272 3.010195-7.193095 2.252043-14.494497 3.323912-23.513877 3.323912-11.917531 0-23.73088-7.405975-23.73088-22.6548882-.007446-1.6045674.101613-3.2072686.326442-4.7954129l.103442-.6797051 1.18391-7.0885224c3.540527-21.2580979 15.78298-29.2056089 33.713431-29.2056089zm-66.907734-19.5401208c1.288483 0 2.147471.5378015 1.826284 2.1474712l-7.730896 43.4872262 17.822143-23.1926893c1.288483-1.717977 2.042899-1.9345915 3.114767-1.9345915h19.969616c1.505097 0 1.613404 1.39679.754416 2.2557785l-24.481173 27.8088188 13.743816 30.0645974c.534067 1.075603 0 2.364086-1.39679 2.364086h-19.327241c-1.180175 0-2.039164-.646109-2.685272-2.364086l-9.340567-24.4811722-4.294942 24.4811722c-.216615 1.180175-1.39679 2.364086-2.576966 2.364086h-16.107901c-1.180176 0-2.252044-.646109-1.930857-2.364086l13.852123-78.4891401c.216615-1.1801755.750681-2.1474712 2.681538-2.1474712zm63.901274 35.5397152c-5.909248 0-8.500002 4.3573272-9.810562 10.314074l-.067805.314975h15.891287c.321187-1.5013625.537801-3.0064598.537801-4.2949425 0-3.757141-1.717977-6.3341065-6.550721-6.3341065z" fill="#047aed"/><path d="m385.164747 56.6745715c0-1.0718682-.646109-1.3930552-1.826285-1.717977-2.898152-.7469465-8.052083-1.717977-14.389924-1.717977-16.533661 0-27.16271 8.268698-30.598664 28.2420478l-1.39679 8.0520835c-.32969 2.0243901-.509446 4.0703618-.537802 6.1212267 0 12.5599055 7.301402 22.0087795 21.153526 22.0087795 6.334106 0 11.275157-.858989 15.032298-1.717977 1.505098-.321187 2.364086-.858989 2.576966-2.252044l2.147471-12.025839v-.429494c0-.971031-.750681-1.6134048-1.717977-1.6134048h-.21288c-3.760875.2166145-7.196829.6461088-12.455333.6461088-3.652568 0-5.80004-1.2884828-5.80004-6.1212267 0-1.2884828.108308-2.7898453.429495-4.6161295l1.39679-8.0520835c1.501362-8.9148066 4.616129-10.8456634 9.232259-10.8456634 5.262238 0 8.485312.5378015 12.134146.7506813h.216614c1.180176 0 2.252044-.8589885 2.464924-2.039164l2.151206-12.1341462zm67.012306-21.1497906c0-1.075603-.963561-1.830019-2.039164-1.830019h-15.999594c-1.180175 0-2.252044.9710305-2.464923 2.151206l-3.223075 18.1470656c-2.147471-.3249217-5.800039-.754416-7.518016-.754416-19.540121 0-29.313916 8.1603907-32.854443 28.0254334l-1.505097 8.3770051c-.328191 1.8073314-.508057 3.6384713-.537802 5.475118 0 13.206014 9.127687 22.546581 23.838798 22.546581 9.661754 0 18.78944-1.501363 24.58948-2.681538 3.435954-.754416 3.970021-1.39679 4.294942-3.435954l13.422629-75.7030298zm-26.733215 35.2185283-5.153931 29.4184888c-2.042899.321187-4.294943.537801-7.40971.537801-4.616129 0-6.225799-2.6852725-6.225799-6.8719077 0-1.2884828.104572-2.6852728.42576-4.1866353l1.505097-8.3770051c1.071868-6.2257993 3.648833-10.950236 9.661753-10.950236 2.576965 0 5.049358.2128798 7.19683.4294943zm86.556162.7469465c0-12.0258389-4.941051-18.2516382-16.858583-18.2516382-3.970021 0-9.878368.9710305-17.39265 5.908347l.537802-2.79358c.321187-1.6096697-.429494-2.1474712-1.830019-2.1474712h-14.707377c-1.180175 0-2.255778.9672957-2.468658 2.1474712l-10.307862 57.9817235c-.216615 1.505097.967296 2.364086 2.468658 2.364086h15.353486c1.613404 0 2.685273-1.075603 2.901887-2.364086l7.301402-41.5526348c1.930857-1.075603 5.900878-2.3640858 9.123952-2.3640858 3.652568 0 5.049358.8589885 5.049358 4.19037 0 1.8225495-.429494 3.6488337-.754416 5.475118l-6.012919 34.2512326c-.21288 1.075603 0 2.364086 1.826284 2.364086h16.107902c1.288483 0 2.464923-1.183911 2.681538-2.364086l5.908347-33.5005514c.534067-3.0064597 1.071868-6.5507209 1.071868-9.3405662z" fill="#2e3234"/></svg>