<svg height="55" preserveAspectRatio="xMidYMid" viewBox="0 0 512 55" width="512" xmlns="http://www.w3.org/2000/svg"><path d="m48.0837333 41.464c0 6.5562667-5.4725333 12.0496-12.2901333 11.9610667-3.768 0-7.6256-1.7717334-9.9578667-5.1386667l-2.512-3.544c-1.1658666 5.1386667-5.6512 8.6826667-11.3925333 8.6826667-6.6384 0-11.9312-5.3157334-11.9312-11.8725334v-29.68c0-6.55679997 5.2032-11.8725333 11.9312-11.8725333 5.8309333 0 10.4058667 3.8096 11.4826667 9.03733333l2.8704-3.89866666c2.3328-3.18933334 6.1002666-5.05013334 9.8682666-5.05013334 6.4586667 0 11.9312 5.05013334 11.9312 11.60639997 0 2.4805334-.7178666 4.9616-2.2426666 6.9994667l-5.7413334 7.8853333 5.7413334 7.8853334c1.5248 2.1258666 2.2426666 4.5184 2.2426666 6.9989333zm16.5173334-41.464c7.1978666 0 12.9557333 5.85706667 12.8656 12.7797333v27.8666667c0 6.9221333-5.6677334 12.7797333-12.9557334 12.7797333-7.1077333 0-12.8656-5.7690666-12.8656-12.7797333v-27.8666667c0-6.92266663 5.7578667-12.7797333 12.9557334-12.7797333zm62.7312003 38.7429333c0 8.5797334-7.170667 14.6832-18.6784 14.6832-15.402667 0-26.733867-11.4106666-26.733867-26.7130666s11.3312-26.7130667 26.733867-26.7130667c11.507733 0 18.6784 6.10346667 18.6784 14.6832 0 5.7493333-2.832534 9.6416-8.498134 12.0298667 5.6656 2.3882666 8.498134 6.3685333 8.498134 12.0298666zm52.535466 2.7210667c0 6.5562667-5.482133 12.0496-12.222933 11.9610667-3.774933 0-7.639467-1.7717334-9.976533-5.1386667l-2.516267-3.544c-1.168533 5.1386667-5.6624 8.6826667-11.4144 8.6826667-6.650667 0-11.953067-5.3157334-11.953067-11.8725334v-29.68c0-6.55679997 5.2128-11.8725333 11.953067-11.8725333 5.842133 0 10.426133 3.8096 11.504533 9.03733333l2.786134-3.89866666c2.336533-3.18933334 6.111466-5.05013334 9.885866-5.05013334 6.471467 0 11.9536 5.05013334 11.9536 11.60639997 0 2.4805334-.718933 4.9616-2.246933 6.9994667l-5.752 7.8853333 5.752 7.8853334c1.528 2.1258666 2.246933 4.5184 2.246933 6.9989333zm45.412267-4.4784c0 10.6304-8.209067 17.3312-22.039467 17.3312-14.098133 0-20.701333-4.8245333-20.701333-12.6858667 0-5.4496 4.1936-8.9333333 10.171733-8.9333333h.0896l-3.212266-2.9488c-4.015467-3.6629333-6.781334-7.3253333-6.781334-12.6858667 0-10.45226663 7.6736-17.0629333 20.7904-17.0629333 13.384534 0 19.719467 4.73493333 19.719467 12.6858667 0 4.7344-3.212267 7.9509333-8.0304 8.6656l3.301333 2.9477333c4.015467 3.5738667 6.692267 7.3258667 6.692267 12.6864zm36.3088 5.3104c0 6.5888-5.620267 12.0208-12.845867 12.0208-6.958933 0-12.5792-5.432-12.5792-12.0208v-18.4325333c-5.977066-.3562667-10.883733-5.2533334-10.883733-11.4864 0-6.5002667 5.1744-11.48640003 11.508267-11.48640003h24.176533c6.3344 0 11.508267 5.0752 11.508267 11.48640003 0 6.2330666-4.906667 11.2197333-10.884267 11.4864zm31.292267 1.8426667c-3.037334 6.28-7.325867 9.2874666-12.508267 9.2874666-9.381867 0-16.172267-8.5797333-11.9728-18.2213333l10.989867-25.4752c2.770133-6.28 6.7904-9.7296 13.5808-9.7296 6.88 0 10.9008 3.4496 13.581333 9.7296l10.989867 25.4752c4.109866 9.6416-2.591467 18.2213333-12.0624 18.2213333-5.270934 0-9.56-3.0074666-12.5984-9.2874666zm29.456533-29.9808c0-8.72640003 4.666133-13.26720003 13.0112-13.26720003h15.524267c9.421866 0 16.780266 7.1232 16.780266 16.29493333 0 4.9861333-2.064533 9.0821333-5.474133 11.6645333l4.666133 7.3904c1.256 1.9589334 1.794667 4.0965334 1.794667 6.3221334 0 6.5893333-5.2048 11.7541333-11.7552 11.7541333-4.037867 0-7.986133-2.048-10.229333-5.7882667l-1.256534-2.2261333c-1.525333 4.7194667-5.742933 8.0144-11.126933 8.0144-6.5504 0-11.9344-5.5210667-11.9344-12.1989333zm83.522667 28.1381333c0 6.5888-5.520534 12.0208-12.911467 12.0208-6.945067 0-12.5552-5.432-12.5552-12.0208v-18.4325333c-5.965867-.3562667-10.863467-5.2533334-10.863467-11.4864 0-6.5002667 5.1648-11.48640003 11.486934-11.48640003h24.219733c6.322133 0 11.4864 5.0752 11.4864 11.48640003 0 6.2330666-4.897067 11.2197333-10.862933 11.4864zm56.2752 1.7829333c0 5.7472-4.600534 10.3264-10.174934 10.2362667h-18.580266c-8.4944 0-13.094934-4.4890667-13.094934-13.2885333v-26.8474667c0-8.70933333 4.600534-13.28853333 13.094934-13.28853333h18.580266c5.5744 0 10.174934 4.5792 10.174934 10.32586663 0 5.2074667-3.185067 8.9786667-7.786134 9.8768 2.123734 1.3466667 3.274134 3.5914667 3.274134 6.5541334 0 2.9632-1.238934 5.208-3.274134 6.5552 4.512534.8976 7.786134 4.7589333 7.786134 9.8762666zm3.562133-29.9210666c0-8.72640003 4.576533-13.26720003 13.0112-13.26720003h15.524267c9.421866 0 16.779733 7.1232 16.779733 16.29493333 0 4.9861333-2.064 9.0821333-5.4736 11.6645333l4.666133 7.3904c1.256 1.9589334 1.794667 4.0965334 1.794667 6.3221334 0 6.5893333-5.2048 11.7541333-11.7552 11.7541333-4.037867 0-7.986667-2.048-10.229867-5.7882667l-1.256-2.2261333c-1.525333 4.7194667-5.742933 8.0144-11.126933 8.0144-6.550933 0-11.9344-5.5210667-11.9344-12.1989333z" fill="#05ce78"/></svg>