<svg preserveAspectRatio="xMidYMid" viewBox="0 0 256 264" xmlns="http://www.w3.org/2000/svg"><path d="m255.9 59.6.1 1.1v56.6c0 1.4-.8 2.8-2 3.5l-47.6 27.4v54.2c0 1.4-.7 2.8-2 3.5l-99.1 57-.7.4-.3.1c-.7.2-1.4.2-2.1 0l-.4-.1-.6-.3-99.2-57c-1.3-.8-2.1-2.2-2.1-3.6v-169.7l.1-1.1.2-.4.3-.6.2-.4.4-.5.4-.3c.2 0 .3-.2.5-.3l49.6-28.5c1.3-.8 2.9-.8 4.1 0l49.6 28.4c.2 0 .3.2.4.3l.5.3c0 .2.2.4.3.5l.3.4.3.6.1.4.2 1v106l41.2-23.7v-54.1c0-.4 0-.7.2-1l.1-.4.3-.7.3-.3.3-.5.5-.3.4-.4 49.6-28.5c1.2-.7 2.8-.7 4 0l49.7 28.4.5.4.4.3.4.5.2.3c.2.2.2.5.3.7l.2.3zm-8.2 55.3v-47l-17.3 10-24 13.7v47zm-49.5 85v-47l-23.6 13.5-67.2 38.4v47.5l90.8-52.3zm-190-160v160.1l90.9 52.3v-47.5l-47.5-26.9-.4-.4c-.2 0-.3-.1-.4-.3l-.4-.4-.3-.4-.2-.5-.2-.5v-.6l-.2-.5v-110.7l-23.9-13.8-17.3-10zm45.5-31-41.3 23.9 41.3 23.7 41.2-23.7zm21.3 148.4 24-13.8v-103.7l-17.3 10-24 13.8v103.6l17.3-10zm127.3-120.4-41.3 23.8 41.3 23.8 41.3-23.8zm-4.1 54.7-24-13.8-17.3-10v47l24 13.9 17.3 10v-47zm-95 106 60.6-34.5 30.2-17.3-41.2-23.8-47.5 27.4-43.3 24.9z" fill="#ff2d20"/></svg>