<svg height="251" preserveAspectRatio="xMidYMid" viewBox="0 0 256 251" width="256" xmlns="http://www.w3.org/2000/svg"><path d="m76.0197455 64.2869435c10.7687668 8.736315 23.5700558 14.6105513 37.2157055 17.0774875v-72.80829677l14.828314-8.55613423 14.81672 8.55613423v72.80829677c13.648367-2.4694152 26.452819-8.3432731 37.2273-17.0774875l26.92052 15.5703093c-43.782304 43.3161212-114.2743059 43.3161212-158.0566099 0zm32.7173585 185.9278115c15.613384-59.591922-19.6652805-120.644386-79.0920698-136.874961v31.152213c12.9539098 4.956795 24.4467092 13.103842 33.4129795 23.685883l-63.0580137 36.404149v17.123862l14.8283139 8.50976 63.04642-36.404149c4.6861504 13.053292 5.9981953 27.079012 3.81432 40.774965zm117.67583-136.874961c-59.394512 16.266505-94.634051 77.304944-79.022508 136.874961l26.978488-15.581903c-2.178828-13.696117-.866901-27.720577 3.81432-40.774965l63.000046 36.357774 14.81672-8.556135v-17.077487l-63.058014-36.404149c8.968657-10.579439 20.460735-18.725975 33.41298-23.685883z" fill="#231f20"/></svg>