<svg height="110" preserveAspectRatio="xMidYMid" viewBox="0 0 512 110" width="512" xmlns="http://www.w3.org/2000/svg"><g fill="#231f20"><path d="m33.3666352 28.2168663c4.726634 3.8345489 10.3453839 6.4128725 16.3347413 7.4956617v-31.9570641l6.508453-3.7554639 6.5033644 3.7554639v31.9570641c5.9905499-1.0838773 11.6106881-3.6620348 16.33983-7.4956617l11.8159718 6.8341301c-19.2169568 19.0123394-50.1573512 19.0123394-69.374308 0zm14.360324 81.6075537c6.8530362-26.1561244-8.6314976-52.9533108-34.7151419-60.0772451v13.6733489c5.6857384 2.1756398 10.7301652 5.7515468 14.6656463 10.3962232l-27.6774636 15.978532v7.5160165l6.50845301 3.7351095 27.67237489-15.9785324c2.0568481 5.7293593 2.6327317 11.8855371 1.6741838 17.8969734zm51.6503503-60.0772451c-26.069477 7.1397046-41.5368379 33.930735-34.6846096 60.0772451l11.8414153-6.839219c-.9563329-6.0115081-.380501-12.167133 1.6741838-17.8969736l27.65202 15.9581776 6.503364-3.7554643v-7.4956617l-27.6774633-15.978532c3.9365285-4.6435343 8.9806388-8.219217 14.6656463-10.3962232z"/><path d="m315.229976 45.7728967v-10.7219003h6.416856v54.7442826h-6.416856v-10.6862793c-4.845845 7.4504882-13.167291 11.9030569-22.054446 11.8007056-15.57443-.208229-28.090676-12.8929344-28.090676-28.4687571 0-15.5758228 12.516246-28.2605282 28.090676-28.4687572 8.887155-.1023512 17.208601 4.3502175 22.054446 11.8007057zm-22.054446-5.4042042c-12.180333 0-22.054445 9.8741115-22.054445 22.0544452s9.874112 22.0544746 22.054445 22.0544746c5.851273.0067327 11.464838-2.3146824 15.602315-6.4521599 4.137478-4.1374776 6.458893-9.7510418 6.45216-15.6023147 0-12.1803337-9.874141-22.0544452-22.054475-22.0544452zm97.290941-24.0085076-6.411767 3.6791333v15.0116782h-32.613507v-18.6908115l-6.411768 3.6791333v15.0116782h-8.604999v6.1776872h8.604999v36.0534711c-.034087 3.3157737 1.262795 6.5067561 3.60034 8.8586484 2.337546 2.3518922 5.520534 3.6682746 8.836454 3.6546891h9.541321v-6.4119808h-9.541321c-3.316776-.0439984-5.981513-2.7246102-6.024919-6.0226472l-.000107-36.1321806h32.613507v36.0534711c-.039426 3.3032787 1.244545 6.4849944 3.565617 8.8357019 2.321073 2.3507075 5.486244 3.6749388 8.789757 3.6776356h9.62274v-6.4119808h-9.62274c-3.285274-.0874009-5.902115-2.7561138-5.943558-6.0240704l-.000049-36.1307574h15.566347v-6.1776872h-15.566347zm-145.776117 40.979337v32.4557571h6.411768v-32.4557571c0-13.6377279-10.467465-23.4080405-23.408041-23.4080405-8.370918 0-15.993798 4.2999553-20.217422 13.0627044-4.299956-8.6813299-11.846504-13.0627044-20.136004-13.0627044-12.915132 0-23.408041 9.744869-23.408041 23.4080405v32.4557571h6.416857v-32.4557571c0-10.0959896 7.597436-16.9708294 16.970829-16.9708294 9.373394 0 17.026805 6.8748398 17.026805 16.9708294v32.4557571h6.411768v-32.4557571c0-10.0959896 7.597436-16.9708294 16.970829-16.9708294 9.373394 0 16.960652 6.8748398 16.960652 16.9708294zm264.887423-16.9708294h2.422223v-6.4117676h-2.422223c-12.915132 0-23.408041 9.7448691-23.408041 23.4080406v32.4557571h6.416856v-32.4812007c.020152-9.9950297 7.4666-16.8330104 16.710521-16.9687706zm-65.38222-6.0616746c15.420065 0 28.006545 12.2671722 28.458777 27.6243703l.00998.4917495c0 .6259107-.081419 1.3332406-.081419 1.9591512h-50.744561c1.017741 11.2765691 10.889828 20.095294 23.68792 20.095294 7.897669 0 14.151687-3.358545 18.22265-8.52358l5.628107 3.2058838c-5.241365 7.1241863-13.607195 11.7345525-23.850757 11.7345525-17.052249 0-29.799454-12.7472047-29.799454-28.496745.208229-15.5744308 12.892935-28.0906763 28.468757-28.0906763zm-.002544 6.0616746c-10.686279 0-19.988431 7.6585003-22.023913 17.8359092h44.047826c-2.035482-10.1774089-11.337634-17.8359092-22.023913-17.8359092z"/></g></svg>