<svg height="349" preserveAspectRatio="xMidYMid" viewBox="0 0 512 349" width="512" xmlns="http://www.w3.org/2000/svg"><path d="m152.309482 230.297132 15.560488 50.487113c3.495602 11.46279 4.953626 19.464959 4.370416 24.026061 8.510475-22.792067 14.455924-47.630505 17.83848-74.513174h18.709943c-8.044578 43.765682-18.655705 75.570272-31.826678 95.410714-10.262237 15.287895-21.504413 22.93169-33.746334 22.93169-3.263415 0-7.287685-.985606-12.063058-2.943987v-10.550202c2.33284.342487 5.07033.525188 8.218566.525188 5.711129 0 10.313733-1.582592 13.815429-4.741359 4.193382-3.848936 6.291901-8.175093 6.291901-12.969307 0-3.274559-1.636887-9.993851-4.895732-20.158182l-21.680534-67.504555zm-119.0854164-31.031625 28.5007977 86.956987h.1748929l28.6756996-86.956987h23.4280302c5.130052 43.124091 8.159453 82.581946 9.090029 118.34607h-19.752325c-.694733-33.433009-2.620483-64.870975-5.7681096-94.320009h-.1740001l-30.0779627 94.320009h-15.0412666l-29.8957477-94.320009h-.1761209c-2.2182691 28.281949-3.6138286 59.719915-4.1958195 94.320009h-18.0121629c1.1639819-42.079214 4.07698373-81.524848 8.73900548-118.34607z" fill="#00758f"/><path d="m352.497915 197.509381c30.656601 0 45.986426 19.586861 45.986426 58.739197 0 21.276384-4.610222 37.34702-13.821523 48.204881-1.660655 1.983739-3.494963 3.697398-5.426837 5.285795l21.69516 10.726793-.02133-.001222-7.703001 13.302017-28.252461-16.48492c-4.683351 1.386753-9.835952 2.079977-15.451707 2.079977-15.052541 0-26.296241-4.387261-33.731099-13.149563-8.160061-9.694137-12.237045-24.955146-12.237045-45.75767 0-21.155704 4.60108-37.165848 13.815429-48.036846 8.391639-9.943746 20.110682-14.908439 35.147988-14.908439zm-93.880321.172924c10.957275 0 20.921204 2.932071 29.894834 8.775133l-4.558421 10.156388c-7.678625-3.264171-15.250601-4.902673-22.71593-4.902673-6.057581 0-10.725697 1.458245-13.979971 4.391845-3.272557 2.908241-5.295813 6.650856-5.295813 11.212263 0 7.008925 4.994153 13.08846 14.214596 18.224855 2.480535 1.348719 5.711382 3.147248 9.031265 5.011267l.687925.386468c.114794.064525.229639.129096.344509.193698l.689297.387853c.11486.064661.22969.129322.344463.193966l.687739.387536c6.980677 3.935354 13.548167 7.691395 13.548167 7.691395 9.220443 6.544841 13.815429 13.522603 13.815429 25.015639 0 10.036625-3.677817 18.276182-11.009075 24.722951-7.337352 6.418356-17.194633 9.636088-29.538326 9.636088-11.54536 0-22.734212-3.703508-33.572651-11.050032l5.07033-10.165859c9.327091 4.674755 17.767483 7.00923 25.345553 7.00923 7.108822 0 12.672777-1.586257 16.697961-4.720277 4.016042-3.156629 6.42323-7.559166 6.42323-13.143148 0-7.026951-4.887505-13.033466-13.855041-18.0724-2.32844-1.281178-5.31079-2.954321-8.395042-4.697606l-.686842-.38842c-1.261463-.713742-2.533054-1.435169-3.777444-2.142519l-.675836-.3843c-6.054207-3.443784-11.28934-6.452972-11.28934-6.452972-8.964489-6.556756-13.458922-13.591956-13.458922-25.183675 0-9.586899 3.35178-17.335792 10.0462-23.231404 6.709655-5.907527 15.366389-8.86129 25.967156-8.86129zm175.895339 1.583202v103.788061h37.238279v14.558009h-56.124038v-118.34607zm57.930952 103.833584v2.459433h-4.095266v12.040832h-3.129344v-12.040832h-4.253714v-2.459433zm7.559819 0 3.930724 9.883864 3.610782-9.883864h4.436538v14.500265h-2.949597v-11.035673l-4.110502 11.035673h-2.126826l-4.116596-11.035673h-.158478v11.035673h-2.791089v-14.500265zm-149.434587-91.035368c-18.066096 0-27.103714 14.909662-27.103714 44.709737 0 17.069686 2.394999 29.449034 7.175857 37.163404 4.427397 7.140604 11.362535 10.702962 20.805414 10.702962 18.066096 0 27.103715-15.025453 27.103715-45.06414 0-16.831074-2.394999-29.103185-7.169763-36.821221-4.433491-7.124717-11.365582-10.690742-20.811509-10.690742z" fill="#f29111"/><path d="m303.217602 7.33321895c5.993593-14.72604444 26.948314-3.57457925 35.080952 1.57037072 1.992786 1.28623753 4.278091 4.00536183 6.563396 5.01052133 3.565075.140539 7.127103.4185619 10.698273.5682665 6.697467 1.5734259 12.97139 2.8596634 18.24892 5.8659762 24.528938 14.4449664 40.495601 29.1649004 55.191634 53.4781497 3.138486 5.1510604 4.707759 10.7237378 7.273364 16.2964152 3.558981 8.3070777 7.559788 17.0266074 11.691619 24.8824324 1.849573 3.723673 3.281667 7.864991 5.85038 11.009704 1.002487 1.438081 3.851531 1.861531 5.554814 2.720957 4.707728 2.436825 10.411849 4.286746 14.839246 7.147326 8.269756 5.155643 16.265276 11.299642 23.532545 17.589068 2.708848 2.428576 4.555374 5.865702 7.136245 8.433869v1.296014c-2.291399.703001-4.573656 1.422805-6.858961 1.999015-4.991106 1.283182-9.412409.992938-14.254208 2.276121-2.992226.86737-6.706608 2.013065-9.845093 2.303312.140166.140844.289472.292373.289472.292373 1.846526 5.274796 11.834832 9.565207 16.402394 12.719392 5.54872 4.004139 10.689133 8.86129 14.827058 14.437023 1.429077 1.423721 2.858154 2.718818 4.281137 4.137651.993346 1.438081 1.273646 3.297473 2.279211 4.580656v.432921c-1.113874-.393102-1.914578-1.142455-2.674319-1.926928l-.453106-.472329c-.452547-.471405-.909947-.932332-1.430996-1.313417-3.147627-2.150553-6.273924-4.722416-9.42155-6.721431-5.411602-3.433429-11.688572-5.426639-17.246434-8.873206-3.141532-2.001459-6.136835-4.28094-9.132077-6.569893-2.714943-2.007264-5.704121-5.862005-7.410482-8.721668-1.005504-1.579842-1.142652-3.437095-2.291399-4.579128.205554-1.909448 1.954845-2.477121 3.71902-2.943252l.406686-.106331c.608337-.158485 1.204366-.316235 1.724674-.52469 7.413529-3.14838 16.253088-4.290397 27.667423-4.00414-.429698-2.866373-7.562926-6.43698-9.839059-8.153084-4.57061-3.294112-9.409362-6.731208-14.257255-9.728966-2.568683-1.570676-6.996049-2.716375-9.842046-3.999251-3.8515-1.574037-12.410729-3.147158-14.54368-6.144916-3.625079-4.725941-6.229133-10.362955-8.757366-16.057583l-.688349-1.553867c-.229296-.518005-.458676-1.035844-.68885-1.552877-2.989178-6.856777-6.700513-14.0059352-9.695786-21.0267755-1.566196-3.4248747-2.285305-6.4311875-4.000807-9.7155231-10.405754-20.1581828-25.808709-37.0350852-44.484219-48.9045214-6.136805-3.8617677-12.980531-7.436347-20.534225-9.8652277-4.281138-1.2923479-9.418503-.5774321-13.979972-1.5703708h-3.001336c-2.562588-.7210262-4.701664-3.4371259-6.700514-4.8699823-4.415208-2.9971472-8.836511-5.0105213-14.117089-7.14915849-1.849573-.85851006-7.133168-2.85657765-8.976677-1.28318229-1.142653.28718841-1.721596.71800159-2.001897 1.86370007-1.136588 1.71090971-.137149 4.28643991.569803 5.86292101 2.142092 4.5705731 5.134318 7.2866423 7.84926 11.14841 2.416329 3.4248746 5.417696 7.2866423 7.130151 11.0109262 3.6961 8.0046133 5.417696 16.8738472 8.842606 24.8784605 1.270629 3.009368 3.27862 6.4342427 5.128224 9.1503119 1.566195 2.1539131 4.415239 3.7120936 5.27753 6.440353 1.71855 2.8596634-2.571729 12.2971331-3.565075 15.2943109-3.714413 11.726759-2.995303 28.027145 1.282787 38.193004.076245.177365.1522.356165.228142.536025l.228061.542377c1.561894 3.722783 3.233735 7.731779 7.386963 8.773383.286425-.28413 0-.134746.566756-.28413 1.005564-7.868351 1.288912-15.445237 4.000807-21.601152 1.566195-3.848936 4.69557-6.569893 6.840679-9.712162 1.429077.85576 1.429077 3.437065 2.282288 5.14495 1.855667 4.430034 3.848484 9.287184 6.136805 13.730356 4.69554 9.150312 9.979164 18.021073 15.966663 26.025381 2.004974 2.858136 4.85091 6.005324 7.416575 8.580823 1.142683.996544 2.422424 1.572815 3.281698 2.855936h.280331v.432005c-4.278091-1.577703-6.989986-6.003154-10.402707-8.586934-6.42323-4.85715-14.11709-12.15143-18.544487-19.150884-1.85262-4.017277-3.854578-7.868352-5.85038-11.866381v-.288997c-.853211 1.142398-.566786 2.276059-.993346 4.004139-1.85262 7.145187-.42659 15.296205-6.843726 17.865564-7.273363 3.009979-12.700201-4.85715-14.976364-8.431424-7.276411-11.866381-9.269196-31.884025-4.137925-48.0429563 1.139605-3.5776344 1.295006-7.8671295 3.284744-10.7237377-.429637-2.5816406-2.419406-3.2874214-3.571169-4.8699824-1.995833-2.7038484-3.705241-5.8537859-5.268389-8.857013-3.001367-5.8659762-5.137366-12.8745957-7.416576-19.1652441-1.002487-2.5694198-1.288882-5.1480052-2.288352-7.5799412-1.703314-3.712063-4.844877-7.4363469-7.267269-10.7206825-3.281698-4.7202778-12.837319-13.8675344-8.985819-23.16755085zm46.772541 28.01485445c.380884.3818995.840992.7159376 1.316787 1.0444312l.574417.3942391c.765085.5293256 1.505267 1.0877893 1.960296 1.8487205.719079 1.0051595.853181 1.9980982 1.715502 3.0063434 0 3.4370954-.996423 5.7224125-3.007461 7.1461033 0 0-.137118.1497657-.277253.2902742-1.139636-2.291397-2.139045-4.5705121-3.287792-6.8589149-1.413842-1.9980982-3.412752-3.5837449-4.564515-5.8659762h-.277284v-.2871579c1.721597-.4247028 3.427988-.7180627 5.847333-.7180627z" fill="#00758f"/></svg>