<svg height="291" preserveAspectRatio="xMidYMid" viewBox="0 0 256 291" width="256" xmlns="http://www.w3.org/2000/svg"><path d="m2.05386819 218.186819c1.32034384 2.347278 3.22750717 4.107737 5.57478511 5.428081l112.9627507 65.136962c4.694556 2.787393 10.416046 2.787393 14.963897 0l112.962751-65.136962c4.694555-2.640688 7.481948-7.628654 7.481948-13.056734v-130.2739253c0-5.4280802-2.787393-10.4160459-7.481948-13.0567335l-112.962751-65.13696279c-4.694556-2.78739255-10.416046-2.78739255-14.963897 0l-112.9627507 65.13696279c-4.84126075 2.6406876-7.6286533 7.6286533-7.6286533 13.0567335v130.4206303c0 2.640688.58681948 5.134671 2.05386819 7.481948" fill="#009639"/><path d="m91.8372493 195.154155c0 8.068768-6.4550143 14.523782-14.5237823 14.523782-8.0687679 0-14.5237822-6.455014-14.5237822-14.523782v-99.6126077c0-7.7753582 6.895129-14.0836676 16.4309456-14.0836676 6.8951289 0 14.9638968 2.7873925 19.8051576 8.8022922l4.401146 5.2813754 60.735817 72.6189107v-72.325501c0-8.0687679 6.455014-14.5237822 14.523782-14.5237822s14.523782 6.4550143 14.523782 14.5237822v99.612607c0 7.775359-6.895129 14.083668-16.430945 14.083668-6.895129 0-14.963897-2.787392-19.805158-8.802292l-65.1369627-77.753582z" fill="#fff"/></svg>