<svg height="139" preserveAspectRatio="xMidYMid" viewBox="0 0 512 139" width="512" xmlns="http://www.w3.org/2000/svg"><path d="m36.662551 79.7745825h-.139957-36.46809745c.00619278.1783523.01114702.3579432.02105548.5362955.01486269.3443191.03963385.6873996.06068933 1.0317187.00990847.1473884.01610126.2947768.02724828.4409266.02848683.3988156.06316645.7951542.09908462 1.1914927.00866991.0904147.01610126.1795909.02477116.2662899.04211097.4409266.09041473.8818532.14243416 1.3190641.00247711.0433495.00743134.0854605.01362413.1275715.05697366.4731291.117663.9462582.18702224 1.4169102 0 .0049542.00123856.0123855.00371567.0173398.41987111 2.9180423 1.05029706 5.8088363 1.89127784 8.650088.00371568.0123856.00866991.0235326.01114703.0359182.13128713.4471194.27000561.8917617.41243976 1.3339268.00866991.0260097.01733981.0520194.02477116.0780292.00743135.0260097.01610125.0520194.02477116.0780291.13004857.4000542.26628993.7988698.4025313 1.198924.03591818.1003232.06935924.2018849.10651597.3022081.12261723.3455577.24771157.6911153.37652159 1.0366729.05945078.1560583.11890155.3108781.17711377.4681749.11147021.2861069.22170186.5697366.33441062.8558433.0854605.214271.17463666.428541.26381283.642812.09165328.22294.18578368.444642.27991407.668821.11642444.272483.23780311.543727.35794322.814971.07183636.162251.14491127.323264.21674763.484276.14862694.325741.30220811.651482.45578929.974745.05078087.104039.09908463.208078.15110406.312117.17959088.372806.36289745.741896.54868112 1.108509.03096395.056974.05821222.112709.08669905.169682.20931628.406247.42234823.812494.64157297 1.215026.00990847.01734.01981693.034679.02848683.054496.04582664.084222.09660752.164728.14243416.247712l31.26491595-18.8347495.1151858-.0693592c-1.2336036-2.5997329-2.0015095-5.3641941-2.2863778-8.1744818z" fill="#93d500"/><path d="m45.6594353 96.580574-.0879376.0879376-25.785536 25.7867744c.1325257.123856.2638128.24895.4000542.36909.2402802.217987.4855147.434734.7295106.647766.1263329.112709.2501887.224179.3765216.333172.2922996.252666.5870764.499139.8806146.745612.0805063.066882.1585354.132526.2378031.198169.330695.273722.6675827.542489 1.005709.810017.0433495.033441.086699.068121.1300486.1028.3653745.287346.7344648.56726 1.1072707.849651.0161012.009909.0297254.019817.042111.030964 1.5531515 1.160529 3.1632767 2.247983 4.8241828 3.261123.0569737.035918.1139473.069359.1721595.105277.3158323.1895.6316645.376522.9499739.561067.1944536.11147.3889072.221702.5833608.331934.1833065.106515.3666131.208077.5523968.310878.3344106.183306.6712983.365374 1.0081861.543726.0458266.024772.0928918.049543.139957.074314.9375883.490469 1.8912778.946258 2.8523987 1.384708l.9152943-2.221973 12.9689393-31.4952879.0483037-.1164244c-1.4169101-.7579974-2.7743696-1.6559519-4.0513227-2.7012947z" fill="#4d5a31"/><path d="m42.9742419 94.011805c-.2786756-.3096395-.5437269-.6267103-.8038241-.9474968-.2303717-.2848683-.4533122-.5722137-.6688212-.8632748-.246473-.3344106-.4879918-.6700598-.7158865-1.0131403-.2303717-.3443191-.4557893-.6911153-.6688212-1.0441043l-31.30454977 18.8582822c.48056045.79887.98217638 1.576684 1.49370077 2.345828.0173398.02601.0334411.054497.0507809.080507.0061928.009908.0123856.018578.0185783.028486.0173399.024772.0322025.05202.0495424.07803.0012385.002477.0037156.004954.0049542.007431.0408724.061928.0829834.121379.1250943.183306.0024771.003716.0049543.007432.0074314.011147.0012385.001239.0024771.003716.0037157.004955.5437269.803824 1.1023164 1.595262 1.6782458 2.365645.0123856.016101.0260098.033441.0383953.049543.0123856.016101.0247712.032202.0371568.048303.2501887.331934.5016159.662629.7604745.990847.0334411.043349.0668821.08546.1028003.127571.2650514.339365.535057.673775.8100168 1.005709.064405.078029.1312872.157297.1956922.236565.2477115.296015.4954231.590792.7480889.883091.1077546.125095.2204633.250189.3294564.374045.2155091.245234.428541.48923.6490043.730749.1201401.132526.2452345.26629.3678517.398816.0557351.060689.1102317.12014.1672053.180829.1610125.173398.3207865.346796.4830376.518956.064405.06812.1325257.135003.1981692.203123.2848683.297254.5722138.594508.865752.886808l25.8239312-25.8239316c-.2960153-.2960154-.5734522-.6007006-.8471735-.9066244z" fill="#6ba43a"/><path d="m77.2042653 96.5669499c-.2836298.2291332-.5709752.4533121-.8632748.6688212l.064405.1077545 18.8285565 31.2550074c.8719447-.569737 1.733981-1.156813 2.5762003-1.773615 1.8219186-1.343835 3.5856247-2.800379 5.2849267-4.368393l-25.7880134-25.7880134z" fill="#4d5a31"/><path d="m92.4979777 128.854915-.6390959-1.060206-17.5751359-29.1742302c-.3554661.2142705-.7196021.4074855-1.0824996.6031777-.3666131.1969307-.7357034.3814758-1.1097478.5585895-3.3763087 1.601455-7.031293 2.418904-10.6912314 2.418904-2.397848 0-4.7944575-.346797-7.1117992-1.037912-.3951-.117663-.7802915-.272483-1.1704372-.411201-.3901457-.13748-.7852457-.256382-1.1691986-.414917l-12.9602694 31.474232-.5078087 1.233604-.4347338 1.05649-.0024772.004954c.0334411.013624.0681207.024771.1015618.038395.0359182.014863.0705978.02601.106516.040873h.0012385c.0012386 0 .0024771.001238.0024771.001238.0086699.003716.0173399.006193.0247712.009909.3059238.125094.6143247.232848.921487.352989.3851915.149865.770383.302208 1.1568131.443403.1969307.071837.3926228.156059.5895535.225418h.0012386c4.0599926 1.43425 8.2611809 2.437482 12.5329669 2.999787.1672053.019817.3331721.043349.5003774.066882.1746366.019817.3505118.037157.5251485.056974.3294564.037156.6576742.075552.9883692.107754.0817448.006193.1634896.013624.2452344.021056.4050084.038395.8100169.073075 1.2125482.101561.1374799.009909.2761984.016102.4124397.02601.3554661.023533.7084551.045827 1.0626827.061928.2167476.012386.4334952.018578.6514814.02601.2811526.009908.5610667.021055.8446965.029725.4050084.009909.8137325.013624 1.221218.014863.0966075 0 .1919765.002477.2873454.003716 3.4122269 0 6.8232152-.28363 10.1970468-.849651.0569737-.00867.1127088-.018578.170921-.02601.3567047-.061928.7134093-.12881 1.070114-.194453.2031235-.039634.4074855-.07803.6081319-.117663.2080777-.04335.417394-.086699.6254717-.131288.3480348-.073074.694831-.148626 1.0428657-.229133.0619279-.013624.1250944-.026009.1882608-.043349 5.1288681-1.195209 10.081861-3.045614 14.7351228-5.494243l.0012386-.001238c.3046852-.161013.6019391-.34432.9053858-.509048.3616589-.198169.7208407-.402531 1.0800224-.608132.2489502-.142434.5003774-.273721.7468504-.421109 0 0 .0012386-.001239.0012386-.001239.0024771-.001238.0049542-.003716.0074313-.004954h.0012386c.0037157-.002477.0074313-.003716.011147-.006193.0024771-.001238.0037157-.002477.0049542-.003716l-.0458266-.078029.0458266.078029c.0024771-.001238.0049543-.002477.0074314-.003715.0037157-.002477.0074313-.003716.011147-.006193.0136241-.00867.0272483-.016101.0408724-.024771.0805063-.048304.1610125-.096608.2415188-.144911z" fill="#93d500"/><path d="m45.674298 58.0292222c.2848683-.2303717.5722137-.4533122.8632748-.6688212l-.064405-.1077546-18.8273179-31.2550074c-.8744219.5709752-1.7389353 1.1592902-2.5823932 1.7785691-1.82068 1.3401196-3.5831478 2.7954251-5.2787335 4.3622007l25.788013 25.7880131z" fill="#93d500"/><path d="m17.9962456 33.85505c-.2935382.2935382-.5709751.5969849-.857082.8942388s-.577168.5932692-.857082.8954773c-1.904902 2.0621989-3.6463144 4.2222438-5.2168057 6.465272-.0755521.1052774-.1511041.2155091-.2254176.3232636-.1771137.2576201-.3517504.5152401-.5239099.7740987-.1795909.268767-.35794325.5412498-.53134135.8124939-.06564357.0990847-.13004858.1994079-.19321503.2984925-5.93145356 9.3052851-9.10959301 19.8590366-9.53689547 30.5019643-.01610126.4124397-.02477116.826118-.03344107 1.2385578-.0086699.4124398-.02105548.8261181-.02105548 1.2385579h36.522594c0-.4136784.0383953-.8248796.0594508-1.2385579s.0272483-.8273566.0681207-1.2385578c.4718905-4.7560622 2.3074332-9.3994156 5.5078667-13.3008728.2600972-.3170709.5536354-.6143247.8323109-.9202485.277437-.3059238.535057-.6242332.8310723-.91901z" fill="#4d5a31"/><path d="m93.3538211 24.7900451c-.0495423-.030964-.1015617-.0606893-.151104-.0904147-.3207865-.1969307-.6452887-.3864301-.9697908-.5759294-.1882608-.1089931-.3765216-.2142705-.566021-.3220251-.1907379-.106516-.3789987-.2130319-.5709751-.3170708-.3294564-.1808294-.6601514-.3591818-.9920849-.535057-.0520194-.0260097-.1028003-.0544965-.1560583-.0817448-2.1414665-1.1196563-4.3411452-2.1055484-6.5866506-2.9613918-.0569737-.0235326-.1164245-.0458267-.1746367-.0668822-.4892303-.1833065-.9796992-.3653745-1.4738838-.5362955-3.9893949-1.3933776-8.1150311-2.3705997-12.3063109-2.9205194-.170921-.0235326-.3430805-.0470652-.5140015-.0693593-.1721595-.0210554-.3430805-.0383953-.5140015-.0569736-.3306949-.0383953-.6601513-.0755521-.9920848-.1077546-.0916533-.0086699-.1845451-.0148627-.277437-.0247711-.3926228-.0359182-.7877228-.0705978-1.1803456-.0990846-.1523426-.0111471-.3071624-.019817-.459505-.0284869-.3368877-.022294-.6774911-.0458266-1.0143789-.0606893-.1808294-.0099085-.3591817-.0148627-.5375341-.0210555l-.0012385 36.4680975v.1424341c1.8788922.1944536 3.7404447.5945078 5.546262 1.2075939l26.9435876-26.9435875c-.9995162-.6935924-2.011418-1.3673679-3.0518066-1.9990324z" fill="#4d5a31"/><path d="m60.2013431 15.8848141c-.4124398.0086699-.8261181.0099085-1.2385579.0260097-2.5836317.1040389-5.1623091.3678517-7.7199311.7963927-.0557351.0099085-.1114702.0185784-.1684439.0284869-.3591817.0619279-.7146478.1275714-1.0713525.1944535-.2018849.0383953-.4050084.0755521-.6068934.1164245-.2105548.042111-.4198711.0854605-.6291873.1312871-.3467962.0718364-.6935924.1473884-1.0403886.2278947-.0631665.0136241-.1250944.0284868-.1894994.0421109-5.1288681 1.1964469-10.084338 3.0480909-14.7363613 5.4967198h-.0012386c-.3034467.1610125-.599462.3430805-.9016701.5090473-.3616589.1981692-.7208407.4025313-1.0800225.6081319-.2662899.1535811-.5375341.2947767-.8025855.4533121-.0024771.0012386-.0061928.0037157-.0086699.0049543h-.0012385c-.0185784.011147-.0371568.0210555-.0557351.0322025-.0693593.042111-.1411956.0767906-.2105549.1189015l.0037157.0061928.6390959 1.0614441 18.2129932 30.2356743c.3554661-.2142705.7196021-.408724 1.0824996-.6031776.3653745-.1969307.7357033-.3814758 1.1085093-.5585896 2.6009714-1.2385579 5.3654326-2.0064637 8.1757203-2.2913321.4124398-.0421109.8248796-.0767905 1.2385579-.097846.4124398-.0210555.8248795-.042111 1.2385579-.042111l.0012385-36.5213554c-.4136783 0-.8261181.0173398-1.2385578.0247711z" fill="#6ba43a"/><path d="m122.803011 74.2778627c-.01734-.3282178-.037156-.6551971-.059451-.9846535-.009908-.1634896-.018578-.3257407-.032202-.4917074-.027248-.3851915-.059451-.7716216-.095369-1.1568131-.007431-.1003232-.01734-.1994078-.02601-.299731-.042111-.4310181-.087937-.8620363-.13748-1.2918158-.004954-.0346796-.00867-.0693593-.012385-.1040389-.002477-.0161012-.003716-.033441-.006193-.0495423-.056974-.4644592-.118902-.9289184-.184545-1.392139-.001239-.0136242-.002477-.030964-.006193-.0433496-.419871-2.9118495-1.049058-5.7976893-1.887562-8.6352253-.006193-.0198169-.011147-.0371567-.01734-.0544966-.132526-.4409266-.267528-.879376-.406247-1.316587-.018578-.0569736-.038395-.1151858-.055735-.1733981-.130049-.3950999-.261336-.7877228-.397577-1.1815842-.038395-.1052774-.075552-.2117933-.112709-.3195479-.12014-.3406034-.243996-.6799682-.370329-1.0193331-.060689-.1622511-.122617-.3232636-.185783-.4842761-.106516-.2811526-.216748-.5623053-.328218-.8397422-.089176-.2229405-.178352-.4421652-.270006-.6613899-.089176-.2179862-.180829-.4334953-.272482-.6514815-.120141-.2774369-.241519-.5548739-.364136-.8310723-.06936-.1548197-.138719-.3121166-.210555-.4681749-.151104-.3294563-.305924-.6589127-.461982-.9871306-.048304-.0990846-.095369-.2006463-.143673-.299731-.182068-.375283-.366613-.750566-.554874-1.1221334-.027248-.0507809-.053258-.1028003-.080506-.1548197-.210555-.4099627-.426064-.8211639-.645289-1.2261723-.00867-.0136241-.014863-.0297254-.023533-.0433495-1.063921-1.9569214-2.231881-3.8494378-3.49521-5.6701179l-26.9522572 26.9534961c.6130861 1.8070559 1.0119017 3.6673698 1.2063553 5.5450235h.1436727 36.4680972c-.00867-.1845452-.013624-.3653746-.022294-.5449655z" fill="#4d5a31"/><path d="m86.3547307 77.2974668c0 .4136783-.0383953.8248795-.0594508 1.2385578-.0198169.4136783-.0272482.8273567-.0681206 1.2385579-.4718906 4.7560621-2.3074333 9.4006541-5.5066283 13.3021113-.2600971.3170708-.5536353.6143247-.8323108.9202485-.277437.3059238-.535057.6242332-.8310724.9190099l25.8251702 25.8239308c.293538-.293538.569736-.596984.855843-.895477.286107-.298492.577168-.593269.855844-.895477 1.911094-2.06963 3.657461-4.234629 5.231668-6.485089.063166-.089176.122617-.177114.183307-.265051.191976-.276199.378998-.554874.567259-.83355.164728-.24895.329456-.4979.48923-.749327.079268-.120141.158536-.245235.235326-.365375 5.922784-9.300331 9.092254-19.8429354 9.518317-30.4771931.016102-.4124398.024772-.8261181.033442-1.2385578.008669-.4124398.021055-.8248796.021055-1.2385579h-36.5188783z" fill="#6ba43a"/><path d="m133.724614 5.01151472c-6.682019-6.68201963-17.515685-6.68201963-24.196466 0-5.330753 5.32951448-6.395913 13.29715708-3.221489 19.69554698l-37.2694442 37.270683c-6.3983899-3.1731853-14.3660326-2.1092641-19.6967856 3.2202504-6.6820196 6.6820196-6.680781 17.5156852 0 24.1977048 6.6832582 6.6820196 17.5169238 6.6795425 24.1989434-.0012386 5.3295144-5.3295144 6.3934356-13.2971571 3.2190119-19.6967855l37.2694445-37.2694444c6.399628 3.1731852 14.366032 2.109264 19.695547-3.221489 6.682019-6.678304 6.682019-17.5132081.001238-24.19522768z" fill="#424143"/><path d="m293.004393 133.490837v-20.252898h3.553422v20.252898zm30.635729 0-10.567376-14.484934v14.484934h-3.553423v-20.252898h3.643838l10.355582 14.027906v-14.027906h3.550945v20.252898zm16.393551 0v-20.252898h3.553423v20.252898zm21.345306 0v-17.12554h-6.134577v-3.127358h15.8201v3.127358h-6.1321v17.12554zm21.342829 0v-20.252898h3.553423v20.252898zm30.727382 0-1.489985-3.917559h-9.290422l-1.488747 3.917559h-4.038937l7.956495-20.252898h4.43156l7.955258 20.252898zm-6.133338-16.700714-3.645076 9.655797h7.287674zm23.862055 16.700714v-17.12554h-6.134577v-3.127358h15.821338v3.127358h-6.133338v17.12554zm21.344068 0v-20.252898h3.553422v20.252898zm22.378263 0-7.957734-20.252898h4.038937l6.134577 16.366303 6.134577-16.366303h4.03646l-7.954018 20.252898zm23.224198 0v-20.252898h13.875564v3.127358h-10.32338v5.22176h10.110348v3.127359h-10.110348v5.647823h10.32338v3.128598z" fill="#6ba43a"/><path d="m141.667486 64.0696689c0-18.3096008 13.390049-31.427167 31.791303-31.427167 18.308362 0 31.69965 13.1175662 31.69965 31.427167 0 18.3083622-13.390049 31.4284055-31.69965 31.4284055-18.400016 0-31.791303-13.1188048-31.791303-31.4284055zm50.192557 0c0-11.3873009-7.196021-19.9494514-18.400016-19.9494514-11.296886 0-18.492907 8.5621505-18.492907 19.9494514 0 11.2944091 7.196021 19.9494513 18.492907 19.9494513 11.203995 0 18.400016-8.6538037 18.400016-19.9494513zm20.124088 30.3335204v-60.7586941h28.422426c13.206742 0 20.404002 8.9262864 20.404002 19.5840768 0 10.566137-7.288913 19.4949006-20.404002 19.4949006h-15.486928v21.6797167zm35.618447-41.1733788c0-5.1016198-3.91632-8.1980144-9.019179-8.1980144h-13.662531v16.3056142h13.662531c5.102859-.0012386 9.019179-3.0976332 9.019179-8.1075998zm19.032918 41.1733788v-60.7586941h42.996536v11.3860623h-30.059799v12.7534303h29.42318v11.3873009h-29.42318v13.8458382h30.059799v11.3873009zm92.727111 0-28.964914-39.6251814v39.6251814h-12.937975v-60.7586941h13.300873l28.147465 38.1686374v-38.1686374h12.935499v60.7586941zm67.019604 0-3.827144-10.2936543h-26.050587l-3.825905 10.2936543h-14.667002l23.41122-60.7586941h16.217677l23.407505 60.7586941zm-16.853057-47.8231959-9.47249 26.1434792h18.948697zm34.883982 47.8231959v-60.7586941h28.421188c13.206742 0 20.404002 8.9262864 20.404002 19.5840768 0 10.566137-7.290152 19.4949006-20.404002 19.4949006h-15.486928v21.6797167zm35.617209-41.1733788c0-5.1016198-3.91632-8.1980144-9.019179-8.1980144h-13.66377v16.3056142h13.66377c5.102859-.0012386 9.019179-3.0976332 9.019179-8.1075998zm19.032918 41.1733788v-60.7586941h12.936737v60.7586941z" fill="#424143"/></svg>