<svg height="180" preserveAspectRatio="xMidYMid" viewBox="0 0 512 180" width="512" xmlns="http://www.w3.org/2000/svg"><path d="m94.9769908 98.1612359c-7.6526715 7.6526711-7.6526715 20.0751591 0 27.7278301 7.6526712 7.652671 20.0751582 7.652671 27.7278302 0 7.652671-7.652671 7.652671-20.075159 0-27.7278301-7.652672-7.6526714-20.075159-7.6526714-27.7278302 0zm20.7565612 20.7565611c-3.77392 3.77392-9.958956 3.77392-13.732876 0-3.7739206-3.77392-3.7739206-9.958956 0-13.732876 3.77392-3.77392 9.958956-3.77392 13.732876 0s3.77392 9.958956 0 13.732876zm18.555107-16.772979h8.229243v4.140829c1.991791-2.725609 4.769816-4.7174 9.015476-4.7174 6.761607 0 13.20872 5.293972 13.20872 14.99085v.104831c0 9.696878-6.342282 14.990849-13.20872 14.990849-4.402907 0-7.076101-1.991791-9.015476-4.350491v12.422487h-8.229243zm22.224197 14.571525v-.104831c0-4.822231-3.249765-8.01958-7.076101-8.01958-3.826335 0-7.023684 3.197349-7.023684 8.01958v.104831c0 4.822232 3.197349 8.019581 7.023684 8.019581 3.826336-.052416 7.076101-3.144934 7.076101-8.019581zm14.047369.052416v-.104831c0-8.229243 5.870543-15.043265 14.257032-15.043265 9.644463 0 14.047369 7.495425 14.047369 15.672252 0 .628986-.052415 1.41522-.104831 2.149037h-20.075158c.786233 3.721505 3.407011 5.660881 7.0761 5.660881 2.725609 0 4.7174-.838649 7.023685-2.935272l4.664984 4.140829c-2.673193 3.354596-6.551944 5.398803-11.7935 5.398803-8.700983-.052416-15.095681-6.13262-15.095681-14.938434zm20.337237-2.463531c-.47174-3.669089-2.620778-6.132621-6.080205-6.132621-3.407011 0-5.608465 2.411116-6.237451 6.132621zm13.837707-12.16041h8.386489v4.193245c1.939376-2.463531 4.402907-4.7174 8.648567-4.7174 6.342283 0 10.011372 4.193244 10.011372 10.954851v19.079263h-8.38649v-16.458485c0-3.983582-1.88696-5.975373-5.084309-5.975373s-5.241555 2.044206-5.241555 5.975373v16.458485h-8.38649v-29.509959zm-82.344841-100.37579292-12.003163 12.00316272c-2.3587 2.3587001-2.3587 6.1850358 0 8.5437359l46.911924 46.9119243c2.3587 2.3587001 6.185036 2.3587001 8.543736 0l12.003163-12.0031627c2.3587-2.3587001 2.3587-6.1850359 0-8.543736l-46.911925-46.91192422c-2.3587-2.35870011-6.185035-2.35870011-8.543735 0zm-84.1269708 153.42033792c2.1490379-2.149038 2.1490379-5.608465 0-7.757503l-6.1326203-6.13262c-2.1490378-2.149038-5.6084646-2.149038-7.7575025 0l-12.5797339 12.579734-3.45942681-3.459427c-1.88696008-1.88696-5.03189355-1.88696-6.91885363 0s-1.88696008 5.031894 0 6.918854l20.80897644 20.808976c1.8869601 1.88696 5.0318936 1.88696 6.9188537 0 1.88696-1.88696 1.88696-5.031893 0-6.918853l-3.4594269-3.459427z" fill="#f5a800"/><path d="m101.791013 36.2060466-26.6795186 26.6795189c-2.3587001 2.3587001-2.3587001 6.2898669 0 8.648567l16.4584851 16.4584852c11.6362535-8.3864892 27.9899075-7.3381781 38.4730195 3.1449335l13.313552-13.3135517c2.3587-2.3587001 2.3587-6.289867 0-8.6485671l-32.916971-32.9169703c-2.411115-2.4111156-6.289867-2.4111156-8.648567-.0524155zm-17.1398871 58.7578403-9.7492938-9.7492938c-2.2538689-2.2538689-6.0277891-2.2538689-8.2816581 0l-34.3321904 34.3321909c-2.253869 2.253869-2.253869 6.027789 0 8.281658l19.446172 19.446172c2.253869 2.253869 6.0277891 2.253869 8.2816581 0l22.0669499-22.06695c-4.6125691-9.696878-3.7739202-21.333132 2.5683623-30.2437771zm162.6454761 5.3988021h-11.950747v-7.9671644h32.550061v7.9671644h-11.950747v31.292088h-8.648567zm20.65173 16.353654v-.104831c0-8.229242 5.870542-15.043265 14.257031-15.043265 9.644463 0 14.04737 7.495425 14.04737 15.672252 0 .628987-.052416 1.41522-.104831 2.149038h-20.075159c.786233 3.721504 3.407011 5.66088 7.0761 5.66088 2.725609 0 4.717401-.838649 7.023685-2.935271l4.664985 4.140829c-2.673194 3.354596-6.551945 5.398802-11.793501 5.398802-8.700982 0-15.09568-6.080204-15.09568-14.938434zm20.337236-2.411115c-.47174-3.669089-2.620778-6.132621-6.080205-6.132621-3.407011 0-5.608464 2.411116-6.237451 6.132621zm13.785292-21.9097034h8.176827v39.2592524h-8.176827zm13.994954 24.3732344v-.104831c0-8.229243 5.870542-15.043265 14.257031-15.043265 9.644463 0 14.04737 7.495425 14.04737 15.672252 0 .628986-.052416 1.41522-.104831 2.149037h-20.075159c.786234 3.721505 3.407011 5.660881 7.0761 5.660881 2.725609 0 4.717401-.838649 7.023685-2.935272l4.664985 4.140829c-2.673194 3.354596-6.551945 5.398803-11.793501 5.398803-8.648567-.052416-15.09568-6.13262-15.09568-14.938434zm20.389652-2.411116c-.47174-3.669089-2.620778-6.13262-6.080205-6.13262-3.407011 0-5.608465 2.411116-6.237451 6.13262zm13.785291-12.212825h8.38649v4.193245c1.939375-2.463531 4.455322-4.7174 8.700982-4.7174 3.826336 0 6.761607 1.729713 8.281658 4.664984 2.568363-3.040102 5.660881-4.664984 9.696879-4.664984 6.237451 0 9.958956 3.721504 9.958956 10.85002v19.184094h-8.38649v-16.458485c0-3.983582-1.782129-5.975373-4.874647-5.975373-3.144933 0-5.084309 2.044206-5.084309 5.975373v16.458485h-8.386489v-16.458485c0-3.983582-1.782129-5.975373-4.874647-5.975373-3.144933 0-5.084309 2.044206-5.084309 5.975373v16.458485h-8.386489v-29.509959zm50.843092 14.571525v-.104831c0-8.229242 5.870542-15.043265 14.257031-15.043265 9.644463 0 14.04737 7.495425 14.04737 15.672252 0 .628987-.052416 1.41522-.104831 2.149038h-20.075159c.786233 3.721504 3.407011 5.66088 7.0761 5.66088 2.725609 0 4.7174-.838649 7.023685-2.935271l4.664985 4.140829c-2.673194 3.354596-6.551945 5.398802-11.793501 5.398802-8.700982 0-15.09568-6.080204-15.09568-14.938434zm20.337236-2.411115c-.47174-3.669089-2.620778-6.132621-6.080205-6.132621-3.407011 0-5.608464 2.411116-6.237451 6.132621zm14.728772 8.438905v-14.099786h-3.564258v-7.233346h3.564258v-7.6002564h8.438905v7.6002564h7.023684v7.233346h-6.971269v12.684565c0 1.939376.838649 2.882856 2.725609 2.882856 1.572467 0 2.935271-.366909 4.140829-1.048311v6.761607c-1.782129 1.048311-3.826336 1.729713-6.656776 1.729713-5.18914 0-8.700982-2.044206-8.700982-8.910644zm21.804872-20.808977h8.49132v6.027789c1.729714-4.140829 4.507738-6.814022 9.539632-6.60436v8.910645h-.47174c-5.660881 0-9.120307 3.407011-9.120307 10.587942v11.059683h-8.491321v-29.981699zm45.024964-.314493h9.015476l-11.741085 31.344503c-2.3587 6.237452-4.874647 8.543736-10.063787 8.543736-3.144934 0-5.451218-.786233-7.705087-2.096622l2.882856-6.289867c1.153142.681402 2.568362 1.205558 3.721504 1.205558 1.467636 0 2.306285-.47174 3.040102-1.991791l-12.003162-30.715517h9.172722l6.97127 20.808976z" fill="#425cc7"/></svg>