<svg height="258" preserveAspectRatio="xMidYMid" viewBox="0 0 512 258" width="512" xmlns="http://www.w3.org/2000/svg"><path d="m116.447824 54.1156555c22.286691.1871035 38.436389 6.6127696 48.449095 19.2663067 10.012706 12.6535372 13.316418 29.9365478 9.916481 51.8490308-1.320415 10.012706-4.24992 19.832963-8.783169 29.466117-4.346145 9.633153-10.386913 18.320098-18.132994 26.066179-9.44605 9.820257-19.549635 16.053474-30.316101 18.699651-10.766465 2.646177-21.9124833 3.966592-33.4327083 3.966592h-33.9993647l-10.7664655 53.832328h-39.3825975l40.5159096-203.1462045zm335.89341 0c22.28669.1871035 38.436389 6.6127696 48.449095 19.2663067 10.012706 12.6535372 13.316417 29.9365478 9.916481 51.8490308-1.320416 10.012706-4.249921 19.832963-8.783169 29.466117-4.346146 9.633153-10.386913 18.320098-18.132995 26.066179-9.44605 9.820257-19.549635 16.053474-30.3161 18.699651-10.766466 2.646177-21.912484 3.966592-33.432709 3.966592h-33.999364l-10.766466 53.832328h-39.382597l40.515909-203.1462045zm-193.566509-54.1156555-11.049794 54.1156555h35.132677c19.266307.3795527 33.619812 4.3461453 43.065862 11.8997777 9.633153 7.5536324 12.466434 21.9124837 8.499841 43.0658618l-18.982978 94.348237h-39.665926l18.132995-90.098316c1.887071-9.44605 1.320415-16.1496985-1.699969-20.116291-3.020383-3.9665926-9.536928-5.9498888-19.549634-5.9498888l-31.449413-.2833281-23.232899 116.4478239h-39.099269l40.799237-203.429532zm-172.926329 86.415052c-2.2666244.1871035-4.4370241.2833281-6.5165449.2833281l-5.7238511-.0003801-16.9423921 84.715464c1.1333122.187103 2.2666243.283328 3.3999365.283328h3.9665925c18.1329946.187103 33.2456053-1.603744 45.3324861-5.383233 12.086881-3.966592 20.212516-17.753442 24.366212-41.365894 3.399936-19.832962 0-31.2623085-10.19981-34.2826924-10.012706-3.0203838-22.570018-4.437024-37.682629-4.2499206zm335.893409 0c-2.266624.1871035-4.437024.2833281-6.516544.2833281l-5.724261-.0003801-16.941983 84.715464c1.133313.187103 2.266625.283328 3.399937.283328h3.966592c18.132995.187103 33.245606-1.603744 45.332487-5.383233 12.086881-3.966592 20.212515-17.753442 24.366211-41.365894 3.399937-19.832962 0-31.2623085-10.199809-34.2826924-10.012706-3.0203838-22.570019-4.437024-37.68263-4.2499206z"/></svg>