<svg enable-background="new 0 0 122.88 95.18" viewBox="0 0 122.88 95.18" xmlns="http://www.w3.org/2000/svg"><path d="m2.49 69.39c-4.61 3.07-3.07 8.9 6.75 11.67 10.13 3.38 21.18 4.3 31.93 2.46.61 0 1.23-.31 1.54-.31v-10.45l-10.44 3.38c-3.99 1.23-7.98 1.54-11.97.61-3.07-.92-2.46-2.76 1.23-4.3l21.18-7.37v-11.35l-29.48 10.13c-3.68 1.23-7.37 3.07-10.74 5.53zm71.22-46.06v29.78c12.59 6.14 22.41 0 22.41-15.96 0-16.27-5.83-23.64-22.72-29.47-8.9-3.08-18.11-5.84-27.32-7.68v88.73l21.49 6.45v-74.61c0-3.38 0-5.83 2.46-4.91 3.38.92 3.68 4.3 3.68 7.67zm39.92 38.99c-8.9-3.07-18.42-4.3-27.63-3.38-4.91.31-9.52 1.54-13.82 3.07l-.92.31v11.98l19.96-7.37c3.99-1.23 7.98-1.54 11.97-.61 3.07.92 2.46 2.76-1.23 4.3l-30.7 11.36v11.67l42.37-15.66c3.07-1.23 5.83-2.76 8.29-5.22 2.15-3.08 1.23-7.38-8.29-10.45z" fill="#0070d1"/></svg>