<svg xmlns:dc="http://purl.org/dc/elements/1.1/" xmlns:cc="http://creativecommons.org/ns#" xmlns:rdf="http://www.w3.org/1999/02/22-rdf-syntax-ns#" xmlns:svg="http://www.w3.org/2000/svg" xmlns="http://www.w3.org/2000/svg" version="1.1" id="Layer_1" x="0" y="0" viewBox="0 0 500 428.262" enable-background="new 0 0 320 102.667" xml:space="preserve" width="500" height="428.262"><metadata id="metadata71"><rdf:RDF><cc:Work><dc:format>image/svg+xml</dc:format><dc:type rdf:resource="http://purl.org/dc/dcmitype/StillImage"/><dc:title/></cc:Work></rdf:RDF></metadata><g id="g62" transform="matrix(5.0302202,0,0,5.0302202,-1096.2445,-9.7772194)"><g id="g46"><circle r="4.633" id="ellipse16" cy="6.583" cx="272.97" transform="matrix(0.7071,-0.7071,0.7071,0.7071,75.2889,194.9389)" fill="#5b87da"/><circle r="5.147" id="ellipse18" cy="19.312" cx="285.7" transform="matrix(0.7071,-0.7071,0.7071,0.7071,70.0236,207.6766)" fill="#5b87da"/><ellipse id="ellipse20" ry="5.66" rx="5.661" cy="32.042" cx="298.429" transform="matrix(0.7071,-0.7071,0.7071,0.7071,64.7566,220.4137)" fill="#5b87da"/><ellipse id="ellipse22" ry="6.174" rx="6.175" cy="44.772" cx="311.159" transform="matrix(0.7071,-0.7071,0.7071,0.7071,59.4777,233.1359)" fill="#5b87da"/><circle r="4.119" id="ellipse24" cy="6.583" cx="247.511" transform="matrix(0.7071,-0.7071,0.7071,0.7071,67.8322,176.9367)" fill="#1edcff"/><circle r="4.633" id="ellipse26" cy="19.312" cx="260.24" transform="matrix(0.7071,-0.7071,0.7071,0.7071,62.5669,189.6742)" fill="#1edcff"/><circle r="5.147" id="ellipse28" cy="32.042" cx="272.97" transform="matrix(0.7071,-0.7071,0.7071,0.7071,57.2882,202.3964)" fill="#1edcff"/><circle r="5.661" id="ellipse30" cy="44.772" cx="285.7" transform="matrix(0.7071,-0.7071,0.7071,0.7071,52.0167,215.1274)" fill="#1edcff"/><ellipse id="ellipse32" ry="6.174" rx="6.175" cy="57.501" cx="298.429" transform="matrix(0.7071,-0.7071,0.7071,0.7071,46.7535,227.8705)" fill="#1edcff"/><circle r="3.605" id="ellipse34" cy="6.582" cx="222.052" transform="matrix(0.7071,-0.7071,0.7071,0.7071,60.3907,158.9503)"/><circle r="4.119" id="ellipse36" cy="19.312" cx="234.782" transform="matrix(0.7071,-0.7071,0.7071,0.7071,55.1036,171.664)"/><circle r="4.633" id="ellipse38" cy="32.042" cx="247.511" transform="matrix(0.7071,-0.7071,0.7071,0.7071,49.8433,184.4092)"/><circle r="5.147" id="ellipse40" cy="44.771" cx="260.241" transform="matrix(0.7071,-0.7071,0.7071,0.7071,44.5704,197.1387)"/><ellipse id="ellipse42" ry="5.66" rx="5.661" cy="57.501" cx="272.97" transform="matrix(0.7071,-0.7071,0.7071,0.7071,39.2976,209.8698)"/><ellipse id="ellipse44" ry="6.174" rx="6.175" cy="70.231" cx="285.7" transform="matrix(0.7071,-0.7071,0.7071,0.7071,34.0145,222.5829)"/></g><g id="g60"><circle r="4.119" id="ellipse48" cy="57.501" cx="247.512" transform="matrix(0.7071,-0.7071,0.7071,0.7071,31.8295,191.8493)" fill="#5b87da"/><circle r="4.119" id="ellipse50" cy="70.23" cx="234.783" transform="matrix(0.7071,-0.7071,0.7071,0.7071,19.101,186.5767)" fill="#5b87da"/><circle r="4.119" id="ellipse52" cy="82.959" cx="222.053" transform="matrix(0.7071,-0.7071,0.7071,0.7071,6.3767,181.3135)" fill="#5b87da"/><circle r="4.119" id="ellipse54" cy="82.96" cx="247.512" transform="matrix(0.7071,-0.7071,0.7071,0.7071,13.8286,199.3076)" fill="#5b87da"/><circle r="4.119" id="ellipse56" cy="82.961" cx="272.97" transform="matrix(0.7071,-0.7071,0.7071,0.7071,21.2889,217.318)" fill="#5b87da"/><circle r="4.119" id="ellipse58" cy="70.23" cx="260.241" transform="matrix(0.7071,-0.7071,0.7071,0.7071,26.5569,204.578)" fill="#5b87da"/></g></g></svg>