<svg height="256" preserveAspectRatio="xMidYMid" viewBox="0 0 256 256" width="256" xmlns="http://www.w3.org/2000/svg" xmlns:xlink="http://www.w3.org/1999/xlink"><linearGradient id="a" x1="-46.685879%" x2="90.513929%" y1="50%" y2="50%"><stop offset="0" stop-color="#21d789"/><stop offset="1" stop-color="#07c3f2"/></linearGradient><linearGradient id="b" x1="-19.159792%" x2="105.922196%" y1="105.481057%" y2="-7.577138%"><stop offset=".01" stop-color="#fcf84a"/><stop offset=".11" stop-color="#a7eb62"/><stop offset=".21" stop-color="#5fe077"/><stop offset=".27" stop-color="#32da84"/><stop offset=".31" stop-color="#21d789"/><stop offset=".58" stop-color="#21d789"/><stop offset=".6" stop-color="#21d789"/><stop offset=".69" stop-color="#20d68c"/><stop offset=".76" stop-color="#1ed497"/><stop offset=".83" stop-color="#19d1a9"/><stop offset=".9" stop-color="#13ccc2"/><stop offset=".97" stop-color="#0bc6e1"/><stop offset="1" stop-color="#07c3f2"/></linearGradient><linearGradient id="c" x1="42.229889%" x2="61.179494%" y1="115.966514%" y2="22.252664%"><stop offset="0" stop-color="#21d789"/><stop offset=".16" stop-color="#24d888"/><stop offset=".3" stop-color="#2fd985"/><stop offset=".43" stop-color="#41dc80"/><stop offset=".55" stop-color="#5ae079"/><stop offset=".67" stop-color="#7ae46f"/><stop offset=".79" stop-color="#a1ea64"/><stop offset=".9" stop-color="#cff157"/><stop offset="1" stop-color="#fcf84a"/></linearGradient><linearGradient id="d" x1="-9.711365%" x2="118.64101%" y1="144.549783%" y2="8.291748%"><stop offset="0" stop-color="#21d789"/><stop offset=".09" stop-color="#23d986"/><stop offset=".17" stop-color="#2ade7b"/><stop offset=".25" stop-color="#36e669"/><stop offset=".27" stop-color="#3bea62"/><stop offset=".35" stop-color="#47eb61"/><stop offset=".49" stop-color="#67ed5d"/><stop offset=".69" stop-color="#9af156"/><stop offset=".92" stop-color="#e0f64d"/><stop offset="1" stop-color="#fcf84a"/></linearGradient><linearGradient id="e" x1="105.92021%" x2="-8.039654%" y1="50.480568%" y2="49.366207%"><stop offset=".39" stop-color="#fcf84a"/><stop offset=".46" stop-color="#ecf74c"/><stop offset=".61" stop-color="#c1f451"/><stop offset=".82" stop-color="#7eef5a"/><stop offset="1" stop-color="#3bea62"/></linearGradient><path d="m179.493333 40.4 74.8 62.213333-26.933333 54.8-45.093333-12.506666h-39.013334z" fill="url(#a)"/><path d="m104.133333 80.8-14.4799997 76.613333-1.3866666 26.026667-36.5066667 15.813333-51.76 5.573334 15.7066667-165.5200003 93.7866663-39.3066667 57.786667 37.8933333z" fill="url(#b)"/><path d="m104.133333 80.8 7.04 147.626667-23.3866663 27.573333-87.7866667-51.173333 72.08-107.4133337z" fill="url(#c)"/><path d="m200.72 70.0266667h-88.693333l78.373333-70.0266667z" fill="url(#d)"/><path d="m256 229.013333-78.08 26.506667-103.9733333-29.28 30.1866663-145.44 12.053334-10.7733333 63.306666-5.9466667-5.733333 63.573333 50.346667-19.52z" fill="url(#e)"/><path d="m48 48h160v160h-160z"/><path d="m67.9466667 177.76h60.0000003v10h-60.0000003zm.0533333-109.76h24.5333333c14.1503997 0 22.7861037 8.311248 22.9574027 20.3539327l.002597.5260673c0 13.866667-10.8 21.066667-24.2399997 21.066667h-9.92v17.973333h-13.3333333zm23.6266667 30.2133333c6.4750282 0 10.3214783-3.7882447 10.4500063-8.806042l.003327-.4206246c0-5.92-4.1066667-9.0933334-10.6666667-9.0933334h-10.08v18.32zm31.0133333-.0533333v-.16c-.155825-8.3068947 3.092055-16.3162119 8.98957-22.1683997 5.897514-5.8521878 13.931651-9.0381777 22.237097-8.818267 8.832943-.4466029 17.434018 2.9122819 23.626666 9.2266667l-8.373333 9.68c-4.030392-4.1736266-9.533783-6.6046897-15.333333-6.7733333-9.994371 0-17.22454 8.2143703-17.383977 18.3251447l-.00269.5281886c0 10.266667 7.12 18.826667 17.386667 18.826667 6.230303 0 10.256749-2.203857 14.483546-5.870273l.635823-.560839c.212642-.190541.426085-.384646.640631-.582222l8.373333 8.453334c-6.110354 7.143736-15.168495 11.077782-24.56 10.666666-8.194099.123909-16.088214-3.080222-21.877952-8.880011-5.789737-5.799789-8.98017-13.699451-8.842048-21.893322z" fill="#fff"/></svg>