<svg height="176" preserveAspectRatio="xMidYMid" viewBox="0 0 511 176" width="511" xmlns="http://www.w3.org/2000/svg"><g transform="translate(210.936183 42.355298)"><circle cx="249.727023" cy="18.136916" fill="#ff4500" r="11.113527"/><path d="m156.208855 0c3.341545 0 6.094664 2.63789375 6.280561 5.93488402l.010004.35568087v80.82955721c0 3.4608855-2.82968 6.2905649-6.290565 6.2905649-3.038779 0-5.661313-2.2004275-6.185038-5.1375878-4.297283 4.2992367-9.749496 6.5016184-16.145588 6.5016184-16.563786 0-29.983267-14.9926107-29.983267-33.4441527s13.419481-33.4441527 29.983267-33.4441527c6.150088 0 11.329943 1.9386603 15.541301 5.9097937l.500714.4862979v-27.99193891c0-3.4608855 2.82968-6.29056489 6.288611-6.29056489zm65.629801 0c3.341545 0 6.094665 2.63789375 6.280562 5.93488402l.010003.35568087v80.82955721c0 3.4608855-2.829679 6.2905649-6.290565 6.2905649-3.040732 0-5.661312-2.2004275-6.185038-5.1375878-4.299236 4.2992367-9.749496 6.5016184-16.145587 6.5016184-16.563787 0-29.983268-14.9926107-29.983268-33.4441527s13.419481-33.4441527 29.983268-33.4441527c6.150088 0 11.329942 1.9386603 15.539563 5.9097937l.500498.4862979v-27.99193891c0-3.4608855 2.831633-6.29056489 6.290564-6.29056489zm-152.0170987 27.7808855c13.9451603 0 25.6859847 10.6953282 29.0413435 25.1622595l.1135901.6052348c.1687027.9624523.3253939 2.1874925.4101351 3.9031011.2029492 3.8674163-2.7531479 7.8324021-7.9123582 8.0622911l-.4750617.0105028v-.2110534h-38.2651603c1.5731298 9.5403969 8.7020458 16.7748397 17.0875115 16.7748397 7.1308702 0 11.5336793-3.9826565 13.8396335-5.975939 2.411481-1.9913282 5.661313-2.6205801 8.2818932-.8383511 3.1462595 2.2023817 3.6699847 6.7107175 1.0494045 9.6459237-5.346687 5.9759389-12.790229 9.7494961-23.1709312 9.7494961-16.5637863 0-29.9832672-14.9926106-29.9832672-33.4441526s13.4194809-33.4441527 29.9832672-33.4441527zm211.8298817-13.8485618.364805.0108824c3.235525.2016314 5.689694 2.9381249 5.860865 6.1418742l.009547.3577899v8.8075725h5.76684c3.14626 0 5.76684 2.7241527 5.555786 5.9739848-.201057 2.9237815-2.631663 5.0724603-5.427723 5.2334182l-.337162.0096963h-5.557741v46.7581069c0 3.4589313-2.724152 6.1850381-6.394137 6.3941374-3.339658 0-6.094534-2.6378938-6.280554-5.9331251l-.010011-.3554856v-46.7581069h-5.346687c-3.144305 0-5.76684-2.7261069-5.555786-5.9759389.201057-2.9237816 2.631663-5.0724604 5.427723-5.2334183l.337162-.0096962h5.243115v-9.1202443c0-3.5476519 2.83957-6.3100852 6.343958-6.3014473zm-246.4250573 14.2687145c2.9352061.5237252 5.2411603 3.0407328 5.2411603 6.1850381 0 3.1337667-2.3404319 5.780549-5.3269096 6.1548463l-.3344034.0321461h-1.2585038c-11.9738852-1.3430454-20.6948592 7.9877014-20.9603628 19.4823533l-.0062326.5403643v26.5243358c0 3.6699848-3.04073285 6.4996642-6.71071759 6.2905649-3.23552453-.2016314-5.68969372-2.9381249-5.86086457-6.1418741l-.00954764-.35779v-51.3719695c0-3.4589313 2.82967939-6.2886107 6.29056489-6.2886107 3.03588102 0 6.07358381 2.2462176 6.27947071 5.8926069l.0110942.3960038v.8403054c4.9265343-6.1869924 13.5230534-9.540397 22.6452519-8.1783206zm214.5006413 6.6051908c3.339658 0 6.092712 2.6378938 6.278607 5.934884l.010004.3556809v46.0233282c0 3.4608855-2.82968 6.2905649-6.288611 6.2905649-3.341545 0-6.094664-2.6378937-6.280561-5.934884l-.010004-.3556809v-46.0233282c0-3.4608855 2.829679-6.2905649 6.290565-6.2905649zm-115.743267 5.5557863c-9.645924 0-17.404092 9.4368244-17.404092 20.9685496 0 11.6372519 7.758168 20.9665954 17.404092 20.9665954 9.540397 0 17.404091-9.3293435 17.404091-20.9665954s-7.758168-20.9685496-17.404091-20.9685496zm65.524275 0c-9.645924 0-17.402138 9.4368244-17.402138 20.9685496 0 11.6372519 7.756214 20.9665954 17.402138 20.9665954 9.645923 0 17.404091-9.3293435 17.404091-20.9665954s-7.758168-20.9685496-17.404091-20.9685496zm-129.7900463.1055267c-7.3774989 0-13.7527515 5.5076893-16.2894952 13.3894997l-.1707185.5537064h32.9204275c-2.4114809-8.0727939-8.9130993-13.9432061-16.4602138-13.9432061z" fill="#222"/></g><circle cx="87.854901" cy="87.854901" fill="#ff4500" r="87.854901"/><path d="m146.459359 87.8549008c0-7.1289161-5.764886-12.790229-12.790229-12.790229-3.458932 0-6.605191 1.3620763-8.911145 3.564458-8.805619-6.2905649-20.863023-10.3787481-34.2825041-10.9024733l5.8704122-27.4682138 19.0807939 4.0881833c.211053 4.8229618 4.19371 8.7020458 9.122198 8.7020458 5.032062 0 9.120245-4.0881833 9.120245-9.1221985 0-5.0320611-4.088183-9.1202443-9.120245-9.1202443-3.564458 0-6.710717 2.096855-8.17832 5.1375878l-21.2812215-4.5083359c-.6292519-.1055267-1.2585038 0-1.6786565.314626-.5237252.3146259-.8383511.8383511-.9419236 1.467603l-6.5016184 30.6125191c-13.6285801.4201527-25.8950839 4.5083359-34.806229 10.9044275-2.3059542-2.2023817-5.4522137-3.564458-8.911145-3.564458-7.128916 0-12.790229 5.7648855-12.790229 12.790229 0 5.2411603 3.1443053 9.6439694 7.5490687 11.6372519-.2110534 1.2565496-.314626 2.5150536-.314626 3.8790836 0 19.708092 22.9598779 35.750107 51.2664428 35.750107 28.3065645 0 51.2664425-15.936488 51.2664425-35.750107 0-1.258503-.105526-2.622534-.314626-3.8790836 4.402809-1.9932825 7.547115-6.5016183 7.547115-11.7427786zm-87.854901 9.1202442c0-5.032061 4.0881832-9.1202442 9.1221985-9.1202442 5.0320611 0 9.1202443 4.0881832 9.1202443 9.1202442s-4.0881832 9.122199-9.1202443 9.122199c-5.0340153.103572-9.1221985-4.090138-9.1221985-9.122199zm51.057344 24.218382c-6.290565 6.290565-18.2424432 6.710717-21.7013745 6.710717-3.564458 0-15.5163359-.525679-21.7033283-6.710717-.9419236-.943878-.9419236-2.411481 0-3.355359.9438779-.941924 2.411481-.941924 3.3553588 0 3.9846107 3.984611 12.3720305 5.346687 18.3479695 5.346687 5.9759389 0 14.4669315-1.362076 18.3460155-5.346687.943878-.941924 2.411481-.941924 3.355359 0 .838351.943878.838351 2.411481 0 3.355359zm-1.678657-14.992611c-5.032061 0-9.1202442-4.088183-9.1202442-9.1202442 0-5.0320611 4.0881832-9.1202443 9.1202442-9.1202443 5.034015 0 9.122199 4.0881832 9.122199 9.1202443 0 4.9265342-4.088184 9.1202442-9.122199 9.1202442z" fill="#fff"/></svg>