<svg height="121" preserveAspectRatio="xMidYMid" viewBox="0 0 512 121" width="512" xmlns="http://www.w3.org/2000/svg"><path d="m106.250239 69.4471711c10.468539 0 25.614868-2.1589794 25.614868-14.6107677.031298-.9609984-.055828-1.922195-.259412-2.8619029l-6.234263-27.0792922c-1.439319-5.9581137-2.702908-8.661022-13.16308-13.8911078-8.117093-4.15059609-25.7989667-11.0041005-31.0290525-11.0041005-4.8702559 0-6.2844711 6.27610294-12.0919583 6.27610294-5.5899157 0-9.7405118-4.68615686-14.9705976-4.68615686-5.0208823 0-8.292824 3.42256814-10.8200014 10.46017152 0 0-7.0376035 19.8492216-7.9413623 22.7278608-.1436446.5286137-.2057264 1.0760628-.184099 1.6234187 0 7.7154225 30.3763382 33.0123014 71.0789581 33.0123014m27.22155-9.5229402c1.447688 6.8535044 1.447688 7.5731642 1.447688 8.4769231 0 11.7153921-13.171448 18.2174348-30.485124 18.2174348-39.1294099.0251044-73.4053001-22.9035917-73.4053001-38.0582883-.0022619-2.1094674.42778-4.197022 1.2635888-6.1338446-14.0752069.7029236-32.2926417 3.2133647-32.2926417 19.2969245 0 26.3428961 62.4179358 58.8112682 111.840154 58.8112682 37.890926 0 47.447339-17.137945 47.447339-30.6692226 0-10.6442706-9.204951-22.7278608-25.798968-29.9411951" fill="#e00"/><path d="m133.471789 59.8907583c1.447688 6.8535044 1.447688 7.5731642 1.447688 8.4769231 0 11.7153921-13.171448 18.2174554-30.485124 18.2174554-39.1294099.0250838-73.4053089-22.9036123-73.4053089-38.0583089-.0022531-2.1094674.4277888-4.197022 1.2635976-6.1338446l3.0627382-7.5815323c-.1402893.51784-.202342 1.0537497-.184099 1.5899461 0 7.7154225 30.3763382 33.0123014 71.0789581 33.0123014 10.468539 0 25.614868-2.1589794 25.614868-14.6107676.031298-.9609984-.055828-1.9221951-.259412-2.861903z"/><path d="m484.715982 77.2379069c0 9.9497152 5.983218 14.7864985 16.895269 14.7864985 3.359665-.0836419 6.698399-.555389 9.949716-1.4058471v-11.5396612c-2.07809.6585625-4.246839.986134-6.42673.9707039-4.493689 0-6.158949-1.4058471-6.158949-5.6317564v-17.681874h13.020822v-11.8827549h-13.020822v-15.0626471l-14.225833 3.0794745v11.9831726h-9.447627v11.8827549h9.414154zm-44.351127.2677804c0-3.0794746 3.087843-4.5773711 7.748895-4.5773711 2.849019.0165606 5.686051.3704874 8.451819 1.0543853v5.9832181c-2.725596 1.488714-5.790009 2.2468897-8.89533 2.2008201-4.569003 0-7.305384-1.7573088-7.305384-4.6610524m4.351431 14.694449c5.020883 0 9.071061-1.0543853 12.853459-3.6066672v2.8200623h14.075207v-29.8407775c0-11.3471941-7.648477-17.5730882-20.409887-17.5730882-7.129653 0-14.175624 1.6736274-21.757157 5.1045637l5.104564 10.4769079c5.456026-2.2928697 10.041765-3.6987167 14.083575-3.6987167 5.857696 0 8.886962 2.2845015 8.886962 6.953922v2.2845015c-3.448748-.892734-6.998201-1.3371187-10.560589-1.3221657-11.974805 0-19.188139 5.0208824-19.188139 13.9998937 0 8.1840382 6.510411 14.4266686 16.895269 14.4266686m-77.355061-.7866049h15.137961v-24.142076h25.347087v24.1169716h15.179801v-61.6062265h-15.121224v23.6734603h-25.347088v-23.6734603h-15.13796zm-57.622993-23.347103c0-6.6945098 5.280295-11.7990735 12.234217-11.7990735 3.617853-.0733501 7.130877 1.2171487 9.840929 3.6150353v16.276027c-2.651949 2.5056639-6.194354 3.8491272-9.840929 3.7321892-6.861873 0-12.234217-5.1045637-12.234217-11.7907054m22.267613 23.3219985h14.083575v-64.7191735l-14.225833 3.0794745v17.5145113c-3.621411-2.0530491-7.720021-3.115224-11.882755-3.0794745-13.548014 0-24.200653 10.4685397-24.200653 23.8491911-.078673 6.3421286 2.394481 12.4498524 6.863624 16.9504683s10.559361 7.0165698 16.901886 6.9827478c4.489296.0210675 8.867531-1.3953342 12.493629-4.0421538zm-64.627124-35.7988912c4.485322 0 8.26772 2.9037437 9.765616 7.3890652h-19.414078c1.405847-4.6275799 4.928833-7.3890652 9.648462-7.3890652m-23.991449 12.5522059c0 13.5563824 11.087782 24.1169716 25.338719 24.1169716 7.832577 0 13.556383-2.1171387 19.45592-7.0459716l-9.422523-8.3681372c-2.20082 2.2928696-5.456026 3.5229858-9.322105 3.5229858-4.97642.1401631-9.526036-2.7964677-11.447612-7.3890652h33.179665v-3.5397221c0-14.7864985-9.941348-25.4307691-23.49773-25.4307691-6.437825-.0971385-12.642702 2.4064719-17.210389 6.9442321-4.567686 4.5377602-7.112028 10.7260468-7.057209 17.1643713m-24.560483-25.4307691c5.020883 0 7.832577 3.1631559 7.832577 6.9539221 0 3.7907661-2.811694 6.953922-7.832577 6.953922h-14.970597v-13.9078441zm-30.125294 48.6690863h15.13796v-22.4433441h11.522925l11.623343 22.4433441h16.945478l-13.556382-24.6441642c7.04825-2.8664958 11.645997-9.7299915 11.614974-17.3387804 0-11.0877819-8.711231-19.6232819-21.757157-19.6232819h-31.531141z"/></svg>