<svg height="130" preserveAspectRatio="xMidYMid" viewBox="0 0 512 130" width="512" xmlns="http://www.w3.org/2000/svg"><path d="m163.592757 101.884909 6.387122-14.8346072c6.902214 5.1509054 16.070825 7.8293763 25.136419 7.8293763 6.696177 0 10.919919-2.5754527 10.919919-6.4901409-.103018-10.9199195-40.074044-2.3694165-40.383098-29.7722334-.103018-13.9074446 12.259155-24.6213279 29.772233-24.6213279 10.404829 0 20.809658 2.5754527 28.226962 8.4474849l-5.97505 15.1436619c-6.799196-4.3267605-15.24668-7.4173038-23.282093-7.4173038-5.45996 0-9.065594 2.5754527-9.065594 5.8720322.103019 10.7138833 40.383099 4.8418511 40.795171 31.0084507 0 14.2164992-12.053118 24.2092552-29.36016 24.2092552-12.671228 0-24.312274-2.987525-33.171831-9.374648zm245.08008-20.1915488 17.616097 9.7867203c-6.593159 11.8470825-19.161369 19.7794765-33.686922 19.7794765-21.324748 0-38.631791-17.3070419-38.631791-38.6317904s17.307043-38.6317907 38.631791-38.6317907c14.422535 0 27.093763 8.0354124 33.686922 19.7794768l-17.616097 9.7867203c-3.193561-5.5629778-9.168612-9.3746478-16.070825-9.3746478-10.198793 0-18.440241 8.2414486-18.440241 18.4402414s8.241448 18.4402414 18.440241 18.4402414c6.902213 0 12.877264-3.81167 16.070825-9.3746478zm-173.688531-79.73601614h22.045875v107.85995994h-22.045875zm199.958149 0h22.045875v63.35613684l24.930382-29.7722334h26.990745l-30.802415 35.8503018 33.274849 38.4257547h-28.226961l-26.1666-32.3476863v32.3476863h-22.045875zm-112.392757 79.94205234v-18.2342053c-3.193561-5.3569416-9.78672-9.4776659-17.204024-9.4776659-10.198793 0-18.440241 8.2414486-18.440241 18.4402414s8.241448 18.4402414 18.440241 18.4402414c7.417304 0 14.010463-3.9146881 17.204024-9.1686116zm0-46.3581489h22.045875v74.1730385h-22.045875v-8.75654c-3.605634 6.078069-12.568209 10.301811-21.942857 10.301811-19.367404 0-34.614084-17.3070419-34.614084-38.7348085s15.24668-38.5287726 34.614084-38.5287726c9.374648 0 18.337223 4.2237424 21.942857 10.3018108z"/><path d="m27.2997988 81.7963783c0 7.5203219-6.0780684 13.5983903-13.5983903 13.5983903-7.52032198 0-13.59839039-6.0780684-13.59839039-13.5983903 0-7.520322 6.07806841-13.5983904 13.59839039-13.5983904h13.5983903zm6.7991952 0c0-7.520322 6.0780684-13.5983904 13.5983903-13.5983904s13.5983903 6.0780684 13.5983903 13.5983904v33.9959757c0 7.520322-6.0780684 13.59839-13.5983903 13.59839s-13.5983903-6.078068-13.5983903-13.59839z" fill="#e01e5a"/><path d="m47.6973843 27.1967807c-7.5203219 0-13.5983903-6.0780684-13.5983903-13.5983904 0-7.52032189 6.0780684-13.5983903 13.5983903-13.5983903s13.5983903 6.07806841 13.5983903 13.5983903v13.5983904zm0 6.9022133c7.5203219 0 13.5983903 6.0780684 13.5983903 13.5983903s-6.0780684 13.5983903-13.5983903 13.5983903h-34.098994c-7.52032189 0-13.5983903-6.0780684-13.5983903-13.5983903s6.07806841-13.5983903 13.5983903-13.5983903z" fill="#36c5f0"/><path d="m102.193964 47.6973843c0-7.5203219 6.078068-13.5983903 13.59839-13.5983903s13.59839 6.0780684 13.59839 13.5983903-6.078068 13.5983903-13.59839 13.5983903h-13.59839zm-6.7991954 0c0 7.5203219-6.0780684 13.5983903-13.5983903 13.5983903-7.520322 0-13.5983904-6.0780684-13.5983904-13.5983903v-34.098994c0-7.52032189 6.0780684-13.5983903 13.5983904-13.5983903 7.5203219 0 13.5983903 6.07806841 13.5983903 13.5983903z" fill="#2eb67d"/><path d="m81.7963783 102.193964c7.5203219 0 13.5983903 6.078068 13.5983903 13.59839s-6.0780684 13.59839-13.5983903 13.59839c-7.520322 0-13.5983904-6.078068-13.5983904-13.59839v-13.59839zm0-6.7991954c-7.520322 0-13.5983904-6.0780684-13.5983904-13.5983903 0-7.520322 6.0780684-13.5983904 13.5983904-13.5983904h34.0989937c7.520322 0 13.598391 6.0780684 13.598391 13.5983904 0 7.5203219-6.078069 13.5983903-13.598391 13.5983903z" fill="#ecb22e"/></svg>