<svg height="160" preserveAspectRatio="xMidYMid" viewBox="0 0 512 160" width="512" xmlns="http://www.w3.org/2000/svg"><path d="m79.6551367 0c-43.9913834 0-79.6551367 35.6628022-79.6551367 79.6541855 0 43.9932855 35.6637533 79.6532345 79.6551367 79.6532345 43.9961393 0 79.6560883-35.659949 79.6560883-79.6532345 0-43.9885298-35.659949-79.65038076-79.6570395-79.65038076zm36.5293323 114.884198c-1.426778 2.339917-4.489596 3.081842-6.829513 1.645551-18.7022112-11.423739-42.2459575-14.010964-69.9730181-7.676068-2.6718804.608759-5.3352001-1.065327-5.9439589-3.738159-.6116123-2.672832 1.055816-5.3361513 3.7343547-5.9449101 30.342821-6.9322407 56.370113-3.9474203 77.3665843 8.8840741 2.339916 1.43629 3.081841 4.489596 1.645551 6.829512zm9.749652-21.6889341c-1.79774 2.9220422-5.621506 3.8446922-8.541646 2.0469514-21.4111884-13.1606041-54.0492203-16.9720048-79.3745373-9.2845227-3.2844439.9920866-6.7534178-.8589206-7.7502603-4.1376574-.9892331-3.2844439.8627253-6.7467596 4.1414621-7.7455045 28.928408-8.7775408 64.8917848-4.5257411 89.4799325 10.5838423 2.92014 1.7977408 3.84279 5.621507 2.045049 8.5378421zm.837044-22.5849512c-25.6725-15.2484565-68.0287952-16.6505041-92.5398972-9.2112814-3.9360061 1.1937379-8.0983943-1.0282317-9.291181-4.9642377-1.1927868-3.9379085 1.0272804-8.0974432 4.96614-9.2940347 28.1370216-8.5416468 74.9115742-6.8913397 104.4687162 10.6551813 3.547922 2.101169 4.708368 6.6735182 2.606248 10.2090751-2.092608 3.5403129-6.677323 4.7074176-10.206221 2.6052974zm89.944111 2.9220422c-13.754144-3.279688-16.198691-5.5815571-16.198691-10.418336 0-4.5694957 4.299359-7.6446787 10.700838-7.6446787 6.201731 0 12.34639 2.3351606 18.795428 7.1424527.190237.1455314.437546.2035537.675342.1655063.247308-.036145.456569-.1683598.599247-.3671576l6.71537-9.4661992c.275844-.3899861.199749-.927406-.171213-1.2251271-7.676068-6.1570245-16.312833-9.1504056-26.414425-9.1504056-14.848007 0-25.225442 8.911658-25.225442 21.6623011 0 13.6732932 8.950657 18.514828 24.416935 22.2520362 13.154897 3.0314286 15.380671 5.5710942 15.380671 10.1101519 0 5.0317721-4.489596 8.1611721-11.718607 8.1611721-8.028006 0-14.581675-2.710879-21.905804-9.0457747-.180726-.1617016-.428034-.2282846-.656318-.2187727-.247309.0190237-.466081.133166-.618271.3138913l-7.53339 8.9601681c-.313891.380475-.275844.932162.085607 1.255565 8.522623 7.609485 19.004688 11.623489 30.323797 11.623489 15.998942 0 26.338506-8.741396 26.338506-22.2767675.028359-11.4208857-6.810665-17.74627-23.561044-21.8211492zm59.791528-13.5639068c-6.934143 0-12.622233 2.7318051-17.32109 8.3295324v-6.3006535c0-.4974701-.399498-.9026751-.894115-.9026751h-12.317853c-.494617 0-.894115.405205-.894115.9026751v70.008212c0 .494617.399498.903627.894115.903627h12.317853c.494617 0 .894115-.40901.894115-.903627v-22.096042c4.698857 5.260057 10.386947 7.83777 17.32109 7.83777 12.888565 0 25.938873-9.920866 25.938873-28.8865559.018982-18.9694947-13.031284-28.8932142-25.929361-28.8932142zm11.613976 28.892263c0 9.6535827-5.94491 16.3974889-14.467533 16.3974889-8.417993 0-14.771913-7.0482855-14.771913-16.3974889 0-9.3501546 6.35392-16.3965376 14.771913-16.3965376 8.379945-.0009512 14.467533 6.8932421 14.467533 16.3955864zm47.75903-28.892263c-16.598189 0-29.600896 12.7801299-29.600896 29.0986702 0 16.1435227 12.9171 28.7847787 29.401147 28.7847787 16.65526 0 29.696015-12.736375 29.696015-28.9911859 0-16.1996422-12.955148-28.8903606-29.496266-28.8903606zm0 45.3848699c-8.827003 0-15.485302-7.0958443-15.485302-16.4973629 0-9.4443219 6.430015-16.2976142 15.285553-16.2976142 8.884073 0 15.58042 7.0929911 15.58042 16.5040215 0 9.4424196-6.468062 16.2909556-15.380671 16.2909556zm64.937442-44.2586661h-13.554395v-13.8549697c0-.4965188-.399498-.9017239-.894115-.9017239h-12.317854c-.494616 0-.903626.4052051-.903626.9017239v13.8549697h-5.916374c-.494617 0-.894115.405205-.894115.9026751v10.5838423c0 .4965189.399498.9026752.894115.9026752h5.916374v27.3893895c0 11.062289 5.507365 16.674284 16.379416 16.674284 4.413502 0 8.075566-.913138 11.52837-2.872581.285356-.152189.456569-.456569.456569-.779972v-10.082567c0-.30438-.161702-.599247-.428033-.760949-.266332-.171213-.599247-.180725-.875091-.038047-2.368452 1.188982-4.66081 1.740669-7.229011 1.740669-3.94742 0-5.716625-1.79774-5.716625-5.8117436v-25.453727h13.554395c.494616 0 .894114-.4052051.894114-.9026752v-10.5828911c.019024-.49747-.380474-.9026751-.884603-.9026751zm47.216853.0542175v-1.701671c0-5.0060899 1.921395-7.2385225 6.220754-7.2385225 2.568201 0 4.632274.5098355 6.943655 1.2802958.285356.0894115.580223.0447057.808508-.1255565.237796-.1702622.370962-.4432525.370962-.7324129v-10.377435c0-.3966444-.247308-.7476319-.637294-.8646278-2.435035-.7257546-5.554924-1.4705329-10.234757-1.4705329-11.366668 0-17.387673 6.4052839-17.387673 18.5167303v2.6062486h-5.916375c-.494616 0-.903626.405205-.903626.9017239v10.6380599c0 .4965189.40901.9026752.903626.9026752h5.916375v42.2373975c0 .504128.40901.903626.903626.903626h12.308342c.504128 0 .903626-.399498.903626-.903626v-42.234544h11.499834l17.615958 42.234544c-1.99749 4.432525-3.966444 5.317127-6.648788 5.317127-2.168703 0-4.46106-.646806-6.791465-1.930907-.218772-.114142-.485104-.133166-.713389-.066583-.237796.085607-.437545.25682-.532664.485105l-4.175705 9.159917c-.199749.437546-.028535.941674.389986 1.169959 4.35643 2.35894 8.284827 3.367197 13.145385 3.367197 9.093335 0 14.125107-4.242288 18.54812-15.637492l21.363629-55.203959c.114142-.2777462.076095-.5916375-.095119-.8379945-.161701-.2444547-.437545-.3918885-.732413-.3918885h-12.821982c-.389986 0-.732413.2444547-.856067.6049541l-13.135873 37.5090534-14.381927-37.5337843c-.133166-.3490851-.466081-.5802232-.837043-.5802232h-21.040226zm-27.375122-.0542175h-12.317853c-.494617 0-.903627.405205-.903627.9026751v53.723915c0 .504128.40901.903626.903627.903626h12.317853c.494617 0 .903627-.399498.903627-.903626v-53.7201102c0-.4974701-.399498-.9026752-.903627-.9026752zm-6.087588-24.4635428c-4.879582 0-8.836514 3.9493227-8.836514 8.8279537 0 4.8814845 3.956932 8.8355631 8.836514 8.8355631 4.879583 0 8.827003-3.9540786 8.827003-8.8355631 0-4.8776798-3.956932-8.8279537-8.827003-8.8279537z" fill="#1ed760"/></svg>