<svg height="155" preserveAspectRatio="xMidYMid" viewBox="0 0 512 155" width="512" xmlns="http://www.w3.org/2000/svg"><path d="m77.0156438 0c42.5126352 0 77.0156442 34.5030084 77.0156442 77.0156438 0 42.5126352-34.503009 77.0156442-77.0156442 77.0156442-42.5126354 0-77.0156438-34.503009-77.0156438-77.0156442 0-42.5126354 34.5030084-77.0156438 77.0156438-77.0156438zm0 20.33213c-31.4223827 0-56.6835138 25.2611311-56.6835138 56.6835138 0 31.4223822 25.2611311 56.6835142 56.6835138 56.6835142 31.4223822 0 56.6835142-25.261132 56.6835142-56.6835142 0-31.4223827-25.261132-56.6835138-56.6835142-56.6835138zm395.8604092 31.7304452c22.796631 0 39.123947 16.6353791 39.123947 36.3513839v.3080626c0 19.7160043-16.327316 36.6594463-39.43201 36.6594463-22.79663 0-39.123947-16.635379-39.123947-36.3513838v-.3080625c0-19.7160049 16.327317-36.6594465 39.43201-36.6594465zm-265.241877-21.5643803c.924187-.3080625 1.848375.6161252 1.848375 1.2322503v22.1805055h40.972323c.924187 0 1.540313.6161251 1.848375 1.2322503l3.388688 12.6305655 3.080626 12.6305656.308063.6161252.308062-1.2322503 7.701565-25.5691938c.308062-.6161251 1.23225-1.2322503 1.848375-1.2322503h20.33213c.924188 0 1.540313.6161252 1.848376 1.2322503l8.009627 27.4175692.308062-1.2322503 6.777377-25.5691937c.308062-.6161252 1.23225-1.2322503 1.848375-1.2322503h52.370638c.616125 0 1.23225.6161251 1.23225 1.5403129v67.157641c0 .616126-.616125 1.232251-1.23225 1.232251h-26.185319c-.616125 0-1.23225-.616125-1.23225-1.232251v-64.6931404l-19.716005 64.6931404c-.308063.616126-1.23225 1.232251-1.848375 1.232251h-21.564381c-.924187 0-1.540313-.616125-1.848375-1.232251l-4.312876-13.554753-4.620939-14.7870036-9.241877 28.6498196c-.308063.616125-1.23225 1.23225-1.848376 1.23225h-21.56438c-.924188 0-1.540313-.616125-1.848375-1.23225l-19.407943-64.3850783v16.6353791c0 .6161251-.616125 1.2322503-1.23225 1.2322503h-14.787003v17.5595668c0 5.2370637 2.4645 7.0854391 7.085439 7.0854391 2.4645 0 4.620938-.308062 7.393502-1.5403128.616125 0 1.540312.3080626 1.540312 1.2322508v20.332129c-4.620938 2.464501-11.398315 4.004814-18.483754 4.004814-16.943442 0-26.185319-8.009627-26.185319-24.9530686v-24.0288809h-6.777377c-.616125 0-1.23225-.6161251-1.23225-1.2322503v-19.7160048c0-.6161252.616125-1.2322503 1.23225-1.2322503h6.777377v-13.8628159c0-.6161251.308063-.9241877 1.23225-1.2322503zm187.302045-.3080625c.616126 0 1.232251.6161251 1.232251 1.2322503v90.8784593c0 .616126-.616125 1.232251-1.232251 1.232251h-26.185318c-.616126 0-1.232251-.616125-1.232251-1.232251v-90.8784593c0-.6161252.616125-1.2322503 1.232251-1.2322503zm34.503009 23.4127557c.616125 0 1.23225.6161251 1.23225 1.5403129v67.157641c0 .616126-.616125 1.232251-1.23225 1.232251h-26.185319c-.616125 0-1.23225-.616125-1.23225-1.232251v-67.4657036c0-.6161252.616125-1.2322503 1.23225-1.2322503zm-333.3237065 26.4933815c8.8471895 0 16.0192535 7.1720642 16.0192535 16.0192539 0 8.8471895-7.172064 16.0192535-16.0192535 16.0192535-8.8471897 0-16.0192539-7.172064-16.0192539-16.0192535 0-8.8471897 7.1720642-16.0192539 16.0192539-16.0192539zm-38.1997594 0c8.8471897 0 16.019254 7.1720642 16.019254 16.0192539 0 8.8471895-7.1720643 16.0192535-16.019254 16.0192535-8.8471896 0-16.0192539-7.172064-16.0192539-16.0192535 0-8.8471897 7.1720643-16.0192539 16.0192539-16.0192539zm414.6522259-4.0048135c-6.469314 0-11.090252 5.2370638-11.090252 12.0144404v.3080626c0 6.7773766 4.929001 12.3225029 11.398315 12.3225029s11.090253-5.2370637 11.090253-12.0144403c0-7.0854393-4.929002-12.6305656-11.398316-12.6305656zm-376.4524665-34.1949459c8.8471895 0 16.0192535 7.1720643 16.0192535 16.0192539 0 8.8471897-7.172064 16.019254-16.0192535 16.019254-8.8471897 0-16.0192539-7.1720643-16.0192539-16.019254 0-8.8471896 7.1720642-16.0192539 16.0192539-16.0192539zm-38.1997594 0c8.8471897 0 16.019254 7.1720643 16.019254 16.0192539 0 8.8471897-7.1720643 16.019254-16.019254 16.019254-8.8471896 0-16.0192539-7.1720643-16.0192539-16.019254 0-8.8471896 7.1720643-16.0192539 16.0192539-16.0192539zm302.8255119-11.7063778c.924187 0 1.540312.6161251 1.23225 1.2322503v15.7111913c0 .6161252-.616125 1.2322503-1.23225 1.2322503h-27.109507c-.616125 0-1.23225-.6161251-1.23225-1.2322503v-15.7111913c0-.6161252.616125-1.2322503 1.23225-1.2322503zm69.006016 0c.924188 0 1.540313.6161251 1.232251 1.2322503v15.7111913c0 .6161252-.616125 1.2322503-1.232251 1.2322503h-27.109506c-.616125 0-1.232251-.6161251-1.232251-1.2322503v-15.7111913c0-.6161252.616126-1.2322503 1.232251-1.2322503z" fill="#f12e45"/></svg>