<svg height="128" preserveAspectRatio="xMidYMid" viewBox="0 0 512 128" width="512" xmlns="http://www.w3.org/2000/svg"><path d="m14 0h484c7.731986 0 14 6.2680135 14 14v99.49004c0 7.731986-6.268014 14-14 14h-484c-7.7319865 0-14-6.268014-14-14v-99.49004c0-7.7319865 6.2680135-14 14-14z" fill="#3178c6"/><path d="m161.569657 46.2854629h17.426359v-8.5484111h-44.876494v8.5484111h17.384032v52.1368479h10.066103zm33.490104 59.0753661 19.633466-50.2851318h-9.944223l-10.87898 31.5762231c-.25804.9679044-.460494 1.7557928-.606853 2.3641753l-.158087.6833466h-.212654c-.226422-.9673944-.406948-1.7231553-.541067-2.2667729l-.223873-.8654024-10.36902-31.4915697h-10.921817l17.296319 43.2583904-2.932271 7.1113944c-1.813418 3.611538-4.561593 5.417817-8.244526 5.417817-1.2749 0-2.691569-.25396-4.249498-.761881v8.169052c1.388112.366661 3.116367.550247 5.184255.550247 7.366375 0 13.089148-4.486629 17.168829-13.459888zm50.546231-51.3050521c5.518789 0 9.820813 1.9317291 12.906072 5.7951872 3.084749 3.8634582 4.627378 9.0523028 4.627378 15.5665339 0 7.219506-1.740494 13.0004144-5.221992 17.343745-3.480988 4.3428207-8.235856 6.5142311-14.264605 6.5142311-5.547347 0-9.820813-2.4253705-12.820909-7.2756016h-.169816v26.3108845h-9.849371v-63.2396494h9.849371v7.6142151h.169816c3.367777-5.7533705 8.292462-8.6295458 14.774056-8.6295458zm-3.439681 8.1593625c-3.506486 0-6.327076 1.2341036-8.461769 3.7023108-2.135203 2.4687171-3.20255 5.5539761-3.20255 9.2562869v5.3433625c0 3.1413546 1.010741 5.8064064 3.032733 7.9941355 2.021992 2.187729 4.588112 3.2815936 7.698359 3.2815936 3.648255 0 6.511171-1.4095299 8.589769-4.2285897 2.078087-2.8185498 3.117386-6.7523824 3.117386-11.801498 0-4.2352191-.968414-7.552-2.905753-9.9503426-1.936829-2.3983426-4.559554-3.597259-7.868175-3.597259zm46.821482-8.1593625c5.89208 0 10.451633 1.9052111 13.678151 5.7156335 3.226518 3.8104223 4.840032 9.1027888 4.840032 15.8765896v3.7680956h-29.376765c.112701 4.0082869 1.340175 7.0986454 3.682932 9.2720956s5.562136 3.2601753 9.658646 3.2601753c4.60188 0 8.82435-1.3830119 12.66843-4.1490358v7.9171315c-3.928223 2.4840159-9.119107 3.7257689-15.572143 3.7257689-6.341355 0-11.314486-1.9689562-14.919905-5.9063586-3.605418-3.9374024-5.408127-9.4765896-5.408127-16.6175617 0-6.745753 1.985275-12.2426136 5.955315-16.4905817 3.970039-4.2479681 8.901354-6.3719522 14.793434-6.3719522zm42.358821-17.3386454c3.626326 0 7.252653.6062406 10.87898 1.8187219v4.3988143c-3.569721-1.6072924-7.380144-2.4108876-11.431267-2.4108876-4.136287 0-7.415841 1.0432765-9.838152 3.1299315-2.42231 2.0866039-3.633466 4.7371219-3.633466 7.9517067 0 3.1015777.828685 5.568765 2.486056 7.4015618 1.65737 1.8327968 5.234231 4.3285418 10.730582 7.4867251 5.694215 3.2142789 9.483729 6.0695458 11.367522 8.5647809 1.884302 2.495745 2.826199 5.3647808 2.826199 8.6071075 0 4.6528765-1.622184 8.4454502-4.86604 11.3777211-3.243857 2.9327809-7.826359 4.3989164-13.747506 4.3989164-2.096446 0-4.511618-.3243347-7.245514-.973004-2.733896-.6481594-4.823713-1.395761-6.26843-2.2412749v-4.7798566c4.363219 2.7634741 8.782534 4.1449562 13.258964 4.1449562 4.759458 0 8.372016-.9796335 10.836653-2.9394104 2.464638-1.9597769 3.697211-4.7018326 3.697211-8.2266773 0-3.1015776-.828685-5.5759043-2.486055-7.42298-1.598216-1.7807809-4.99404-4.1842231-10.188494-7.2108367l-.584415-.3386135c-6.176127-3.5814502-10.085992-6.5774662-11.729083-8.9880478-1.643092-2.4110917-2.464638-5.1954741-2.464638-8.3536574 0-4.2859602 1.67114-7.923353 5.014438-10.9123315 3.343299-2.9889275 7.805451-4.4833657 13.386455-4.4833657zm-42.208893 24.4780876c-2.797131 0-5.167936 1.0341992-7.111904 3.1020877-1.943968 2.0683984-3.139825 4.773737-3.58757 8.1170358h19.888446c-.028048-3.5411633-.853163-6.2964781-2.475346-8.2654342-1.622694-1.9689562-3.860399-2.9536893-6.713626-2.9536893zm80.535968 38.247012c4.494279 0 8.362837-.986263 11.605674-2.9582789v-4.0567331c-3.242837 2.3101195-7.054279 3.4651793-11.434837 3.4651793-4.779347 0-8.626486-1.7042868-11.541928-5.1133705-2.915953-3.4090837-4.373929-7.9166215-4.373929-13.5231235 0-5.8033466 1.593116-10.5291474 4.779347-14.1779124 3.185721-3.6482549 7.338837-5.4723824 12.458837-5.4723824 3.726788 0 7.154231.9577051 10.283346 2.8736255v-4.3948367c-3.129115-1.3524143-6.357673-2.0286215-9.685673-2.0286215-6.429068 0-11.691347 2.1902789-15.787347 6.5713466-4.09651 4.3810677-6.14451 10.0084781-6.14451 16.882741 0 6.5361594 1.820558 11.8254662 5.461674 15.8679204 3.641115 4.0429641 8.434231 6.0644462 14.379346 6.0644462zm37.274518-40.4566693c-1.295299-.935267-2.81549-1.4023905-4.561083-1.4023905-3.407044 0-6.264351 1.7705817-8.573451 5.311745-2.308589 3.5416733-3.463139 8.5703905-3.463139 15.0866614v20.4407331h-3.800733v-43.5164303h3.800733v9.6464064h.169307c.985243-3.3147411 2.547761-5.8925897 4.687553-7.7340558 2.139793-1.8414662 4.61769-2.7624542 7.43318-2.7624542 1.604844 0 3.040892.2549801 4.307633.7649402zm10.199203-3.9098646v43.3466136h-4.079681v-43.3466136zm-1.827697-17.3386454c.889371 0 1.67165.2907793 2.345817.8722868.674677.5815586 1.011761 1.3665913 1.011761 2.3552 0 .9304734-.329944 1.7300909-.990343 2.3988526-.659888.6687618-1.449307 1.0031427-2.367235 1.0031427-.861323 0-1.621673-.319847-2.281562-.9595411-.660398-.639694-.990342-1.4537944-.990342-2.4424542 0-.95949.337083-1.7372812 1.011761-2.3333737.674167-.5960924 1.427888-.8941131 2.260143-.8941131zm31.248829 16.3187251c5.493801 0 9.783076 1.8950119 12.867825 5.6855458s4.627378 8.9411315 4.627378 15.4507729c0 7.2429642-1.768032 13.0978168-5.303586 17.5645578-3.535553 4.466741-8.205259 6.7003665-14.008605 6.7003665-6.479554 0-11.2691-2.9169721-14.368128-8.7504064h-.168797v27.6041435h-3.887936v-63.1983427h3.887936v8.9197132h.168797c1.549769-3.1847012 3.768096-5.6432191 6.656-7.3765737 2.887395-1.7333546 6.063937-2.5997769 9.529116-2.5997769zm-.158088 3.5697211c-5.092972 0-9.033434 1.6884781-11.821896 5.0659442-2.787952 3.3769562-4.182183 7.3454662-4.182183 11.90451v5.4458645c0 4.3341514 1.379952 8.0558407 4.139856 11.1660877 2.759904 3.109737 6.387251 4.6646056 10.88255 4.6646056 4.467251 0 8.094597-1.8924622 10.88306-5.6778965 2.787952-3.7854342 4.182183-8.7595856 4.182183-14.9229641 0-5.4035378-1.28051-9.6953625-3.84102-12.8759841-2.56051-3.1801115-5.974693-4.7701673-10.24255-4.7701673zm36.457562 41.8167331c1.764972 0 3.656414-.4783427 5.673817-1.4350279v-3.6304064c-1.849116 1.0413387-3.572271 1.562008-5.169466 1.562008-2.241785 0-3.831841-.6685578-4.770678-2.0051634-.938326-1.3366055-1.408-3.4962868-1.408-6.4795538v-28.5348207h11.348144v-3.545753h-11.348144v-12.5368605c-.616542.2251474-1.260621.4361689-1.933259.6331665-.672637.2251474-1.316717.4502438-1.933259.6753913v11.2283027h-7.733546v3.545753h7.733546v29.0412112c0 7.654502 3.180112 11.481753 9.540845 11.481753z" fill="#fff"/></svg>