<svg height="158" preserveAspectRatio="xMidYMid" viewBox="0 0 512 158" width="512" xmlns="http://www.w3.org/2000/svg"><path d="m283.431524 27.3685936h19.54547l-29.787099 99.4795314h-27.763451l-29.614349-99.4054956h19.54547l24.03698 82.8461396zm73.791552 99.4795314h-14.807174l-1.357324-4.935724c-6.443475 4.183785-13.960548 6.412336-21.643153 6.416442-13.277099 0-18.953183-9.106412-18.953183-21.643153 0-14.8071744 6.416442-20.4585792 21.198938-20.4585792h17.472465v-7.6503733c0-8.0699099-2.245754-10.9079516-13.894065-10.9079516-6.771115.0680294-13.518006.82044-20.137757 2.2457547l-2.245754-13.8940651c8.120712-2.2382526 16.501975-3.3917136 24.92541-3.4303286 22.827726 0 29.614348 8.0699099 29.614348 26.2827341zm-18.188145-27.4673078h-13.44985c-5.972227 0-7.601016 1.6534678-7.601016 7.1814798 0 4.935724 1.628789 7.403587 7.403587 7.403587 4.820979-.076995 9.546226-1.357986 13.745993-3.726472zm46.869642-45.2852743v50.7392501c0 3.874544 1.628789 5.824155 5.824155 5.824155s12.339312-2.68997 18.953183-6.120298v-50.4431071h18.212824v72.7525821h-13.894065l-1.776861-6.120298c-9.068035 4.547216-18.987896 7.144874-29.120776 7.625694-12.092525 0-16.411284-8.514125-16.411284-21.495081v-52.7628971zm52.681458 72.7525821v-102.4656449l18.212824-2.4678624v104.9335073zm72.525539-1.406681c-5.136424 1.793477-10.527222 2.751656-15.96707 2.838041-13.277099 0-20.014364-6.26837-20.014364-19.249326v-40.4729427h-10.883273v-14.4616734h10.883273v-18.0647525l18.212825-2.4678623v20.6066507h18.657039l-1.184574 14.4616734h-17.472465v38.0050808c-.359523 2.748288 1.298633 5.360196 3.938708 6.204205.848945.271465 1.747246.345501 2.625805.212237 3.089373-.089836 6.152489-.596205 9.106413-1.505396z"/><path d="m-0 0 78.6014161 157.745762 79.1443459-157.745762zm87.9299358 31.6626741h9.1557694v9.1557693h-9.1557694zm-18.2128242 36.5737201h-9.1310907v-9.1310907h9.1310907zm0-13.7213147h-9.1310907v-9.1064121h9.1310907zm0-13.6966361h-9.1310907v-9.1557693h9.1310907zm13.8200292 41.1392655h-9.1310907v-9.1557693h9.1310907zm0-13.7213147h-9.1310907v-9.1310907h9.1310907zm0-13.7213147h-9.1310907v-9.1064121h9.1310907zm0-13.6966361h-9.1310907v-9.1557693h9.1310907zm4.392795 4.590224h9.1557694v9.1310907h-9.1557694zm0 22.8524054v-9.1310907h9.1557694v9.1310907z" fill="#ffd814"/></svg>