<svg height="256" preserveAspectRatio="xMidYMid" viewBox="0 0 256 256" width="256" xmlns="http://www.w3.org/2000/svg" xmlns:xlink="http://www.w3.org/1999/xlink"><linearGradient id="a" x1="20.984803%" x2="75.846321%" y1="5.131764%" y2="100.365967%"><stop offset="0" stop-opacity=".2"/><stop offset=".79" stop-opacity=".05"/></linearGradient><path d="m127.998933 255.998933c56.091734 0 87.261867 0 107.630934-20.369066 20.369066-20.369067 20.369066-51.5392 20.369066-107.630934 0-56.0908797 0-87.261333-20.369066-107.6301863-20.369067-20.3687467-51.5392-20.3687467-107.630934-20.3687467-56.0908797 0-87.2998397 0-107.6300797 20.3687467-20.33027698 20.3688533-20.3688533 51.5393066-20.3688533 107.6301863 0 56.091734 0 87.261867 20.3688533 107.630934 20.3687467 20.369066 51.5392 20.369066 107.6300797 20.369066z" fill="#ef3939"/><path d="m211.221333 80.6334933c-6.1792-11.14176-16.808533-20.26496-26.814933-28.1528533-10.007467-7.8878933-19.8304-12.6402133-32.1088-16.048-12.2784-3.40768-24.826667-3.34464-37.467733-1.7424-12.64224 1.60224-23.5193603 4.48768-34.5590403 10.8507733-11.03968 6.3630934-19.6141867 14.1541334-27.3354667 24.2888534s-12.8516267 20.1988266-16.0541867 32.5297063c-3.20256 12.33056-4.3630933 25.992427-2.5490133 38.601494 1.8139733 12.610133 4.0171733 24.610133 10.5658667 35.5392l.5399466.9248 45.09088 78.1664c7.4830934.205866 15.5832537.295466 24.3010137.269866h12.805333c20.448.439467 40.9056-.165333 61.291733-1.812266 20.404267-2.2368 35.061334-7.250134 46.285867-18.548267 16.5088-16.5056 19.634133-40.1056 20.212267-78.282667z" fill="url(#a)"/><path d="m195.808 60.0850133c-13.426133-13.4165333-30.528-22.5505066-49.1424-26.2472533-18.615467-3.6967467-37.908267-1.7902933-55.43968 5.4784-17.5319467 7.2686933-32.51584 19.5732267-43.0577067 35.3582933-10.5418666 15.7850667-16.16832 34.3420797-16.16832 53.3244797 0 18.983467 5.6264534 37.540267 16.16832 53.325867 10.5418667 15.784533 25.52576 28.0896 43.0577067 35.357867 17.531413 7.268266 36.824213 9.175466 55.43968 5.4784 18.6144-3.697067 35.716267-12.830934 49.1424-26.247467 8.935467-8.907733 16.0256-19.492267 20.862933-31.146667 4.837334-11.6544 7.328-24.148266 7.328-36.768 0-12.618666-2.490666-25.113173-7.328-36.7673597-4.837333-11.6542933-11.927466-22.23872-20.862933-31.14656zm-5.754667 44.1945597c-15.835733 27.557227-31.6576 55.10176-47.466666 82.633494-1.246934 2.440533-3.105067 4.517333-5.393067 6.026666-2.286933 1.509334-4.926933 2.401067-7.6608 2.587734-3.018667.337066-6.068267-.245334-8.749867-1.672534-2.680533-1.4272-4.868266-3.632-6.274133-6.324266-10.0032-17.229867-19.9290667-34.574934-29.8549333-51.882667-6.07648-10.507733-12.1272534-21.041067-18.15232-31.600213-1.4302934-2.37088-2.2189867-5.073387-2.28864-7.8416003-.0696534-2.7682134.5821866-5.5069867 1.8914133-7.94688 1.3092267-2.4398934 3.2308267-4.4968534 5.5757867-5.9688534 2.34496-1.4718933 5.0325333-2.3079466 7.7984-2.4260266 2.9773866-.1826134 5.944.5008 8.54144 1.9678933 2.5975466 1.4669867 4.71488 3.6548267 6.09632 6.2993067 4.4801066 7.7262933 8.8829863 15.4525863 13.2864003 23.1793063 3.205333 5.562667 6.2944 11.125334 9.5776 16.6112 2.087466 3.790934 5.117866 6.978134 8.798933 9.253334 3.682133 2.274133 7.888 3.557333 12.2112 3.726933 6.5664.4064 13.0368-1.729067 18.0704-5.965867s8.2432-10.247466 8.965333-16.788266c0-1.0432 0-2.0864.231467-2.6272.023467-4.133334-.9024-8.216534-2.702933-11.936854-1.105067-2.049066-1.7472-4.3149863-1.883734-6.638933-.136533-2.32384.237867-4.6493867 1.095467-6.8133333.8576-2.1640534 2.1792-4.1140267 3.869867-5.71328 1.691733-1.5992534 3.712-2.8088534 5.92-3.5442134 2.208-.7352533 4.5504-.9783466 6.862933-.7121066 2.311467.26624 4.5376 1.0353066 6.520533 2.2532266 1.984 1.21792 3.6768 2.8552534 4.96 4.7970134s2.126934 4.1410133 2.4704 6.4433066c.4352 3.7006934-.3808 7.4405337-2.3168 10.6236797z" fill="#fff"/></svg>