<svg height="209" preserveAspectRatio="xMidYMid" viewBox="0 0 256 209" width="256" xmlns="http://www.w3.org/2000/svg" xmlns:xlink="http://www.w3.org/1999/xlink"><linearGradient id="a" x1="0%" x2="100%" y1="50%" y2="50%"><stop offset="0" stop-color="#2a3b8f"/><stop offset="1" stop-color="#29abe2"/></linearGradient><linearGradient id="b" x1="100%" x2="0%" y1="50%" y2="50%"><stop offset="0" stop-color="#b4d44e"/><stop offset="1" stop-color="#e7f716"/></linearGradient><path d="m255.996595 104.028579-27.804873 46.82085-38.990743-47.460042 38.990743-46.1816584z" fill="#166da5"/><path d="m225.155557 158.839336-42.346503-50.656006-25.407901 42.506301 39.470136 57.687123z" fill="#8fdb69"/><path d="m224.676163 48.8982261-41.867109 50.8158036-25.407901-42.5063011 39.470136-57.04793048z" fill="#166da5"/><path d="m96.9974616 48.8982261h127.6787014l-28.12447-48.73842798h-71.429762z" fill="url(#a)" opacity=".95"/><path d="m182.809054 99.8738278h70.630771l-25.407901-42.8258974h-70.79057" fill="url(#a)" opacity=".95"/><path d="m225.155557 158.999134h-128.3178936l28.1244696 48.738428h71.909156z" fill="url(#b)" opacity=".95"/><path d="m124.962133 207.737562-60.0840945-103.868781 60.8830855-103.868781h-65.8368273l-59.9242967 103.868781 59.9242967 103.868781z" fill="#010101"/><path d="m182.809054 108.023532h70.630771l-25.407901 42.825897h-70.79057" fill="url(#b)" opacity=".95"/></svg>