<svg height="181" preserveAspectRatio="xMidYMid" viewBox="0 0 512 181" width="512" xmlns="http://www.w3.org/2000/svg"><path d="m193.890432 0-102.8562891 122.797273h58.9077911l-24.559455 28.437264h-58.1671293l-63.33754107 29.729866 103.05793437-124.0898764h-59.1094365l24.5594547-28.4372633h58.1671298zm-134.4306996 28.4372633-23.2668518 28.4372633h-7.7556173v65.9227464h11.6334259l-24.5594547 28.437264h-15.5112345v-122.7972737zm138.3085076 0v122.7972737h-60.752335l24.559455-28.437264h7.755617v-64.6301435h-11.633426l24.559455-29.7298662z" fill="#f7a41d"/><path d="m461.717748 27.9202222c18.484221 0 37.744004 7.1093158 50.282252 18.0964403l-16.803837 19.3890431c-9.177481-8.1433981-21.715729-12.9260288-33.478415-12.9260288-21.974249 0-39.036607 16.6745772-39.036607 38.131785 0 21.7157282 17.191618 38.2610452 39.165867 38.2610452 7.249706 0 16.251491-2.878417 24.17309-6.911263l-.001416-17.260411-38.778086-18.0964402h62.044938v50.4115122c-13.184549 9.436001-31.022469 15.511235-48.731129 15.511235-37.485483 0-66.052007-26.88614-66.052007-62.4327194 0-35.2880586 29.083565-62.1741984 67.21535-62.1741984zm-125.641.5170411v19.3890432l-68.507952 80.1413785h69.800555v23.266852h-109.871244v-18.096441l68.507952-81.4339809h-67.21535v-23.2668518zm43.948498 0v122.7972737h-28.437263v-122.7972737z" fill="#121212"/></svg>