<svg height="117" preserveAspectRatio="xMidYMid" viewBox="0 0 512 117" width="512" xmlns="http://www.w3.org/2000/svg"><path d="m107.471744 114.705655h-91.1240352c-5.9681876 0-11.79080972-3.202442-14.55655521-8.588368-3.20244214-6.2593183-2.03791773-13.6831615 2.91131104-18.4868247l63.46658067-63.4665807h-45.5620178c-12.5186374 0-22.56266053-10.1895886-22.56266053-22.56266053h83.99132353c5.9681876 0 11.7908097 3.20244215 14.5565552 8.58836753 3.2024423 6.2593188 2.0379173 13.6831619-2.9113111 18.4868251l-63.4665806 63.4665807h52.5491642c12.5186375 0 22.7082258 10.1895886 22.7082258 22.5626606zm360.711438-114.705655c-13.100899 0-24.746144 5.67705653-32.897815 14.7021208-8.15167-9.02506427-19.796915-14.7021208-32.897814-14.7021208-24.163882 0-43.960797 20.6703084-43.960797 44.83419v69.871465c12.518637 0 22.562661-10.189589 22.562661-22.5626606v-47.4543699c0-11.6452442 9.025064-21.5437017 20.670308-21.9803984 12.227506-.4366966 22.271529 9.3161953 22.271529 21.3981362v48.0366321c0 12.5186376 10.189589 22.5626606 22.562661 22.5626606v-70.1625961c0-11.6452441 9.025064-21.5437017 20.670308-21.9803983 12.227507-.4366967 22.27153 9.3161953 22.27153 21.3981361v48.0366322c0 12.5186371 10.189588 22.5626601 22.563458 22.5626601v-69.8714645c.144768-24.0183161-19.652147-44.6886245-43.816029-44.6886245zm-246.588045 58.2262208c0 32.169987-26.056234 58.2262212-58.226221 58.2262212s-58.22622-26.0562342-58.22622-58.2262212 26.056233-58.2262208 58.22622-58.2262208 58.226221 26.0562338 58.226221 58.2262208zm-22.56266 0c0-19.6513495-16.012211-35.6635602-35.663561-35.6635602-19.651349 0-35.66356 16.0122107-35.66356 35.6635602s16.012211 35.6635602 35.66356 35.6635602c19.65135 0 35.663561-16.0122107 35.663561-35.6635602zm148.040166 0c0 32.169987-26.056234 58.2262212-58.226221 58.2262212s-58.226221-26.0562342-58.226221-58.2262212 26.056234-58.2262208 58.226221-58.2262208 58.226221 26.0562338 58.226221 58.2262208zm-22.562661 0c0-19.6513495-16.01221-35.6635602-35.66356-35.6635602-19.651349 0-35.66356 16.0122107-35.66356 35.6635602s16.012211 35.6635602 35.66356 35.6635602c19.65135 0 35.66356-16.0122107 35.66356-35.6635602z" fill="#0b5cff"/></svg>