<svg height="233" viewBox="0 0 1115 233" width="1115" xmlns="http://www.w3.org/2000/svg"><path d="m371.793 118.563014c6.05 37.265-26.042 58.268-58.54 60.688-20.685 42.891-93.556 71.855-156.811 40.658-27.039 4.126-41.86-2.693-53.301-15.7 23.119-30.004 93.1-84.009 178.594-56.137 45.629 14.882 57.459-20.082 46.018-33.191-43.06-49.3351002-140.266-4.927-143.781-1.228 38.193-58.9321002 174.791-75.4680002 187.821 4.91zm-130.921-67.7289002c.237-.0852-31.044-11.2171-74.797 7.8418-1.761-.659-3.487-1.4101-5.171-2.2503 42.08-28.1962 78.971-40.1634 110.506-35.5095-19.097-22.17854001-110.861-38.4758-163.435 14.6607-64.9960002-12.9048-110.45570017 42.6523-107.87007617 93.3852002 2.585626 50.733 57.45837597 82.321 88.72247597 73.764.7514-.103 1.5131-.103 2.2645 0 6.9288-33.533 35.2191002-111.5409002 149.7801002-151.8919002zm261.74 46.3346 5.83-25.8437h-97.882l-2.213 10.0067c-2.552 8.8476 4.377 15.121 11.829 14.9164h45.342l-80.374 71.5989002-5.425 24.019h103.678l5.966-26.304h-65.57zm65.3 20.8313002c-4.597-1.176-30.335-5.114-28.729-14.047 1.808-10.0745002 14.009-11.0291002 19.941-10.8416002 12.218.358 16.072 5.779 16.714 7.6886002 1.69 5.114 5.593 7.688 11.306 7.688h19.299c2.112-12.0524002 2.687-39.8565002-42.148-39.8565002-14.398 0-33.579 3.6481-46.271 18.394-6.759 7.91-18.504 27.5485002-6.523 42.3115002 6.27 7.45 22.612 13.28 40.154 16.74 11.339 2.251 17.338 6.819 16.088 12.223-.761 3.631-5.273 11.814-21.97 11.797-7.469 0-23.659-1.193-20.566-18.121h-30.521c-3.582 15.342-4.901 42.124 41.641 42.124 17.947 0 54.484-2.302 63.998-40.795 6.861-27.65-24.048-33.122-32.413-35.253zm107.886 42.619c-2.632 2.453-5.719 4.357-9.083 5.604-3.364 1.246-6.939 1.809-10.52 1.658-23.051.221-20.449-22.792-17.305-36.686 3.143-13.893 10.562-36.2766002 32.481-36.2254002 15.53 0 17.322 10.1434002 18.116 13.1264002h31.416c-1.115-33.4468002-26.532-39.8396002-44.496-39.3963002-49.245 1.2274-63.492 42.7543002-67.903 62.0523002-12.86 56.375 22.882 63.416 39.985 63.416 14.026 0 44.733-3.41 62.765-39.414h-22.426c-6.473-.238-9.464 2.66-13.03 5.848zm128.285 11.558c-9.06 10.782-21.651 17.931-35.489 20.15-27.293 4.551-64.81 3.409-55.363-36.226 3.025-12.649 7.706-20.934 17.119-27.173 15.767-10.45 36.706-11.933 43.499-12.683 2.316-.256 19.486-1.552 22.426-11.797 2.873-9.9728002-12.877-10.7911002-17.288-10.8422002-13.52-.1534-18.099 5.2846-20.28 8.5232002h-30.081c12.151-32.2531002 45.629-33.5146002 54.755-33.5146002 10.139 0 50.8 0 43.043 33.9926002-11.864 51.926-12.371 57.108-22.341 69.57zm-13.52-40.914c-4.833 2.677-16.9 5.302-18.826 5.865-6.185 1.841-18.015 2.659-23.761 8.08-4.918 4.688-13.604 24.054 7.03 24.463 12.777.238 28.73-7.007 33.259-28.043.946-4.756 2.366-10.365 2.366-10.365zm77.4-95.1748002h-16.224l-35.252 155.7948002h31.416l31.856-140.8443002c1.385-4.4323.49-14.5243-11.796-14.9505zm81.439 118.6488002h22.459c-7.064 14.388-25.349 39.431-62.799 39.414008-47.791 0-44.851-43.011008-39.967-63.416008 13.52-56.6995002 51.155-62.0524002 67.919-62.0524002 22.341 0 57.34 9.3419 39.562 71.1044002h-77.738c-1.893 8.183-3.515 28.315 17.914 28.077 11.272-.12 15.497-4.228 16.511-4.756 2.974-1.501 5.678-8.183 16.139-8.371zm-45.883-35.322h45.781c3.921-22.1611002-9.683-24.4625002-17.356-24.4625002-6.574 0-22.222 2.4037-28.425 24.4625002zm113.231-34.8784002c-21.044 14.4732-28.006 37.7594002-30.423 48.9254002-1.926 8.797-13.232 58.421-13.232 58.421h31.445s11.92-54.551 14.01-62.035c2.49-8.745 10.58-32.3895002 41.92-31.4178002l7.26-27.0541c-25.35-.8183-42.08 7.0405-51 13.1605zm54.85-36.6517.8-3.7845h16.9l-.82 3.7845h-6.06l-3.38 16.6723h-4.57l3.47-16.6723zm27.82-3.7845 1.55 14.8141 7.81-14.8141h6.22l-4.29 20.4568h-4.13l3.72-16.2802-8.58 16.2802h-3.38l-1.96-16.2802-3.03 16.2802h-4.21l4.26-20.4568z" fill="#236bf5"/></svg>