<svg height="233" viewBox="0 0 373 233" width="373" xmlns="http://www.w3.org/2000/svg"><path d="m371.793 118.563014c6.05 37.265-26.042 58.268-58.54 60.688-20.685 42.891-93.556 71.855-156.811 40.658-27.039 4.126-41.86-2.693-53.301-15.7 23.119-30.004 93.1-84.009 178.594-56.137 45.629 14.882 57.459-20.082 46.018-33.191-43.06-49.3351002-140.266-4.927-143.781-1.228 38.193-58.9321002 174.791-75.4680002 187.821 4.91zm-130.921-67.7289002c.237-.0852-31.044-11.2171-74.797 7.8418-1.761-.659-3.487-1.4101-5.171-2.2503 42.08-28.1962 78.971-40.1634 110.506-35.5095-19.097-22.17854001-110.861-38.4758-163.435 14.6607-64.9960002-12.9048-110.45570017 42.6523-107.87007617 93.3852002 2.585626 50.733 57.45837597 82.321 88.72247597 73.764.7514-.103 1.5131-.103 2.2645 0 6.9288-33.533 35.2191002-111.5409002 149.7801002-151.8919002z" fill="#236bf5"/></svg>