<svg xmlns="http://www.w3.org/2000/svg" viewBox="0 0 105 105"><linearGradient id="a" x1="94.33" x2="20.33" y1="59.37" y2="16.91" gradientUnits="userSpaceOnUse"><stop offset="0" stop-color="#dd1265"/><stop offset=".48" stop-color="#dd1265"/><stop offset=".94" stop-color="#fdb60d"/></linearGradient><linearGradient id="b" x1="50.33" x2="79.66" y1="12.76" y2="93.76" gradientUnits="userSpaceOnUse"><stop offset=".14" stop-color="#087cfa"/><stop offset=".48" stop-color="#dd1265"/><stop offset=".96" stop-color="#087cfa"/></linearGradient><linearGradient id="c" x1="28.36" x2="50.02" y1="15.26" y2="92.26" gradientUnits="userSpaceOnUse"><stop offset=".28" stop-color="#dd1265"/><stop offset=".97" stop-color="#fdb60d"/></linearGradient><path fill="url(#a)" d="M100.5 41.73 33.2 4.38l45.06 66.95 9.26-6.07z"/><path fill="url(#b)" d="M73.65 26.5 65.22 5.89 46.57 24.25l7.63 66.62 18.07 9.51 28.23-16.49z"/><path fill="url(#c)" d="M33.2 4.38 4.5 23.71l10.67 65.93 27.52 10.58 35.57-28.89z"/><path d="M22.5 22.5h60v60h-60z"/><path fill="#fff" d="M29.98 71.16h22.5v3.75h-22.5zM30 29.92h10.3a9 9 0 0 1 6.57 2.29 7.08 7.08 0 0 1 1.94 5.16v.06a7 7 0 0 1-4.84 7l5.52 8.06h-5.81l-4.83-7.22H35v7.22h-5zm10 11c2.42 0 3.81-1.29 3.81-3.19v-.06c0-2.13-1.48-3.23-3.9-3.23H35v6.48zm12.93-11h8.8c7.09 0 12 4.87 12 11.22v.07c0 6.35-4.9 11.28-12 11.28h-8.8zm5 4.48V48h3.84a6.43 6.43 0 0 0 6.8-6.74v-.06a6.49 6.49 0 0 0-6.8-6.81z"/></svg>