<svg viewBox="0 0 50.901413 35.587231" xmlns="http://www.w3.org/2000/svg"><g transform="translate(-44.716818 -123.45599)"><g transform="translate(.205609 -.116006)"><path d="m45.500999 141.6611 33.587.11432c1.056879-.0391 4.789127-.91091 5.411795-1.33155-2.612272-3.04465-2.114527-5.81381-.09125-8.54821 1.647125 1.11014 2.843811 2.55719 3.600314 5.34181 2.339619-.19025 4.227781-.44161 6.254232.77805-1.328552 2.55708-3.985762 4.0831-7.28531 3.63249-1.727663 3.82725-5.40352 9.60581-10.236924 12.72108-3.358534 1.72572-6.810208 3.10907-11.08743 3.67965-2.775422.42209-5.239261.19795-7.372211-.00077-.980694-.0915-2.311484-.36788-3.223677-.59854-1.959795-.49568-3.456928-1.6948-4.596391-2.49396-4.090392-3.66841-5.541908-8.06665-4.96015-13.29407z" fill="#099cec" stroke="#066da4" stroke-width="1.741169"/><rect fill="#099cec" height="5.640202" ry=".01044" stroke="#066da4" stroke-width=".871544" width="6.298861" x="66.63219" y="124.00777"/><g fill="#066da4"><rect height="2.858445" ry=".015252" width=".468194" x="68.105421" y="125.398647"/><rect height="2.858445" ry=".015252" width=".468194" x="69.547526" y="125.398647"/><rect height="2.858445" ry=".015252" width=".468194" x="70.989626" y="125.398647"/></g><rect fill="#099cec" height="5.640202" ry=".01044" stroke="#066da4" stroke-width=".871544" width="6.298861" x="47.735611" y="135.288165"/><g fill="#066da4"><rect height="2.858445" ry=".015252" width=".468194" x="49.208845" y="136.679036"/><rect height="2.858445" ry=".015252" width=".468194" x="50.65095" y="136.679036"/><rect height="2.858445" ry=".015252" width=".468194" x="52.09305" y="136.679036"/></g><rect fill="#099cec" height="5.640202" ry=".01044" stroke="#066da4" stroke-width=".871544" width="6.298861" x="54.034471" y="135.288165"/><g fill="#066da4"><rect height="2.858445" ry=".015252" width=".468194" x="55.507706" y="136.679026"/><rect height="2.858445" ry=".015252" width=".468194" x="56.949811" y="136.679026"/><rect height="2.858445" ry=".015252" width=".468194" x="58.391911" y="136.679026"/></g><rect fill="#099cec" height="5.640202" ry=".01044" stroke="#066da4" stroke-width=".871544" width="6.298861" x="60.33333" y="135.288165"/><g fill="#066da4"><rect height="2.858445" ry=".015252" width=".468194" x="61.806562" y="136.679017"/><rect height="2.858445" ry=".015252" width=".468194" x="63.248667" y="136.679017"/><rect height="2.858445" ry=".015252" width=".468194" x="64.690767" y="136.679017"/></g><rect fill="#099cec" height="5.640202" ry=".01044" stroke="#066da4" stroke-width=".871544" width="6.298861" x="66.632189" y="135.288165"/><g fill="#066da4"><rect height="2.858445" ry=".015252" width=".468194" x="68.105419" y="136.679007"/><rect height="2.858445" ry=".015252" width=".468194" x="69.547524" y="136.679007"/><rect height="2.858445" ry=".015252" width=".468194" x="70.989624" y="136.679007"/></g><rect fill="#099cec" height="5.640202" ry=".01044" stroke="#066da4" stroke-width=".871544" width="6.298861" x="72.931049" y="135.288165"/><g fill="#066da4"><rect height="2.858445" ry=".015252" width=".468194" x="74.404281" y="136.679007"/><rect height="2.858445" ry=".015252" width=".468194" x="75.846386" y="136.679007"/><rect height="2.858445" ry=".015252" width=".468194" x="77.288486" y="136.679007"/></g><rect fill="#099cec" height="5.640202" ry=".01044" stroke="#066da4" stroke-width=".871544" width="6.298861" x="54.034471" y="129.64797"/><g fill="#066da4"><rect height="2.858445" ry=".015252" width=".468194" x="55.507704" y="131.038824"/><rect height="2.858445" ry=".015252" width=".468194" x="56.949809" y="131.038824"/><rect height="2.858445" ry=".015252" width=".468194" x="58.391909" y="131.038824"/></g><rect fill="#099cec" height="5.640202" ry=".01044" stroke="#066da4" stroke-width=".871544" width="6.298861" x="60.33333" y="129.64797"/><g fill="#066da4"><rect height="2.858445" ry=".015252" width=".468194" x="61.80656" y="131.038814"/><rect height="2.858445" ry=".015252" width=".468194" x="63.248665" y="131.038814"/><rect height="2.858445" ry=".015252" width=".468194" x="64.690765" y="131.038814"/></g><rect fill="#099cec" height="5.640202" ry=".01044" stroke="#066da4" stroke-width=".871544" width="6.298861" x="66.63219" y="129.64797"/><g fill="#066da4"><rect height="2.858445" ry=".015252" width=".468194" x="68.105418" y="131.038804"/><rect height="2.858445" ry=".015252" width=".468194" x="69.547523" y="131.038804"/><rect height="2.858445" ry=".015252" width=".468194" x="70.989623" y="131.038804"/></g></g><g transform="translate(3.146187 .117982)"><ellipse cx="57.975761" cy="148.78691" fill="#fff" rx="1.532455" ry="1.515615"/><path d="m58.959437 148.96743c-.04146.44488-.409643.83681-.979111.80678-.575329-.0303-.988242-.41585-.988243-.92763.000001-.56925.349445-1.0136.923987-1.0481.0904-.005.280151.028.410065.12076.06156.044.191055.12932.133757.18278-.05963.0557-.333681.29402-.164817.52739.07465.10316.264012.1667.436371.13118.07489-.0154.115131-.0715.150923-.0209.06031.0413.05959.14369.07707.22785z" fill="#4d5c64"/></g><g transform="matrix(1.0240104 0 0 1.0344405 -1.48843 -5.208342)"><path d="m49.61058 153.67436c2.938444.17513 5.598803-.12731 8.398204-1.66852 1.999559 2.45229 4.23651 4.79189 7.258051 5.7842-3.012934.28666-5.391631.33153-8.737777-.40972-3.064994-.55919-5.311914-2.29107-6.918478-3.70596z" fill="#fff"/><path d="m48.887558 152.70107c3.103374.21762 6.10454.14365 8.620673-1.47386l.500553.77863c-2.396242 1.29278-4.595085 2.00475-8.398204 1.66852z" fill="#066da5"/></g><path d="m45.762225 141.71194.828468-.0184c1.236769 8.46374 2.935758 15.99215 18.865316 14.85466 7.351474-1.5022 11.278174-4.29304 14.453948-7.39297 2.478544-2.41935 4.495073-5.40614 6.042696-8.01852.682314-1.15174 2.047205-2.89985 2.261814-4.01525 2.161004-.37494 4.620347-.34845 6.254232.77805-1.359996 2.95323-4.504569 3.87308-5.788866 3.88666-.623458.007-1.089093-.0177-1.440827-.0873-1.105005 2.77926-2.938614 5.38517-4.653164 7.62548-1.404946 1.83577-3.201077 3.38995-5.155978 4.812-.763421.55534-1.693297.90211-2.554266 1.3205-1.482373.72036-3.299406 1.35955-5.07424 1.86645-.935582.26721-1.859439.55789-2.716368.67328-1.165596.13302-2.321985.32711-3.397145.33756-.949437.009-1.838363.0422-2.714255.009-1.354335-.0516-2.650158-.2073-3.878267-.43108-.95732-.17444-1.866546-.41527-2.677455-.72272-1.080642-.40972-2.001931-.92251-2.777379-1.40662-.639012-.39893-1.557322-1.23019-2.256255-1.8004-.23776-.19397-.531289-.63385-.664759-.82673-1.037038-1.49862-1.31699-2.07127-1.980838-3.60763-.35822-.82904-.562792-1.64361-.814506-2.48269-.116507-1.00807-.305297-2.12646-.332228-3.05944-.02743-.95029.108639-1.71116.170322-2.29362z" fill="#7e7e7e" fill-opacity=".368421" opacity=".314"/></g></svg>
