<svg viewBox="0 0 53.952435 37.470455" xmlns="http://www.w3.org/2000/svg"><g fill="#066da5" transform="translate(-77.450621 -138.3982)"><path d="m77.589593 156.43293 37.911367.13364c1.19295-.0456 2.15202-.3189 2.85486-.81058-2.27696-3.36724-.92278-6.65961 1.07047-9.9388 2.23257 1.03128 3.95671 2.88259 4.81061 6.13754 2.64085-.22238 5.30551-.5162 7.16615 1.60205-1.5711 4.42631-4.67635 5.35996-8.32998 5.04519-1.9501 4.4737-4.76574 9.04396-10.22145 12.68542-3.79095 2.01722-7.68703 3.63423-12.51495 4.30118-3.132757.49338-5.91382.23139-8.321388-.001-1.106959-.10701-2.609091-.43003-3.638734-.69966-2.212114-.57928-3.902005-1.98094-5.188182-2.91508-4.617032-4.28804-6.255433-9.42917-5.598773-15.53955z"/><rect height="5.220796" ry=".188989" width="5.64602" x="101.38415" y="138.39821"/><rect height="5.220796" ry=".188989" width="5.64602" x="81.647514" y="150.4344"/><rect height="5.220796" ry=".188989" width="5.64602" x="88.229027" y="150.4344"/><rect height="5.220796" ry=".188989" width="5.64602" x="94.803574" y="150.4344"/><rect height="5.220796" ry=".188989" width="5.64602" x="101.38415" y="150.4344"/><rect height="5.220796" ry=".188989" width="5.64602" x="107.94572" y="150.4344"/><rect height="5.220796" ry=".188989" width="5.64602" x="88.229027" y="144.46042"/><rect height="5.220796" ry=".188989" width="5.64602" x="94.803574" y="144.46042"/><rect height="5.220796" ry=".188989" width="5.64602" x="101.38415" y="144.46042"/></g></svg>
