<svg xmlns="http://www.w3.org/2000/svg" viewBox="0 0 105 105"><linearGradient id="a" x1="51.74" x2="93.14" y1="100.56" y2="40.23" gradientUnits="userSpaceOnUse"><stop offset=".02" stop-color="#ff45ed"/><stop offset=".4" stop-color="#dd1265"/><stop offset="1" stop-color="#fdb60d"/></linearGradient><linearGradient id="b" x1="7.01" x2="71.46" y1="77.63" y2="17.01" gradientUnits="userSpaceOnUse"><stop offset=".02" stop-color="#ff45ed"/><stop offset=".66" stop-color="#dd1265"/></linearGradient><linearGradient id="c" x1="69.78" x2="70.44" y1="2.09" y2="40.18" gradientUnits="userSpaceOnUse"><stop offset="0" stop-color="#dd1265"/><stop offset=".06" stop-color="#df1961"/><stop offset=".7" stop-color="#f46330"/><stop offset="1" stop-color="#fc801d"/></linearGradient><path fill="url(#a)" d="m74.71 25.92-34.03 43L33 100.36h51.66l15.84-64.37z"/><path fill="url(#b)" d="M71.68 4.36H20.43L4.5 68.92h76.26z"/><path fill="url(#c)" d="M74.35 22.62 71.68 4.36l-5.76 18.26z"/><path d="M22.5 22.5h60v60h-60z"/><path fill="#fff" d="M29.98 71.16h22.5v3.75h-22.5zm24.56-23.48h-2.45v-4.12h3.16l.8-4.78h-2.83v-4.13h3.54l.81-4.71h4.26L61 34.65h4.7l.81-4.7h4.25l-.8 4.7h2.45v4.13h-3.16l-.81 4.78h2.84v4.12h-3.55l-.84 4.84h-4.25l.83-4.84H58.8l-.8 4.84h-4.3zm9.64-4.12.82-4.78h-4.69l-.8 4.78zM30 29.94h10.34a8.94 8.94 0 0 1 6.58 2.29 7 7 0 0 1 1.93 5.16v.06a7 7 0 0 1-1.34 4.47A7.74 7.74 0 0 1 44 44.45l5.51 8.06h-5.8l-4.67-6.93H35v6.93h-5zm10 11a4.14 4.14 0 0 0 2.84-.94 3 3 0 0 0 1-2.32v-.06a2.87 2.87 0 0 0-1-2.42 4.54 4.54 0 0 0-2.87-.81H35v6.51z"/></svg>